<?xml version="1.0" encoding="utf-8"?>
<!-- Generator: Adobe Illustrator 19.2.1, SVG Export Plug-In . SVG Version: 6.00 Build 0)  -->
<svg version="1.1" id="Layer_1" xmlns="http://www.w3.org/2000/svg" xmlns:xlink="http://www.w3.org/1999/xlink" x="0px" y="0px"
	 viewBox="0 0 1271.5 400.1" style="enable-background:new 0 0 1271.5 400.1;" xml:space="preserve">
<style type="text/css">
	.st0{fill:#1C1D33;}
	.st1{opacity:0.24;fill:#676678;enable-background:new    ;}
	.st2{fill:none;}
	.st3{fill:#D4C89C;}
	.st4{fill:#F2E9BA;}
	.st5{fill:#FBF6E1;}
	.st6{fill:#A3966E;}
	.st7{fill:#FCBF94;}
	.st8{fill:#F0A570;}
	.st9{opacity:0.74;fill:#FCBF94;enable-background:new    ;}
	.st10{fill:#FBB990;}
	.st11{fill:#083F57;}
	.st12{opacity:0.44;fill:#CF7C52;enable-background:new    ;}
	.st13{fill:#09162B;}
	.st14{fill:#60B2C4;}
	.st15{fill:#04233C;}
	.st16{fill:#D5EEF6;}
	.st17{fill:#A5D0DB;}
	.st18{fill:#535367;}
	.st19{fill:#A5A5B7;}
	.st20{fill:#2A2C3F;}
	.st21{fill:#474766;}
	.st22{fill:#131216;}
	.st23{fill:#595876;}
	.st24{fill:#111113;}
	.st25{fill:#F4EDF5;}
	.st26{opacity:0.94;fill:#FFFFFF;enable-background:new    ;}
	.st27{fill:#373651;}
</style>
<title>bottom-banner</title>
<rect y="0" class="st0" width="1271.5" height="400.1"/>
<path class="st1" d="M-2.5,139.8c1.4-0.8,31.5-16.5,63.7-3.2C93.8,150,96.8,180,96.9,181.2c18.9-1.3,37.2,6,47.1,19.1
	c11.1,14.6,10.1,33.7-2.7,48c7-3.8,16-3.4,21.8,0.9c4.5,3.1,6.7,8.6,5.5,14c1.1-1.1,16.9-15.8,40.4-13c17.7,2,32.5,13.1,37.4,28
	c0.6-0.6,12.4-11.8,24.6-8.3c10.7,3.1,18.9,16.6,17.1,32.4c-0.3,2.7-0.9,5.4-1.8,8c-0.2,0.7,0.4-0.1,1.8-1.8c1.1-1.5,1.7-2.2,2-2.6
	c1.2-1.7,26.1-22.8,55-12.8c19.4,6.7,33.3,25,35.4,46.5c2.2-0.6,36.5-10.2,63,13.1c20.4,17.9,21.6,42.6,21.8,47L0.7,400.1
	L-2.5,139.8z"/>
<path class="st2" d="M163.5,226.1c0.5,1.9-1.9,4.7-4.2,5.9c-4.8,2.5-11.5-0.3-11.7-2.9c-0.2-2.1,4-4.5,7.3-5.2
	S162.9,223.7,163.5,226.1z"/>
<path class="st3" d="M163.9,227c0.1,1.8-4.6,3.8-8.1,4.4c-3.3,0.5-8.3,0.3-8.6-1.5c-0.4-1.8,3.4-4.6,7.2-5.5
	C158.7,223.4,163.7,225.1,163.9,227z"/>
<path class="st3" d="M102.2,278.3c1.6-8.9,5-17.2,9.9-24.5c13.4-19.6,33.7-23.5,41-24.9c6.7-1.3,27.6-4.9,47.5,8.8
	c6.9,4.8,12.9,11,17.6,18.3L102.2,278.3z"/>
<path class="st4" d="M141.4,232.2c-12.1,7.3-21,19.8-24.5,34.6c22.6-10.1,46.8-15,71.2-14.3c-1.7-4.6-4.1-8.8-7.2-12.3
	c-5.3-6-12.1-10.2-19.6-11.8C154.6,228.6,147.9,229.9,141.4,232.2z"/>
<path class="st5" d="M199,254.2l16.1,1.4c-3.2-4.4-6.8-8.4-10.8-12c-7.7-6.9-16.5-11.9-26.1-14.9c6.9,3.7,12.7,9.4,16.8,16.5
	C196.7,248,198,251,199,254.2z"/>
<path class="st6" d="M120.8,244c-7.8,8.6-12.8,19.8-14.3,31.9l1.1-0.6C109.2,263.7,113.8,252.8,120.8,244z"/>
<path class="st6" d="M149.7,229.7c-6.8,9.6-10.7,21.3-10.9,33.5l1-0.7C140.2,250.7,143.6,239.3,149.7,229.7z"/>
<path class="st6" d="M173.5,227.9c9.8,5.7,17.6,14.7,22.3,25.7l-1.2-0.2C189.9,242.9,182.6,234.1,173.5,227.9z"/>
<path class="st5" d="M155.6,254.3c10.7-2.1,21.6-2.9,32.5-2.4c-1.4-3.8-3.3-7.3-5.6-10.4c-4.6-6.1-10.8-10.7-17.7-13.2l-6.4,0.5
	c2.1,2.7,3.4,5.9,3.7,9.4C163,247.4,156.2,253.7,155.6,254.3z"/>
<path class="st6" d="M159.9,257.8c47.2-8.6,87.8-0.5,90.6,18.2c2.8,18.7-33.1,40.9-80.4,49.5s-87.8,0.5-90.6-18.2
	C76.7,288.6,112.6,266.5,159.9,257.8z"/>
<path class="st4" d="M161.4,262.1c47.3-8.7,87.7-1.5,90.4,16c2.7,17.5-33.5,38.7-80.8,47.3s-87.7,1.5-90.4-16
	C78,291.9,114.2,270.7,161.4,262.1z"/>
<ellipse class="st7" cx="176" cy="313.7" rx="44.6" ry="34.6"/>
<path class="st8" d="M231.5,300.2l24.9,44c-11.1,6-24.2,5.2-34.6-2l-11.7-24.9c-1.5-0.3-3.6-0.7-6.2-1.4c-8.7-2.2-10.7-3.7-11.5-4.4
	c-1.8-1.6-3.2-3.6-4.2-5.8C202.8,308.9,217.9,306.9,231.5,300.2z"/>
<path class="st9" d="M218.5,310.3l18.3,32.4c4,2.8,8.4,4.7,13.1,5.6c2.9,0.5,5.8,0.7,8.7,0.4l-27.1-48.4L218.5,310.3z"/>
<path class="st10" d="M112.4,293.8c0.9-2,2-3.9,3.1-5.8c1.9-3,2.9-4.5,4.8-5.9c1.8-1.2,3.8-2,5.9-2.4c1.7-0.4,3.4-0.6,5.1-0.7
	L112.4,293.8z"/>
<path class="st11" d="M210.1,263.6c12.4-1,23.2,9.1,24.2,22.8s-8.3,25.5-20.7,26.6c-12.4,1-23.2-9.1-24.2-22.8
	C188.5,276.5,197.7,264.6,210.1,263.6z"/>
<path class="st8" d="M94.1,325.8c3.7-5.1,7.1-10.5,10.2-16.1c5.5-10.2,5.9-13.7,10.9-19.5c4-4.9,9-8.6,14.7-10.7
	c4.7-1.6,9.6-2.1,14.4-1.4c-0.4,0.5-9.7,11-6.4,24.2c1.5,5.6,4.7,10.5,9.1,13.7c-2.2,1.8-4.6,3.2-7.1,4.2c-3.6,1.4-4.7,0.9-8,2
	c-4.2,1.5-7.9,4-11,7.4c-2.6,2.7-4.7,5.9-6.2,9.4L94.1,325.8z"/>
<path class="st9" d="M96.1,327l3.5,2.2c2.2-3.6,6.4-10.7,14-23.2c6.4-10.6,10.2-16.6,17.4-19.9c2.1-0.9,4.3-1.6,6.6-1.8l3.7-3.2
	c-3.8-1-7.8-0.9-11.6,0.2c-6.5,2-10.5,6.9-15.6,14.2C107.3,305.4,101.3,316,96.1,327z"/>
<path class="st12" d="M137.5,284.4c-1.9,0.3-3.6,1.2-5.1,2.6c-3.1,3-2.6,6.9-4.4,17.4c-1.2,6.9-1.8,10.4-3.5,13.2
	c-2.1,3.5-3.9,4.1-8.3,8.8c-2.6,2.8-5,5.8-7.2,9.1l5.7,3.6c1.5-3.6,3.7-6.9,6.3-9.7c3.3-3.5,7.4-6,11.9-7.4c2.6-0.7,3.4-0.4,6.2-1.4
	c2.9-1,5.6-2.6,8-4.6l-6-2.2c-0.6,1-1.3,1.9-2.2,2.6c-2.5,2-5.7,2.9-8.8,2.5c0.1-2.6,0.5-5.2,1.3-7.7c0.3-1,0.7-2,1.2-2.9
	L137.5,284.4z"/>
<path class="st13" d="M211.2,269c9.1-0.8,17.1,6.7,17.8,16.7c0.7,10-6.1,18.8-15.2,19.5s-17.1-6.7-17.8-16.7S202.1,269.8,211.2,269z
	"/>
<path class="st14" d="M209.4,269.6c8.1-0.7,15.2,6,15.8,14.9c0.6,8.9-5.4,16.7-13.6,17.4c-8.1,0.7-15.2-6-15.8-14.9
	C195.2,278.1,201.3,270.3,209.4,269.6z"/>
<path class="st15" d="M198.9,268c-1.1,0-20.6,11-20.6,11l4.3,24.9l21.7,7.7c-1-0.6-11.2-6.4-13.1-19.4
	C189,278.1,198.3,268.6,198.9,268z"/>
<path class="st15" d="M134.1,287.3c-2.7,3-4.3,7.1-4.4,11.4c-0.1,8,5.5,12.8,6.1,13.3l17.8,6.4c-0.6-0.3-11.9-5.2-14.3-18.5
	c-1.5-8.7,1.4-17.7,7.5-23.5L134.1,287.3z"/>
<path class="st11" d="M159.6,270.5c12.5-1.1,23.3,9.2,24.3,22.9c1,13.7-8.4,25.6-20.8,26.7s-23.3-9.2-24.3-22.9
	C137.8,283.5,147.1,271.6,159.6,270.5z"/>
<path class="st13" d="M160.8,276.1c9.1-0.8,17.1,6.7,17.8,16.7s-6.1,18.8-15.2,19.5c-9.1,0.8-17.1-6.7-17.8-16.7
	C144.8,285.6,151.7,276.9,160.8,276.1z"/>
<path class="st14" d="M159,276.7c8.1-0.7,15.2,6,15.8,14.9c0.6,8.9-5.4,16.7-13.6,17.4c-8.1,0.7-15.2-6-15.8-14.9
	S150.9,277.4,159,276.7z"/>
<path class="st16" d="M202.9,280c0.7,1.3,3.1,1.4,4.7,0.7c3.1-1.2,5.1-5.6,4-7.2c-0.7-1.2-2.9-0.9-4.1-0.5
	C204.3,274.1,201.9,278.2,202.9,280z"/>
<path class="st16" d="M204.8,285c0,0.9-0.6,1.7-1.5,1.9c-0.8,0-1.5-0.7-1.7-1.6c-0.3-1.1,0.2-2.2,1.1-2.7
	C203.7,282.4,204.9,283.7,204.8,285z"/>
<path class="st16" d="M151.5,287.7c0.7,1.4,3.4,1.5,5.2,0.8c3.4-1.3,5.5-6.1,4.4-7.9c-0.8-1.3-3.2-0.9-4.5-0.5
	C153.1,281.3,150.5,285.8,151.5,287.7z"/>
<path class="st16" d="M153.7,293.2c0.1,1.1-0.6,2-1.6,2.1c-1,0.1-1.8-0.7-1.9-1.8c-0.3-1.2,0.2-2.4,1.2-2.9
	C152.4,290.3,153.8,291.7,153.7,293.2z"/>
<path class="st17" d="M171.9,291.1c0.5,3.6-0.3,7.3-2.4,10.2c-4.1,5.7-10.9,4.7-11.2,4.6C164.8,303.8,169.9,298.2,171.9,291.1z"/>
<path class="st17" d="M222.4,284.1c0.5,3.6-0.3,7.3-2.4,10.2c-4.1,5.7-10.9,4.7-11.2,4.6C215.2,296.7,220.3,291.2,222.4,284.1z"/>
<path class="st12" d="M181.8,277l17.2-9l6-4c-3.7,0.8-7.4,1.3-11.1,1.5c-1.4,0-2.9,0.3-4.2,0.9c-0.6,0.3-1.9,1.1-4.4,4.8
	C184,273.1,182.8,275,181.8,277z"/>
<path class="st8" d="M205,264c-1.1-0.4-2.3-0.7-3.4-0.9c-1.6-0.4-3.3-0.6-5-0.4c-0.9,0.2-2.2,0.7-6.3,5.9c-1.1,1.4-2.6,3.4-4.3,5.9
	L205,264z"/>
<path class="st18" d="M1300.5,12.3v294.5c-2.1,2.4-4.3,4.9-6.5,7.3c-3.3,3.7-5.5,6.1-10.6,11.5c-28.6,30.2-55,48-55,48
	c-16.6,11.1-34.3,20.3-53,27.4l-552.6-0.3c310.4-43.5,426.4-113.7,471.4-174.1c47.1-65.3,101.5-125,162.1-178
	C1271.3,35.5,1286.1,23.4,1300.5,12.3z"/>
<path class="st18" d="M-1.6,229.1c0.8-0.5,17.1-10.9,34.8-2.1s19.4,28.7,19.5,29.4c10.3-0.9,20.2,3.9,25.8,12.6
	c6.1,9.9,5.5,22.5-1.5,31.7c3.5-0.6,7.1,0.8,9.3,3.6c1.7,2.5,2.3,5.6,1.5,8.5c1.4-1.1,9.5-7.5,20.8-5.9
	c13.6,1.9,19.8,13.6,20.4,14.7c7.1-1.8,16.9-3.2,21.9,1.9c5.8,5.9,2.9,17.7,5.2,18.1c1.7,0.3,2.7-6.4,7-11.8
	c9.2-11.4,26.4-11.4,29.7-11.4c17.7,0,29.6,10.6,32.5,13.4c4.8-2.8,10.6-3.5,16-2c3.6,1.1,6.9,3.3,9.3,6.3
	c3.7-3.4,16.4-14.1,34.8-14.2c20.6-0.1,39.9,13.2,49.5,33.9c10.4-2.6,21.3-1,30.5,4.4c20.3,11.8,26,37,26.8,40.8H0.1L-1.6,229.1z"/>
<path class="st19" d="M1058.4,311.7l-4.7,42.6l-23,0.9c-0.9,0.1-3,0.5-3.1,1.4c0.1,0.5,0.5,0.9,0.9,1.1c2.6,1.7,17.7,1.8,22.6,1.8
	l-19.2,12c-0.4,0.4-0.4,1,0,1.4c0.2,0.2,0.6,0.3,0.9,0.3l21.7-10.3l-3.7,20.5c-0.1,1,0.6,1.9,1.6,2c0.8,0.1,1.6-0.4,1.9-1.1
	l6.8-22.9l15.7-8.7c0.9-0.3,1.4-1.3,1.1-2.2c0,0,0,0,0,0v-0.1c-0.6-0.6-1.5-0.7-2.2-0.2l-16,4.9l5.6-43.5L1058.4,311.7L1058.4,311.7
	z"/>
<path class="st19" d="M1091.8,316.8l-2,41.1c0,0.3-0.2,0.5-0.5,0.5c0,0,0,0,0,0l0,0c-4.3-0.2-10.3-0.5-17.7-0.6
	c-4.5,0-11.9-0.1-12,0.4s6.4,1.4,9.4,1.8c6.8,0.9,12.6,1.4,16.8,1.6c0.3,0,0.5,0.3,0.5,0.5c0,0.2-0.1,0.3-0.2,0.4l-17.6,11.1
	l-0.1,0.1c-2.5,2.2-3.6,3.5-3.3,4c0.4,0.6,3.4-0.5,8.9-3.3l0,0l12.2-7.6c0.2-0.2,0.6-0.1,0.7,0.2c0.1,0.2,0.1,0.4,0,0.5l-8.1,15.1
	c-2.1,4.2-3,6.5-2.6,6.8s2-1.1,4.6-4.3l0,0l14-18.8c0.1-0.1,0.3-0.2,0.5-0.2c17.2,1.8,21.6,1.8,21.7,1.3c0.1-0.7-10-3-15.1-4.1
	c-2.2-0.4-4-0.8-5.5-1c-0.2,0-0.4-0.3-0.4-0.5c-0.2-9.3,1-16.9,1.2-22.2c0.6-11.4,1-22.8,0.6-23c-0.7-0.3-4.4-0.1-5.7,0
	C1092,316.4,1091.8,316.6,1091.8,316.8z"/>
<path class="st0" d="M-2.5,246.3c8.1-9.5,21.5-12.6,32.9-7.6c12.4,5.7,18.9,19.6,15.3,32.8c12.3-5,26.1,0.1,31.8,10.9
	c5,9.5,2.9,21.7-5.5,29.5c2.7-1.6,5.9-1.9,8.8-0.8c3.3,1.5,5.4,4.8,5.5,8.4c0.6-0.6,9.4-9.8,22.4-7.4s17.9,14.3,18.2,15
	c3.2-3.7,8.1-5.3,12.9-4.2c6.2,1.7,8.3,7.9,8.5,8.7c1.9,6-1.3,11.6-0.5,11.9c1.1,0.5,4.2-9.3,12-15.8c7.4-6.3,16.2-7.2,19.3-7.5
	c22.1-2.3,38.4,17.2,39.8,19c5.4-6.3,14.9-7.1,21.3-1.7c4.9,4.2,6.6,11,4.2,17c7.2-20.6,29.8-31.5,50.4-24.2
	c11.3,4,20.3,12.9,24.2,24.2c9.9-2,20.1-0.8,29.2,3.4c23.8,11.3,26.9,39.1,27.1,40.9l-376.6,1.3L-2.5,246.3z"/>
<path class="st18" d="M86.3,368.3c0.2-0.8,6.4-19.8,25.4-24.2c14-3.3,28.9,2.8,37.2,15.1c6.1-3.6,13.2-5.1,20.2-4.2
	c17.8,2.4,25.6,20.1,26,21.1c-0.9-1.6-9.3-15.4-25.8-17.1c-7.6-0.7-15.3,1.2-21.7,5.4c-10.1-16.4-31.6-21.5-48-11.3
	C93.8,356.8,89.1,362.1,86.3,368.3z"/>
<path class="st18" d="M264.8,361.7c5.3-7.7,14.6-11.7,23.9-10.1c10.5,2,18.6,11.2,19.2,22.5c5.8-3.8,13-4.4,18.5-1.3
	c7.6,4.2,11.1,14.9,6.8,24.5c2.6-8.5-1.4-17.4-8.9-20.7c-6.6-2.8-14.3-1.2-19.2,4.1c2.3-12.5-6.1-24.5-18.6-26.8
	C278.4,352.4,270.1,355.4,264.8,361.7z"/>
<path class="st18" d="M13,291.4c1.5-5.6,6.1-9.7,11.8-10.8c7-0.9,13.7,3.1,16.2,9.7c-4.4-7.6-14.1-10.1-21.7-5.7
	C16.6,286.2,14.4,288.6,13,291.4z"/>
<path class="st0" d="M1217.1,381.1c-0.6,1.4-0.6,2.9,0,4.2l0,0c0.3,0.5,1,0.7,1.6,0.5l10.2-3.5l0.7-0.2l2-0.7l1.1-0.4l11.7-4.1
	c0.6-0.1,1-0.7,0.8-1.2v-0.1l0,0c-0.9-1.9-2.5-3.2-4.5-3.8c0.2-4.2,2.5-10.3,10.9-17.2c0,0-11.6,4.8-14.4,16.7
	c-0.5,0-1.1,0.1-1.6,0.1c0.1-4.2,2.1-10.6,10.9-17.9c-4.8,2.2-8.9,5.8-11.8,10.3c2.2-7.1,6.4-13.3,12.2-17.8c0,0-9.5,3.9-16.7,21.4
	c-2.4-3-4-6.7-4.4-10.6c0.5-4.6,2.2-8.9,4.9-12.7c0,0-9.2,6.9-7.9,28.2c-2.6-2.8-6-4.9-9.7-5.9c-1.1-2.9-1.5-6-0.9-9
	c0,0-1.8,2.8-0.6,8.6c-1.1-0.3-2.1-0.5-3.2-0.6c1.2,0.5,2.3,1,3.5,1.6c1,3.4,2.4,6.6,4.3,9.5c-10.2-5.3-20.8-2.3-20.8-2.3
	C1207.9,374.2,1214,377.9,1217.1,381.1z M1214,368.1c3.3,1.8,6,4.6,7.8,8c-0.4,0.2-0.8,0.4-1.1,0.6
	C1218,374.3,1215.7,371.3,1214,368.1L1214,368.1L1214,368.1L1214,368.1z M1229.3,370.2c-0.4,1.1-0.8,2.2-1.1,3.3
	c-1.4-3.8-2.2-7.7-2.4-11.7C1226.5,364.8,1227.7,367.6,1229.3,370.2L1229.3,370.2z"/>
<path class="st18" d="M893,348.7c-0.6,1.5-0.6,3.1,0,4.5l0.1,0.1c0.4,0.6,1.1,0.7,1.7,0.4l11-4.7l0.8-0.3l2.2-0.9l1.2-0.5l12.6-5.4
	c0.7-0.2,1.1-0.8,0.9-1.5l-0.1-0.1c-0.9-1.9-2.7-3.3-4.8-3.7c0.3-4.5,2.8-11.2,11.9-19.3c0,0-12.5,6.1-15.7,19.1
	c-0.6,0.1-1.1,0.2-1.7,0.3c0.1-4.5,2.3-11.5,12-20.1c-5.2,2.8-9.6,6.9-12.8,12c2.5-7.9,7.1-14.9,13.4-20.2c0,0-10.2,5-18.2,24.4
	c-2.6-3.1-4.2-6.9-4.7-11c0.7-5,2.5-9.8,5.4-14c0,0-10,8.1-8.8,30.9c-2.8-2.8-6.4-4.7-10.3-5.5c-1.2-3-1.5-6.4-0.9-9.6
	c0,0-2,3.2-0.7,9.2c-1.1-0.2-2.3-0.3-3.5-0.3c1.3,0.4,2.5,0.9,3.7,1.4c1,3.5,2.5,6.8,4.5,9.9c-10.9-4.8-22.2-0.7-22.2-0.7
	C883.2,342.2,889.8,345.6,893,348.7z M889.9,335.1c4.5,2.4,7,5.3,8.3,8c-0.4,0.2-0.8,0.5-1.2,0.8C894,341.4,891.6,338.4,889.9,335.1
	L889.9,335.1L889.9,335.1z M906.2,336.1c-0.4,1.2-0.8,2.4-1.3,3.6c-1.4-4-2.3-8.1-2.4-12.4C903.3,330.4,904.5,333.3,906.2,336.1
	L906.2,336.1L906.2,336.1L906.2,336.1z"/>
<path class="st20" d="M1244,176.8c-0.8-0.4-5.3,2.1-7,3.9s-2.2,1.3-3.7,3.3c-1.5,1.9-3.1,3.6-4.9,5.2c-1.2,1-3.3,4-4.6,3.4
	s-1.7-2.1-1.1-2.6s5.7-5.4,5.7-5.8s2-2.2,2.9-2.9s4.5-4.1,5-5.2s2.3-3.5,0-3.9s-6.8-0.7-7.8-1.3c-1.4-0.6-2.9-1-4.4-1.4
	c0,0-3.3,0.1-3.9-0.7s-1.3-1.3-0.7-1.7s4.4,0.5,4.4,0.5s4.5,0.2,5.6,0.2c2.5,0.3,5,0.7,7.4,1.3c1.7,0.3,3.5,0.2,5.1-0.3
	c1.6-0.7,3.5-0.1,4.4,1.4c1.3,1.9-0.1,5.4,0.1,5.9s3.1,6.5,3.1,8.3s1.7,8,1.9,8.8s-1.3,1.1-1.3,1.1s-2.8-4.6-2.8-5.5
	c-0.3-1.8-0.7-3.6-1.3-5.4c-0.5-1.5-0.8-4.1-1-4.4S1244.9,177.2,1244,176.8z"/>
<path class="st20" d="M1223,193.7c-1.2,0.4-2.3,0.9-3.4,1.5c0.9-1.6,1.4-3.9,1.7-3.2C1221.6,192.8,1222.2,193.4,1223,193.7z"/>
<path class="st20" d="M1218.4,168.8l-0.2-2.6l-3.4,1.6C1216,168,1217.2,168.3,1218.4,168.8z"/>
<path class="st20" d="M1250.6,195.4l0.6,2c0.5-0.6,1-1.3,1.3-2.1C1252.4,195.2,1251.7,194.8,1250.6,195.4z"/>
<path class="st21" d="M1093.6,332.8c-0.2-0.3-0.5-0.5-0.7-0.8C1093.2,332.2,1093.5,332.5,1093.6,332.8z"/>
<path class="st21" d="M1119.4,337.3c-0.2-0.1-0.4-0.2-0.6-0.4C1119,336.9,1119.3,337.1,1119.4,337.3
	C1119.4,337.3,1119.4,337.3,1119.4,337.3L1119.4,337.3z"/>
<path class="st21" d="M1158.2,266c1.1,1.7,1.7,3.6,1.9,5.6c0.1,2.7-0.7,5.5-1.4,5.5c-0.5,0-0.5-1.6-1.6-3.7c-0.8-1.5-2-2.7-3.4-3.7
	l-139.2,3.1c-1-1.8-1.6-3.9-1.7-6c-1.5-2.6-3.1-5.2-4.6-7.8c0.5,2.8,0.6,4.2,0.3,4.3c-0.6,0.2-2.3-3.3-5.3-10.5
	c-1.4-1.4-2.7-2.9-3.7-4.6c-1-1.5-1.7-3.1-2.3-4.8c-1.6-1.1-3.3-2.3-5-3.6c-2.7-2-5.1-4.1-7.3-6.1c-2.1-0.3-3.7-1.9-4-4
	c-0.1-0.5-0.1-1,0-1.5c0-0.1,0-0.3,0.1-0.4l3.8-19.2c0.7-1.5,1.7-2.8,3-3.8l-0.1,1.1c1.1-1.7,2.8-2.9,4.7-3.5
	c-0.1,0.3-0.2,0.6-0.3,0.9c1.8-2,4.3-3.2,7-3.5l-1,0.9c2.2-1.3,4.7-1.9,7.3-1.8l-1.3,0.7c2.1-0.3,4.3-0.2,6.4,0.2
	c-0.4,0.1-0.8,0.3-1.1,0.4c1.4-0.1,2.9-0.2,4.3-0.3c0.6-0.1,1.2-0.1,1.9,0c0.6,0.1,1.2,0.3,1.6,0.8l-1.7,0.3c2.1-0.2,4.2,0.3,6,1.4
	l-1.5,0.1c1.9,0.6,3.5,1.8,4.5,3.4l-1.5-0.4c1.4,0.5,2.7,1.2,4.1,1.7c0.7,0.2,1.2,0.5,1.6,1.1l-1.6-0.2c1.1,0.5,2.2,1.1,3.2,1.8
	c1,0.7,1.8,1.7,2.1,2.9l-1.8-0.7c1.1,0.7,2.1,1.5,3.1,2.3c1,0.8,1.7,1.9,2.2,3.1c-0.4,0-0.7-0.1-1-0.3c1.2,1.5,2.1,3.2,2.7,5.1
	l-1.9-1c1.8,2,2.9,4.6,3.1,7.3l-2-1.9l1.2,7.5l-1.9-1.3c0.7,1.8,0.3,3.8-1,5.2c-0.5,0.4-0.8,1-0.9,1.6c-0.1,0.6,0.2,1.3,0.8,1.6
	c0.9,0.4,1.9-0.2,2.6-0.9l4.2-3.4l-1.4,3c2.4-2.5,5.3-4.6,8.4-6.2l-1.2,2.7c2.3-2.9,5.4-5.2,8.8-6.4l-1.3,2.5
	c2.9-2.7,6.5-4.6,10.4-5.4l-1.9,2.1c2.1-1.4,4.5-2.4,6.9-3.2c3.1-1,6.7-1.6,6.8-1.2s-4.4,2-4.4,2.2s3.6-1.4,8.1-2.2
	c4.9-0.9,10.7-1,11,0c0.1,0.4-0.6,0.9-1.6,1.4c2.5-0.5,5.1-0.8,7.7-1c6.5-0.4,14.3,0.2,14.4,1.3c0,0.4-0.7,0.9-3.9,1.7
	c2-0.4,4.1-0.6,6.1-0.7c5.6-0.2,11.1,0.9,11.1,1.6c0,0.3-1.2,0.6-6.4,0.9c2.6-0.1,5.1,0.2,7.7,0.8c3.7,0.9,7.6,2.8,7.4,3.5
	s-3.8,0.2-3.8,0.6s3.3,0.7,7.3,2.5c0.6,0.3,5.9,2.7,5.5,3.6c-0.1,0.3-1,0.4-2.2,0.3c4,0.2,7.7,1.7,10.8,4.2l-1.2,0.2
	c2.4,1.1,4.7,2.6,6.7,4.3c3.4,3.1,6,7.1,5.3,7.8s-3.9-2-4.4-1.4c-0.3,0.4,1,1.6,2.2,3.8c1.9,3.6,2.1,7.5,1.5,7.7
	c-0.3,0.1-0.7-0.8-2.2-1.6C1159.3,266.4,1158.8,266.1,1158.2,266z"/>
<path class="st20" d="M1249.3,167.2c-0.6-0.6-1.3-1.1-2-1.6c-1-0.4,4.7-4.3,4.7-4.3S1250.5,166.1,1249.3,167.2z"/>
<path class="st20" d="M1219.7,264.8c0.4,0.9-2.6,5-4.5,6.5s-1.5,2-3.6,3.4c-2,1.3-3.9,2.8-5.7,4.4c-1.1,1.1-4.3,3-3.8,4.2
	s2,1.9,2.6,1.2s6-5.1,6.4-5.1s2.4-1.7,3.2-2.6s4.5-4.1,5.7-4.5s3.8-2,4,0.3s0.2,6.7,0.7,7.7c0.5,1.4,0.8,2.9,1,4.4
	c0,0-0.4,3.2,0.4,3.8s1.2,1.4,1.7,0.9s-0.2-4.3-0.2-4.3s0.1-4.4,0.3-5.5c-0.1-2.4-0.3-4.8-0.7-7.2c-0.1-1.7,0.1-3.4,0.8-5
	c0.8-1.5,0.4-3.5-1.1-4.5c-1.9-1.4-5.5-0.4-6-0.5s-6.4-3.6-8.2-3.6s-8-2.3-8.8-2.5s-1.3,1.1-1.3,1.1s4.4,3,5.3,3.2
	c1.8,0.5,3.6,1,5.4,1.7c1.5,0.6,4.1,1.1,4.4,1.4S1219.3,263.9,1219.7,264.8z"/>
<path class="st20" d="M1200.7,284c-0.5,1.1-1.1,2.2-1.8,3.2c1.7-0.7,4.1-1.1,3.4-1.4C1201.6,285.5,1201,284.8,1200.7,284z"/>
<path class="st20" d="M1225.7,290.5l2.6,0.5l-1.9,3.1C1226.3,292.9,1226.1,291.7,1225.7,290.5z"/>
<path class="st20" d="M1201.2,256.9l-2-0.7c0.7-0.5,1.4-0.9,2.2-1.1C1201.6,255.2,1202,255.8,1201.2,256.9z"/>
<path class="st20" d="M1229.9,260.4c0.6,0.6,1.1,1.3,1.4,2.1c0.4,1,4.8-4.3,4.8-4.3S1231.1,259.3,1229.9,260.4z"/>
<path class="st22" d="M1147.3,295.6c0.2-0.1,0.8,1.3,1.4,1.3s1-2,1-3.7c0-2.4-0.4-4.7-1.2-7c0.1,0,0.5,0.7,1.8,3.8
	c1-3.3,1.5-6.8,1.4-10.2l2,3.7l0.6-9.7c0.5,2.3,0.9,2.8,1.1,2.8s0.7-1.3,0.8-2.1c0.1-1.1-0.1-2.2-0.6-3.2c0.6,0.6,1.4,1.4,1.8,1.2
	c0.8-0.4-0.1-3.6-0.2-3.8c-0.6-2.2-1.8-4.2-3.4-5.9c2.9,2,3.7,2.2,3.9,1.9c0.5-0.5-1.2-2.9-2.5-4.4c-1.5-1.7-3.2-3.1-5.2-4.2
	c3.2,1.4,4.2,1.5,4.4,1.1c0.4-0.7-2.5-3.8-5.8-5.6c-2.2-1.2-4.6-1.9-7.1-2.1l1.2-0.2c-2.8-2.5-6.5-4-10.2-4.2c1.2,0.1,2,0,2.1-0.3
	c0.3-0.9-4.7-3.3-5.3-3.6c-3.8-1.8-7-2.1-6.9-2.5s3.4,0.1,3.6-0.6s-3.5-2.6-7-3.5c-2.4-0.6-4.8-0.9-7.3-0.8c5-0.3,6.1-0.6,6.1-0.9
	c0-0.6-5.3-1.7-10.6-1.6c-2,0.1-3.9,0.3-5.8,0.7c3.1-0.8,3.8-1.4,3.7-1.7c-0.1-1.1-7.5-1.7-13.7-1.3c-3.7,0.3-7.4,0.9-11,2
	c0.4,0,0.9,0,1.3-0.1c2-0.4,4.1-1.6,4-2.3c-0.2-1-5.7-0.9-10.4,0c-4.3,0.9-7.7,2.4-7.7,2.2s4.3-1.8,4.2-2.2s-3.5,0.2-6.5,1.2
	c-2.3,0.8-4.5,1.9-6.5,3.2l1.8-2.1c-3.7,0.8-7.1,2.7-9.9,5.4l1.2-2.5c-3.4,1.3-6.3,3.5-8.4,6.4l1.2-2.6c-3,1.6-5.7,3.7-8,6.2l1.3-3
	l-4,3.4c-0.7,0.6-1.7,1.2-2.5,0.8c-0.6-0.3-0.9-1-0.8-1.6c0.1-0.6,0.4-1.2,0.9-1.6c1.3-1.4,1.6-3.4,1-5.2l1.8,1.3l-1.2-7.5l1.8,1.9
	c-0.2-2.7-1.3-5.2-3-7.3l1.8,1c-0.6-2.2-1.7-4.3-3.3-6c0.3,0.7,0.9,1.1,1.7,1.2c-0.5-1.2-1.2-2.2-2.1-3.1c-0.9-0.8-1.9-1.6-2.9-2.3
	l1.7,0.7c-0.3-1.2-1-2.2-2-2.9c-1-0.7-2-1.3-3.1-1.8l1.6,0.2c-0.3-0.5-0.9-0.9-1.5-1.1c-1.3-0.5-2.5-1.2-3.9-1.7l1.4,0.4
	c-1-1.6-2.5-2.8-4.3-3.4l1.4-0.1c-1.7-1.1-3.7-1.7-5.7-1.4l1.6-0.3c-0.4-0.4-1-0.7-1.6-0.8c-0.6-0.1-1.2-0.1-1.8,0
	c-1.4,0.1-2.7,0.2-4.1,0.3l1.1-0.4c-2-0.4-4.1-0.5-6.1-0.2l1.2-0.7c-2.4-0.1-4.8,0.5-6.9,1.8l1-1c-2.6,0.3-4.9,1.6-6.7,3.5l0.3-0.9
	c-1.8,0.6-3.4,1.9-4.5,3.5l0.1-1.1c-1.2,1-2.2,2.3-2.8,3.8l-3.6,19.2c-0.7,2.6,1.2,5.6,3.7,5.9c2.1,2,4.4,4,6.9,6.1
	c1.6,1.3,3.2,2.5,4.8,3.6c1.1,3.5,3.1,6.7,5.7,9.3c2.8,7.2,4.5,10.7,5,10.5c0.3-0.1,0.2-1.5-0.3-4.3l4.4,7.8c0.1,3.9,1.9,7.5,4.9,10
	c0.5,3.5,2.2,6.6,4.8,9c0,1.3,0.1,2.5,0.5,3.8c0.5,2.2,1.7,4.6,2.3,4.5s0.3-3.1,0.8-3.2s1.2,2.1,1.8,4.3c0.7,1.4,1.7,2.6,2.9,3.4
	c1.2,0.9,2.6,1.4,4.1,1.5c0.4,1,0.9,1.9,1.4,1.8s0.5-1.1,1-1.2s1.2,1.2,2.4,3.3c1.9,3.4,2.4,3.6,2.7,3.5c0.5-0.1,0.3-1.6,0.9-1.8
	s1.1,0.5,1.8,1.4c0.8,1.2,1.9,2.3,3.1,3.2c1.2,0.9,2.5,1.5,3.9,1.9c2.4,3.4,6.5,5.1,10.6,4.6l-0.5-3l-0.6-3.4
	c1.7,5.9,6.9,10.2,12.7,10c0-0.9-0.4-1.8-1.1-2.3c2.1,3.1,6,4.4,9.5,3.2c2.7,2,5.8,3.5,9.2,4.2c1.6,0.3,3.8,0.8,4.4-0.2
	c0.7-1.2-1.6-3.7-1.8-3.9c2.2,1.9,4.7,3.4,7.5,4.5c0.7,0.4,1.5,0.4,2.2,0.1c0.6-0.5,0.3-1.9-0.4-1.7c4.8,3.6,11.2,4.1,16.5,1.4
	l-3.7-1.5c5.3,1.2,10.9,0.1,15.3-3l-3.5-0.2c3.6-1.2,6.9-3.4,9.4-6.4l-2.5-0.5c3.5-0.5,6.6-2.5,8.6-5.4l-4.2,0.5
	c5.6-2.8,8.2-4.6,8-5.3c-0.2-0.5-1.6-0.5-4.2,0c1.6-0.4,3.1-1.1,4.4-2.2c1.3-1.1,2.6-2.5,2.3-3s-2.6,0.3-2.7,0s2.4-1.1,3-3
	C1148.3,297.5,1147.1,295.7,1147.3,295.6z"/>
<path class="st23" d="M983.9,212.2c0,1.9,0.5,3.7,1.6,5.2c1.5,2.1,3.8,3.5,6.3,3.8c-2.1-0.9-4.6-0.2-5.8,1.8
	c-1.1,2.1,0.1,5.4,3.1,6.4c-1.9-0.6-3.9-0.6-5.8,0c-1.2,0.4-2.3,1-3.2,1.9l-14.6-5.7c-0.8-0.3-1.2-1.2-0.9-2
	c0.1-0.2,0.1-0.3,0.3-0.4C969.7,217.4,976.5,213.5,983.9,212.2z"/>
<path class="st24" d="M978.7,218.1c0.3,0.3,0.8,0.4,1.2,0.3c0.4-0.1,0.8-0.4,0.9-0.9c-0.1-0.3-0.4-0.4-0.7-0.4
	C979.4,217,978.8,217.4,978.7,218.1z"/>
<path class="st25" d="M970,218.4c-0.9,0.7-1.8,1.5-2.8,2.4c-0.8,0.8-1.5,1.5-2.2,2.2c-0.5,0.6-0.5,1.5,0.1,2
	c0.1,0.1,0.3,0.2,0.4,0.3l5.5,2.2c-0.5-1-0.9-2.1-1.2-3.2C969.5,222.3,969.5,220.3,970,218.4z"/>
<path class="st26" d="M987.8,216.3c0.8-0.4,1.5-1,2-1.7c0.9-1.2,0.7-2.1,1.7-3.4c0.5-0.8,1.2-1.4,2-1.8c1.3-0.7,3.8-1.2,5.1,0.2
	c0.8,1,1,2.3,0.6,3.5c-0.7,2.1-3.3,2.9-6,3.8c-0.9,0.3-1.8,0.5-2.7,0.7c0-0.4-0.1-0.8-0.4-1.1C989.4,216,988.5,215.9,987.8,216.3z"
	/>
<path class="st24" d="M965.2,225.5l0.8-0.5c6.1-3,13-4.4,19.8-3.9c-2.9,0-5.8,0.3-8.7,0.9c-2.7,0.5-5.3,1.3-7.9,2.3
	c-0.9,0.2-1.8,0.6-2.6,1c-0.3,0.3-0.7,0.4-1.1,0.4C965.4,225.6,965.3,225.5,965.2,225.5z"/>
<circle class="st24" cx="994.2" cy="213.3" r="1.8"/>
<path class="st27" d="M1067.8,239.3c2.1-1.4,4.3-2.6,6.7-3.3c4.3-1.3,9.2-1.6,9.5-0.7s-4.7,3.1-4.5,3.4s4.5-2.4,10.4-3
	c4.1-0.4,8.2,0.3,8.2,1c0,0.4-1.1,0.9-5.9,1.7c2.6-0.2,5.3,0.1,7.8,1c4.5,1.6,7.8,5,7.5,5.6s-4.3-2.2-10.9-3.5
	c-3.4-0.6-6.8-0.8-10.3-0.4c1.7-1.2,2.5-2,2.4-2.3c-0.3-0.7-4.7,0.3-13.2,3.1c1.2-1.6,1.6-2.7,1.3-3.4
	C1076.1,237.3,1073.1,237.6,1067.8,239.3z"/>
<path class="st27" d="M1078,313c2.1,1.4,4.3,2.6,6.7,3.3c4.3,1.3,9.2,1.6,9.5,0.7s-4.7-3.1-4.5-3.4s4.5,2.4,10.4,3
	c4.1,0.4,8.2-0.3,8.2-1c0-0.4-1.1-0.9-5.9-1.7c2.6,0.2,5.3-0.1,7.8-1c4.5-1.6,7.8-5,7.5-5.6s-4.3,2.2-10.9,3.5
	c-3.4,0.6-6.8,0.8-10.3,0.4c1.7,1.2,2.5,2,2.4,2.3c-0.3,0.7-4.7-0.3-13.2-3.1c1.2,1.6,1.6,2.7,1.3,3.4
	C1086.3,314.9,1083.3,314.6,1078,313z"/>
<path class="st27" d="M1032.1,279.2c1,2.3,2.4,4.4,4.1,6.3c3,3.3,7.1,6.1,7.8,5.4s-2.4-5-2.2-5.2s2.7,4.4,7.4,7.8
	c3.3,2.4,7.2,3.9,7.6,3.4c0.2-0.3-0.5-1.4-4.2-4.5c2.2,1.6,4.6,2.6,7.2,3.1c4.7,0.9,9.3-0.3,9.3-1s-4.9-0.3-11.2-2.6
	c-3.2-1.2-6.3-2.8-9-4.9c0.9,1.9,1.2,3,0.9,3.2c-0.7,0.5-3.9-2.7-9.7-9.4c0.2,2,0,3.2-0.6,3.5
	C1038.3,285.1,1035.8,283.4,1032.1,279.2z"/>
<path class="st27" d="M1006.4,208.3c2.5,0.4,5,1.1,7.3,2.2c4,2,7.8,5.3,7.2,6.1s-5.6-0.9-5.7-0.7s5,1.4,9.6,5.1
	c3.2,2.6,5.6,6,5.1,6.6c-0.3,0.3-2-1.3-5.5-2.9c-2-0.9-4.1-1.6-6.2-2.1c2.1,0.3,3.3,0.3,3.4-0.1c0.3-0.8-3.6-3.1-11.7-6.9
	c2.1-0.3,3.2-0.9,3.4-1.7C1013.7,212.7,1011.4,210.8,1006.4,208.3z"/>
<path class="st27" d="M1136.5,260c5,0.6,7.9,5.3,6.9,8.7c-0.7,2.6-3.7,4.6-7.2,4.6c2.4-0.7,4.3-2.7,4.9-5.2
	C1141.7,264.6,1139.8,261.3,1136.5,260z"/>
</svg>
