<svg id="Layer_1" data-name="Layer 1" xmlns="http://www.w3.org/2000/svg" viewBox="0 0 840.51 297.46"><defs><style>.cls-1,.cls-2,.cls-3{fill:#fff;}.cls-1{opacity:0.12;}.cls-2{opacity:0.36;}</style></defs><title>clouds-01</title><path class="cls-1" d="M504.3,247.29c-0.52,7.89-40.36,10.53-47.89,11-7.08-.8-13.24-1.06-18.2-1.14-3.87,0-8.07,0-12.86.3a212.59,212.59,0,0,0-24.64,2.9c-26.65,4.47-49.32,2.43-122.21,0l-13.43-.44c-31.86-1-49-1.56-60.48-1.49-40.53.26-76.59,2.7-76.87,0-0.18-1.64,13-3.38,12.81-4.85C140.18,250.1,68,259.5-.69,256.67Q-0.75,209.33-.83,162q0-21.32-.06-42.6c19.67-6.18,37.69,0,39,.49,4.88-7,24-32.77,60-41.89,2.51-.64,47.1-11.28,78.84,11.63,14.7,10.62,25,18.08,29.57,31a50.72,50.72,0,0,0,2.74,7.16,18.33,18.33,0,0,0,1.45,2.39,12.31,12.31,0,0,0,4.68,4c6.68,3.23,13.66,0,15.77-1,8.51-4.1,24.24-5.47,41.86-2.63,21.56,3.47,45.93,13.22,63.35,32,5.37,5.79,12.68,15.23,19.21,30.24a154.65,154.65,0,0,1,6.25,17.2c5.8-3.16,29.17-15.18,54.93-8.43A61.82,61.82,0,0,1,435,209.79,78.74,78.74,0,0,1,455,229c0.28-.17.76-0.44,1.41-0.77C463.27,229.76,504.84,239.17,504.3,247.29Z"/><path class="cls-2" d="M847.62,86.34V259.86c-43.21.67-78,2.28-78.29-.24-0.23-1.77,16.78-3.65,16.58-5.23s-20-.51-49.94,1c-47.68,2.42-121.14,5.6-182.25-1-15.12-1.64-33-4.25-60-4.2-28.75.07-40.27,3.1-72.72,2.11-5.56-.18-50.52-1.69-51-7.34-0.27-2.89,11.14-6.14,15.3-7.32l0.74-.21h0c10.05-2.76,13.08-1.21,22.23-3.86,1.38-.4,3.17-1.17,6.79-2.56,11.77-4.54,13.77-5.73,16.53-6.55,4.71-1.39,12-1.76,22.74,3.41a55.68,55.68,0,0,1,19.26-17.41,56.66,56.66,0,0,1,34.32-6.15,25.92,25.92,0,0,1-.31-11.35,23.7,23.7,0,0,1,5.28-10.85c8.1-9.53,23.67-13.92,39-10.8a44.36,44.36,0,0,1,.32-7.91,59.1,59.1,0,0,1,1.76-9c3-10.74,10-24.52,26.49-35.14,32.34-20.86,70.64-9.9,72.85-9.22,6.31-7.6,31-35.39,77.7-45.24,3.25-.68,61-12.18,102.06,12.57C838.4,80.57,843.25,83.48,847.62,86.34Z"/><path class="cls-3" d="M447.38,245.15c6.34,1.26,44.75,9,44.25,15.76-0.48,6.52-37.3,8.7-44.25,9.08-6.55-.66-12.24-0.88-16.82-0.94-3.58,0-7.46,0-11.88.25a216.63,216.63,0,0,0-22.77,2.4c-24.63,3.69-45.58,2-112.94,0-37.56-1.11-56.34-1.67-68.31-1.6-37.45.21-70.77,2.23-71,0-0.16-1.35,12-2.8,11.84-4-0.36-3.22-85.28,7.09-154.62,1.12q0-7.81,0-15.62V237.17q0-22-.07-44.08,0-6.81,0-13.63c0-1,0-1.93,0-2.91h0c0-.44,0-0.87,0-1.31,0-1.09,0-2.19,0-3.28h0c0-.77,0-1.54,0-2.32a48.5,48.5,0,0,1,8.11-7c23.09-16,50.43-7.57,52-7.06a95.07,95.07,0,0,1,27.9-24,105.17,105.17,0,0,1,27.57-10.67c7.71-1.83,41.68-9.91,73.22,6.44,14.8,7.67,25.46,13.2,32.88,24.19,6.44,9.54,6.36,17.18,16.85,15.08h0c0.07,0,12.16-6,38.69-2.17,19.92,2.87,42.45,10.93,58.54,26.45a86.74,86.74,0,0,1,17.75,25A119.28,119.28,0,0,1,360,230.15c6.1-2.63,37.59-15.52,67.59-.25A68.61,68.61,0,0,1,447.38,245.15Z"/><rect class="cls-3" x="0.88" y="257.44" width="840.3" height="1253.02"/><path class="cls-3" d="M846.62,149.07a27.07,27.07,0,0,0-34.29.42,133.12,133.12,0,0,0-73.39-19.87c-44.92,1.26-74.48,25.14-82.45,32-7.48-2.06-40.92-10.43-76.63,6.95a104.77,104.77,0,0,0-52.08,57.33,74.92,74.92,0,0,0-42.85-4.78,73.2,73.2,0,0,0-39,20.81c-3.59-.79-25-5.17-45.37,8A57,57,0,0,0,376,285.57H845.07Z"/></svg>