<?xml version="1.0" encoding="utf-8"?>
<!-- Generator: Adobe Illustrator 19.2.1, SVG Export Plug-In . SVG Version: 6.00 Build 0)  -->
<svg version="1.1" id="Layer_1" xmlns="http://www.w3.org/2000/svg" xmlns:xlink="http://www.w3.org/1999/xlink" x="0px" y="0px"
	 viewBox="0 0 840.5 297.5" style="enable-background:new 0 0 840.5 297.5;" xml:space="preserve">
<style type="text/css">
	.st0{opacity:0.12;fill:#FFFFFF;enable-background:new    ;}
	.st1{opacity:0.36;fill:#FFFFFF;enable-background:new    ;}
	.st2{fill:#FFFFFF;}
</style>
<title>clouds</title>
<path class="st0" d="M502.3,256.7c-0.1,2.9-11.6,5.3-21.3,6.5c-11,1.3-22.8,2-26.6,2.1c-7.1-0.6-13.2-0.8-18.2-0.9
	c-3.9,0-8.1,0-12.9,0.2c-12.1,0.5-20.9,1.8-24.6,2.3c-26.6,3.5-49.3,1.9-122.2,0l-13.4-0.4c-31.9-0.8-49-1.2-60.5-1.2
	c-40.5,0.2-76.6,2.1-76.9,0c-0.2-1.3,13-2.7,12.8-3.8c-0.3-2.7-72.5,4.7-141.2,2.5c0-24.8-0.1-49.7-0.1-74.5c0-11.2,0-22.4-0.1-33.5
	c19.7-4.9,37.7,0,39,0.4c4.9-5.6,24-25.8,60-33c2.5-0.5,47.1-8.9,78.8,9.2c14.7,8.4,25,14.2,29.6,24.4c0.7,2,1.7,3.8,2.7,5.6
	c0.4,0.7,0.9,1.3,1.4,1.9c1.3,1.4,2.9,2.5,4.7,3.2c6.7,2.5,13.7,0,15.8-0.8c8.5-3.2,24.2-4.3,41.9-2.1c21.6,2.7,45.9,10.4,63.4,25.2
	c7.8,6.7,14.3,14.8,19.2,23.8c2.4,4.4,4.5,8.9,6.2,13.5c5.8-2.5,29.2-12,54.9-6.6c14.9,2.8,28.4,10.9,37.8,22.8
	C493.9,250.2,502.4,254.2,502.3,256.7z"/>
<path class="st1" d="M847.6,112.4v161c-43.2,0.6-78,2.1-78.3-0.2c-0.2-1.6,16.8-3.4,16.6-4.9s-20-0.5-49.9,0.9
	c-47.7,2.2-121.1,5.2-182.2-0.9c-15.1-1.5-33-4-60-3.9c-28.8,0.1-40.3,2.9-72.7,2c-5.6-0.2-50.5-1.6-51-6.8
	c-0.3-2.7,11.1-5.7,15.3-6.8l0.7-0.2l0,0c10-2.6,13.1-1.1,22.2-3.6c1.9-0.5,3.4-1.3,6.8-2.4c5.1-1.7,10.3-3,15.5-3.9
	c7.9-1.1,16-0.8,23.7,1c5.1-6.8,11.7-12.3,19.3-16.1c10.6-5.2,22.6-7.2,34.3-5.7c-0.9-3.4-1-7-0.3-10.5c0.8-3.8,2.6-7.3,5.3-10.1
	c8.1-8.8,23.7-12.9,39-10c-0.1-2.5,0-4.9,0.3-7.3c0.4-2.8,0.9-5.6,1.8-8.3c3-10,10-22.8,26.5-32.6c32.3-19.3,70.6-9.2,72.8-8.6
	c6.3-7.1,31-32.8,77.7-42c3.2-0.6,61-11.3,102.1,11.7C838.4,107.1,843.2,109.8,847.6,112.4z"/>
<path class="st2" d="M445.4,262c6.3,1,44.8,7.1,44.2,12.4c-0.5,5.1-37.3,6.9-44.2,7.1c-6.5-0.5-12.2-0.7-16.8-0.7
	c-3.6,0-7.5,0-11.9,0.2c-11.2,0.5-19.3,1.5-22.8,1.9c-24.6,2.9-45.6,1.6-112.9,0c-37.6-0.9-56.3-1.3-68.3-1.3
	c-37.4,0.2-70.8,1.8-71,0c-0.2-1.1,12-2.2,11.8-3.2c-0.4-2.5-85.3,5.6-154.6,0.9c0-4.1,0-8.2,0-12.3v-11.3c0-11.6,0-23.1-0.1-34.7
	c0-3.6,0-7.1,0-10.7c0-0.8,0-1.5,0-2.3l0,0c0-0.3,0-0.7,0-1c0-0.9,0-1.7,0-2.6l0,0c0-0.6,0-1.2,0-1.8c2.5-2.1,5.2-4,8-5.6
	c23.1-12.6,50.4-6,52-5.6c3-3.1,12.1-11.8,27.9-18.9c8.8-3.9,18.1-6.7,27.6-8.4c7.7-1.4,41.7-7.8,73.2,5.1c14.8,6,25.5,10.4,32.9,19
	c6.4,7.5,6.4,13.5,16.9,11.9l0,0c0.1,0,12.2-4.7,38.7-1.7c19.9,2.3,42.5,8.6,58.5,20.8c7.1,5.4,13.1,12.1,17.8,19.8
	c2.2,3.6,4.1,7.3,5.8,11.2c6.1-2.1,37.6-12.2,67.6-0.2C432.8,252.9,439.5,256.9,445.4,262z"/>
<rect x="-4" y="265.9" class="st2" width="845.2" height="112.3"/>
<path class="st2" d="M846.6,186.4c-5.4-3.3-11.7-4.9-18-4.6c-5.8,0.1-11.4,1.9-16.3,5c-22.9-10.9-48-16.3-73.4-15.6
	c-44.9,1-74.5,19.8-82.5,25.2c-7.5-1.6-40.9-8.2-76.6,5.5c-37,14.2-49.6,39.8-52.1,45.1c-13.8-4.6-28.5-5.9-42.9-3.8
	c-21.6,3.2-34.8,12.9-39,16.4c-3.6-0.6-25-4.1-45.4,6.3c-19.4,9.9-23.8,25.1-24.6,28h469.1L846.6,186.4z"/>
</svg>
