<svg id="Layer_1" data-name="Layer 1" xmlns="http://www.w3.org/2000/svg" viewBox="0 0 840.51 297.46"><defs><style>.cls-1,.cls-2,.cls-3{fill:#fff;}.cls-1{opacity:0.12;}.cls-2{opacity:0.36;}</style></defs><title>clouds</title><path class="cls-1" d="M504.3,256.75c-0.15,2.86-11.61,5.33-21.32,6.52-11,1.34-22.81,2-26.57,2.13-7.08-.63-13.24-0.83-18.2-0.9-3.87,0-8.07,0-12.86.24-12.12.54-20.86,1.8-24.64,2.28-26.65,3.52-49.32,1.91-122.21,0l-13.43-.35c-31.86-.83-49-1.23-60.48-1.17-40.53.2-76.59,2.13-76.87,0-0.18-1.29,13-2.66,12.81-3.82C140.18,259,68,266.36-.69,264.13q-0.06-37.27-.14-74.53,0-16.78-.06-33.54c19.67-4.87,37.69,0,39,.39,4.88-5.55,24-25.8,60-33,2.51-.5,47.1-8.88,78.84,9.16,14.7,8.36,25,14.24,29.57,24.44a35.19,35.19,0,0,0,2.74,5.64,14.29,14.29,0,0,0,1.45,1.88,12,12,0,0,0,4.68,3.17c6.68,2.54,13.66,0,15.77-.76,8.51-3.23,24.24-4.31,41.86-2.07,21.56,2.73,45.93,10.41,63.35,25.19a84,84,0,0,1,19.21,23.81,106.42,106.42,0,0,1,6.25,13.54c5.8-2.49,29.17-12,54.93-6.64a63,63,0,0,1,37.82,22.76C495.93,250.2,504.44,254.25,504.3,256.75Z"/><path class="cls-2" d="M847.62,112.45v161c-43.21.62-78,2.11-78.29-.22-0.23-1.64,16.78-3.39,16.58-4.85s-20-.47-49.94.94c-47.68,2.25-121.14,5.2-182.25-.94-15.12-1.52-33-3.95-60-3.9-28.75.06-40.27,2.88-72.72,2-5.56-.17-50.52-1.57-51-6.81-0.27-2.68,11.14-5.7,15.3-6.79l0.74-.19h0c10.05-2.56,13.08-1.13,22.23-3.58,1.89-.51,3.44-1.31,6.79-2.38a112.29,112.29,0,0,1,15.53-3.88,65.24,65.24,0,0,1,23.74,1,54.28,54.28,0,0,1,19.26-16.15,60.57,60.57,0,0,1,34.32-5.7,22.37,22.37,0,0,1-.31-10.53,21.36,21.36,0,0,1,5.28-10.07c8.1-8.84,23.67-12.91,39-10a38.21,38.21,0,0,1,.32-7.34,51.33,51.33,0,0,1,1.76-8.34c3-10,10-22.75,26.49-32.61,32.34-19.35,70.64-9.18,72.85-8.56,6.31-7.06,31-32.83,77.7-42,3.25-.63,61-11.3,102.06,11.66C838.4,107.1,843.25,109.8,847.62,112.45Z"/><path class="cls-3" d="M447.38,262c6.34,1,44.75,7.11,44.25,12.4-0.48,5.13-37.3,6.85-44.25,7.15-6.55-.52-12.24-0.69-16.82-0.74-3.58,0-7.46,0-11.88.19-11.2.45-19.28,1.48-22.77,1.89-24.63,2.91-45.58,1.58-112.94,0-37.56-.87-56.34-1.31-68.31-1.26-37.45.17-70.77,1.76-71,0-0.16-1.07,12-2.2,11.84-3.16-0.36-2.53-85.28,5.58-154.62.88q0-6.15,0-12.3V255.73q0-17.35-.07-34.71,0-5.36,0-10.73c0-.76,0-1.52,0-2.29h0c0-.34,0-0.69,0-1,0-.86,0-1.72,0-2.58h0c0-.61,0-1.22,0-1.82A47.14,47.14,0,0,1,8.82,197c23.09-12.58,50.43-6,52-5.56,3-3.1,12.08-11.75,27.9-18.87a122.84,122.84,0,0,1,27.57-8.4c7.71-1.44,41.68-7.8,73.22,5.07,14.8,6,25.46,10.39,32.88,19,6.44,7.51,6.36,13.53,16.85,11.87h0c0.07,0,12.16-4.72,38.69-1.71,19.92,2.26,42.45,8.61,58.54,20.83A71.7,71.7,0,0,1,354.23,239a83.86,83.86,0,0,1,5.77,11.2c6.1-2.07,37.59-12.22,67.59-.2A68.94,68.94,0,0,1,447.38,262Z"/><rect class="cls-3" x="0.88" y="265.9" width="840.3" height="1244.56"/><path class="cls-3" d="M846.62,186.37a32.28,32.28,0,0,0-18-4.64,31.4,31.4,0,0,0-16.26,5,160.21,160.21,0,0,0-73.39-15.64c-44.92,1-74.48,19.79-82.45,25.22-7.48-1.62-40.92-8.21-76.63,5.47-37,14.17-49.62,39.81-52.08,45.14a93.42,93.42,0,0,0-42.85-3.76c-21.65,3.16-34.77,12.93-39,16.38-3.59-.63-25-4.07-45.37,6.31-19.42,9.87-23.83,25.08-24.61,28H845.07Z"/></svg>