<svg id="Layer_1" data-name="Layer 1" xmlns="http://www.w3.org/2000/svg" viewBox="0 0 840.51 297.46"><defs><style>.cls-1,.cls-2,.cls-3{fill:#fff;}.cls-1{opacity:0.12;}.cls-1,.cls-2{isolation:isolate;}.cls-2{opacity:0.36;}</style></defs><title>clouds-bottom</title><path class="cls-1" d="M452.24,67.3a63,63,0,0,1-37.82,22.76c-25.76,5.36-49.13-4.15-54.93-6.64A106.42,106.42,0,0,1,353.24,97,84,84,0,0,1,334,120.77c-17.42,14.78-41.79,22.46-63.35,25.19-17.62,2.24-33.35,1.16-41.86-2.07-2.11-.76-9.09-3.3-15.77-0.76a12,12,0,0,0-4.68,3.17,14.29,14.29,0,0,0-1.45,1.88,35.19,35.19,0,0,0-2.74,5.64c-4.57,10.2-14.87,16.08-29.57,24.44-31.74,18-76.33,9.66-78.84,9.16-36-7.2-55.12-27.45-60-33-1.31.39-19.33,5.26-39,.39q0.06-16.76.06-33.54Q-3.09,84-3,46.74c68.69-2.23,140.87,5.13,141.22,2.45,0.19-1.16-13-2.53-12.81-3.82,0.28-2.13,36.34-.2,76.87,0,11.48,0.06,28.62-.34,60.48-1.17l13.43-.35c72.89-1.91,95.56-3.52,122.21,0,3.78,0.48,12.52,1.74,24.64,2.28,4.79,0.24,9,.24,12.86.24,5-.07,11.12-0.27,18.2-0.9,3.76,0.13,15.57.79,26.57,2.13,9.71,1.19,21.17,3.66,21.32,6.52C502.11,56.62,493.59,60.67,452.24,67.3Z"/><path class="cls-2" d="M830.73,206.66c-41.06,23-98.81,12.29-102.06,11.66-46.7-9.17-71.39-34.94-77.7-42-2.21.62-40.51,10.79-72.85-8.56-16.49-9.86-23.49-22.61-26.49-32.61a51.33,51.33,0,0,1-1.76-8.34,38.21,38.21,0,0,1-.32-7.34c-15.33,2.91-30.9-1.16-39-10a21.36,21.36,0,0,1-5.28-10.07,22.37,22.37,0,0,1,.31-10.53,60.57,60.57,0,0,1-34.32-5.7A54.28,54.28,0,0,1,452,67a65.24,65.24,0,0,1-23.74,1,112.29,112.29,0,0,1-15.53-3.88c-3.35-1.07-4.9-1.87-6.79-2.38-9.15-2.45-12.18-1-22.23-3.58h0L383,58c-4.16-1.09-15.57-4.11-15.3-6.79,0.48-5.24,45.44-6.64,51-6.81,32.45-.88,44,1.94,72.72,2,27,0.05,44.88-2.38,60-3.9C612.5,36.35,686,39.3,733.64,41.55c29.94,1.41,49.74,2.4,49.94.94S766.77,39.28,767,37.64c0.29-2.33,35.08-.84,78.29-0.22v161C840.91,201.07,836.07,203.77,830.73,206.66Z"/><path class="cls-3" d="M425.25,60.87c-30,12-61.49,1.87-67.59-.2a83.86,83.86,0,0,1-5.77,11.2,71.7,71.7,0,0,1-17.76,19.77c-16.09,12.22-38.62,18.57-58.54,20.83-26.53,3-38.62-1.71-38.69-1.71h0c-10.49-1.66-10.41,4.36-16.85,11.87-7.42,8.61-18.08,13-32.88,19-31.54,12.87-65.51,6.51-73.22,5.07a122.84,122.84,0,0,1-27.57-8.4c-15.82-7.12-24.9-15.77-27.9-18.87-1.57.44-28.91,7-52-5.56a47.14,47.14,0,0,1-8-5.6v-1.82h0v-3.58h0v-13q0.07-17.36.07-34.71V31.52c69.34-4.7,154.26,3.41,154.62.88,0.16-1-12-2.09-11.84-3.16,0.23-1.76,33.55-.17,71,0,12,0,30.75-.39,68.31-1.26,67.36-1.58,88.31-2.91,112.94,0,3.49,0.41,11.57,1.44,22.77,1.89,4.42,0.19,8.3.19,11.88,0.19,4.58,0,10.27-.22,16.82-0.74,7,0.3,43.77,2,44.25,7.15,0.5,5.29-37.91,11.4-44.25,12.4A68.94,68.94,0,0,1,425.25,60.87Z"/><rect class="cls-3" x="-1.46" y="-1199.59" width="845.07" height="1244.56"/><path class="cls-3" d="M842.74,17H373.64c0.78,2.92,5.19,18.13,24.61,28C418.62,55.4,440,52,443.62,51.33c4.23,3.45,17.35,13.22,39,16.38a93.42,93.42,0,0,0,42.85-3.76c2.46,5.33,15.08,31,52.08,45.14,35.71,13.68,69.15,7.09,76.63,5.47,8,5.43,37.53,24.22,82.45,25.22A160.21,160.21,0,0,0,810,124.14a31.4,31.4,0,0,0,16.26,5,32.28,32.28,0,0,0,18-4.64Z"/></svg>