<svg id="Layer_1" data-name="Layer 1" xmlns="http://www.w3.org/2000/svg" viewBox="0 0 523 392.44"><defs><style>.cls-1{fill:#ada5ad;}.cls-2{fill:#887c88;}.cls-3{fill:#1d1d33;}</style></defs><title>facts</title><path class="cls-1" d="M185.15,163.11A22.9,22.9,0,0,0,199.7,168h110c13.75,1.86,26.35-7.73,28.26-20.7,1.76-12-6-24-18.31-27.38,0.11-1.62.44-9.19-5-14.92-5.84-6.18-16-7.68-24.87-3.32-4.37-13.19-17.09-21.39-29.84-19.9-10.65,1.25-19.81,9.09-23.21,19.9-1.36-.6-12.68-5.36-24,0.83a27.47,27.47,0,0,0-14.09,24c-13.62,1.76-22.4,13.68-20.73,24.46A19.72,19.72,0,0,0,185.15,163.11Z"/><path class="cls-1" d="M41.4,99H157.51a22,22,0,0,0,9.32-1.92C178.9,91.4,185.7,78.2,183,65.81s-14.48-21.66-28.19-21.55c-2.69-13.22-11.91-24-24.25-28.19-14.87-5-31.91.54-41.87,13.89-10.57-5.65-23.29-4.34-31.71,3.11-10.41,9.21-8.86,23.05-8.7,24.25A22,22,0,0,0,31.53,95,14.09,14.09,0,0,0,41.4,99Z"/><path class="cls-2" d="M55.33,58c-1.46-.45-14-4.08-24,3.67a21.89,21.89,0,0,0-8.5,13.5c-0.16,1-1.63,10.61,5.5,17.83A20.9,20.9,0,0,0,41.4,99a22.31,22.31,0,0,1-8.73-5c-5.28-4.92-7.92-12.37-7-18.33C27.24,65.49,39.71,56.36,55.33,58Z"/><path class="cls-2" d="M84.5,35.86c9.12-17.44,29.26-25.56,46.67-19.7,15.15,5.1,25.7,20,25.83,36.84-0.16-1.21-3.46-23.63-22.95-32.21C117.5,13.51,96.55,19.41,84.5,35.86Z"/><path class="cls-3" d="M73.42,64.55l0.31-9.22a6.34,6.34,0,0,1,1.5-.15A2.68,2.68,0,0,1,78,58.07a2.54,2.54,0,0,1-2.86,2.84,4.75,4.75,0,0,1-.69-0.07l0.21,3.92Zm1.16-4.75a3,3,0,0,0,.66.06A1.8,1.8,0,0,0,77,57.8,1.61,1.61,0,0,0,75.37,56H75.14a3.49,3.49,0,0,0-.67.07Z"/><path class="cls-3" d="M78.87,60.18c0-3.59,1.43-5.06,3.07-5.06,1.81,0,2.72,1.4,2.72,4.55,0,4.2-1.72,5.11-3,5.11C79.92,64.79,78.87,63.54,78.87,60.18Zm4.78,0.13c0-1.92-.5-4.34-2-4.34s-1.76,1.79-1.76,3.52c0,2.47.66,4.47,2,4.47S83.64,62,83.64,60.31Z"/><path class="cls-3" d="M85.91,64.55l0.31-9.22a6.34,6.34,0,0,1,1.5-.15,2.68,2.68,0,0,1,2.76,2.89,2.54,2.54,0,0,1-2.86,2.84,4.75,4.75,0,0,1-.69-0.07l0.21,3.92Zm1.16-4.75a3,3,0,0,0,.66.06,1.8,1.8,0,0,0,1.79-2.06A1.61,1.61,0,0,0,87.85,56H87.63A3.49,3.49,0,0,0,87,56Z"/><path class="cls-3" d="M96.86,55.06l-0.11,6.28c0,2.31-1.05,3.46-2.54,3.46s-2.4-.9-2.45-3.32l-0.14-6,0.73-.18,0.52,6.16c0.15,1.82.78,2.47,1.62,2.47s1.44-.59,1.44-2.06c0-.13,0-0.27,0-0.41l-0.38-6.05Z"/><path class="cls-3" d="M98.73,64.75l-0.41-9.27,1.06-.22,0.06,8.81,2.83-.39,0.31,0.84Z"/><path class="cls-3" d="M107,61.71l-2.21-.11-1.08,3-0.76.11,2.45-9.55,0.9,0.25,2.4,9.3-1.36.11ZM105,61.08l1.91-.15-0.56-2.59c-0.14-.67-0.28-1.39-0.39-2.07l-0.1.06Z"/><path class="cls-3" d="M110.77,64.79l-0.62-8.63-1.48.31-0.28-1.05,4.83-.18-0.15.52-1.62.22-0.06,8.91Z"/><path class="cls-3" d="M114.34,55.13l0.74,0.27,0.27,9.26-1.11.14Z"/><path class="cls-3" d="M116.65,60.18c0-3.59,1.43-5.06,3.07-5.06,1.81,0,2.72,1.4,2.72,4.55,0,4.2-1.72,5.11-3,5.11C117.7,64.79,116.65,63.54,116.65,60.18Zm4.78,0.13c0-1.92-.5-4.34-2-4.34s-1.76,1.79-1.76,3.52c0,2.47.66,4.47,2,4.47S121.43,62,121.43,60.31Z"/><path class="cls-3" d="M124.85,64.68l-0.78.28-0.55-9.51,1.48-.06,3,8h0L128,55l1,0.2-0.34,9.29-0.71.15-3.33-8h0c0,1.33,0,2.47.08,4.4Z"/><path class="cls-3" d="M131.76,64a0.84,0.84,0,0,1-.69.84,1,1,0,0,1-.62-1,0.51,0.51,0,0,1,.55-0.62A0.73,0.73,0,0,1,131.76,64ZM131,59.71c-0.31,0-.43-0.32-0.43-0.73s0-.88.49-0.88a0.86,0.86,0,0,1,.74.73A0.79,0.79,0,0,1,131,59.71Z"/><path class="cls-3" d="M84,81.21l-1,.27,0.22-2.65-3.31.2-0.11-.81,3.61-5.84h1l-0.29,5.74L85.15,78l-0.07.66L84,78.82v2.4ZM81.1,78l2.27,0.15-0.13-2.9c0-.62,0-1.18,0-1.77H83.16c-0.28.74-.46,1.18-0.7,1.71L81.08,78v0Z"/><path class="cls-3" d="M87.57,80.27A12,12,0,0,1,86.25,83l-0.63.2a20.07,20.07,0,0,0,.8-3.19Z"/><path class="cls-3" d="M90.68,81.3l0.15-7.8h0L89.25,74,89,73.54l2-1.09,0.5,0.06,0.38,9Z"/><path class="cls-3" d="M96.26,81.59C94.93,81.59,94,80,94,77s1-4.76,2.55-4.76c1.39,0,2.24,1.61,2.24,4.55C98.8,79.92,97.86,81.59,96.26,81.59Zm0.42-.84c0.81,0,1.16-1.18,1.16-2.84s-0.31-4.8-1.68-4.8c-1,0-1.23,1.47-1.23,2.89,0,1.89.42,4.82,1.74,4.78h0Z"/><path class="cls-3" d="M100.05,81.48l3.36-8.11v0l-3.53-.22-0.35-.57L104,72.3v0.87l-2.72,8.17Z"/><path class="cls-3" d="M107,80.27A12,12,0,0,1,105.7,83l-0.63.2a20.07,20.07,0,0,0,.8-3.19Z"/><path class="cls-3" d="M110.11,81.59c-1.33,0-2.26-1.56-2.26-4.57s1-4.76,2.55-4.76c1.39,0,2.24,1.61,2.24,4.55C112.64,79.92,111.7,81.59,110.11,81.59Zm0.42-.84c0.81,0,1.16-1.18,1.16-2.84s-0.31-4.8-1.68-4.8c-1,0-1.23,1.47-1.23,2.89,0,1.89.42,4.82,1.74,4.78h0Z"/><path class="cls-3" d="M115.71,81.59c-1.33,0-2.26-1.56-2.26-4.57s1-4.76,2.55-4.76c1.39,0,2.24,1.61,2.24,4.55C118.24,79.92,117.3,81.59,115.71,81.59Zm0.42-.84c0.81,0,1.16-1.18,1.16-2.84s-0.31-4.8-1.68-4.8c-1,0-1.23,1.47-1.23,2.89,0,1.89.42,4.82,1.74,4.78h0Z"/><path class="cls-3" d="M121.31,81.59c-1.33,0-2.26-1.56-2.26-4.57s1-4.76,2.55-4.76c1.39,0,2.24,1.61,2.24,4.55C123.84,79.92,122.9,81.59,121.31,81.59Zm0.42-.84c0.81,0,1.16-1.18,1.16-2.84s-0.31-4.8-1.68-4.8c-1,0-1.23,1.47-1.23,2.89,0,1.89.42,4.82,1.74,4.78h0Z"/><path class="cls-1" d="M476.77,99.25H360.66a22,22,0,0,1-9.32-1.92c-12.07-5.65-18.86-18.86-16.12-31.24S349.7,44.42,363.4,44.53c2.69-13.22,11.91-24,24.25-28.19,14.87-5,31.91.54,41.87,13.89,10.57-5.65,23.29-4.34,31.71,3.11,10.41,9.21,8.86,23.05,8.7,24.25a22,22,0,0,1,16.71,37.7A14.09,14.09,0,0,1,476.77,99.25Z"/><path class="cls-2" d="M462.84,58.26c1.46-.45,14-4.08,24,3.67a21.89,21.89,0,0,1,8.5,13.5c0.16,1,1.63,10.61-5.5,17.83a20.9,20.9,0,0,1-13.07,6,22.31,22.31,0,0,0,8.73-5c5.28-4.92,7.92-12.37,7-18.33C490.93,65.76,478.46,56.63,462.84,58.26Z"/><path class="cls-2" d="M433.67,36.13C424.54,18.69,404.4,10.57,387,16.43c-15.11,5.09-25.65,19.89-25.83,36.75,0.46-2.32,5-23.52,22.95-32.11C400.45,13.27,421,19.13,433.67,36.13Z"/><path class="cls-3" d="M396.32,54.58a2.24,2.24,0,0,0-1.12-.25c-1.46,0-2.56,1.57-2.56,4s0.92,4,2.69,4a2.84,2.84,0,0,0,.81-0.14l0.22,0.43a3.68,3.68,0,0,1-1.53.34h-0.13c-1.6-.1-3.11-1.16-3.11-4.3,0-.17,0-0.35,0-0.53,0.15-2.91,1.25-4.9,3.54-4.9a3,3,0,0,1,1.57.34Z"/><path class="cls-3" d="M401.2,59.85L399,59.73l-1.08,3-0.76.11,2.45-9.55,0.9,0.25,2.39,9.3-1.36.11Zm-2.07-.63,1.91-.15-0.56-2.59c-0.14-.67-0.28-1.39-0.39-2.07l-0.1.06Z"/><path class="cls-3" d="M404,62.69l0.31-9.22a6.34,6.34,0,0,1,1.5-.15,2.68,2.68,0,0,1,2.76,2.89A2.54,2.54,0,0,1,405.75,59a4.74,4.74,0,0,1-.69-0.07l0.21,3.92Zm1.16-4.75a3,3,0,0,0,.66.06,1.8,1.8,0,0,0,1.79-2.06A1.61,1.61,0,0,0,406,54.12h-0.22a3.49,3.49,0,0,0-.67.07Z"/><path class="cls-3" d="M410,53.26l0.74,0.27L411,62.79l-1.11.14Z"/><path class="cls-3" d="M414.35,62.93l-0.62-8.63-1.48.31L412,53.56l4.83-.18-0.15.52-1.62.22L415,63Z"/><path class="cls-3" d="M420.66,59.85l-2.21-.11-1.08,3-0.76.11,2.45-9.55,0.9,0.25,2.39,9.3-1.36.11Zm-2.07-.63,1.91-.15-0.56-2.59c-0.14-.67-0.28-1.39-0.39-2.07l-0.1.06Z"/><path class="cls-3" d="M423.81,62.89l-0.41-9.27,1.07-.22,0.06,8.81,2.83-.39,0.31,0.84Z"/><path class="cls-3" d="M429.75,62.16a0.84,0.84,0,0,1-.69.84,1,1,0,0,1-.62-1A0.51,0.51,0,0,1,429,61.4,0.73,0.73,0,0,1,429.75,62.16ZM429,57.84c-0.31,0-.43-0.32-0.43-0.73s0-.88.49-0.88a0.86,0.86,0,0,1,.74.73A0.79,0.79,0,0,1,429,57.84Z"/><path class="cls-3" d="M383.81,79.39l-0.79.17-2.06-9,1.12-.41,0.76,4.72c0.22,1.2.39,2.28,0.52,3.39h0.06l1.67-7.91,1-.2,1,4.62c0.24,1.12.45,2.21,0.59,3.12h0c0.17-1,.36-2,0.57-3.08l0.91-4.66,0.71,0.18-1.55,9.26-1.43-.43-0.6-4.26a24.41,24.41,0,0,0-.48-2.42h0Z"/><path class="cls-3" d="M394.47,74.2l0.2,0.59-2.41.34-0.39,3.47,3,0.15,0.1,0.59-4,.39,0.14-9.48L394.6,70l0.22,1.06L392,70.92l0.22,3.21Z"/><path class="cls-3" d="M396.34,79.69l-0.41-9.27,1.07-.22L397.06,79l2.83-.39,0.31,0.84Z"/><path class="cls-3" d="M401.37,79.69L401,70.41l1.06-.22L402.08,79l2.83-.39,0.31,0.84Z"/><path class="cls-3" d="M406.23,70.06L407,70.33l0.27,9.26-1.11.14Z"/><path class="cls-3" d="M410,79.62l-0.78.28-0.55-9.51,1.49-.06,3,8h0L413.12,70l1,0.2-0.34,9.29-0.71.15-3.33-8h0c0,1.33,0,2.47.08,4.4Z"/><path class="cls-3" d="M418.44,74.74L421,74.87l-0.11,4.59a5.66,5.66,0,0,1-1.93.36,3.38,3.38,0,0,1-2.49-1.05A5.58,5.58,0,0,1,415.38,75c0-3.54,1.88-4.92,3.74-4.92a3.19,3.19,0,0,1,1.51.36l-0.45.48a2.79,2.79,0,0,0-1-.2c-1.65,0-2.77,1.32-2.77,3.73,0,2.63.94,4.15,2.63,4.15a1.83,1.83,0,0,0,1.09-.27l-0.2-2.76-1.39.24Z"/><path class="cls-3" d="M424,79.73l-0.62-8.63-1.48.31-0.28-1.05,4.83-.18-0.15.52-1.62.22-0.06,8.91Z"/><path class="cls-3" d="M426.62,75.12c0-3.59,1.43-5.06,3.07-5.06,1.81,0,2.72,1.4,2.72,4.55,0,4.2-1.72,5.11-3,5.11C427.67,79.73,426.62,78.48,426.62,75.12Zm4.78,0.13c0-1.92-.5-4.34-2-4.34s-1.76,1.79-1.76,3.52c0,2.47.66,4.47,2,4.47S431.4,77,431.4,75.25Z"/><path class="cls-3" d="M434.83,79.62L434,79.9l-0.55-9.51,1.49-.06,3,8h0L437.92,70l1,0.2-0.34,9.29-0.71.15-3.33-8h0c0,1.33,0,2.47.08,4.4Z"/><path class="cls-2" d="M290.61,110c0.27-14.83-10-27.2-22.67-29.33-15-2.54-31.19,9.73-32.33,27.67,2.7-16.5,18-27.15,32.33-24.67C279.85,85.77,289.53,96.58,290.61,110Z"/><path class="cls-2" d="M236.79,101.71c-12.83-7-28-3.51-34.93,6.5-5.05,7.27-5.3,17.33-1,26-0.27-1-3.94-14.85,5.5-25.5C213.7,100.43,225.86,97.58,236.79,101.71Z"/><path class="cls-2" d="M313.61,119.21c13.85-.42,25.29,10,26.25,22.5,1.06,13.75-10.88,26.77-26.25,26.42,14.87-1.66,25-15,23.25-27.92C335.38,129.38,325.79,120.32,313.61,119.21Z"/><path class="cls-3" d="M251.88,128l-2.21-.11-1.08,3-0.76.11,2.45-9.55,0.9,0.25,2.4,9.3-1.36.11Zm-2.07-.63,1.91-.15-0.56-2.59c-0.14-.67-0.28-1.39-0.39-2.07l-0.1.06Z"/><path class="cls-3" d="M255,131.18l-0.39-9.58a6.23,6.23,0,0,1,1.71-.18,2.79,2.79,0,0,1,2.83,2.9,2,2,0,0,1-1.5,2.12v0a2.47,2.47,0,0,1,1.58,2,7.51,7.51,0,0,0,.84,2.21l-1.32.27a13.64,13.64,0,0,1-.64-2.33c-0.31-1.36-.81-1.83-1.77-1.93l-0.67-.07,0.18,4.23Zm1.37-5.18a2,2,0,0,0,1.89-2.06,1.7,1.7,0,0,0-2-1.74,1.51,1.51,0,0,0-.39,0l-0.11,3.8Z"/><path class="cls-3" d="M264.22,125.55l0.2,0.59-2.41.34-0.39,3.47,3,0.15,0.1,0.59-4,.39,0.14-9.48,3.43-.22,0.22,1.06-2.82-.17,0.22,3.21Z"/><path class="cls-3" d="M269.38,128l-2.21-.11-1.08,3-0.76.11,2.45-9.55,0.9,0.25,2.4,9.3-1.36.11Zm-2.07-.63,1.91-.15-0.56-2.59c-0.14-.67-0.28-1.39-0.39-2.07l-0.1.06Z"/><path class="cls-3" d="M273.44,130.31a0.84,0.84,0,0,1-.69.84,1,1,0,0,1-.62-1,0.51,0.51,0,0,1,.55-0.62A0.73,0.73,0,0,1,273.44,130.31ZM272.66,126c-0.31,0-.43-0.32-0.43-0.73s0-.88.49-0.88a0.86,0.86,0,0,1,.74.73A0.79,0.79,0,0,1,272.66,126Z"/><path class="cls-3" d="M236.42,146.83l0.13,1.05-4.5-.24,0.11-.62,0.83-.94c1.34-1.53,2.66-3.18,2.66-5a1.47,1.47,0,0,0-1.32-1.74,2.59,2.59,0,0,0-1.34.39l-0.28-.45a3.1,3.1,0,0,1,1.9-.83,1.92,1.92,0,0,1,2,2.23c0,1.62-1,3.35-2.79,5.34L233,147l0.11,0Z"/><path class="cls-3" d="M238.21,147.77l3.36-8.11v0l-3.53-.22-0.35-.57,4.51-.24v0.87l-2.72,8.17Z"/><path class="cls-3" d="M245.62,147.88c-1.33,0-2.26-1.55-2.26-4.57s1-4.76,2.55-4.76c1.39,0,2.24,1.61,2.24,4.55C248.15,146.21,247.22,147.88,245.62,147.88ZM246,147c0.81,0,1.16-1.18,1.16-2.84s-0.31-4.8-1.68-4.8c-1,0-1.23,1.47-1.23,2.88,0,1.89.42,4.82,1.74,4.78h0Z"/><path class="cls-3" d="M250.77,146.57a12,12,0,0,1-1.32,2.77l-0.63.2a20.09,20.09,0,0,0,.8-3.19Z"/><path class="cls-3" d="M251.76,146.5a2.93,2.93,0,0,0,1.51.46,2.16,2.16,0,0,0-.32-4.3,8,8,0,0,0-1,.08l0.73-4.08,3.35-.06-0.22.66-2.66.42-0.21,2.41a1.49,1.49,0,0,1,.53-0.06,2.58,2.58,0,0,1,2.63,2.86,2.8,2.8,0,0,1-2.79,3,3,3,0,0,1-1.5-.35Z"/><path class="cls-3" d="M259.94,142.92a2.29,2.29,0,0,1,1.51,2.41,2.56,2.56,0,0,1-2.65,2.68,3.25,3.25,0,0,1-1.57-.38l0.17-1.11a2.94,2.94,0,0,0,1.51.48,1.7,1.7,0,0,0,1.68-1.92,1.82,1.82,0,0,0-1.85-1.92h-0.32l-0.11-.88,0.42,0a1.64,1.64,0,0,0,1.75-1.68,1.29,1.29,0,0,0-1.32-1.44,2.26,2.26,0,0,0-1.13.31l-0.48-.29a2.8,2.8,0,0,1,1.71-.63,2.07,2.07,0,0,1,2.06,2.23,2.31,2.31,0,0,1-1.39,2.13h0Z"/><path class="cls-3" d="M266.68,147.5l-1,.27,0.22-2.65-3.31.2-0.11-.81,3.61-5.84h1l-0.29,5.74,1.08-.13-0.07.66-1.05.17v2.4Zm-2.93-3.17,2.27,0.15-0.13-2.9c0-.62,0-1.18,0-1.77h-0.06c-0.28.74-.46,1.18-0.7,1.71l-1.37,2.77v0Z"/><path class="cls-3" d="M272.36,138.33l0.15,5.84h0c0.11-.25.27-0.49,0.36-0.73l1.12-2.7,1,0.66-1.43,2.44,2.12,4-0.74-.11-2.1-3.12-0.31.5-0.06,2.51-0.69.22L271.22,138Z"/><path class="cls-3" d="M276.77,147.77l-0.21-5.06c0-.78,0-1.09-0.08-1.74l0.73,0,0.1,0.94h0.07a1.75,1.75,0,0,1,1.68-1.06,1.51,1.51,0,0,1,1.5,1.11h0a2,2,0,0,1,1.71-1.18c0.76,0,1.72.39,1.72,2,0,0.13,0,.27,0,0.41l-0.36,4.52-0.88-.06L283,143.5c0.07-1-.2-1.86-1.09-1.86-0.74,0-1.18.77-1.18,1.79l0,4.34-0.69,0-0.31-4.37c-0.06-.84-0.21-1.65-1.07-1.65a1.54,1.54,0,0,0-1.2,1.79l0.34,4.19Z"/><path class="cls-3" d="M285.11,143.83l0.15-.25,0.48-.38a4.32,4.32,0,0,0,1.83-2.72,1.27,1.27,0,0,0-1.43-1.29,1.6,1.6,0,0,0-.87.39l0-.42a2.25,2.25,0,0,1,1.6-.62,1.34,1.34,0,0,1,1.43,1.5,4.51,4.51,0,0,1-1.51,2.79l-0.52.53v0l2.17-.11-0.21.8Z"/><path class="cls-1" d="M337.1,317.11A22.9,22.9,0,0,1,322.54,322h-110A24.6,24.6,0,0,1,202.56,274c-0.11-1.62-.44-9.19,5-14.92,5.84-6.18,16-7.68,24.87-3.32,4.37-13.19,17.09-21.39,29.84-19.9,10.65,1.25,19.81,9.09,23.21,19.9,1.36-.6,12.68-5.36,24,0.83a27.47,27.47,0,0,1,14.09,24c13.62,1.76,22.4,13.68,20.73,24.46A19.72,19.72,0,0,1,337.1,317.11Z"/><path class="cls-2" d="M231.64,264c-0.27-14.83,10-27.2,22.67-29.33,15-2.54,31.19,9.73,32.33,27.67-2.7-16.5-18-27.15-32.33-24.67C242.4,239.77,232.71,250.58,231.64,264Z"/><path class="cls-2" d="M285.46,255.72c12.83-7,28-3.51,34.93,6.5,5.05,7.27,5.3,17.33,1,26,0.27-1,3.94-14.85-5.5-25.5C308.55,254.43,296.38,251.58,285.46,255.72Z"/><path class="cls-2" d="M208.64,273.22c-13.85-.42-25.29,10-26.25,22.5-1.06,13.75,10.88,26.77,26.25,26.42-14.87-1.66-25-15-23.25-27.92C186.86,283.39,196.46,274.33,208.64,273.22Z"/><path class="cls-3" d="M236.65,286l-0.41-9.27,1.06-.22,0.06,8.81,2.83-.39,0.31,0.84Z"/><path class="cls-3" d="M245,282.92l-2.21-.11-1.08,3-0.76.11,2.45-9.55,0.9,0.25,2.4,9.3-1.36.11Zm-2.07-.63,1.91-.15-0.56-2.59c-0.14-.67-0.28-1.39-0.39-2.07l-0.1.06Z"/><path class="cls-3" d="M249,285.89l-0.78.28-0.55-9.51,1.48-.06,3,8h0l-0.08-8.33,1,0.2-0.34,9.29-0.71.15-3.33-8h0c0,1.33,0,2.47.08,4.4Z"/><path class="cls-3" d="M257.39,281l2.55,0.13-0.11,4.59a5.64,5.64,0,0,1-1.93.36,3.38,3.38,0,0,1-2.49-1,5.58,5.58,0,0,1-1.06-3.77c0-3.54,1.88-4.92,3.74-4.92a3.2,3.2,0,0,1,1.51.36l-0.45.48a2.78,2.78,0,0,0-1-.2c-1.65,0-2.77,1.32-2.77,3.73,0,2.63.94,4.15,2.63,4.15a1.84,1.84,0,0,0,1.09-.27l-0.2-2.76-1.39.24Z"/><path class="cls-3" d="M266.35,276.27l-0.11,6.28c0,2.31-1.05,3.46-2.54,3.46s-2.4-.9-2.45-3.32l-0.14-6,0.73-.18,0.52,6.16c0.15,1.82.78,2.46,1.62,2.46s1.44-.59,1.44-2.06a4,4,0,0,0,0-.41L265,276.64Z"/><path class="cls-3" d="M271.1,282.92l-2.21-.11-1.08,3-0.76.11,2.45-9.55,0.9,0.25,2.4,9.3-1.36.11Zm-2.07-.63,1.91-.15-0.56-2.59c-0.14-.67-0.28-1.39-0.39-2.07l-0.1.06Z"/><path class="cls-3" d="M276.43,281l2.55,0.13-0.11,4.59a5.63,5.63,0,0,1-1.93.36,3.38,3.38,0,0,1-2.49-1,5.58,5.58,0,0,1-1.07-3.77c0-3.54,1.88-4.92,3.74-4.92a3.2,3.2,0,0,1,1.51.36l-0.45.48a2.78,2.78,0,0,0-1-.2c-1.65,0-2.77,1.32-2.77,3.73,0,2.63.94,4.15,2.63,4.15a1.84,1.84,0,0,0,1.09-.27l-0.2-2.76-1.39.24Z"/><path class="cls-3" d="M283.82,280.47l0.2,0.59-2.41.34-0.39,3.47,3,0.15,0.1,0.59-4,.39,0.14-9.48,3.43-.22,0.22,1.06-2.82-.17,0.22,3.21Z"/><path class="cls-3" d="M286.61,285.24a0.84,0.84,0,0,1-.69.84,1,1,0,0,1-.62-1,0.51,0.51,0,0,1,.55-0.62A0.73,0.73,0,0,1,286.61,285.24Zm-0.78-4.31c-0.31,0-.43-0.32-0.43-0.73s0-.88.49-0.88a0.86,0.86,0,0,1,.74.73A0.79,0.79,0,0,1,285.82,280.92Z"/><path class="cls-3" d="M227.39,297.27l0.2,0.59-2.41.34-0.39,3.47,3,0.15,0.1,0.59-4,.39,0.14-9.48,3.43-.22,0.22,1.06-2.82-.17,0.22,3.21Z"/><path class="cls-3" d="M230.12,302.69l-0.78.28-0.55-9.51,1.48-.06,3,8h0l-0.08-8.33,1,0.2-0.34,9.29-0.71.15-3.33-8h0c0,1.33,0,2.47.08,4.4Z"/><path class="cls-3" d="M238.53,297.82l2.55,0.13L241,302.54a5.64,5.64,0,0,1-1.93.36,3.38,3.38,0,0,1-2.49-1,5.58,5.58,0,0,1-1.06-3.77c0-3.54,1.88-4.92,3.74-4.92a3.2,3.2,0,0,1,1.51.36l-0.45.48a2.78,2.78,0,0,0-1-.2c-1.65,0-2.77,1.32-2.77,3.73,0,2.63.94,4.15,2.63,4.15a1.84,1.84,0,0,0,1.09-.27l-0.2-2.76-1.39.24Z"/><path class="cls-3" d="M242.62,302.76l-0.41-9.27,1.06-.22,0.06,8.81,2.83-.39,0.31,0.84Z"/><path class="cls-3" d="M247.48,293.14l0.74,0.27,0.27,9.26-1.11.14Z"/><path class="cls-3" d="M250,301.73a2.76,2.76,0,0,0,1.4.43,1.63,1.63,0,0,0,1.71-1.68,2.86,2.86,0,0,0-1.36-2.14c-1-.83-1.89-1.3-1.89-2.73a2.38,2.38,0,0,1,2.52-2.44,2.82,2.82,0,0,1,1.41.31l-0.27,1a2.26,2.26,0,0,0-1.22-.34,1.37,1.37,0,0,0-1.54,1.32,2.16,2.16,0,0,0,1.51,2c1.09,0.59,2,1.25,2,2.67a2.75,2.75,0,0,1-2.87,2.7,3.34,3.34,0,0,1-1.77-.52Z"/><path class="cls-3" d="M255.58,293.11l1.29,0.14-0.46,4.17,3.14-.1-0.21-4.08,1.13-.11,0.1,9.55-0.91.08-0.13-4.4-3.08-.18-0.34,4.57-0.73-.14Z"/><path class="cls-3" d="M263.6,301.49a12,12,0,0,1-1.32,2.77l-0.63.2a20.09,20.09,0,0,0,.8-3.19Z"/><path class="cls-3" d="M275.79,302.58l-0.48-7.79h-0.06l-2.19,8-0.63-.24-2.06-7.69h0l-0.21,8L269,302.6l0.74-9.22,1.09-.24,1.92,7.86h0.11l1.7-7.4,1.57-.35,0.28,9.44Z"/><path class="cls-3" d="M281.62,299.72l-2.21-.11-1.08,3-0.76.11,2.45-9.55,0.9,0.25,2.4,9.3-1.36.11Zm-2.07-.63,1.91-.15-0.56-2.59c-0.14-.67-0.28-1.39-0.39-2.07l-0.1.06Z"/><path class="cls-3" d="M283.9,298.2c0-3.59,1.43-5.06,3.07-5.06,1.81,0,2.72,1.4,2.72,4.55,0,4.2-1.72,5.11-3,5.11C285,302.81,283.9,301.56,283.9,298.2Zm4.78,0.13c0-1.92-.5-4.34-2-4.34s-1.76,1.79-1.76,3.52c0,2.46.66,4.47,2,4.47S288.68,300,288.68,298.32Z"/><path class="cls-3" d="M291.27,302.9l-0.39-9.58a6.23,6.23,0,0,1,1.71-.18,2.79,2.79,0,0,1,2.83,2.9,2,2,0,0,1-1.5,2.12v0a2.47,2.47,0,0,1,1.58,2,7.53,7.53,0,0,0,.84,2.21l-1.32.27a13.71,13.71,0,0,1-.64-2.33c-0.31-1.36-.81-1.83-1.77-1.93l-0.67-.07,0.18,4.23Zm1.37-5.18a2,2,0,0,0,1.89-2.06,1.7,1.7,0,0,0-2-1.74,1.52,1.52,0,0,0-.39,0l-0.11,3.8Z"/><path class="cls-3" d="M297,293.14l0.74,0.27,0.27,9.26-1.11.14Z"/><path class="cls-1" d="M168.16,241.65H52.05a22,22,0,0,1-9.32-1.92c-12.07-5.65-18.86-18.86-16.12-31.24s14.48-21.66,28.19-21.55c2.69-13.22,11.91-24,24.25-28.19,14.87-5,31.91.54,41.87,13.89,10.57-5.65,23.29-4.34,31.71,3.11,10.41,9.21,8.86,23.05,8.7,24.25A22,22,0,0,1,178,237.69,14.09,14.09,0,0,1,168.16,241.65Z"/><path class="cls-2" d="M154.23,200.66c1.46-.45,14-4.08,24,3.67a21.89,21.89,0,0,1,8.5,13.5c0.16,1,1.63,10.61-5.5,17.83a20.9,20.9,0,0,1-13.07,6,22.31,22.31,0,0,0,8.73-5c5.28-4.92,7.92-12.37,7-18.33C182.32,208.16,169.85,199,154.23,200.66Z"/><path class="cls-2" d="M125.06,178.53C115.94,161.09,95.8,153,78.4,158.83c-15.11,5.09-25.65,19.89-25.83,36.75,0.46-2.32,5-23.52,22.95-32.11C91.84,155.67,112.38,161.53,125.06,178.53Z"/><path class="cls-3" d="M85.21,197a2.24,2.24,0,0,0-1.12-.25c-1.46,0-2.56,1.57-2.56,4s0.92,4,2.69,4a2.83,2.83,0,0,0,.81-0.14L85.26,205a3.68,3.68,0,0,1-1.53.34H83.6c-1.6-.1-3.11-1.16-3.11-4.3,0-.17,0-0.35,0-0.53,0.15-2.91,1.25-4.9,3.54-4.9a3,3,0,0,1,1.57.34Z"/><path class="cls-3" d="M91.68,195.59l-0.11,6.28c0,2.31-1.05,3.46-2.54,3.46s-2.4-.9-2.45-3.32l-0.14-6,0.73-.18L87.69,202c0.15,1.82.78,2.47,1.62,2.47s1.44-.59,1.44-2.06c0-.13,0-0.27,0-0.41L90.37,196Z"/><path class="cls-3" d="M93.57,205.43l-0.39-9.58a6.23,6.23,0,0,1,1.71-.18,2.79,2.79,0,0,1,2.83,2.9,2,2,0,0,1-1.5,2.12v0a2.47,2.47,0,0,1,1.58,2,7.5,7.5,0,0,0,.84,2.21l-1.32.27a13.64,13.64,0,0,1-.64-2.33c-0.31-1.36-.81-1.83-1.77-1.93l-0.67-.07,0.18,4.23Zm1.37-5.18a2,2,0,0,0,1.89-2.06,1.7,1.7,0,0,0-2-1.74,1.51,1.51,0,0,0-.39,0l-0.11,3.8Z"/><path class="cls-3" d="M99.45,205.43l-0.39-9.58a6.23,6.23,0,0,1,1.71-.18,2.79,2.79,0,0,1,2.83,2.9,2,2,0,0,1-1.5,2.12v0a2.47,2.47,0,0,1,1.58,2,7.5,7.5,0,0,0,.84,2.21l-1.32.27a13.64,13.64,0,0,1-.64-2.33c-0.31-1.36-.81-1.83-1.77-1.93l-0.67-.07,0.18,4.23Zm1.37-5.18a2,2,0,0,0,1.89-2.06,1.7,1.7,0,0,0-2-1.74,1.51,1.51,0,0,0-.39,0l-0.11,3.8Z"/><path class="cls-3" d="M108.62,199.8l0.2,0.59-2.41.34L106,204.19l3,0.15,0.1,0.59-4,.39,0.14-9.48,3.43-.22,0.22,1.06-2.82-.17,0.22,3.21Z"/><path class="cls-3" d="M111.35,205.22l-0.78.28L110,196l1.48-.06,3,8h0l-0.08-8.33,1,0.2-0.34,9.29-0.71.15-3.33-8h0c0,1.33,0,2.46.08,4.4Z"/><path class="cls-3" d="M121.4,197a2.24,2.24,0,0,0-1.12-.25c-1.46,0-2.56,1.57-2.56,4s0.92,4,2.69,4a2.83,2.83,0,0,0,.81-0.14l0.22,0.43a3.68,3.68,0,0,1-1.53.34h-0.13c-1.6-.1-3.11-1.16-3.11-4.3,0-.17,0-0.35,0-0.53,0.15-2.91,1.25-4.9,3.54-4.9a3,3,0,0,1,1.57.34Z"/><path class="cls-3" d="M125,205.22l-0.81-.11,0.08-3.94-2-5.59,0.73,0.2,2.13,4.37h0l1.2-4.16,1.44-.21-2.48,5.35Z"/><path class="cls-3" d="M129.06,204.56a0.84,0.84,0,0,1-.69.84,1,1,0,0,1-.62-1,0.51,0.51,0,0,1,.55-0.62A0.73,0.73,0,0,1,129.06,204.56Zm-0.78-4.31c-0.31,0-.43-0.32-0.43-0.73s0-.88.49-0.88a0.86,0.86,0,0,1,.74.73A0.79,0.79,0,0,1,128.27,200.24Z"/><path class="cls-3" d="M54,222l-0.78.28-0.55-9.51,1.48-.06,3,8h0l-0.08-8.33,1,0.2-0.34,9.29L57,222l-3.33-8h0c0,1.33,0,2.46.08,4.4Z"/><path class="cls-3" d="M63.26,216.6l0.2,0.59-2.41.34L60.66,221l3,0.15,0.1,0.59-4,.39L60,212.65l3.43-.22,0.22,1.06-2.82-.17L61,216.53Z"/><path class="cls-3" d="M67.18,221.79L66.4,222l-2.06-9,1.12-.41,0.76,4.72c0.22,1.2.39,2.28,0.52,3.39h0.06l1.67-7.91,1-.2,1,4.62c0.24,1.12.45,2.21,0.59,3.12h0c0.17-1,.36-2,0.57-3.08l0.91-4.67,0.71,0.18L71.64,222l-1.43-.43-0.6-4.26a24.53,24.53,0,0,0-.48-2.42h0Z"/><path class="cls-3" d="M76.88,222.23l-0.38-.49,3.59-8.32v0l-3.26.24,0.31-1.05,4.17,0.24,0.11,0.56L77.58,221l0,0.14,4,0.36V222Z"/><path class="cls-3" d="M86.18,216.6l0.2,0.59-2.41.34L83.57,221l3,0.15,0.1,0.59-4,.39,0.14-9.48,3.43-.22,0.22,1.06-2.82-.17,0.22,3.21Z"/><path class="cls-3" d="M91.35,219l-2.21-.11-1.08,3L87.3,222l2.45-9.55,0.9,0.25L93,222l-1.36.11Zm-2.07-.63,1.91-.15-0.56-2.59c-0.14-.67-0.28-1.39-0.39-2.07l-0.1.06Z"/><path class="cls-3" d="M94.49,222.09l-0.41-9.27,1.06-.22,0.06,8.81L98,221l0.31,0.84Z"/><path class="cls-3" d="M102.81,219l-2.21-.11-1.08,3-0.76.11,2.45-9.55,0.9,0.25,2.4,9.3-1.36.11Zm-2.07-.63,1.91-.15-0.56-2.59c-0.14-.67-0.28-1.39-0.39-2.07l-0.1.06Z"/><path class="cls-3" d="M106.81,222l-0.78.28-0.55-9.51,1.48-.06,3,8h0l-0.08-8.33,1,0.2-0.34,9.29-0.71.15-3.33-8h0c0,1.33,0,2.46.08,4.4Z"/><path class="cls-3" d="M114.42,212.44c3,0.18,3.47,2.42,3.47,4.38,0,2.77-.83,5.2-3.94,5.2a7.32,7.32,0,0,1-1.54-.18l0.34-9.25a6.24,6.24,0,0,1,1.4-.15h0.27ZM113.74,221a2.17,2.17,0,0,0,.57.08c2.3,0,2.48-2.14,2.48-3.54,0-3.53-1.4-4.36-2.49-4.36a3,3,0,0,0-.77.1Z"/><path class="cls-3" d="M123.71,212.44c3,0.18,3.47,2.42,3.47,4.38,0,2.77-.83,5.2-3.94,5.2a7.32,7.32,0,0,1-1.54-.18l0.34-9.25a6.24,6.24,0,0,1,1.4-.15h0.27ZM123,221a2.17,2.17,0,0,0,.57.08c2.3,0,2.48-2.14,2.48-3.54,0-3.53-1.4-4.36-2.49-4.36a3.05,3.05,0,0,0-.77.1Z"/><path class="cls-3" d="M128.11,217.52c0-3.59,1.43-5.06,3.07-5.06,1.81,0,2.72,1.4,2.72,4.55,0,4.2-1.72,5.11-3,5.11C129.16,222.13,128.11,220.88,128.11,217.52Zm4.78,0.13c0-1.92-.5-4.34-2-4.34s-1.77,1.79-1.77,3.52c0,2.47.66,4.47,2,4.47S132.88,219.35,132.88,217.65Z"/><path class="cls-3" d="M135.46,222.09l-0.41-9.27,1.06-.22,0.06,8.81L139,221l0.31,0.84Z"/><path class="cls-3" d="M140.48,222.09l-0.41-9.27,1.06-.22,0.06,8.81L144,221l0.31,0.84Z"/><path class="cls-3" d="M148.8,219l-2.21-.11-1.08,3-0.76.11,2.45-9.55,0.9,0.25,2.4,9.3-1.36.11Zm-2.07-.63,1.91-.15-0.56-2.59c-0.14-.67-0.28-1.39-0.39-2.07l-0.1.06Z"/><path class="cls-3" d="M152,222.23l-0.39-9.58a6.23,6.23,0,0,1,1.71-.18,2.79,2.79,0,0,1,2.83,2.9,2,2,0,0,1-1.5,2.12v0a2.47,2.47,0,0,1,1.58,2,7.5,7.5,0,0,0,.84,2.21l-1.32.27a13.64,13.64,0,0,1-.64-2.33c-0.31-1.36-.81-1.83-1.77-1.93l-0.67-.07,0.18,4.23Zm1.37-5.18a2,2,0,0,0,1.89-2.06,1.7,1.7,0,0,0-2-1.74,1.51,1.51,0,0,0-.39,0l-0.11,3.8Z"/><path class="cls-1" d="M19.74,373a22.9,22.9,0,0,0,14.56,4.93h110c14,2.31,27.09-7.4,29-20.61,1.77-12.18-6.38-24.36-19.05-27.48,0.11-1.62.44-9.19-5-14.92-5.84-6.18-16-7.68-24.87-3.32-4.37-13.19-17.09-21.39-29.84-19.9-10.65,1.25-19.81,9.09-23.21,19.9-1.36-.6-12.68-5.36-24,0.83a27.47,27.47,0,0,0-14.09,24c-13.62,1.76-22.4,13.68-20.73,24.46A19.72,19.72,0,0,0,19.74,373Z"/><path class="cls-2" d="M125.2,319.95c0.27-14.83-10-27.2-22.67-29.33-15-2.54-31.19,9.73-32.33,27.67,2.7-16.5,18-27.15,32.33-24.67C114.44,295.67,124.12,306.49,125.2,319.95Z"/><path class="cls-2" d="M71.38,311.62c-12.83-7-28-3.51-34.93,6.5-5.05,7.27-5.3,17.33-1,26-0.27-1-3.94-14.85,5.5-25.5C48.29,310.33,60.46,307.49,71.38,311.62Z"/><path class="cls-2" d="M148.2,329.12c13.85-.42,25.29,10,26.25,22.5,1.06,13.75-10.88,26.77-26.25,26.42,14.87-1.66,25-15,23.25-27.92C170,339.29,160.38,330.23,148.2,329.12Z"/><path class="cls-3" d="M54.93,345.25L54.52,336l1.06-.22,0.06,8.81,2.83-.39L58.78,345Z"/><path class="cls-3" d="M59.79,335.62l0.74,0.27,0.27,9.26-1.11.14Z"/><path class="cls-3" d="M62.6,345.3l-0.25-9.57H66.1l-0.2,1.21-2.69-.31,0.32,3.28,2.37-.06,0.18,0.5-2.44.42-0.15,4.1Z"/><path class="cls-3" d="M71.09,339.76l0.2,0.59-2.41.34-0.39,3.47,3,0.15,0.1,0.59-4,.39,0.14-9.48,3.43-.22,0.22,1.06-2.82-.17,0.22,3.21Z"/><path class="cls-3" d="M78.93,339.76l0.2,0.59-2.41.34-0.39,3.47,3,0.15,0.1,0.59-4,.39,0.14-9.48,3.43-.22,0.22,1.06-2.82-.17,0.22,3.21Z"/><path class="cls-3" d="M85.63,345.18l-1.22.29-1.75-4.3h0l-1.11,3.88-1.23.13,1.68-5-2.28-4.44,0.55-.18,2.35,4h0c0.18-.66.32-1.06,1.23-3.78H84.5l-1.32,4.52Z"/><path class="cls-3" d="M86.34,345.05l0.31-9.22a6.35,6.35,0,0,1,1.5-.15,2.68,2.68,0,0,1,2.76,2.88,2.54,2.54,0,0,1-2.86,2.84,4.82,4.82,0,0,1-.69-0.07l0.21,3.92Zm1.16-4.75a3,3,0,0,0,.66.06A1.8,1.8,0,0,0,90,338.3a1.61,1.61,0,0,0-1.67-1.82H88.07a3.49,3.49,0,0,0-.67.07Z"/><path class="cls-3" d="M95.45,339.76l0.2,0.59-2.41.34-0.39,3.47,3,0.15L96,344.9l-4,.39,0.14-9.48,3.43-.22,0.22,1.06L93,336.48l0.22,3.21Z"/><path class="cls-3" d="M101.38,336.94a2.24,2.24,0,0,0-1.12-.25c-1.46,0-2.56,1.57-2.56,4s0.92,4,2.69,4a2.83,2.83,0,0,0,.81-0.14l0.22,0.43a3.68,3.68,0,0,1-1.53.34H99.77c-1.6-.1-3.11-1.16-3.11-4.3,0-.17,0-0.35,0-0.53,0.15-2.91,1.25-4.9,3.54-4.9a3,3,0,0,1,1.57.34Z"/><path class="cls-3" d="M104.43,345.29l-0.62-8.63-1.48.31-0.28-1,4.83-.18-0.15.52-1.62.22L105,345.39Z"/><path class="cls-3" d="M110.75,342.21l-2.21-.11-1.08,3-0.76.11,2.45-9.55,0.9,0.25,2.4,9.3-1.36.11Zm-2.07-.63,1.91-.15L110,338.83c-0.14-.67-0.28-1.39-0.39-2.07l-0.1.06Z"/><path class="cls-3" d="M114.75,345.18l-0.78.28-0.55-9.51,1.48-.06,3,8h0l-0.08-8.33,1,0.2L118.55,345l-0.71.15-3.33-8h0c0,1.33,0,2.46.08,4.4Z"/><path class="cls-3" d="M124.8,336.94a2.24,2.24,0,0,0-1.12-.25c-1.46,0-2.56,1.57-2.56,4s0.92,4,2.69,4a2.83,2.83,0,0,0,.81-0.14l0.22,0.43a3.68,3.68,0,0,1-1.53.34h-0.13c-1.6-.1-3.11-1.16-3.11-4.3,0-.17,0-0.35,0-0.53,0.15-2.91,1.25-4.9,3.54-4.9a3,3,0,0,1,1.57.34Z"/><path class="cls-3" d="M128.37,345.18l-0.81-.11,0.08-3.94-2-5.59,0.73,0.2,2.13,4.37h0l1.2-4.16,1.44-.21-2.48,5.35Z"/><path class="cls-3" d="M132.46,344.52a0.84,0.84,0,0,1-.69.84,1,1,0,0,1-.62-1,0.51,0.51,0,0,1,.55-0.62A0.73,0.73,0,0,1,132.46,344.52Zm-0.78-4.31c-0.31,0-.43-0.32-0.43-0.73s0-.88.49-0.88a0.86,0.86,0,0,1,.74.73A0.79,0.79,0,0,1,131.68,340.21Z"/><path class="cls-3" d="M88.21,362l3.36-8.11v0L88,353.62,87.69,353l4.51-.24v0.87l-2.72,8.17Z"/><path class="cls-3" d="M95,357.17a2.53,2.53,0,0,1-1.19-2,2.3,2.3,0,0,1,2.25-2.38,1.86,1.86,0,0,1,1.92,2,2.69,2.69,0,0,1-1.39,2.3v0a2.74,2.74,0,0,1,1.4,2.34,2.53,2.53,0,0,1-2.52,2.65,2.13,2.13,0,0,1-2.23-2.2A3.31,3.31,0,0,1,95,357.2v0Zm2.19,2.62a2.45,2.45,0,0,0-1.71-2.28,2.41,2.41,0,0,0-1.11,2c0,1.11.57,1.89,1.51,1.83A1.39,1.39,0,0,0,97.2,359.79Zm-1.27-6.5A1.48,1.48,0,0,0,94.67,355a2,2,0,0,0,1,1.67A2.07,2.07,0,0,0,97,355a2.28,2.28,0,0,0,0-.42,1.16,1.16,0,0,0-.91-1.3H95.92Z"/><path class="cls-1" d="M487.65,224.52a22.9,22.9,0,0,1-14.56,4.93h-110a24.59,24.59,0,0,1-9.95-48.08c-0.11-1.62-.44-9.19,5-14.92,5.84-6.18,16-7.68,24.87-3.32,4.37-13.19,17.09-21.39,29.84-19.9,10.65,1.25,19.81,9.09,23.21,19.9,1.36-.6,12.68-5.36,24,0.83a27.47,27.47,0,0,1,14.09,24c13.62,1.76,22.4,13.68,20.73,24.46A19.72,19.72,0,0,1,487.65,224.52Z"/><path class="cls-2" d="M382.19,171.46c-0.27-14.83,10-27.2,22.67-29.33,15-2.54,31.19,9.73,32.33,27.67-2.7-16.5-18-27.15-32.33-24.67C392.94,147.18,383.26,158,382.19,171.46Z"/><path class="cls-2" d="M436,163.13c12.83-7,28-3.51,34.93,6.5,5.05,7.27,5.3,17.33,1,26,0.27-1,3.94-14.85-5.5-25.5C459.1,161.84,446.93,159,436,163.13Z"/><path class="cls-2" d="M359.19,180.62c-13.85-.42-25.29,10-26.25,22.5-1.06,13.75,10.88,26.77,26.25,26.42-14.87-1.66-25-15-23.25-27.92C337.41,190.79,347,181.73,359.19,180.62Z"/><path class="cls-3" d="M368.53,193.43l2.55,0.13L371,198.15a5.63,5.63,0,0,1-1.93.36,3.38,3.38,0,0,1-2.49-1,5.58,5.58,0,0,1-1.07-3.77c0-3.54,1.88-4.92,3.74-4.92a3.2,3.2,0,0,1,1.51.36l-0.45.48a2.78,2.78,0,0,0-1-.2c-1.65,0-2.77,1.32-2.77,3.73,0,2.63.94,4.15,2.63,4.15a1.84,1.84,0,0,0,1.09-.27l-0.2-2.76-1.39.24Z"/><path class="cls-3" d="M374.23,188.72c3,0.18,3.47,2.42,3.47,4.38,0,2.77-.83,5.2-3.94,5.2a7.33,7.33,0,0,1-1.54-.18l0.34-9.25a6.17,6.17,0,0,1,1.4-.15h0.27Zm-0.67,8.52a2.17,2.17,0,0,0,.57.08c2.3,0,2.48-2.14,2.48-3.54,0-3.53-1.4-4.36-2.49-4.36a3,3,0,0,0-.77.1Z"/><path class="cls-3" d="M378.94,198.18l0.31-9.22a6.34,6.34,0,0,1,1.5-.15,2.68,2.68,0,0,1,2.76,2.89,2.54,2.54,0,0,1-2.86,2.84,4.67,4.67,0,0,1-.69-0.07l0.21,3.92Zm1.16-4.75a3,3,0,0,0,.66.06,1.8,1.8,0,0,0,1.79-2.06,1.61,1.61,0,0,0-1.67-1.82h-0.22a3.49,3.49,0,0,0-.67.07Z"/><path class="cls-3" d="M387.37,198.18l0.31-9.22a6.34,6.34,0,0,1,1.5-.15,2.68,2.68,0,0,1,2.76,2.89,2.54,2.54,0,0,1-2.86,2.84,4.68,4.68,0,0,1-.69-0.07l0.21,3.92Zm1.16-4.75a3,3,0,0,0,.66.06,1.8,1.8,0,0,0,1.79-2.06,1.61,1.61,0,0,0-1.67-1.82h-0.22a3.49,3.49,0,0,0-.67.07Z"/><path class="cls-3" d="M396.47,192.88l0.2,0.59-2.41.34-0.39,3.47,3,0.15L397,198l-4,.39,0.14-9.48,3.43-.22,0.22,1.06L394,189.6l0.22,3.21Z"/><path class="cls-3" d="M398.36,198.51L398,188.93a6.23,6.23,0,0,1,1.71-.18,2.79,2.79,0,0,1,2.83,2.9,2,2,0,0,1-1.5,2.12v0a2.47,2.47,0,0,1,1.58,2,7.53,7.53,0,0,0,.84,2.21l-1.32.27a13.71,13.71,0,0,1-.64-2.33c-0.31-1.36-.81-1.83-1.77-1.93L399,194l0.18,4.23Zm1.37-5.18a2,2,0,0,0,1.89-2.06,1.7,1.7,0,0,0-2-1.74,1.52,1.52,0,0,0-.39,0l-0.11,3.8Z"/><path class="cls-3" d="M410.95,190.07a2.25,2.25,0,0,0-1.12-.25c-1.46,0-2.56,1.57-2.56,4s0.92,4,2.69,4a2.84,2.84,0,0,0,.81-0.14l0.22,0.43a3.68,3.68,0,0,1-1.53.34h-0.13c-1.6-.1-3.11-1.16-3.11-4.3,0-.17,0-0.35,0-0.53,0.15-2.91,1.25-4.9,3.54-4.9a3,3,0,0,1,1.57.34Z"/><path class="cls-3" d="M415.83,195.33l-2.21-.11-1.08,3-0.76.11,2.45-9.55,0.9,0.25,2.4,9.3-1.36.11Zm-2.07-.63,1.91-.15L415.11,192c-0.14-.67-0.28-1.39-0.39-2.07l-0.1.06Z"/><path class="cls-3" d="M418.67,198.18L419,189a6.34,6.34,0,0,1,1.5-.15,2.68,2.68,0,0,1,2.76,2.89,2.54,2.54,0,0,1-2.86,2.84,4.67,4.67,0,0,1-.69-0.07l0.21,3.92Zm1.16-4.75a3,3,0,0,0,.66.06,1.8,1.8,0,0,0,1.79-2.06,1.61,1.61,0,0,0-1.67-1.82H420.4a3.49,3.49,0,0,0-.67.07Z"/><path class="cls-3" d="M424.58,188.75l0.74,0.27,0.27,9.26-1.11.14Z"/><path class="cls-3" d="M429,198.42l-0.62-8.63-1.48.31L426.6,189l4.83-.18-0.15.52-1.62.22-0.06,8.91Z"/><path class="cls-3" d="M435.29,195.33l-2.21-.11-1.08,3-0.76.11,2.45-9.55,0.9,0.25,2.4,9.3-1.36.11Zm-2.07-.63,1.91-.15L434.57,192c-0.14-.67-0.28-1.39-0.39-2.07l-0.1.06Z"/><path class="cls-3" d="M439.35,197.64a0.84,0.84,0,0,1-.69.84,1,1,0,0,1-.62-1,0.51,0.51,0,0,1,.55-0.62A0.73,0.73,0,0,1,439.35,197.64Zm-0.79-4.31c-0.31,0-.43-0.32-0.43-0.73s0-.88.49-0.88a0.86,0.86,0,0,1,.74.73A0.79,0.79,0,0,1,438.57,193.33Z"/><path class="cls-3" d="M447.61,188.68L447.5,195c0,2.31-1.05,3.46-2.54,3.46s-2.4-.9-2.45-3.32l-0.14-6,0.73-.18,0.52,6.16c0.15,1.82.78,2.46,1.63,2.46s1.44-.59,1.44-2.06c0-.13,0-0.27,0-0.41L446.3,189Z"/><path class="cls-3" d="M449.59,198.47c-0.48,0-.48-0.78-0.48-0.94a0.54,0.54,0,0,1,.45-0.67,0.74,0.74,0,0,1,.78.8A0.88,0.88,0,0,1,449.59,198.47Z"/><path class="cls-3" d="M451.76,197.34a2.76,2.76,0,0,0,1.4.43,1.63,1.63,0,0,0,1.71-1.68,2.86,2.86,0,0,0-1.36-2.14c-1-.83-1.89-1.3-1.89-2.73a2.38,2.38,0,0,1,2.52-2.44,2.82,2.82,0,0,1,1.42.31l-0.27,1a2.26,2.26,0,0,0-1.22-.34,1.37,1.37,0,0,0-1.54,1.32,2.16,2.16,0,0,0,1.51,2c1.09,0.59,2,1.25,2,2.67a2.75,2.75,0,0,1-2.87,2.7,3.34,3.34,0,0,1-1.76-.52Z"/><path class="cls-3" d="M457.51,198.47c-0.48,0-.48-0.78-0.48-0.94a0.54,0.54,0,0,1,.45-0.67,0.74,0.74,0,0,1,.78.8A0.88,0.88,0,0,1,457.51,198.47Z"/><path class="cls-3" d="M395.88,214.86a3,3,0,0,1-1.68-.49l0-.62a2.82,2.82,0,0,0,1.6.48,1.5,1.5,0,0,0,1.37-1.68,2.07,2.07,0,0,0-1.22-1.82,2.76,2.76,0,0,1-1.75-2.28,2.13,2.13,0,0,1,1.74-2.17l0.27-1.33h0.49l0,1.29a2.73,2.73,0,0,1,1.4.45l-0.59.6a2.74,2.74,0,0,0-1.18-.29,1.24,1.24,0,0,0-1.36,1.26c0,0.94.55,1.27,1.5,1.74a2.75,2.75,0,0,1,1.83,2.54,2.42,2.42,0,0,1-1.81,2.35l0.25,1.39-0.88-.08Z"/><path class="cls-3" d="M403.58,214.16l0.13,1.05-4.5-.24,0.11-.62,0.83-.94c1.34-1.53,2.66-3.18,2.66-5a1.47,1.47,0,0,0-1.32-1.74,2.6,2.6,0,0,0-1.34.39l-0.28-.45a3.1,3.1,0,0,1,1.9-.83,1.92,1.92,0,0,1,2,2.23c0,1.63-1,3.35-2.79,5.34l-0.84.9,0.11,0Z"/><path class="cls-3" d="M407.17,215.21c-1.33,0-2.25-1.55-2.25-4.57s1-4.76,2.55-4.76c1.39,0,2.24,1.61,2.24,4.55C409.71,213.55,408.77,215.21,407.17,215.21Zm0.42-.84c0.81,0,1.16-1.18,1.16-2.84s-0.31-4.8-1.68-4.8c-1,0-1.23,1.47-1.23,2.88,0,1.89.42,4.82,1.74,4.78h0Z"/><path class="cls-3" d="M412.33,213.9a12,12,0,0,1-1.32,2.77l-0.63.2a20,20,0,0,0,.8-3.19Z"/><path class="cls-3" d="M415.43,214.92l0.15-7.8h0l-1.55.52-0.24-.48,2-1.09,0.5,0.06,0.38,9Z"/><path class="cls-3" d="M421,215.21c-1.33,0-2.26-1.55-2.26-4.57s1-4.76,2.55-4.76c1.39,0,2.24,1.61,2.24,4.55C423.56,213.55,422.62,215.21,421,215.21Zm0.42-.84c0.81,0,1.16-1.18,1.16-2.84s-0.31-4.8-1.68-4.8c-1,0-1.23,1.47-1.23,2.88,0,1.89.42,4.82,1.74,4.78h0Z"/><path class="cls-3" d="M426.62,215.21c-1.33,0-2.25-1.55-2.25-4.57s1-4.76,2.55-4.76c1.39,0,2.24,1.61,2.24,4.55C429.16,213.55,428.22,215.21,426.62,215.21Zm0.42-.84c0.81,0,1.16-1.18,1.16-2.84s-0.31-4.8-1.68-4.8c-1,0-1.23,1.47-1.23,2.88,0,1.89.42,4.82,1.74,4.78h0Z"/><path class="cls-1" d="M367.36,370.1H483.47a22,22,0,0,0,9.32-1.92c12.07-5.65,18.86-18.86,16.12-31.24s-14.48-21.66-28.19-21.55c-2.69-13.22-11.91-24-24.25-28.19-14.87-5-31.91.54-41.87,13.89-10.57-5.65-23.29-4.34-31.71,3.11-10.41,9.21-8.86,23.05-8.7,24.25a22,22,0,0,0-16.71,37.7A14.09,14.09,0,0,0,367.36,370.1Z"/><path class="cls-2" d="M381.29,329.12c-1.46-.45-14-4.08-24,3.67a21.89,21.89,0,0,0-8.5,13.5c-0.16,1-1.63,10.61,5.5,17.83a20.9,20.9,0,0,0,13.07,6,22.31,22.31,0,0,1-8.73-5c-5.28-4.92-7.92-12.37-7-18.33C353.2,336.62,365.67,327.48,381.29,329.12Z"/><path class="cls-2" d="M410.46,307c9.12-17.44,29.26-25.56,46.67-19.7,15.15,5.1,25.7,20,25.83,36.84-0.16-1.21-3.46-23.63-22.95-32.21C443.45,284.64,422.5,290.54,410.46,307Z"/><path class="cls-3" d="M392.17,338.88l-0.41-9.27,1.06-.22,0.06,8.81,2.83-.39,0.31,0.84Z"/><path class="cls-3" d="M397,329.26l0.74,0.27,0.27,9.26-1.11.14Z"/><path class="cls-3" d="M401.43,338.92l-0.62-8.63-1.49.31-0.28-1,4.83-.18-0.15.52-1.62.22L402,339Z"/><path class="cls-3" d="M408.47,333.39l0.2,0.59-2.41.34-0.39,3.47,3,0.15,0.1,0.59-4,.39,0.14-9.48,3.43-.22,0.22,1.06-2.82-.17,0.22,3.21Z"/><path class="cls-3" d="M410.36,339L410,329.44a6.23,6.23,0,0,1,1.71-.18,2.79,2.79,0,0,1,2.83,2.9,2,2,0,0,1-1.5,2.12v0a2.47,2.47,0,0,1,1.58,2,7.49,7.49,0,0,0,.84,2.21l-1.32.27a13.58,13.58,0,0,1-.64-2.33c-0.31-1.36-.81-1.83-1.76-1.93l-0.67-.07,0.18,4.23Zm1.37-5.18a2,2,0,0,0,1.89-2.06,1.7,1.7,0,0,0-2-1.74,1.51,1.51,0,0,0-.39,0l-0.11,3.8Z"/><path class="cls-3" d="M419.61,335.84l-2.21-.11-1.08,3-0.76.11,2.45-9.55,0.9,0.25,2.4,9.3-1.36.11Zm-2.07-.63,1.91-.15-0.56-2.59c-0.14-.67-0.28-1.39-0.39-2.07l-0.1.06Z"/><path class="cls-3" d="M426.58,330.57a2.23,2.23,0,0,0-1.12-.25c-1.46,0-2.56,1.57-2.56,4s0.92,4,2.69,4a2.83,2.83,0,0,0,.81-0.14l0.22,0.43a3.68,3.68,0,0,1-1.53.34H425c-1.6-.1-3.11-1.16-3.11-4.3,0-.17,0-0.35,0-0.53,0.15-2.91,1.25-4.9,3.54-4.9a3,3,0,0,1,1.57.34Z"/><path class="cls-3" d="M430.15,338.81l-0.81-.11,0.08-3.94-2-5.59,0.73,0.2,2.13,4.37h0l1.2-4.16,1.44-.21-2.48,5.35Z"/><path class="cls-3" d="M436.35,338.68l0.31-9.22a6.35,6.35,0,0,1,1.5-.15,2.68,2.68,0,0,1,2.76,2.88,2.54,2.54,0,0,1-2.86,2.84,4.83,4.83,0,0,1-.69-0.07l0.21,3.92Zm1.16-4.75a3,3,0,0,0,.66.06,1.8,1.8,0,0,0,1.79-2.06,1.61,1.61,0,0,0-1.67-1.82h-0.22a3.49,3.49,0,0,0-.67.07Z"/><path class="cls-3" d="M445.46,333.39l0.2,0.59-2.41.34-0.39,3.47,3,0.15,0.1,0.59-4,.39,0.14-9.48,3.43-.22,0.22,1.06-2.82-.17,0.22,3.21Z"/><path class="cls-3" d="M447.34,339L447,329.44a6.23,6.23,0,0,1,1.71-.18,2.79,2.79,0,0,1,2.83,2.9,2,2,0,0,1-1.5,2.12v0a2.47,2.47,0,0,1,1.58,2,7.49,7.49,0,0,0,.84,2.21l-1.32.27a13.58,13.58,0,0,1-.64-2.33c-0.31-1.36-.81-1.83-1.76-1.93l-0.67-.07,0.18,4.23Zm1.37-5.18a2,2,0,0,0,1.89-2.06,1.7,1.7,0,0,0-2-1.74,1.51,1.51,0,0,0-.39,0l-0.11,3.8Z"/><path class="cls-3" d="M457.55,330.57a2.24,2.24,0,0,0-1.12-.25c-1.46,0-2.56,1.57-2.56,4s0.92,4,2.69,4a2.83,2.83,0,0,0,.81-0.14l0.22,0.43a3.68,3.68,0,0,1-1.53.34h-0.13c-1.6-.1-3.11-1.16-3.11-4.3,0-.17,0-0.35,0-0.53,0.15-2.91,1.25-4.9,3.54-4.9a3,3,0,0,1,1.57.34Z"/><path class="cls-3" d="M462.45,333.39l0.2,0.59-2.41.34-0.39,3.47,3,0.15,0.1,0.59-4,.39,0.14-9.48,3.43-.22,0.22,1.06-2.82-.17,0.22,3.21Z"/><path class="cls-3" d="M465.18,338.81l-0.78.28-0.55-9.51,1.49-.06,3,8h0l-0.08-8.33,1,0.2L469,338.66l-0.71.15-3.33-8h0c0,1.33,0,2.46.08,4.4Z"/><path class="cls-3" d="M472.63,338.92L472,330.29l-1.48.31-0.28-1,4.83-.18-0.15.52-1.62.22L473.24,339Z"/><path class="cls-3" d="M476.73,338.15a0.84,0.84,0,0,1-.69.84,1,1,0,0,1-.62-1,0.51,0.51,0,0,1,.55-0.62A0.73,0.73,0,0,1,476.73,338.15Zm-0.78-4.31c-0.31,0-.43-0.32-0.43-0.73s0-.88.49-0.88a0.86,0.86,0,0,1,.74.73A0.79,0.79,0,0,1,475.94,333.84Z"/><path class="cls-3" d="M430.25,354.82a3.35,3.35,0,0,0,2.2-.8,4.15,4.15,0,0,0,1-2.68h0a1.73,1.73,0,0,1-1.55.84c-1.16,0-1.93-1-1.93-2.48,0-1.79,1-3.32,2.52-3.32s2.19,1.43,2.19,3.29c0,3.67-2.28,6.19-4.67,6.19Zm0.62-5.69c0,1.29.45,2.3,1.44,2.3a1.45,1.45,0,0,0,1.4-1.39c-0.14-2.07-.8-2.94-1.65-2.87C431.64,347.18,430.87,347.58,430.87,349.14Z"/><path class="cls-3" d="M435.85,354.82a3.35,3.35,0,0,0,2.2-.8,4.14,4.14,0,0,0,1.05-2.68h0a1.73,1.73,0,0,1-1.55.84c-1.16,0-1.93-1-1.93-2.48,0-1.79,1-3.32,2.52-3.32s2.18,1.43,2.18,3.29c0,3.67-2.28,6.19-4.66,6.19Zm0.62-5.69c0,1.29.45,2.3,1.44,2.3a1.45,1.45,0,0,0,1.4-1.39c-0.14-2.07-.8-2.94-1.65-2.87C437.24,347.18,436.47,347.58,436.47,349.14Z"/></svg>