<svg id="Layer_1" data-name="Layer 1" xmlns="http://www.w3.org/2000/svg" xmlns:xlink="http://www.w3.org/1999/xlink" viewBox="0 0 838.94 622.94"><defs><style>.cls-1,.cls-15{fill:#877c87;}.cls-1{opacity:0.85;}.cls-13,.cls-14,.cls-2{opacity:0.97;}.cls-2{fill:url(#linear-gradient);}.cls-16,.cls-24,.cls-3{fill:#fff;}.cls-12,.cls-3{opacity:0.14;}.cls-4{fill:url(#linear-gradient-2);}.cls-5{fill:url(#linear-gradient-3);}.cls-6{fill:url(#linear-gradient-4);}.cls-7{fill:url(#linear-gradient-5);}.cls-8{fill:url(#linear-gradient-6);}.cls-9{fill:url(#linear-gradient-7);}.cls-10{opacity:0.16;fill:url(#linear-gradient-8);}.cls-11{fill:#1e263a;}.cls-12{fill:url(#linear-gradient-9);}.cls-13{fill:url(#linear-gradient-10);}.cls-14{fill:url(#linear-gradient-11);}.cls-16{opacity:0.08;}.cls-17{fill:#4f9bb2;opacity:0.23;}.cls-18{fill:url(#linear-gradient-12);}.cls-19{opacity:0.15;fill:url(#linear-gradient-13);}.cls-20{opacity:0.1;fill:url(#linear-gradient-14);}.cls-21{fill:url(#linear-gradient-15);}.cls-22{fill:url(#linear-gradient-16);}.cls-23{fill:url(#linear-gradient-17);}.cls-24{opacity:0.04;}.cls-25{fill:#0b0a14;}</style><linearGradient id="linear-gradient" x1="7984.18" y1="706.9" x2="7991.16" y2="706.9" gradientTransform="matrix(-0.99, -0.16, -0.16, 0.99, 8748.52, 677.49)" gradientUnits="userSpaceOnUse"><stop offset="0" stop-color="#232e3f"/><stop offset="0.74" stop-color="#303d56"/></linearGradient><linearGradient id="linear-gradient-2" x1="418.94" y1="464.26" x2="418.94" y2="16.16" gradientUnits="userSpaceOnUse"><stop offset="0" stop-color="#232e3f"/><stop offset="0.24" stop-color="#303d56"/></linearGradient><linearGradient id="linear-gradient-3" x1="611.09" y1="367.94" x2="631.45" y2="347.57" gradientUnits="userSpaceOnUse"><stop offset="0.55" stop-color="#1e1b33"/><stop offset="1" stop-color="#232e45"/></linearGradient><linearGradient id="linear-gradient-4" x1="625.64" y1="353.76" x2="653.41" y2="325.99" xlink:href="#linear-gradient-3"/><linearGradient id="linear-gradient-5" x1="658.96" y1="358.71" x2="679.32" y2="338.35" xlink:href="#linear-gradient-3"/><linearGradient id="linear-gradient-6" x1="767.8" y1="309.81" x2="793.85" y2="283.76" xlink:href="#linear-gradient-3"/><linearGradient id="linear-gradient-7" x1="274.83" y1="-28.14" x2="103.74" y2="441.93" gradientUnits="userSpaceOnUse"><stop offset="0" stop-color="#2e3a52"/><stop offset="0.74" stop-color="#303d56"/></linearGradient><linearGradient id="linear-gradient-8" x1="492.04" y1="141.82" x2="445.63" y2="61.44" gradientUnits="userSpaceOnUse"><stop offset="0.21" stop-color="#335d7e"/><stop offset="0.63" stop-color="#567791"/><stop offset="1" stop-color="#d1d1d1"/></linearGradient><linearGradient id="linear-gradient-9" x1="160.59" y1="155.26" x2="140.65" y2="120.73" xlink:href="#linear-gradient-8"/><linearGradient id="linear-gradient-10" x1="677.8" y1="81.42" x2="688.01" y2="81.42" gradientTransform="matrix(1, 0, 0, 1, 0, 0)" xlink:href="#linear-gradient"/><linearGradient id="linear-gradient-11" x1="666.26" y1="76.4" x2="671.9" y2="76.4" gradientTransform="matrix(1, 0, 0, 1, 0, 0)" xlink:href="#linear-gradient"/><linearGradient id="linear-gradient-12" x1="-3.65" y1="356.74" x2="731.34" y2="356.74" gradientUnits="userSpaceOnUse"><stop offset="0.73" stop-color="#1e1b33"/><stop offset="0.86" stop-color="#20233b"/><stop offset="1" stop-color="#2b485e"/></linearGradient><linearGradient id="linear-gradient-13" x1="471.32" y1="462.41" x2="471.32" y2="210.74" gradientUnits="userSpaceOnUse"><stop offset="0.21" stop-color="#123251"/><stop offset="0.53" stop-color="#2c4c69"/><stop offset="1" stop-color="#567791"/></linearGradient><linearGradient id="linear-gradient-14" x1="103.97" y1="458.97" x2="103.97" y2="210.78" gradientUnits="userSpaceOnUse"><stop offset="0" stop-color="#335d7e"/><stop offset="1" stop-color="#5a7a93"/></linearGradient><linearGradient id="linear-gradient-15" x1="418.2" y1="279.77" x2="418.2" y2="512.89" gradientUnits="userSpaceOnUse"><stop offset="0" stop-color="#1e1c34"/><stop offset="1" stop-color="#1e1c34"/><stop offset="1" stop-color="#1e1d35"/><stop offset="1" stop-color="#1f1f37"/></linearGradient><linearGradient id="linear-gradient-16" x1="791.63" y1="289" x2="827.16" y2="253.48" xlink:href="#linear-gradient-3"/><linearGradient id="linear-gradient-17" x1="418.32" y1="452.77" x2="418.32" y2="1488.59" xlink:href="#linear-gradient-15"/></defs><title>layers-01</title><path class="cls-1" d="M-2.45,63.44a84.83,84.83,0,0,1,20.82,3.49c7.82,2.37,11.33,4.77,21.42,8.72a186.37,186.37,0,0,0,18.36,6.11A197.44,197.44,0,0,1,76.5,73.9c8.75-3.24,12.59-4,21.42-7,14-4.79,12.23-5.63,24.06-9.66,14.23-4.84,17.58-3.87,33.06-9.53,5.57-2,6.18-2.54,13.18-5.3,12.79-5,23.5-8.35,30.67-10.4,21.71,9.1,38.75,16.37,53,22.68,15,6.63,19.88,9.05,28.56,10.47,4.44,0.72,10.68,1.31,19,4.3,4.56,1.64,5.94,2.65,10.61,4.42a89.82,89.82,0,0,0,19,4.88c2.3,0.18,6,.4,10.61.35,7.66-.08,9.23-0.82,13.26,0,3,0.6,5.58,1.93,10.81,4.59,3.69,1.88,6.61,3.58,8.57,4.78l230.49,17.67L771,84.37a40.34,40.34,0,0,1,5.51-2.87c5.44-2.33,10.13-2.95,23.12-4.07,14.74-1.28,14.25-1,16.32-1.55,6.51-1.85,11.17-4.23,15.19-4.26,2.19,0,5.33.68,9.18,4.08v310l-844-32Z"/><path class="cls-2" d="M753.6,102.52l-4.3-10-3.53,14.75Z"/><path class="cls-3" d="M-2.65,87.35a33.71,33.71,0,0,1,18.77-4.18,34.25,34.25,0,0,1,21.44,10,42.26,42.26,0,0,1,28.12-9.47C83.72,84.52,94.35,97,96,99a75.5,75.5,0,0,1,62.53.72c6-1.49,23.38-4.9,42,3.57a62.3,62.3,0,0,1,20.54,15.18c31.31,2.1,51.19,4.43,51.2,7,0,5.22-83.52,7.24-83.79,14.56-0.21,5.86,62.87,10.88,62.64,15s-64.95,4.11-112.75,3.76c-57.36-.42-105.56-1.34-141-2.17V87.35Z"/><path class="cls-4" d="M-1.27,106a171.73,171.73,0,0,0,16.52,10c6.46,3.41,10.14,4.81,18.16,9.08,5.24,2.79,9.41,5.24,12.06,6.85,5.9-2.49,12.21-5,18.9-7.29q7.59-2.66,14.74-4.76l27.69,2.23a39.57,39.57,0,0,0,4.91.89c4.26,0.5,6.89.1,11.16,0a83.78,83.78,0,0,1,9.23.3l4.17,2.68,3.57-4,56.41-19.8c7.06,0.16,12.3.54,12.35,1.34,0,0.25-.48.38-0.45,0.6,0.12,0.83,7.58,1,15.93-.15,7.18-1,9.28-2.18,13.84-1.34a21.91,21.91,0,0,1,6.85,2.53l12.35-7.14a22.83,22.83,0,0,0,7.44.15c3.1-.46,5.18-1.44,8.78-3.13q3.53-1.65,11.76-5.44l14.29,6,40.93-14.44c50.23-17.69,51.15-17.92,57.45-20.54,10.15-4.22,20.61-7.66,30.81-11.76,7.15-2.87,11.4-4.73,16.08-5.06a31.35,31.35,0,0,0,9.08-1.64c1.58-.56,1.82-0.8,3.27-1.19,0.59-.16,7.41-1.93,8.93.6a2.78,2.78,0,0,1,.15,2.23c3.25-1.61,4.56-1.56,5.06-1s0.06,1.45.74,2.08,1.59,0.1,3,.45a5,5,0,0,1,2.53,1.64,22.84,22.84,0,0,1,9.13-5.9c1.63-.55,1.63-0.32,3.18-0.79,7.55-2.3,8.93-8.08,16.27-10.32a17.53,17.53,0,0,1,3-.63L525,18.75h12.5a14.54,14.54,0,0,0,3.18-1c1.88-.83,2.23-1.47,3.18-1.59,1.85-.23,3.32,1.87,5,3.57a24.38,24.38,0,0,0,8.34,5.56A8.87,8.87,0,0,0,560,23.72c1.48-1.26,1.53-2.18,2.38-2.38,1.36-.32,2.47,1.73,4.76,3.57a15.82,15.82,0,0,0,6.15,3q5.53,3.29,11.11,6.55,75.76,44.28,151.35,79L768,93.54a18.21,18.21,0,0,0,5.92-1.35c2.12-.89,3-1.75,4.37-1.59,1.12,0.14,2.54,1,4,3.83a53.8,53.8,0,0,1,9.89,4.9c1.68,1.07,3.07,2.09,7.14,4.76,1.86,1.22,3.4,2.2,4.4,2.84,18.44-8.59,25.8-12.51,27.95-14.15a15.6,15.6,0,0,1,3.37-2,16.32,16.32,0,0,1,5.38-1.28V462.76l-843,1.5Z"/><polygon class="cls-5" points="629.93 366.23 615.85 372.69 622.89 339.01 629.93 366.23"/><polygon class="cls-6" points="651.33 351.44 632.12 360.24 641.72 314.31 651.33 351.44"/><polygon class="cls-7" points="677.79 357.01 663.72 363.46 670.75 329.78 677.79 357.01"/><polygon class="cls-8" points="793.74 305.96 771.85 313.85 782.79 272.71 793.74 305.96"/><path class="cls-9" d="M-2.65,106.18a171.72,171.72,0,0,0,16.52,10C20.33,119.57,24,121,32,125.23c5.24,2.79,9.41,5.24,12.06,6.85,5.9-2.49,12.21-5,18.9-7.29q7.59-2.66,14.74-4.76l27.69,2.23a39.58,39.58,0,0,0,4.91.89c4.26,0.5,6.89.1,11.16,0a83.78,83.78,0,0,1,9.23.3l4.17,2.68,3.57-4,56.41-19.8c7.06,0.16,12.3.54,12.35,1.34,0,0.25-.48.38-0.45,0.6,0.12,0.83,7.58,1,15.93-.15,7.18-1,9.28-2.18,13.84-1.34a21.91,21.91,0,0,1,6.85,2.53l12.35-7.14a22.83,22.83,0,0,0,7.44.15c3.1-.46,5.18-1.44,8.78-3.13q3.53-1.65,11.76-5.44l14.29,6,40.93-14.44C389.18,63.63,390.1,63.4,396.4,60.78,406.55,56.56,417,53.12,427.21,49c7.15-2.87,11.4-4.73,16.08-5.06a31.35,31.35,0,0,0,9.08-1.64c1.58-.56,1.82-0.8,3.27-1.19,0.59-.16,7.41-1.93,8.93.6a2.78,2.78,0,0,1,.15,2.23c3.25-1.61,4.56-1.56,5.06-1s0.06,1.45.74,2.08,1.59,0.1,3,.45A5,5,0,0,1,476,47.09a19,19,0,0,0-5.69,1.6c-3.88,1.79-6.11,4.47-9.5,9-6.56,8.75-9.84,13.13-9,14,1.38,1.43,10.59-6.51,11.5-5.5,1.1,1.23-10.47,15.07-26,29-12.41,11.13-20.73,16.37-19.67,18.5,1.69,3.39,24.21-7.29,26.67-3.33,4.41,7.1-59.39,54.12-56.67,58,1.74,2.48,27.91-16.55,34-10.67,4.61,4.45-4.45,21-11.33,32.67-33.42,56.57-77.24,99.51-81,96.33-1.37-1.16,4-7.3,8-24,2.64-11,4.43-18.44,2-20-7.5-4.82-53,47.88-79.67,79-10.52,12.27-28.38,33.52-32.33,31s9.76-24.23,4.1-29.42c-7.34-6.74-41.48,19.55-49.5,25.5C150.22,372.32,95.88,398-2.65,403.21v-297Z"/><path class="cls-10" d="M411.34,188.42c59.76-42.51,102.89-76.21,117.09-90.1,2.22-2.17,15.53-15.45,13.5-26.59a20.77,20.77,0,0,0-2.78-7.14c-4.08-6.05-9.45-5.45-10.52-8.63C526.3,49,548.88,36.63,547.08,33c-1.09-2.2-10.45.55-11-1.19s8.84-4.7,9.23-10.12c0.16-2.27-1.32-4.25-2.58-5.56l-6.35,2.58h-12.5L507.79,29.22l-3,.63a13.59,13.59,0,0,0-3.57,1.39c-1.85,1-2.71,2.12-4.76,4a52.1,52.1,0,0,1-4.17,3.37,10.49,10.49,0,0,1-3.37,1.79c-1.59.49-2.35,0.28-4,.79a13.64,13.64,0,0,0-3.37,1.79,56.2,56.2,0,0,0-5.36,3.92l-2.53-1.64c-1.31,1-3.13,2.43-5.21,4.27-9.06,8-17.88,19.18-16.27,21,0.63,0.73,3.14.34,11.51-4.76a238.92,238.92,0,0,1-22.62,25.8c-14,13.87-25.57,21.82-24.21,24.21,1.86,3.28,25.09-9.06,27.39-5.56,4.08,6.23-62.19,56.24-59.54,59.94,1.75,2.44,30.92-19.26,37.31-13.1C426.2,161.06,419.18,175.29,411.34,188.42Z"/><path class="cls-11" d="M473.7,45.23a6.39,6.39,0,0,0-1-.12,6.3,6.3,0,0,1-1.34-.07,2.73,2.73,0,0,1-.65-0.25,1.88,1.88,0,0,1-.3-0.67c-0.08-.35,0-0.53-0.1-0.84A1.43,1.43,0,0,0,470,42.7a2.7,2.7,0,0,0-.65-0.25,3.4,3.4,0,0,0-1.93.2,13,13,0,0,0-2.48,1.09c-5.79,4.61-10.44,8.63-13.79,11.61-7.83,7-9.35,9-8.93,9.63,0.25,0.38,1.12.14,5.46-1,8-2.09,8-2,8.53-2.28,3.4-1.56,4.17-3.51,8.24-7.94A75.75,75.75,0,0,1,473.7,45.23Z"/><path class="cls-12" d="M243.59,105.07a21.57,21.57,0,0,0-6.85-2.53,15,15,0,0,0-2.73-.35c-2.28-.08-3.69.41-6.75,1-1,.19-2.5.46-4.37,0.69-2.35.18-4.36,0.31-6,.4-2.71.15-2.06,0.08-4,.2a24,24,0,0,1-2.68.1A14,14,0,0,1,207,104a0.77,0.77,0,0,0,.55-0.55q-0.09-1.15-12.45-1.39l-56.41,19.8-3.57,4c-31.87,30.93-66.43,65.65-63.71,68.77,2.56,2.92,37.57-22.51,40.49-18.75,1.09,1.41-3,6.11-2.08,6.85,1.57,1.33,15.52-13,16.37-12.21,0.46,0.43-3.58,4.64-3,5.36,1.3,1.54,23.49-13.22,45.25-31.16,8.94-7.37,13.79-12,23.52-17.66,6.73-3.94,12.29-6.35,21.73-10.42C221,113.54,231.1,109.41,243.59,105.07Z"/><path class="cls-13" d="M677.8,85.5l5.54-13.6,4.68,19Z"/><polygon class="cls-14" points="666.26 79.48 669.74 70.24 671.9 82.56 666.26 79.48"/><path class="cls-15" d="M135.31,53.45l-5-13.35-2.7,15.37q1.82-.51,3.69-1Q133.32,53.94,135.31,53.45Z"/><path class="cls-15" d="M144,51.32l-3-8-1.72,9.23,2.36-.57Q142.86,51.64,144,51.32Z"/><path class="cls-16" d="M-3.65,207c3.21-2.13,12-7.27,23.46-5.3,13.37,2.29,21.54,12.73,23.85,15.9a26.34,26.34,0,0,1,4.77-8c10.69-11.93,31.45-8,52.48,8a73.08,73.08,0,0,1,25.9-15.9,61.48,61.48,0,0,1,34.08-1.77c2.64-3.63,25.06-33.44,59.29-29.16,31.31,3.92,48.5,33.35,51.11,38,1.42-1.51,12.87-13.23,27.94-8.84,12,3.51,18.35,15,19.76,17.67,4.47-2.64,25.78-14.46,49.75-2.65,15.22,7.5,24.15,20.9,27.94,27.39,55.83,4.64,77.06,7.71,77,9.72-0.1,4.12-90,1-90.64,11.49-0.49,7.46,44.49,14.55,44.3,20.32-0.41,12.61-216.1,11.27-430.73,7.07Z"/><path class="cls-17" d="M414.24,244.27c-8.42-1.37-10.82-2.5-10.8-3.38,0-2.55,20.3-3.58,20.26-4.73-0.06-1.69-44.27-1.38-70.23-1.35-58.3.06-95.88-1.29-95.89-.68,0,0.82,66.2,2.48,66.18,4.05,0,1.13-34.43,1-91.84,2.7-3.93.12-53.17,1.64-115.48,5.4-54.46,3.29-81.69,5-81.71,7.43-0.06,5.41,118.71,11.79,118.85,10.13,0.07-.81-28.29-4.14-49.3-6.08-21.78-2-34.45-2.41-34.44-2.7,0-.77,91.91,3,202.59,4.05,65.08,0.63,107.37.05,107.37-.68,0-1-86.37-1.44-86.44-4.73C293.32,252.19,312.09,249.43,414.24,244.27Z"/><path class="cls-18" d="M731.34,462.41Q570.87,466.77,410.6,475,203.3,485.62-3.65,502.69L-3,284.36c2.85-1.12,36.06-14.18,60.33-24C68.9,255.68,75.35,253,82,250l12-5.33c5-2.4,7.24-3.7,11.33-5,3.54-1.12,4-.84,9.33-2,8.9-2,16.58-3.63,24.17-6.5a9.17,9.17,0,0,1,5.17-.83c2.77,0.5,5.32,2.68,7.83,4.83,1.61,1.38,2.24,2.13,3.5,2.25,1.47,0.14,2.51-.7,4.25-1.75,2-1.2,4.2-1.93,6.25-3,3.85-2,7.16-3.43,16.25-7.75,5.59-2.66,14.52-7,29.21-14.16C230.17,221,245.4,228.66,256,233.85c14.48,7,27.55,17.46,43,22a20.81,20.81,0,0,1,8.74,4.9A19.8,19.8,0,0,1,312,266.7a73.08,73.08,0,0,0,10.14,0c3-.22,4.76-0.54,7.34,0a17.1,17.1,0,0,1,6.29,2.79c5.37,3.62,12.57,4,20.62,5.6,9.66,1.86,16.44,4.56,28.65,9.43,9.87,3.94,12,6.83,23.42,11.18A93.3,93.3,0,0,0,422,299.9a84.56,84.56,0,0,0,14.33,2.1c6.83,0.37,7.73-.49,11.53.69,3,1,4.26,2.06,9.09,3.5a53,53,0,0,0,5.94,1.4,46.53,46.53,0,0,0,12.58.35c5.25,3,13.12,7.44,22.72,12.93,16.34,9.34,18.77,10.82,22.71,12.93a225.82,225.82,0,0,0,38.8,16.08C597.34,362.52,640.64,394,681,423.27c6.82,5,13.73,10.16,13.73,10.16C709.57,444.59,721.91,454.56,731.34,462.41Z"/><path class="cls-19" d="M211.31,210.78c-0.69,1.07,28.18,19.77,69.43,51.72q5.86,4.54,11.65,9.09c16.54-.37,27.67,3.45,34.95,7.22,5,2.6,10.51,6.38,20.5,10.25A112.44,112.44,0,0,0,364,294c18.3,18.41,35.33,25.57,47.69,28.66,24.65,6.16,39.37-1.67,70.36,7.92,13.72,4.25,31.64,12.22,30.75,17.71-1.26,7.8-40.21,8-40.07,10.72,0.06,1.16,7.47,1.5,7.46,2.33,0,1.54-25.52,1.53-25.63,3.26-0.15,2.45,49,5.8,48.93,9.32-0.06,4.9-95,6.46-95.06,11.18,0,3.34,47.21,6.51,47.06,8.85-0.11,1.75-26.35,1-26.56,3.73-0.09,1.19,4.8,2.47,6.06,2.8,21,5.39,51.47,6.55,56.85,7,14.13,1.15,33.39,11.85,55,55H731.34c-46.86-37-84.18-64-104.24-77.47,0,0-21.18-14.21-42.25-24.5-9.36-4.57-17.72-7.87-18.37-8.12-7.9-3.1-10.64-3.67-17.37-6.12a223.7,223.7,0,0,1-27-12.12s-12.28-6.25-27.25-15.37c-3.69-2.25-7.48-4.31-11.12-6.62-0.19-.12-1.46-0.93-3.25-1.87a19.53,19.53,0,0,0-4.87-2.12,23.17,23.17,0,0,0-5.25-.12c-3.4.11-3.76,0.26-5.12,0.25a23.25,23.25,0,0,1-7.46-1.5c-5.93-1.86-6.4-3.11-10.33-4.08-2.51-.62-2.48-0.15-8.58-0.5a96.94,96.94,0,0,1-17-2.33c-0.55-.13-2.73-0.66-5.92-1.67-7.83-2.47-12.9-5-20.58-8.67-9.62-4.55-14.68-6.93-21.83-9.67a82.81,82.81,0,0,0-14-4.33c-1.44-.29-5.17-1-9.75-1.67-5.94-.87-8-0.92-11-2.5-1.81-1-2.11-1.49-4.58-2.67a20.27,20.27,0,0,0-6.75-2.17c-0.82-.09-0.29,0-5.75.33-10.34.57-6.44-.19-7.67,0a2.78,2.78,0,0,1-2-.25c-0.65-.43-0.52-0.94-1.25-2.08a23.78,23.78,0,0,0-2.08-2.33c-0.73-.85-1.18-1.46-1.33-1.67-1.89-2.44-8.36-4.58-11.83-5.83-5-1.8-8.56-3.5-9.42-3.92-2-1-3.84-2-7.5-4-1.73-1-4.26-2.37-9.08-5.17-4.42-2.56-7.65-4.48-8.25-4.83-8.78-5.19-17.08-8.85-28.25-14.5C217.3,214.24,211.62,210.3,211.31,210.78Z"/><path class="cls-20" d="M-3.37,284.87c6.6-2.62,16.43-6.54,28.39-11.35C45.6,265.24,56.14,261,68.68,255.69c8.38-3.55,20.43-8.73,35-15.33,1.35-.36,3.37-0.89,5.83-1.5,6-1.48,7-1.53,11.28-2.56,11.26-2.72,16.89-4.08,19-5.24a6.32,6.32,0,0,1,3.34-.86,6.65,6.65,0,0,1,2.77.86,29.77,29.77,0,0,1,5.39,3.64c0.92,0.71,2.3,1.76,4,3l55.92-26.91-4.54,8.74c-0.87.64-2.22,1.58-3.93,2.62-2.59,1.57-4.13,2.23-4,2.62s0.82,0.43,4.11,0l-9.44,10.92,0.44,3.23a156.12,156.12,0,0,0-19,14.15c-5.38,4.67-6.26,6.06-5.94,7.16,1.56,5.46,30.58-1.64,32.76,4.11,1.78,4.68-15.47,14.78-29.76,24.49-8.57,5.82-25,20.35-57.78,49.39C67.9,379.18,12.72,440.84-3.37,459V284.87Z"/><path class="cls-21" d="M840.42,279.77q-0.59,91.32-1.18,182.64h-0.11l-290,17.36L-4,512.89q0-8.91,0-17.83,5.1-2.1,10.42-4.21,8.09-3.21,16.68-6.44c13.23-5,27.34-9.91,42.27-14.72,8.49-2.74,17.37-5.58,26.68-8.44,10.51-3.23,21.56-6.47,33.21-9.59a647.8,647.8,0,0,1,121.11-21c52-3.88,65,1.76,105.55.49,10.1-.32,21.9-1.06,36.45-2.49a986.45,986.45,0,0,0,103-16c18.44-3.92,34.08-7.83,46-11,0,0,40.12-11.16,67.85-30,1.42-1,2.81-2,4.15-3a90.8,90.8,0,0,1,21-12,92.3,92.3,0,0,1,23-6c26.94-3.72,75-23.2,104.57-37.92,21.7-10.79,36-20.29,64.5-28.5C829.9,282.11,836.18,280.67,840.42,279.77Z"/><polygon class="cls-22" points="827.01 283.76 797.15 294.52 812.08 238.4 827.01 283.76"/><path class="cls-23" d="M839.91,452.77V1488.59H-1.87Q-2,1408.45-2.1,1328.3q0-34.26-.09-68.51l0-19.75q-0.11-72.22-.2-144.47,0-6.09,0-12.18,0-7,0-14,0-8.64,0-17.3a0.88,0.88,0,0,1,0-.23q0-6.11,0-12.23v-2.72c0-1.64,0-3.28,0-4.93,0-1.93,0-3.87,0-5.81v-3q0-3.77,0-7.55v-2.8c0-.67,0-1.34,0-2,0-5.19,0-10.37,0-15.57,0-1.93,0-3.86,0-5.8V989q0-3.06,0-6.12v-1.06q0-4.35,0-8.71a4.17,4.17,0,0,1,0-.5c0-1,0-2,0-3,0-1.52,0-3,0-4.56,0-3.87,0-7.74,0-11.62V952.9q0-6.45,0-12.92c0-3.71,0-7.42,0-11.13q0-13.84,0-27.69v-3.39c0-2,0-3.93,0-5.89v-2.39q0-14.88,0-29.77l0-17.11v-4.8c0-.3,0-0.61,0-0.91q0-12.58,0-25.18V798.54q0-16,0-32v-6.75c0-.53,0-1.07,0-1.6v-3.93c0-3.61,0-7.21,0-10.82q0-7.89,0-15.78v-2.08c0-3.76,0-7.52,0-11.28v-2.86c0-1,0-1.89,0-2.84v-3.09q0-6.9,0-13.8l0-10.74q0-4.83,0-9.68V657.79l0-18.13q-0.07-48.3-.14-96.58,0-14.93,0-29.87c0-2.12,0-4.23,0-6.36V504c0-2.4,0-4.79,0-7.19h0l27.09-1.42,385-20.1,112.61-5.88,210.57-11q51.84-2.69,103.67-5.41Z"/><path class="cls-16" d="M608.86,310.49c-7.79-1.27-10-2.31-10-3.13,0-2.36,18.8-3.32,18.76-4.38-0.06-1.57-41-1.27-65-1.25-54,.05-88.79-1.2-88.8-0.63,0,0.76,61.3,2.3,61.29,3.75,0,1-31.88.9-85,2.5-3.64.11-49.24,1.52-106.94,5-50.43,3-75.64,4.61-75.67,6.88-0.05,5,109.93,10.92,110.06,9.38,0.06-.75-26.2-3.83-45.65-5.63-20.17-1.86-31.9-2.24-31.89-2.5,0-.72,85.11,2.76,187.61,3.75,60.27,0.58,99.42,0,99.43-.63,0-1-80-1.33-80-4.38C496.89,317.82,514.27,315.27,608.86,310.49Z"/><path class="cls-16" d="M840.42,233.63c-91,4.06-134.59,4.28-134.67,1-0.07-3,36.83-7,36.76-10.53-0.16-8.07-198.32-.06-198.36-3.51,0-1.22,24.79-3.36,84.28-8.19,43.12-3.5,78.59-6.3,102.67-8.19,26.05,4,62.51,8.81,106.47,11.7l2.85,0.18v17.55Z"/><path class="cls-24" d="M839.13,464.24v83.07c-39-1-58.9-1.52-71.68-1.45-41.12.21-77.71,2.13-78,0-0.18-1.3,13.15-2.67,13-3.83s-15.67-.37-39.14.74c-37.38,1.77-95,4.1-142.86-.74-11.85-1.2-25.83-3.11-47-3.07-22.53.05-31.57,2.27-57,1.54-4.36-.13-39.6-1.23-40-5.37-0.21-2.11,8.73-4.49,12-5.36,8.35-2.22,10.66-1,18-3,8.42-2.28,8.61-4.77,15-6.23,4.37-1,11.18-1.41,21.11,2.06a46,46,0,0,1,14.89-11.25,63.07,63.07,0,0,1,27.11-6,17.17,17.17,0,0,1,3.89-16.24c6.35-7,18.56-10.18,30.6-7.9a30.25,30.25,0,0,1,.25-5.79,40.21,40.21,0,0,1,1.38-6.57C523,461,528.55,451,541.45,443.19c25.35-15.26,55.37-7.24,57.1-6.75,5-5.56,24.29-25.89,60.9-33.09,2.55-.5,47.79-8.91,80,9.19,14.91,8.38,25.41,14.28,30,24.52,1.39,3.1,3.09,8.5,9,10.73,5.26,2,10.07-.08,16-0.77,14.33-1.66,29.71,3.59,38,10a28.82,28.82,0,0,1,2.47,2.12A27.14,27.14,0,0,1,839.13,464.24Z"/><path class="cls-24" d="M580,557.65c8.29,1.65,58.53,11.82,57.88,20.61-0.63,8.52-48.78,11.38-57.88,11.88-8.56-.86-16-1.15-22-1.23-4.68-.06-9.76,0-15.54.32a283.37,283.37,0,0,0-29.78,3.14c-32.22,4.83-59.62,2.62-147.72,0-49.12-1.45-73.69-2.18-89.35-2.09-49,.28-92.57,2.92-92.92,0-0.21-1.77,15.66-3.66,15.49-5.25C197.75,580.82,86.67,594.3-4,586.5q0-10.21,0-20.43V547.21q-0.05-28.83-.1-57.66,0-8.91,0-17.83c0-1.27,0-2.53,0-3.8h0c0-.57,0-1.14,0-1.71,0-1.43,0-2.86,0-4.29h0c0-1,0-2,0-3a63.43,63.43,0,0,1,10.61-9.17c30.2-20.89,66-9.9,68-9.24,5.9-7.62,28.94-35.44,72.55-45.3,3-.69,56.93-12.2,95.31,12.58,17.77,11.48,30.27,19.55,35.74,33.57a52.68,52.68,0,0,0,3.31,7.74,19,19,0,0,0,1.75,2.58,14.57,14.57,0,0,0,5.65,4.36c8.07,3.5,16.52,0,19.06-1,10.29-4.43,29.3-5.91,50.61-2.84,26.05,3.75,55.52,14.3,76.57,34.6,6.49,6.26,15.33,16.47,23.22,32.7a156,156,0,0,1,7.55,18.6c8.65-4.22,49.58-23,88.41-.33a91.19,91.19,0,0,1,24.16,20.78C578.68,558.3,579.25,558,580,557.65Z"/><path class="cls-16" d="M-3.82,569.38c46.12,1.26,126.25,3.52,216.14,4.39,82.68,0.8,136.41.07,136.42-.86,0-1.32-109.73-1.83-109.82-6,0-1.95,23.8-5.45,153.58-12-10.69-1.74-13.74-3.17-13.73-4.29,0-3.24,25.74-4.55,25.74-6-0.08-2.15-56.25-1.75-89.23-1.72-74.08.07-121.82-1.64-121.84-.86,0,1,84.11,3.15,84.09,5.15,0,1.44-43.75,1.23-116.69,3.43-5,.15-67.55,2.09-146.72,6.87l-18,1.08,0,10.83v2.45l2.49,0.22c26.66,2.47,62.63,6.68,62.63,7.73s-31.17-.2-65.11-2.37v-8Z"/><path class="cls-25" d="M781.79,547.38l0,0.73A1.47,1.47,0,0,1,781.79,547.38Z"/></svg>