<?xml version="1.0" encoding="utf-8"?>
<!-- Generator: Adobe Illustrator 19.2.1, SVG Export Plug-In . SVG Version: 6.00 Build 0)  -->
<svg version="1.1" id="Layer_1" xmlns="http://www.w3.org/2000/svg" xmlns:xlink="http://www.w3.org/1999/xlink" x="0px" y="0px"
	 viewBox="0 0 838.9 644.9" style="enable-background:new 0 0 838.9 644.9;" xml:space="preserve">
<style type="text/css">
	.st0{opacity:0.85;fill:#877C87;enable-background:new    ;}
	.st1{opacity:0.97;fill:url(#SVGID_1_);enable-background:new    ;}
	.st2{opacity:0.14;fill:#FFFFFF;enable-background:new    ;}
	.st3{fill:url(#SVGID_2_);}
	.st4{fill:url(#SVGID_3_);}
	.st5{fill:url(#SVGID_4_);}
	.st6{fill:url(#SVGID_5_);}
	.st7{fill:url(#SVGID_6_);}
	.st8{fill:url(#SVGID_7_);}
	.st9{opacity:0.16;fill:url(#SVGID_8_);enable-background:new    ;}
	.st10{fill:#1E263A;}
	.st11{opacity:0.14;fill:url(#SVGID_9_);enable-background:new    ;}
	.st12{opacity:0.97;fill:url(#SVGID_10_);enable-background:new    ;}
	.st13{opacity:0.97;fill:url(#SVGID_11_);enable-background:new    ;}
	.st14{fill:#877C87;}
	.st15{opacity:8.000000e-02;fill:#FFFFFF;enable-background:new    ;}
	.st16{opacity:0.23;fill:#4F9BB2;enable-background:new    ;}
	.st17{fill:url(#SVGID_12_);}
	.st18{opacity:0.15;fill:url(#SVGID_13_);enable-background:new    ;}
	.st19{opacity:0.1;fill:url(#SVGID_14_);enable-background:new    ;}
	.st20{fill:url(#SVGID_15_);}
	.st21{fill:url(#SVGID_16_);}
	.st22{fill:url(#SVGID_17_);}
	.st23{opacity:4.000000e-02;fill:#FFFFFF;enable-background:new    ;}
	.st24{fill:#0B0A14;}
</style>
<title>layers-01</title>
<path class="st0" d="M-2.5,63.4c7.1,0.3,14.1,1.5,20.8,3.5c7.8,2.4,11.3,4.8,21.4,8.7c6,2.4,12.1,4.4,18.4,6.1
	c6-2.9,12.1-5.6,18.3-7.9c8.8-3.2,12.6-4,21.4-7c14-4.8,12.2-5.6,24.1-9.7c14.2-4.8,17.6-3.9,33.1-9.5c5.6-2,6.2-2.5,13.2-5.3
	c12.8-5,23.5-8.3,30.7-10.4c21.7,9.1,38.8,16.4,53,22.7c15,6.6,19.9,9,28.6,10.5c4.4,0.7,10.7,1.3,19,4.3c4.6,1.6,5.9,2.7,10.6,4.4
	c6.1,2.3,12.5,4,19,4.9c2.3,0.2,6,0.4,10.6,0.3c7.7-0.1,9.2-0.8,13.3,0c3,0.6,5.6,1.9,10.8,4.6c3.7,1.9,6.6,3.6,8.6,4.8l230.5,17.7
	L771,84.4c1.8-1.1,3.6-2.1,5.5-2.9c5.4-2.3,10.1-2.9,23.1-4.1c14.7-1.3,14.2-1,16.3-1.6c6.5-1.8,11.2-4.2,15.2-4.3
	c2.2,0,5.3,0.7,9.2,4.1v310l-844-32L-2.5,63.4z"/>
<linearGradient id="SVGID_1_" gradientUnits="userSpaceOnUse" x1="8431.4697" y1="957.5953" x2="8438.4492" y2="957.5953" gradientTransform="matrix(-0.99 -0.16 -0.16 0.99 9231.8594 498.32)">
	<stop  offset="0" style="stop-color:#232E3F"/>
	<stop  offset="0.74" style="stop-color:#303D56"/>
</linearGradient>
<path class="st1" d="M753.6,102.5l-4.3-10l-3.5,14.8L753.6,102.5z"/>
<path class="st2" d="M-2.7,87.3c5.7-3.2,12.2-4.6,18.8-4.2c8.1,0.7,15.7,4.2,21.4,10c7.9-6.5,17.9-9.8,28.1-9.5
	C83.7,84.5,94.3,97,96,99c20-8.8,42.8-8.5,62.5,0.7c6-1.5,23.4-4.9,42,3.6c7.8,3.6,14.8,8.8,20.5,15.2c31.3,2.1,51.2,4.4,51.2,7
	c0,5.2-83.5,7.2-83.8,14.6c-0.2,5.9,62.9,10.9,62.6,15s-64.9,4.1-112.8,3.8c-57.4-0.4-105.6-1.3-141-2.2L-2.7,87.3L-2.7,87.3z"/>
<linearGradient id="SVGID_2_" gradientUnits="userSpaceOnUse" x1="419.0001" y1="682.2" x2="419.0001" y2="234.2867" gradientTransform="matrix(1 0 0 1 0 -218)">
	<stop  offset="0" style="stop-color:#232E3F"/>
	<stop  offset="0.24" style="stop-color:#303D56"/>
</linearGradient>
<path class="st3" d="M-1.3,106c5.3,3.6,10.8,7,16.5,10c6.5,3.4,10.1,4.8,18.2,9.1c5.2,2.8,9.4,5.2,12.1,6.9c5.9-2.5,12.2-5,18.9-7.3
	c5.1-1.8,10-3.4,14.7-4.8l27.7,2.2c1.6,0.4,3.3,0.7,4.9,0.9c4.3,0.5,6.9,0.1,11.2,0c3.1-0.1,6.2,0,9.2,0.3l4.2,2.7l3.6-4l56.4-19.8
	c7.1,0.2,12.3,0.5,12.4,1.3c0,0.2-0.5,0.4-0.4,0.6c0.1,0.8,7.6,1,15.9-0.2c7.2-1,9.3-2.2,13.8-1.3c2.4,0.5,4.7,1.3,6.9,2.5l12.4-7.1
	c2.5,0.5,5,0.5,7.4,0.2c3.1-0.5,5.2-1.4,8.8-3.1c2.4-1.1,6.3-2.9,11.8-5.4l14.3,6l40.9-14.4c50.2-17.7,51.1-17.9,57.5-20.5
	c10.1-4.2,20.6-7.7,30.8-11.8c7.1-2.9,11.4-4.7,16.1-5.1c3.1-0.1,6.2-0.6,9.1-1.6c1.6-0.6,1.8-0.8,3.3-1.2c0.6-0.2,7.4-1.9,8.9,0.6
	c0.4,0.7,0.4,1.5,0.1,2.2c3.2-1.6,4.6-1.6,5.1-1s0.1,1.5,0.7,2.1s1.6,0.1,3,0.5c1,0.3,1.9,0.8,2.5,1.6c2.5-2.7,5.7-4.7,9.1-5.9
	c1.6-0.5,1.6-0.3,3.2-0.8c7.5-2.3,8.9-8.1,16.3-10.3c1-0.3,2-0.5,3-0.6l16-10.6h12.5c1.1-0.2,2.2-0.5,3.2-1c1.9-0.8,2.2-1.5,3.2-1.6
	c1.8-0.2,3.3,1.9,5,3.6c2.4,2.4,5.2,4.3,8.3,5.6c1-0.3,2-0.9,2.8-1.6c1.5-1.3,1.5-2.2,2.4-2.4c1.4-0.3,2.5,1.7,4.8,3.6
	c1.8,1.4,3.9,2.5,6.2,3c3.7,2.2,7.4,4.4,11.1,6.5c50.5,29.5,101,55.9,151.3,79l32-20.1c2-0.1,4-0.6,5.9-1.3c2.1-0.9,3-1.8,4.4-1.6
	c1.1,0.1,2.5,1,4,3.8c3.5,1.3,6.8,2.9,9.9,4.9c1.7,1.1,3.1,2.1,7.1,4.8c1.9,1.2,3.4,2.2,4.4,2.8c18.4-8.6,25.8-12.5,28-14.2
	c1-0.8,2.2-1.5,3.4-2c1.7-0.7,3.5-1.2,5.4-1.3v373.3l-843,1.5L-1.3,106z"/>
<linearGradient id="SVGID_3_" gradientUnits="userSpaceOnUse" x1="611.0826" y1="585.925" x2="631.4409" y2="565.5567" gradientTransform="matrix(1 0 0 1 0 -218)">
	<stop  offset="0.55" style="stop-color:#1E1B33"/>
	<stop  offset="1" style="stop-color:#232E45"/>
</linearGradient>
<polygon class="st4" points="629.9,366.2 615.8,372.7 622.9,339 "/>
<linearGradient id="SVGID_4_" gradientUnits="userSpaceOnUse" x1="625.6249" y1="571.725" x2="653.375" y2="543.975" gradientTransform="matrix(1 0 0 1 0 -218)">
	<stop  offset="0.55" style="stop-color:#1E1B33"/>
	<stop  offset="1" style="stop-color:#232E45"/>
</linearGradient>
<polygon class="st5" points="651.3,351.4 632.1,360.2 641.7,314.3 "/>
<linearGradient id="SVGID_5_" gradientUnits="userSpaceOnUse" x1="658.98" y1="576.72" x2="679.335" y2="556.365" gradientTransform="matrix(1 0 0 1 0 -218)">
	<stop  offset="0.55" style="stop-color:#1E1B33"/>
	<stop  offset="1" style="stop-color:#232E45"/>
</linearGradient>
<polygon class="st6" points="677.8,357 663.7,363.5 670.8,329.8 "/>
<linearGradient id="SVGID_6_" gradientUnits="userSpaceOnUse" x1="767.8" y1="527.8" x2="793.84" y2="501.76" gradientTransform="matrix(1 0 0 1 0 -218)">
	<stop  offset="0.55" style="stop-color:#1E1B33"/>
	<stop  offset="1" style="stop-color:#232E45"/>
</linearGradient>
<polygon class="st7" points="793.7,306 771.8,313.9 782.8,272.7 "/>
<linearGradient id="SVGID_7_" gradientUnits="userSpaceOnUse" x1="274.8511" y1="189.8797" x2="103.7411" y2="660.0046" gradientTransform="matrix(1 0 0 1 0 -218)">
	<stop  offset="0" style="stop-color:#2E3A52"/>
	<stop  offset="0.74" style="stop-color:#303D56"/>
</linearGradient>
<path class="st8" d="M-2.7,106.2c5.3,3.6,10.8,7,16.5,10c6.5,3.4,10.1,4.8,18.1,9.1c5.2,2.8,9.4,5.2,12.1,6.8
	c5.9-2.5,12.2-5,18.9-7.3c5.1-1.8,10-3.4,14.7-4.8l27.7,2.2c1.6,0.4,3.3,0.7,4.9,0.9c4.3,0.5,6.9,0.1,11.2,0c3.1-0.1,6.2,0,9.2,0.3
	l4.2,2.7l3.6-4l56.4-19.8c7.1,0.2,12.3,0.5,12.4,1.3c0,0.2-0.5,0.4-0.4,0.6c0.1,0.8,7.6,1,15.9-0.2c7.2-1,9.3-2.2,13.8-1.3
	c2.4,0.5,4.7,1.3,6.9,2.5l12.4-7.1c2.5,0.5,5,0.5,7.4,0.2c3.1-0.5,5.2-1.4,8.8-3.1c2.4-1.1,6.3-2.9,11.8-5.4l14.3,6L339,81.4
	c50.3-17.7,51.2-17.9,57.5-20.5c10.1-4.2,20.6-7.7,30.8-11.8c7.1-2.9,11.4-4.7,16.1-5.1c3.1-0.1,6.2-0.6,9.1-1.6
	c1.6-0.6,1.8-0.8,3.3-1.2c0.6-0.2,7.4-1.9,8.9,0.6c0.4,0.7,0.4,1.5,0.1,2.2c3.2-1.6,4.6-1.6,5.1-1s0.1,1.5,0.7,2.1s1.6,0.1,3,0.5
	c1,0.3,1.8,0.8,2.5,1.6c-2,0.2-3.9,0.8-5.7,1.6c-3.9,1.8-6.1,4.5-9.5,9c-6.6,8.8-9.8,13.1-9,14c1.4,1.4,10.6-6.5,11.5-5.5
	c1.1,1.2-10.5,15.1-26,29c-12.4,11.1-20.7,16.4-19.7,18.5c1.7,3.4,24.2-7.3,26.7-3.3c4.4,7.1-59.4,54.1-56.7,58
	c1.7,2.5,27.9-16.6,34-10.7c4.6,4.4-4.5,21-11.3,32.7c-33.4,56.6-77.2,99.5-81,96.3c-1.4-1.2,4-7.3,8-24c2.6-11,4.4-18.4,2-20
	c-7.5-4.8-53,47.9-79.7,79c-10.5,12.3-28.4,33.5-32.3,31s9.8-24.2,4.1-29.4c-7.3-6.7-41.5,19.5-49.5,25.5
	c-31.7,23.6-86,49.2-184.6,54.4L-2.7,106.2L-2.7,106.2z"/>
<linearGradient id="SVGID_8_" gradientUnits="userSpaceOnUse" x1="491.9939" y1="359.8087" x2="445.5794" y2="279.4209" gradientTransform="matrix(1 0 0 1 0 -218)">
	<stop  offset="0.21" style="stop-color:#335D7E"/>
	<stop  offset="0.63" style="stop-color:#567791"/>
	<stop  offset="1" style="stop-color:#D1D1D1"/>
</linearGradient>
<path class="st9" d="M411.3,188.4c59.8-42.5,102.9-76.2,117.1-90.1c2.2-2.2,15.5-15.4,13.5-26.6c-0.5-2.5-1.4-5-2.8-7.1
	c-4.1-6-9.5-5.5-10.5-8.6c-2.3-7,20.3-19.3,18.5-23c-1.1-2.2-10.5,0.5-11-1.2s8.8-4.7,9.2-10.1c0.2-2.3-1.3-4.2-2.6-5.6l-6.3,2.6
	h-12.5l-16.1,10.5l-3,0.6c-1.2,0.3-2.5,0.8-3.6,1.4c-1.9,1-2.7,2.1-4.8,4c-1.3,1.2-2.7,2.3-4.2,3.4c-1,0.8-2.1,1.4-3.4,1.8
	c-1.6,0.5-2.4,0.3-4,0.8c-1.2,0.4-2.3,1-3.4,1.8c-1.9,1.2-3.7,2.5-5.4,3.9l-2.5-1.6c-1.3,1-3.1,2.4-5.2,4.3
	c-9.1,8-17.9,19.2-16.3,21c0.6,0.7,3.1,0.3,11.5-4.8c-6.9,9.1-14.5,17.8-22.6,25.8c-14,13.9-25.6,21.8-24.2,24.2
	c1.9,3.3,25.1-9.1,27.4-5.6c4.1,6.2-62.2,56.2-59.5,59.9c1.8,2.4,30.9-19.3,37.3-13.1C426.2,161.1,419.2,175.3,411.3,188.4z"/>
<path class="st10" d="M473.7,45.2c-0.3-0.1-0.7-0.1-1-0.1c-0.4,0-0.9,0-1.3-0.1c-0.2-0.1-0.4-0.1-0.6-0.2c-0.1-0.2-0.2-0.4-0.3-0.7
	c-0.1-0.3,0-0.5-0.1-0.8c-0.1-0.2-0.2-0.4-0.3-0.6c-0.2-0.1-0.4-0.2-0.6-0.2c-0.6-0.1-1.3-0.1-1.9,0.2c-0.9,0.3-1.7,0.6-2.5,1.1
	c-5.8,4.6-10.4,8.6-13.8,11.6c-7.8,7-9.4,9-8.9,9.6c0.2,0.4,1.1,0.1,5.5-1c8-2.1,8-2,8.5-2.3c3.4-1.6,4.2-3.5,8.2-7.9
	C467.3,50.7,470.4,47.8,473.7,45.2z"/>
<linearGradient id="SVGID_9_" gradientUnits="userSpaceOnUse" x1="160.576" y1="373.2363" x2="140.649" y2="338.7287" gradientTransform="matrix(1 0 0 1 0 -218)">
	<stop  offset="0.21" style="stop-color:#335D7E"/>
	<stop  offset="0.63" style="stop-color:#567791"/>
	<stop  offset="1" style="stop-color:#D1D1D1"/>
</linearGradient>
<path class="st11" d="M243.6,105.1c-2.1-1.2-4.4-2.1-6.9-2.5c-0.9-0.2-1.8-0.3-2.7-0.3c-2.3-0.1-3.7,0.4-6.8,1
	c-1,0.2-2.5,0.5-4.4,0.7c-2.4,0.2-4.4,0.3-6,0.4c-2.7,0.2-2.1,0.1-4,0.2c-0.9,0.1-1.8,0.1-2.7,0.1c-1.1-0.1-2.2-0.3-3.2-0.6
	c0.3-0.1,0.5-0.3,0.6-0.6c-0.1-0.8-4.2-1.2-12.4-1.4l-56.4,19.8l-3.6,4c-31.9,30.9-66.4,65.7-63.7,68.8c2.6,2.9,37.6-22.5,40.5-18.8
	c1.1,1.4-3,6.1-2.1,6.9c1.6,1.3,15.5-13,16.4-12.2c0.5,0.4-3.6,4.6-3,5.4c1.3,1.5,23.5-13.2,45.3-31.2c8.9-7.4,13.8-12,23.5-17.7
	c6.7-3.9,12.3-6.3,21.7-10.4C221,113.5,231.1,109.4,243.6,105.1z"/>
<linearGradient id="SVGID_10_" gradientUnits="userSpaceOnUse" x1="677.8" y1="299.4" x2="688.02" y2="299.4" gradientTransform="matrix(1 0 0 1 0 -218)">
	<stop  offset="0" style="stop-color:#232E3F"/>
	<stop  offset="0.74" style="stop-color:#303D56"/>
</linearGradient>
<path class="st12" d="M677.8,85.5l5.5-13.6l4.7,19L677.8,85.5z"/>
<linearGradient id="SVGID_11_" gradientUnits="userSpaceOnUse" x1="666.26" y1="294.4" x2="671.9" y2="294.4" gradientTransform="matrix(1 0 0 1 0 -218)">
	<stop  offset="0" style="stop-color:#232E3F"/>
	<stop  offset="0.74" style="stop-color:#303D56"/>
</linearGradient>
<polygon class="st13" points="666.3,79.5 669.7,70.2 671.9,82.6 "/>
<path class="st14" d="M135.3,53.4l-5-13.4l-2.7,15.4c1.2-0.3,2.4-0.7,3.7-1C132.6,54.1,134,53.8,135.3,53.4z"/>
<path class="st14" d="M144,51.3l-3-8l-1.7,9.2l2.4-0.6C142.5,51.8,143.2,51.5,144,51.3z"/>
<path class="st15" d="M-3.7,207c3.2-2.1,12-7.3,23.5-5.3c13.4,2.3,21.5,12.7,23.9,15.9c1.1-2.9,2.7-5.6,4.8-8
	c10.7-11.9,31.5-8,52.5,8c7.4-7.1,16.2-12.5,25.9-15.9c11-3.8,22.8-4.4,34.1-1.8c2.6-3.6,25.1-33.4,59.3-29.2
	c31.3,3.9,48.5,33.4,51.1,38c1.4-1.5,12.9-13.2,27.9-8.8c12,3.5,18.4,15,19.8,17.7c4.5-2.6,25.8-14.5,49.8-2.6
	c15.2,7.5,24.1,20.9,27.9,27.4c55.8,4.6,77.1,7.7,77,9.7c-0.1,4.1-90,1-90.6,11.5c-0.5,7.5,44.5,14.5,44.3,20.3
	c-0.4,12.6-216.1,11.3-430.7,7.1L-3.7,207z"/>
<path class="st16" d="M414.2,244.3c-8.4-1.4-10.8-2.5-10.8-3.4c0-2.6,20.3-3.6,20.3-4.7c-0.1-1.7-44.3-1.4-70.2-1.4
	c-58.3,0.1-95.9-1.3-95.9-0.7c0,0.8,66.2,2.5,66.2,4.1c0,1.1-34.4,1-91.8,2.7c-3.9,0.1-53.2,1.6-115.5,5.4
	c-54.5,3.3-81.7,5-81.7,7.4c-0.1,5.4,118.7,11.8,118.9,10.1c0.1-0.8-28.3-4.1-49.3-6.1c-21.8-2-34.4-2.4-34.4-2.7
	c0-0.8,91.9,3,202.6,4.1c65.1,0.6,107.4,0,107.4-0.7c0-1-86.4-1.4-86.4-4.7C293.3,252.2,312.1,249.4,414.2,244.3z"/>
<linearGradient id="SVGID_12_" gradientUnits="userSpaceOnUse" x1="-3.6" y1="574.65" x2="731.3" y2="574.65" gradientTransform="matrix(1 0 0 1 0 -218)">
	<stop  offset="0.73" style="stop-color:#1E1B33"/>
	<stop  offset="0.86" style="stop-color:#20233B"/>
	<stop  offset="1" style="stop-color:#2B485E"/>
</linearGradient>
<path class="st17" d="M731.3,462.4c-107,2.9-213.9,7.1-320.7,12.6c-138.2,7.1-276.3,16.3-414.2,27.7L-3,284.4
	c2.8-1.1,36.1-14.2,60.3-24c11.6-4.7,18-7.4,24.7-10.4l12-5.3c5-2.4,7.2-3.7,11.3-5c3.5-1.1,4-0.8,9.3-2c8.9-2,16.6-3.6,24.2-6.5
	c1.6-0.8,3.4-1.1,5.2-0.8c2.8,0.5,5.3,2.7,7.8,4.8c1.6,1.4,2.2,2.1,3.5,2.2c1.5,0.1,2.5-0.7,4.2-1.8c2-1.2,4.2-1.9,6.2-3
	c3.9-2,7.2-3.4,16.2-7.8c5.6-2.7,14.5-7,29.2-14.2c18.9,10.2,34.1,17.9,44.7,23.1c14.5,7,27.5,17.5,43,22c3.3,0.9,6.3,2.6,8.7,4.9
	c1.8,1.7,3.2,3.7,4.3,6c3.4,0.2,6.8,0.2,10.1,0c3-0.2,4.8-0.5,7.3,0c2.3,0.5,4.4,1.4,6.3,2.8c5.4,3.6,12.6,4,20.6,5.6
	c9.7,1.9,16.4,4.6,28.6,9.4c9.9,3.9,12,6.8,23.4,11.2c4.4,1.7,8.9,3.1,13.5,4.2c4.7,1.1,9.5,1.8,14.3,2.1c6.8,0.4,7.7-0.5,11.5,0.7
	c3,1,4.3,2.1,9.1,3.5c2,0.6,3.9,1,5.9,1.4c4.2,0.7,8.4,0.8,12.6,0.4c5.2,3,13.1,7.4,22.7,12.9c16.3,9.3,18.8,10.8,22.7,12.9
	c12.4,6.6,25.4,11.9,38.8,16.1c37.6,12.6,80.9,44.1,121.3,73.4c6.8,5,13.7,10.2,13.7,10.2C709.6,444.6,721.9,454.6,731.3,462.4z"/>
<linearGradient id="SVGID_13_" gradientUnits="userSpaceOnUse" x1="471.3938" y1="680.4" x2="471.3938" y2="428.7573" gradientTransform="matrix(1 0 0 1 0 -218)">
	<stop  offset="0.21" style="stop-color:#123251"/>
	<stop  offset="0.53" style="stop-color:#2C4C69"/>
	<stop  offset="1" style="stop-color:#567791"/>
</linearGradient>
<path class="st18" d="M211.3,210.8c-0.7,1.1,28.2,19.8,69.4,51.7c3.9,3,7.8,6.1,11.6,9.1c16.5-0.4,27.7,3.5,35,7.2
	c5,2.6,10.5,6.4,20.5,10.2c5.3,2,10.7,3.7,16.2,4.9c18.3,18.4,35.3,25.6,47.7,28.7c24.6,6.2,39.4-1.7,70.4,7.9
	c13.7,4.2,31.6,12.2,30.8,17.7c-1.3,7.8-40.2,8-40.1,10.7c0.1,1.2,7.5,1.5,7.5,2.3c0,1.5-25.5,1.5-25.6,3.3
	c-0.1,2.5,49,5.8,48.9,9.3c-0.1,4.9-95,6.5-95.1,11.2c0,3.3,47.2,6.5,47.1,8.9c-0.1,1.8-26.4,1-26.6,3.7c-0.1,1.2,4.8,2.5,6.1,2.8
	c21,5.4,51.5,6.5,56.9,7c14.1,1.1,33.4,11.9,55,55h184.5c-46.9-37-84.2-64-104.2-77.5c0,0-21.2-14.2-42.2-24.5
	c-9.4-4.6-17.7-7.9-18.4-8.1c-7.9-3.1-10.6-3.7-17.4-6.1c-9.3-3.4-18.3-7.5-27-12.1c0,0-12.3-6.2-27.2-15.4
	c-3.7-2.2-7.5-4.3-11.1-6.6c-0.2-0.1-1.5-0.9-3.2-1.9c-1.5-0.9-3.2-1.6-4.9-2.1c-1.7-0.2-3.5-0.3-5.2-0.1c-3.4,0.1-3.8,0.3-5.1,0.2
	c-2.6-0.1-5.1-0.6-7.5-1.5c-5.9-1.9-6.4-3.1-10.3-4.1c-2.5-0.6-2.5-0.1-8.6-0.5c-5.7-0.3-11.4-1.1-17-2.3c-0.5-0.1-2.7-0.7-5.9-1.7
	c-7.8-2.5-12.9-5-20.6-8.7c-9.6-4.5-14.7-6.9-21.8-9.7c-4.5-1.9-9.2-3.3-14-4.3c-1.4-0.3-5.2-1-9.8-1.7c-5.9-0.9-8-0.9-11-2.5
	c-1.8-1-2.1-1.5-4.6-2.7c-2.1-1.1-4.4-1.8-6.8-2.2c-0.8-0.1-0.3,0-5.8,0.3c-10.3,0.6-6.4-0.2-7.7,0c-0.7,0.2-1.4,0.1-2-0.2
	c-0.6-0.4-0.5-0.9-1.2-2.1c-0.6-0.8-1.3-1.6-2.1-2.3c-0.7-0.9-1.2-1.5-1.3-1.7c-1.9-2.4-8.4-4.6-11.8-5.8c-5-1.8-8.6-3.5-9.4-3.9
	c-2-1-3.8-2-7.5-4c-1.7-1-4.3-2.4-9.1-5.2c-4.4-2.6-7.6-4.5-8.2-4.8c-8.8-5.2-17.1-8.9-28.2-14.5
	C217.3,214.2,211.6,210.3,211.3,210.8z"/>
<linearGradient id="SVGID_14_" gradientUnits="userSpaceOnUse" x1="103.9" y1="677" x2="103.9" y2="428.8" gradientTransform="matrix(1 0 0 1 0 -218)">
	<stop  offset="0" style="stop-color:#335D7E"/>
	<stop  offset="1" style="stop-color:#5A7A93"/>
</linearGradient>
<path class="st19" d="M-3.4,284.9c6.6-2.6,16.4-6.5,28.4-11.4c20.6-8.3,31.1-12.5,43.7-17.8c8.4-3.6,20.4-8.7,35-15.3
	c1.3-0.4,3.4-0.9,5.8-1.5c6-1.5,7-1.5,11.3-2.6c11.3-2.7,16.9-4.1,19-5.2c1-0.6,2.2-0.9,3.3-0.9c1,0.1,1.9,0.4,2.8,0.9
	c1.9,1,3.7,2.2,5.4,3.6c0.9,0.7,2.3,1.8,4,3l55.9-26.9l-4.5,8.7c-0.9,0.6-2.2,1.6-3.9,2.6c-2.6,1.6-4.1,2.2-4,2.6s0.8,0.4,4.1,0
	l-9.4,10.9l0.4,3.2c-6.7,4.2-13,9-19,14.1c-5.4,4.7-6.3,6.1-5.9,7.2c1.6,5.5,30.6-1.6,32.8,4.1c1.8,4.7-15.5,14.8-29.8,24.5
	c-8.6,5.8-25,20.4-57.8,49.4C67.9,379.2,12.7,440.8-3.4,459V284.9z"/>
<linearGradient id="SVGID_15_" gradientUnits="userSpaceOnUse" x1="418.2" y1="497.8" x2="418.2" y2="730.9" gradientTransform="matrix(1 0 0 1 0 -218)">
	<stop  offset="0" style="stop-color:#1E1C34"/>
	<stop  offset="1" style="stop-color:#1E1C34"/>
	<stop  offset="1" style="stop-color:#1E1D35"/>
	<stop  offset="1" style="stop-color:#1F1F37"/>
</linearGradient>
<path class="st20" d="M840.4,279.8c-0.4,60.9-0.8,121.8-1.2,182.6h-0.1l-290,17.4L-4,512.9c0-5.9,0-11.9,0-17.8
	c3.4-1.4,6.9-2.8,10.4-4.2c5.4-2.1,11-4.3,16.7-6.4c13.2-5,27.3-9.9,42.3-14.7c8.5-2.7,17.4-5.6,26.7-8.4
	c10.5-3.2,21.6-6.5,33.2-9.6c39.6-10.8,80.2-17.9,121.1-21c52-3.9,65,1.8,105.5,0.5c10.1-0.3,21.9-1.1,36.5-2.5
	c34.6-3.5,69-8.9,103-16c18.4-3.9,34.1-7.8,46-11c0,0,40.1-11.2,67.8-30c1.4-1,2.8-2,4.2-3c6.4-4.9,13.5-9,21-12c7.4-3,15.1-5,23-6
	c26.9-3.7,75-23.2,104.6-37.9c21.7-10.8,36-20.3,64.5-28.5C829.9,282.1,836.2,280.7,840.4,279.8z"/>
<linearGradient id="SVGID_16_" gradientUnits="userSpaceOnUse" x1="791.6719" y1="506.9703" x2="827.174" y2="471.4782" gradientTransform="matrix(1 0 0 1 0 -218)">
	<stop  offset="0.55" style="stop-color:#1E1B33"/>
	<stop  offset="1" style="stop-color:#232E45"/>
</linearGradient>
<polygon class="st21" points="827,283.8 797.2,294.5 812.1,238.4 "/>
<linearGradient id="SVGID_17_" gradientUnits="userSpaceOnUse" x1="418.7" y1="670.8" x2="418.7" y2="1706.6001" gradientTransform="matrix(1 0 0 1 0 -218)">
	<stop  offset="0" style="stop-color:#1E1C34"/>
	<stop  offset="1" style="stop-color:#1E1C34"/>
	<stop  offset="1" style="stop-color:#1E1D35"/>
	<stop  offset="1" style="stop-color:#1F1F37"/>
</linearGradient>
<path class="st22" d="M839.9,452.8v1035.8H-1.9c-0.1-53.4-0.2-106.9-0.2-160.3c0-22.8,0-45.7-0.1-68.5V1240
	c-0.1-48.1-0.1-96.3-0.2-144.5c0-4.1,0-8.1,0-12.2c0-4.7,0-9.3,0-14c0-5.8,0-11.5,0-17.3c0-0.1,0-0.2,0-0.2c0-4.1,0-8.2,0-12.2v-2.7
	c0-1.6,0-3.3,0-4.9c0-1.9,0-3.9,0-5.8v-3c0-2.5,0-5,0-7.5v-2.8c0-0.7,0-1.3,0-2c0-5.2,0-10.4,0-15.6c0-1.9,0-3.9,0-5.8V989
	c0-2,0-4.1,0-6.1v-1.1c0-2.9,0-5.8,0-8.7c0-0.2,0-0.3,0-0.5c0-1,0-2,0-3c0-1.5,0-3,0-4.6c0-3.9,0-7.7,0-11.6v-0.5
	c0-4.3,0-8.6,0-12.9c0-3.7,0-7.4,0-11.1c0-9.2,0-18.5,0-27.7v-3.4c0-2,0-3.9,0-5.9v-2.4c0-9.9,0-19.8,0-29.8v-17.1v-4.8
	c0-0.3,0-0.6,0-0.9c0-8.4,0-16.8,0-25.2v-13.2c0-10.7,0-21.3,0-32v-6.8c0-0.5,0-1.1,0-1.6v-3.9c0-3.6,0-7.2,0-10.8
	c0-5.3,0-10.5,0-15.8v-2.1c0-3.8,0-7.5,0-11.3v-2.9c0-1,0-1.9,0-2.8v-3.1c0-4.6,0-9.2,0-13.8V681c0-3.2,0-6.4,0-9.7v-13.5v-18.1
	c0-32.2-0.1-64.4-0.1-96.6c0-10,0-19.9,0-29.9c0-2.1,0-4.2,0-6.4V504c0-2.4,0-4.8,0-7.2l0,0l27.1-1.4l385-20.1l112.6-5.9l210.6-11
	c34.6-1.8,69.1-3.6,103.7-5.4L839.9,452.8z"/>
<path class="st15" d="M608.9,310.5c-7.8-1.3-10-2.3-10-3.1c0-2.4,18.8-3.3,18.8-4.4c-0.1-1.6-41-1.3-65-1.2c-54,0-88.8-1.2-88.8-0.6
	c0,0.8,61.3,2.3,61.3,3.8c0,1-31.9,0.9-85,2.5c-3.6,0.1-49.2,1.5-106.9,5c-50.4,3-75.6,4.6-75.7,6.9c0,5,109.9,10.9,110.1,9.4
	c0.1-0.8-26.2-3.8-45.6-5.6c-20.2-1.9-31.9-2.2-31.9-2.5c0-0.7,85.1,2.8,187.6,3.8c60.3,0.6,99.4,0,99.4-0.6c0-1-80-1.3-80-4.4
	C496.9,317.8,514.3,315.3,608.9,310.5z"/>
<path class="st15" d="M840.4,233.6c-91,4.1-134.6,4.3-134.7,1c-0.1-3,36.8-7,36.8-10.5c-0.2-8.1-198.3-0.1-198.4-3.5
	c0-1.2,24.8-3.4,84.3-8.2c43.1-3.5,78.6-6.3,102.7-8.2c26,4,62.5,8.8,106.5,11.7l2.8,0.2L840.4,233.6L840.4,233.6z"/>
<path class="st23" d="M839.1,464.2v83.1c-39-1-58.9-1.5-71.7-1.5c-41.1,0.2-77.7,2.1-78,0c-0.2-1.3,13.2-2.7,13-3.8
	s-15.7-0.4-39.1,0.7c-37.4,1.8-95,4.1-142.9-0.7c-11.9-1.2-25.8-3.1-47-3.1c-22.5,0-31.6,2.3-57,1.5c-4.4-0.1-39.6-1.2-40-5.4
	c-0.2-2.1,8.7-4.5,12-5.4c8.4-2.2,10.7-1,18-3c8.4-2.3,8.6-4.8,15-6.2c4.4-1,11.2-1.4,21.1,2.1c4.1-4.7,9.2-8.6,14.9-11.2
	c8.5-4,17.7-6,27.1-6c-1.6-5.7-0.1-11.9,3.9-16.2c6.4-7,18.6-10.2,30.6-7.9c-0.1-1.9,0-3.9,0.2-5.8c0.3-2.2,0.7-4.4,1.4-6.6
	c2.3-7.8,7.9-17.8,20.8-25.7c25.3-15.3,55.4-7.2,57.1-6.8c5-5.6,24.3-25.9,60.9-33.1c2.5-0.5,47.8-8.9,80,9.2
	c14.9,8.4,25.4,14.3,30,24.5c1.4,3.1,3.1,8.5,9,10.7c5.3,2,10.1-0.1,16-0.8c14.3-1.7,29.7,3.6,38,10c0.9,0.7,1.7,1.4,2.5,2.1
	C836.5,460.7,837.9,462.4,839.1,464.2z"/>
<path class="st23" d="M580,557.7c8.3,1.7,58.5,11.8,57.9,20.6c-0.6,8.5-48.8,11.4-57.9,11.9c-8.6-0.9-16-1.2-22-1.2
	c-4.7-0.1-9.8,0-15.5,0.3c-10,0.5-19.9,1.6-29.8,3.1c-32.2,4.8-59.6,2.6-147.7,0c-49.1-1.5-73.7-2.2-89.4-2.1
	c-49,0.3-92.6,2.9-92.9,0c-0.2-1.8,15.7-3.7,15.5-5.2c-0.4-4.2-111.5,9.3-202.2,1.5c0-6.8,0-13.6,0-20.4v-18.9
	c0-19.2-0.1-38.4-0.1-57.7c0-5.9,0-11.9,0-17.8c0-1.3,0-2.5,0-3.8l0,0c0-0.6,0-1.1,0-1.7c0-1.4,0-2.9,0-4.3l0,0c0-1,0-2,0-3
	c3.2-3.4,6.7-6.5,10.6-9.2c30.2-20.9,66-9.9,68-9.2c5.9-7.6,28.9-35.4,72.5-45.3c3-0.7,56.9-12.2,95.3,12.6
	c17.8,11.5,30.3,19.5,35.7,33.6c0.9,2.7,2,5.3,3.3,7.7c0.5,0.9,1.1,1.8,1.8,2.6c1.5,1.9,3.4,3.4,5.6,4.4c8.1,3.5,16.5,0,19.1-1
	c10.3-4.4,29.3-5.9,50.6-2.8c26,3.8,55.5,14.3,76.6,34.6c6.5,6.3,15.3,16.5,23.2,32.7c2.9,6,5.4,12.2,7.5,18.6
	c8.6-4.2,49.6-23,88.4-0.3c9.2,5.5,17.4,12.5,24.2,20.8C578.7,558.3,579.2,558,580,557.7z"/>
<path class="st15" d="M-3.8,569.4c46.1,1.3,126.2,3.5,216.1,4.4c82.7,0.8,136.4,0.1,136.4-0.9c0-1.3-109.7-1.8-109.8-6
	c0-2,23.8-5.5,153.6-12c-10.7-1.7-13.7-3.2-13.7-4.3c0-3.2,25.7-4.5,25.7-6c-0.1-2.2-56.2-1.8-89.2-1.7
	c-74.1,0.1-121.8-1.6-121.8-0.9c0,1,84.1,3.2,84.1,5.2c0,1.4-43.8,1.2-116.7,3.4c-5,0.2-67.6,2.1-146.7,6.9l-18,1.1L-3.8,569.4
	l-0.1,2.5l2.5,0.2c26.7,2.5,62.6,6.7,62.6,7.7s-31.2-0.2-65.1-2.4L-3.8,569.4L-3.8,569.4z"/>
<path class="st24" d="M781.8,547.4v0.7C781.7,547.9,781.7,547.6,781.8,547.4z"/>
</svg>
