<?xml version="1.0" encoding="utf-8"?>
<!-- Generator: Adobe Illustrator 19.2.1, SVG Export Plug-In . SVG Version: 6.00 Build 0)  -->
<svg version="1.1" id="Layer_1" xmlns="http://www.w3.org/2000/svg" xmlns:xlink="http://www.w3.org/1999/xlink" x="0px" y="0px"
	 viewBox="0 0 1265.1 1353.2" style="enable-background:new 0 0 1265.1 1353.2;" xml:space="preserve">
<style type="text/css">
	.st0{fill:url(#SVGID_1_);}
	.st1{clip-path:url(#SVGID_3_);}
	.st2{opacity:0.4;fill:#FFFFFF;enable-background:new    ;}
	.st3{opacity:0.67;fill:#666577;enable-background:new    ;}
	.st4{opacity:0.31;fill:#FFFFFF;enable-background:new    ;}
	.st5{fill:#666577;}
	.st6{fill:#1C1D33;}
	.st7{fill:#525266;}
	.st8{opacity:0.84;fill:#5A5A6B;enable-background:new    ;}
	.st9{fill:#363649;}
	.st10{fill:#2A2C3F;}
	.st11{opacity:0.48;fill:#444456;enable-background:new    ;}
	.st12{opacity:0.48;fill:#4C4C5F;enable-background:new    ;}
	.st13{fill:none;}
	.st14{opacity:0.36;fill:#444456;enable-background:new    ;}
	.st15{opacity:0.77;fill:#5B5B6B;enable-background:new    ;}
	.st16{opacity:0.94;fill:#5A5A6B;enable-background:new    ;}
</style>
<title>quest</title>
<linearGradient id="SVGID_1_" gradientUnits="userSpaceOnUse" x1="632.05" y1="64.0999" x2="632.05" y2="-680" gradientTransform="matrix(1 0 0 1 0 680)">
	<stop  offset="0.17" style="stop-color:#707084"/>
	<stop  offset="0.88" style="stop-color:#D98F80"/>
</linearGradient>
<rect x="-1" y="0" class="st0" width="1266.1" height="744.1"/>
<g>
	<g>
		<defs>
			<rect id="SVGID_2_" x="-1" y="0" width="1266.1" height="744.1"/>
		</defs>
		<clipPath id="SVGID_3_">
			<use xlink:href="#SVGID_2_"  style="overflow:visible;"/>
		</clipPath>
		<g class="st1">
			
				<image style="overflow:visible;enable-background:new    ;" width="2562" height="1642" xlink:href="2B3156C5A5B1FF21.png"  transform="matrix(0.4996 0 0 0.497 -7.95 806.49)">
			</image>
		</g>
	</g>
</g>
<circle class="st2" cx="191.6" cy="412.6" r="3.4"/>
<circle class="st2" cx="970.3" cy="263.9" r="2.5"/>
<rect x="1033.9" y="-1" class="st3" width="55.6" height="692"/>
<circle class="st4" cx="959.5" cy="494.1" r="3.4"/>
<circle class="st2" cx="912.6" cy="96.2" r="2.5"/>
<ellipse transform="matrix(0.4482 -0.8939 0.8939 0.4482 446.2404 1173.4689)" class="st2" cx="1173.7" cy="225.3" rx="3.4" ry="3.4"/>
<path class="st5" d="M-3.4,502.6c1.4-0.8,31.3-16.5,63.4-3.2c32.4,13.4,35.4,43.3,35.5,44.6c18.8-1.3,37,6,46.9,19.1
	c11,14.5,10,33.7-2.7,48c7-3.8,15.9-3.4,21.7,0.9c4.5,3.1,6.7,8.7,5.5,14c1.1-1.1,16.8-15.8,40.1-13c17.6,2,32.3,13.1,37.2,28
	c0.6-0.6,12.3-11.8,24.5-8.3c12.4,3.6,21.5,21.3,15.2,40.3c10.2-26.3,32.9-44.9,59.2-48.1c31.8-3.8,63.5,15.7,76.6,48.1
	c2.1-1.6,11.9-9,21.7-7.1c12.1,2.3,22.4,18.3,16.5,38.2c4.6-29,30.1-52.2,62.1-57.3c37.7-6.1,77.5,13.9,89.8,47.5
	c8.4-1.7,31.2-5.1,55.6,6.7c37,17.9,47.4,56.1,48.8,61.8H-0.3L-3.4,502.6z"/>
<path class="st5" d="M1269.7,521c-1.2-1-24.2-19.8-54-13.9c-24.8,4.8-43.3,24.5-43.5,47.8c-16.6-2.8-33.7,2.4-43.5,13.3
	c-11.1,12.2-11.2,29.5,0,42.4c-7-3.8-15.9-3.4-21.7,0.9c-4.5,3.1-6.7,8.7-5.5,14.1c-1.1-1.1-16.8-15.7-40.1-13
	c-17.6,2-32.3,13.1-37.2,28c-0.6-0.6-12.3-11.8-24.5-8.3c-12.3,3.6-21.5,21.3-15.2,40.3c-10.2-26.2-32.9-44.8-59.2-48
	c-31.8-3.8-63.5,15.6-76.7,48c-5.2-5.7-13.7-8.5-21.7-7c-9.5,1.7-16.6,9-16.7,17.6c-1.6-2.6-21.3-32.8-61.9-36.6
	c-34.2-3.3-68.8,13.6-84,42c-7.8-2.8-30.7-9.8-55.8-0.3c-29.4,11.1-50,40.5-53,75.3l713-1.2C1268.9,681.8,1269.3,601.3,1269.7,521z"
	/>
<ellipse transform="matrix(0.4482 -0.8939 0.8939 0.4482 -1.1488 806.7513)" class="st2" cx="652.9" cy="404.3" rx="2.5" ry="2.5"/>
<path class="st6" d="M1269-4.2v774.9l-98.1,35.5c11-69.1,20.4-141.9,27.5-218.2c14.2-153.1,17.9-307,11.3-460.6
	c-1-23.3-2.3-46.7-3.8-70c-1.2-19.5-2.7-38.9-4.2-58.4h63.5v-3.2C1265.2-4.2,1269-4.2,1269-4.2z"/>
<circle class="st4" cx="296.4" cy="107.3" r="3.4"/>
<circle class="st2" cx="299.8" cy="602" r="3.4"/>
<rect x="-3.5" y="743.7" class="st6" width="1271.5" height="609.5"/>
<path class="st7" d="M1265.1,1276.2c-183.3-39.4-295.9-113.5-365.2-174.8c-3.8-3.3-7.4-6.6-11-9.9c-8.4-7.8-16.2-15.4-23.5-22.9
	c-14.4-14.7-26.9-28.9-38.8-42.9c-2.1-2.5-4.2-4.9-6.2-7.3c-36.8-44-68.3-86.1-129.2-134.2c-110.9-87.6-229-123.7-311.5-140.5h355
	c41.5,14.7,104.3,42,166.4,94.2c75.2,63.1,89,111.8,156.2,163.5c39.2,30.1,103.6,66.7,207.4,80.1c0,20.6,0.1,41.1,0.1,61.7
	c0,10.2,0,20.4,0.1,30.7c0,5.1,0,10.2,0,15.3c0,7,0,14.1,0,21.1C1264.9,1232.2,1265,1254.2,1265.1,1276.2z"/>
<path class="st6" d="M347.8,747.2c-0.9,1.2-1.8,2.4-2.9,3.4h1.8c0.5-0.5,1-1,1.5-1.6c0.1,0.6,0.1,1.1,0.1,1.6h1
	c-0.1-0.8-0.2-1.7-0.5-2.6c0.6-0.9,1-1.8,1.4-2.8c0.4,0.7,0.7,1.3,1.1,1.9c0.2,1.2,0.6,2.4,1.1,3.5h0.4c-0.5-0.9-0.8-1.8-1-2.7
	c0.7,1,1.4,1.9,2.1,2.7h0.9l-0.1-0.1c0.1-0.3,0.3-0.6,0.4-0.9c0.2,0.3,0.5,0.7,0.7,1h1.5c-0.7-0.8-1.4-1.6-1.9-2.5
	c0-0.1,0-0.3,0-0.4c0-1.1-0.4-2.1-1-3c0.1-1.3,0.6-2.6,1.5-3.6c-0.9,0.8-1.6,1.8-1.9,3c-0.5-0.7-0.9-1.2-1.2-1.6
	c0.2,0.3,0.4,0.6,0.6,0.9c0.2,0.3,0.4,0.5,0.6,0.8c-0.3,1.2-0.2,2.4,0.3,3.5c0.2,0.6,0.4,1.2,0.8,1.7c-0.1,0.3-0.2,0.7-0.4,1
	c-1.1-1.3-2.1-2.7-3-4.2c-0.1-1.2,0.1-2.3,0.5-3.4c0.6-1.5,1.5-2.9,2.5-4.2c0.3-0.5,0.6-1,0.9-1.5c-1,1.7-4.3,5-4.3,8.5
	c-0.3-0.5-0.5-1-0.8-1.5c0.8-2.8-0.5-5.7-1.9-7.6c0-0.2,0-0.5,0-0.8c-0.1-3.4,1.4-6.6,2.1-9c0.4-1,0.6-2.1,0.8-3.2
	c-0.6,2.6-3.1,7.2-3.5,12.2c-0.4-0.5-0.9-0.9-1.4-1.3c-0.1,0,0.6,0.7,1.3,1.7c-0.1,1.8,0.2,3.6,0.8,5.4c0.2,0.7,0.5,1.4,0.8,2.1
	c-0.3,0.9-0.6,1.7-1.1,2.5c-0.1-0.4-0.2-0.7-0.3-1.1c-0.6-1.8-1.3-3.6-2.2-5.3C346.1,741.4,347.2,744.4,347.8,747.2z M354.4,745.6
	c0-0.2,0-0.4,0-0.6c0.2,0.3,0.4,0.7,0.5,1c0.2,0.6,0.3,1.2,0.3,1.8C354.8,747.1,354.5,746.3,354.4,745.6z M349.7,742.5
	c-0.7-1.7-1.1-3.4-1.2-5.2c0.7,1.2,1.1,2.5,1.2,3.9C349.7,741.6,349.8,742.1,349.7,742.5L349.7,742.5z M307.4,746.2
	c-0.6-1.3-1.4-2.6-2.4-3.8c0.2,0.3,0.4,0.6,0.6,0.9c0.6,0.8,1.1,1.7,1.5,2.6c0.1,0.3,0.2,0.7,0.3,1c0,0.3,0,0.7-0.1,1
	c-0.1,0.7-0.2,1.4-0.3,2c-0.1,0.2-0.2,0.4-0.3,0.6h0.8c0.5-1.9,0.6-3.9,0.3-5.9c-0.3-2.3-0.8-4.6-1.5-6.9
	C306.5,739.4,307.4,742.8,307.4,746.2L307.4,746.2z M340,719.4c-0.1,0.2-0.1,0.4-0.1,0.6C339.9,719.8,340,719.6,340,719.4z
	 M314.3,737.8L314.3,737.8z M316.6,733.1l0.5,0.2C317,733.2,316.8,733.2,316.6,733.1L316.6,733.1z M305.5,748.5
	c-0.1,0.7-0.1,1.4,0.1,2.1h0.4c-0.1-0.3-0.2-0.6-0.2-0.9c0-1.3,0.1-2.6,0.5-3.9C305.9,746.7,305.7,747.6,305.5,748.5L305.5,748.5z
	 M309.9,749.3c-0.4,0.5-0.8,0.9-1.2,1.3h1.5l0.3-0.3l0.3,0.3h1.5c-0.3-0.3-0.7-0.7-1-1.2c0.2-0.2,0.3-0.4,0.5-0.6
	c0.2,0.6,0.5,1.2,0.8,1.8h0.8c-0.3-0.5-0.6-1-0.7-1.5c-0.2-0.3-0.4-0.6-0.5-0.9c0.6-0.9,1-1.9,1.2-3c0.5-2.3,0-4.6-1.5-6.4
	c0.9,0.5,1.7,1,2.6,1.5c0.1,0.2,0.2,0.5,0.3,0.7c1.5,3.6,0.1,7.5-0.8,9.3c-0.1-0.4-0.2-0.9-0.2-1.3c-0.2-2.5,0.5-5.2,0.6-6.3
	c-0.4,1.4-0.7,2.9-0.9,4.3c-0.2,1.2-0.1,2.4,0.2,3.6h0.8c1-1.9,1.5-4,1.5-6.1c0-1.4-0.3-2.7-0.9-3.9c0.6,0.4,1.2,0.8,1.8,1.3
	c-0.2,0.8-0.4,1.5-0.4,2.3c-0.2,1.5-0.2,3,0,4.4c-0.4,0.7-0.8,1.3-1.2,1.9h6.2l0,0l0.2-0.3l-0.1,0.3h0.8c0.1-0.2,0.1-0.4,0.2-0.6
	c0,0.2,0.1,0.4,0.2,0.6h4.2c0-0.1,0-0.2,0-0.3l0.1,0.3h0.8c-0.3-0.4-0.5-0.9-0.7-1.5c-0.1-0.1-0.1-0.2-0.2-0.3
	c0.1-1.5,0.4-2.9,1-4.2c0.1,2,0.4,4.1,1.1,6h0.6c-0.9-1.9-1.4-4-1.4-6.1c1.3,1.9,2.4,4,3.2,6.1h4.6c0.9-3.6,1.1-7.3,0.6-10.9
	c-0.1-0.7-0.2-1.3-0.3-1.9c0.1-0.3,0.2-0.6,0.4-0.9c0.5-1.3,1.2-2.5,2-3.5c0.7-0.5,1.4-0.9,2.2-1.4c0.8,1.2,1.5,2.4,2.1,3.7
	c-0.4,0.5-0.8,1-1.2,1.6l-0.2-0.3c0.3-0.4,0.5-0.8,0.6-1c-0.2,0.3-0.4,0.6-0.7,1c-0.8-1.2-1.6-2.1-2.1-2.9c0.3,0.6,0.7,1.3,1.1,1.8
	c0.2,0.4,0.5,0.8,0.8,1.2c-1.5,2-4,5-3.9,8.2c0,0.6,0,1.1,0.1,1.7c-0.6,1.1-1,2.3-0.9,3.6v0.1h1.7c-0.1-0.4-0.1-0.8-0.1-1.1
	c0.2,0.4,0.3,0.8,0.5,1.1h0.5c-0.4-0.7-0.7-1.3-0.9-2c0-0.2,0.1-0.5,0.2-0.7c0.1-0.4,0.4-0.8,0.6-1.2c0.3,1.4,0.7,2.7,1.3,4h0.6
	c-0.1-0.3-0.2-0.6-0.2-0.9c0-1.3,0.1-2.6,0.5-3.9c-0.3,0.9-0.5,1.8-0.7,2.7c-0.1,0.5-0.1,0.9,0,1.4c-0.5-1.2-0.9-2.4-1.1-3.7
	c0.7-0.8,1.6-1.7,2.4-2.6c0.8-0.8,1.3-1.8,1.5-2.9c0,0.1,0.1,0.2,0.1,0.3c1.4,3.3,0.4,6.8-0.5,8.8c0-0.3-0.1-0.5-0.1-0.8
	c-0.2-2.5,0.5-5.2,0.6-6.3c-0.4,1.4-0.7,2.9-0.9,4.3c-0.2,1.1-0.1,2.3,0.1,3.4l-0.1,0.2h0.6v-0.1c1-1.9,1.5-3.9,1.5-6
	c0-1.5-0.4-3-1.1-4.4c0-0.3,0-0.6,0-0.9c0-0.6-0.1-1.3-0.2-1.9c-0.1,0.5-0.1,1.1-0.3,1.9c-0.4-0.6-0.7-1.2-1.1-1.8
	c0.4-0.6,0.8-1.1,1.1-1.6c0.8,1.6,1.3,3.3,1.6,5c0.7,3.2,0.5,6.5-0.5,9.6h0.8c0.9-2.5,1.5-9.2-1.6-15v-0.1c0.4-0.6,0.8-1.2,1.1-1.8
	c-0.3,0.5-0.7,1-1.1,1.6c-0.6-1.2-1.2-2.4-2-3.6c3.3-2,6.4-3.5,8.1-4.5c-0.6,0.3-4,1.5-8.1,3.6c2.3-1.9,4.9-3.4,7.6-4.5
	c-3.1,0.8-6.1,2.2-8.7,4.1c-1.1-1.4-2.3-2.8-3.6-4c0.6-0.7,1.1-1.5,1.6-2.3c0.8-1.3,1.4-2.7,1.7-4.1c-0.8,2.3-2,4.4-3.6,6.3
	c-0.4-0.4-0.8-0.7-1.1-1c1.1-0.8,2.2-1.7,3.2-2.6c-0.8,0.6-2,1.5-3.2,2.5l-0.7-0.6l0.7,0.6c-1.4,1.2-2.8,2.4-4.1,3.7
	c-2,2.2-3.6,4.7-4.5,7.5c0-0.9,0-1.8-0.2-2.7c0-0.6-0.1-1.3-0.2-1.9c0.6-0.3,1.1-0.5,1.5-0.7l0.4-0.2c-0.4,0.1-0.8,0.2-1.2,0.4
	l-0.6,0.3c-0.6-2.8-1.5-5.6-2.9-8.2c0.7-0.4,1.4-1,2-1.6l-2.1,1.5c-0.5-1-1-1.9-1.7-2.8c0.3,0.8,0.7,1.9,1.1,3.2
	c-1.9,1.4-3.7,2.9-5.5,4.5c-0.3,0.3-0.5,0.5-0.8,0.8c-1.4-1.6-2.9-3.2-4.6-4.5c1.6,1.4,3.1,3,4.4,4.7c-0.5,0.5-0.9,1.1-1.4,1.7
	c-0.7-0.9-1.6-1.6-2.7-2c1,0.5,1.9,1.2,2.5,2.2c-1,1.5-1.9,3.2-2.5,4.9c-0.7-0.9-1.2-1.6-1.6-2.2c0.3,0.6,0.7,1.3,1.1,1.8l0.4,0.6
	c-0.2,0.6-0.4,1.2-0.6,1.8c-0.4-0.5-0.9-1-1.4-1.3c0,0,0.4,0.5,1,1.3c-2-1-4.1-1.9-6.2-2.6c2.2,0.8,4.4,1.8,6.4,2.9l0.1,0.2l0,0
	c-1,2.9-1,6-0.1,8.8c-0.2,0.3-0.5,0.7-0.7,1c-0.6-0.9-1.1-1.9-1.2-3c-0.4-2.4,1.5-4.5,1.4-4.4c-1.9,1.6-2.6,4.2-1.6,6.6
	C309.4,748.2,309.6,748.8,309.9,749.3L309.9,749.3z M341.6,737.5c-1.4,2-2.7,4.5-2.7,6.9c0,0.3,0,0.5,0,0.8l-0.5,0.5
	c-0.2,0.2-0.4,0.4-0.6,0.7c-0.2-1.4,0-2.9,0.5-4.3c0.7-1.7,1.6-3.2,2.7-4.6l0.3-0.4L341.6,737.5z M341.7,737.7
	c0.4,0.6,0.8,1.3,1.2,1.9c-0.1,0.5-0.2,1-0.4,1.5c-0.4,1.3-1.8,2.5-3.1,3.7c-0.1-1.3,0.2-2.7,0.7-3.9
	C340.4,739.8,341,738.7,341.7,737.7L341.7,737.7z M326.3,742.1c-0.2,0.1-0.4,0.2-0.5,0.3c0-0.3,0-0.6,0.1-0.9L326.3,742.1z
	 M336.3,726.3c-0.5,0.7-1.1,1.4-1.8,2.1l-0.3,0.3c-0.2-0.8-0.4-1.4-0.4-1.6c0,0.5,0.1,1.1,0.2,1.8c-2.3,2.5-4.9,5.1-7.1,7.9
	c0.4-1.1,0.9-2.3,1.4-3.3c1.8-3.2,4.1-6,7-8.3C335.5,725.6,335.9,726,336.3,726.3L336.3,726.3z M335.5,734.1c-0.1-0.5-0.2-1-0.3-1.5
	c0.9-1.2,1.6-1.9,1.5-1.9c-0.6,0.4-1.1,0.9-1.6,1.5c-0.3-1.2-0.6-2.2-0.8-3c0.8-0.9,1.5-1.8,2.2-2.6c1.2,1.3,2.4,2.7,3.4,4.1
	c-0.4,0.3-0.9,0.7-1.3,1.1s-0.8,0.7-1.1,1.1C336.8,733.3,336.1,733.7,335.5,734.1L335.5,734.1z M334.9,734.5c-0.5,0.3-1,0.7-1.5,1.1
	c0.4-0.8,0.8-1.6,1.3-2.3C334.8,733.7,334.8,734.1,334.9,734.5L334.9,734.5z M335.6,739.8c0.2,1.9,0.2,3.8,0,5.7
	c-0.1,1.2-0.3,2.3-0.5,3.5C334.6,745.9,334.8,742.8,335.6,739.8L335.6,739.8z M332.2,739.6c0.1-0.5,0.1-0.9,0.2-1.3
	c0.9-0.8,1.8-1.6,2.7-2.3v0.2c-1.2,2-2,4.2-2.4,6.5c-0.3,1.4-0.4,2.9-0.4,4.4C331.8,744.5,331.7,742,332.2,739.6L332.2,739.6z
	 M328.7,742.9l0.2-0.3c0.7-1.1,1.5-2.2,2.4-3.2c-0.4,1.4-0.5,2.9-0.5,4.3c0,0.6,0,1.2,0.1,1.7C330.2,744.6,329.5,743.8,328.7,742.9
	L328.7,742.9z M326.1,740.1c0.1-0.6,0.2-1.2,0.3-1.8c1-1.5,2.2-2.9,3.4-4.2c1.5-1.6,2.9-3.2,4.3-4.7c0.2,1,0.4,2.1,0.6,3.3
	c-0.9,1.1-1.6,2.3-2.2,3.6l-0.5,0.4c-1.3,0.9-2.5,2-3.5,3.2c0-0.1,0-0.2,0.1-0.4c0.9-4.9,5.2-8.8,5.1-8.8l-0.2,0.1
	c-2.8,2.5-4.7,5.8-5.4,9.5c-0.2,0.3-0.5,0.6-0.7,0.9C326.9,740.9,326.5,740.5,326.1,740.1L326.1,740.1z M325.8,743.8
	c0-0.2,0-0.5,0-0.8c0.2-0.2,0.5-0.4,0.7-0.6C326.2,742.9,326,743.4,325.8,743.8L325.8,743.8z M323.9,746.4c0.4-0.8,0.8-1.7,1.2-2.7
	l0,0c0,0.5,0,0.9,0.1,1.4c-0.5,1.3-0.9,2.7-1.1,4.1C323.8,748.3,323.7,747.3,323.9,746.4L323.9,746.4z M323,742
	c0.3-1.1,0.5-2.3,0.5-3.4l0.6,0.7c0,0.1,0,0.2-0.1,0.4c-0.2,0.8-0.4,1.6-0.7,2.4l-0.2,0.5C323.1,742.4,323,742.2,323,742z
	 M323,733.8c0.5-0.4,1.1-0.7,1.6-1c0.2,1.9,0.1,3.8-0.2,5.6l-0.8-0.8c0-0.1,0-0.2,0-0.3C323.4,736.1,323.3,735,323,733.8L323,733.8z
	 M320.1,726.8c0.8,2.4,1.5,4.8,1.8,7.3c-0.4,0.3-0.8,0.6-1.2,1l-0.5-0.3c-1-1.9-2.2-3.7-3.5-5.3c1.8-2.1,3.8-3.9,6.1-5.6
	c0.9,2.8,1.6,5.6,1.8,8.5c-0.6,0.3-1.1,0.6-1.7,1C322.3,731,321.3,728.8,320.1,726.8L320.1,726.8z M321.9,734.6
	c0,0.5,0.1,1.1,0.1,1.6c-0.3-0.3-0.6-0.5-1-0.8C321.3,735.2,321.6,734.9,321.9,734.6L321.9,734.6z M321.9,738.9
	c-0.3-1.1-0.8-2.2-1.3-3.2l0,0c0.4,0.4,0.9,0.8,1.3,1.3C322,737.7,322,738.3,321.9,738.9L321.9,738.9z M318.7,747.4
	c0.3-1.1,0.4-2.1,0.4-3.2c0.2,0.6,0.4,1.2,0.5,1.8C319.3,746.5,319,747,318.7,747.4L318.7,747.4z M318.5,738.9c0.5-1,1.1-2,1.9-2.8
	c0.3,0.7,0.6,1.4,0.8,2.1c-0.3-0.3-0.6-0.6-0.9-0.8c0.5,0.7,0.9,1.4,1.3,2.2c0,0.2,0.1,0.4,0.1,0.6c-0.1,0.6-0.3,1.2-0.5,1.8
	c-0.2,0.9-0.6,1.8-1,2.7c-0.2-0.4-0.4-0.9-0.7-1.3c-0.2-0.4-0.4-0.7-0.6-1.1C318.9,741.1,318.7,740,318.5,738.9L318.5,738.9z
	 M318.3,738.2c-0.6-2.4-1.7-4.7-3.1-6.8c0.4-0.6,0.9-1.2,1.3-1.7c1.2,1.5,2.2,3.1,3.1,4.8c-0.8-0.5-1.6-0.8-2.4-1.1
	c1,0.4,1.9,1,2.7,1.7l0.3,0.7C319.5,736.4,318.8,737.3,318.3,738.2L318.3,738.2z M317.7,741.6v0.2c0,0.2,0,0.4,0.1,0.6l-0.5-0.4
	c0.1-0.2,0.1-0.5,0.2-0.7L317.7,741.6z M317.2,742.3l0.6,0.5c0.1,1.7-0.3,3.4-1,5C316.7,745.9,316.8,744.1,317.2,742.3L317.2,742.3z
	 M312.5,736.6c0.4-1.2,1-2.4,1.6-3.6c0.2-0.5,0.5-0.9,0.8-1.4c1.3,2.2,1.9,5.3,2.5,8.3l-0.1,0.2c-0.9-0.9-1.9-1.7-2.9-2.4
	c1,0.9,1.9,1.9,2.7,3c-0.1,0.3-0.2,0.6-0.3,0.9c-0.4-0.3-0.8-0.6-1.2-0.9l-0.8-0.5C314.1,739,313.4,737.8,312.5,736.6L312.5,736.6z
	 M311.9,738.6c0.1-0.6,0.3-1.1,0.5-1.7c0.7,1,1.4,2,1.9,3.1C313.5,739.5,312.7,739,311.9,738.6L311.9,738.6z M311.8,739.2
	c0.6,1,0.9,2.1,1,3.3c0.1,1.5-0.3,3-1,4.2C311.3,744.3,311.3,741.7,311.8,739.2L311.8,739.2z"/>
<path class="st8" d="M561.8,743.7c0.1-1.7,41.5-0.2,67.2,1.1c65.7,3.2,104,5.1,104.9,13c1.4,11.5-76.9,26.3-75.5,35.9
	c1.9,12.9,137-12,149.6,20.9c11.1,29.2-79.7,88.7-81.4,86.8c-1.4-1.6,60.8-47,50.5-70.9c-4.1-9.5-17.9-11.6-41.4-14.5
	c-85.4-10.7-136.2-12-136.8-18.2c-0.5-5.1,32.8-15.6,66.8-26.4c10.2-3.2,18.3-5.1,18.2-7.7c-0.2-5.3-32.8-8.6-57-11.1
	c-7.2-0.7-26.2-2.5-51.4-6.2C564.7,744.8,561.8,744.2,561.8,743.7z"/>
<path class="st6" d="M1170.7,682.6H1126l-6.6-544.3l0,0l0,0l0,0l0,0l-0.9-75.8l0,0L1117.7-1h35.8c0.3,4.3,0.5,9.4,0.8,15.2
	c0.2,4,0.3,8.4,0.5,13.1c0.3,7.8,0.4,14.1,0.5,20.1s0.1,11.8,0.2,18.5c0.1,12.2,0.5,29.7,1.3,51.2l2.1,86.1L1170.7,682.6z"/>
<rect x="185.6" y="-1" class="st3" width="50.8" height="692.9"/>
<path class="st9" d="M1157.5,357.7c-1.5,0-3.9-117.7-7-117.7c-1.7,0-2,34.5-4.2,34.5c-1.9,0-4.3-26.7-7-73.4V-1h16.9l0.2,18.2
	l0.4,31.9l2,149.2v5C1158.9,288.2,1158.6,357.7,1157.5,357.7z"/>
<path class="st6" d="M113.9,150.3l-28-58.1l-1.9,40c9,16.6,16.2,34.2,21.4,52.4c4.9,17.1,8,34.7,9.3,52.4L113.9,150.3z"/>
<path class="st6" d="M211.7-1c-0.9,1.3-2.1,2.9-3.3,4.8c-11.8,17.1-19.8,30.5-21.7,33.8c-7.8,12.9-14.8,26.2-21,40
	c-6.1,13.8-11.2,27.9-15.4,42.4l14,563h-44.7L111.2-1h30.7c-0.5,25.7-0.1,42.5,0.8,53.4c1.1,13.5,2.9,17.7,4.8,17.9
	c3,0.3,6-9.3,22.4-47.2c4.3-9.8,7.9-18.1,10.6-24.1C180.5-1,211.7-1,211.7-1z"/>
<path class="st9" d="M143.3,359.5c-1.5,0-3.9-117.2-7-117.2c-1.7,0-2,34.3-4.2,34.3c-1.9,0-4.3-26.6-7-73.1V-1h16.8
	c0-0.4,0-0.9,0-1.3V-1l0.7,53.4l2,148.4C144.8,287.6,144.5,359.5,143.3,359.5z"/>
<path class="st9" d="M141.4,173.1c0.9,0,0.3-12.9,4.3-32.8c1.8-8.9,5.9-26.2,24.6-65.8c14.7-31.3,29.1-56.5,28.3-57
	c-0.4-0.2-3.8,5.7-11,14.3c-6.6,7.8-13.4,15.9-16.4,14.5c-4.6-2.2,3.1-27,1.4-27.5C171.4,18.5,167,30.6,159,49
	c-8.2,18.8-10.1,21.2-11.7,21c-4.9-0.7-4.4-26.8-5.2-26.8C140.2,43.2,138.6,173,141.4,173.1z"/>
<path class="st10" d="M762,859.4c-0.5,0.8,2,5.3,3.7,7s1.3,2.2,3.2,3.8c1.9,1.5,3.6,3.2,5.2,5c1,1.2,3.9,3.4,3.3,4.6s-2.1,1.7-2.6,1
	s-5.4-5.8-5.7-5.8s-2.2-2-2.8-3s-4-4.6-5.1-5.1s-3.4-2.3-3.9,0s-0.8,6.8-1.4,7.7c-0.6,1.4-1.1,2.9-1.5,4.4c0,0,0,3.2-0.8,3.9
	s-1.4,1.3-1.7,0.7s0.6-4.4,0.6-4.4s0.3-4.5,0.3-5.6c0.3-2.4,0.8-4.9,1.4-7.2c0.3-1.7,0.2-3.5-0.2-5.1c-0.7-1.6,0-3.5,1.5-4.4
	c2-1.3,5.4,0.2,5.9,0s6.6-3,8.4-3s8-1.6,8.8-1.8s1.1,1.3,1.1,1.3s-4.6,2.6-5.5,2.7c-1.8,0.3-3.6,0.7-5.4,1.2
	c-1.5,0.5-4.1,0.7-4.4,0.9S762.5,858.5,762,859.4z"/>
<path class="st10" d="M778.6,880.6c0.3,1.2,0.8,2.4,1.5,3.4c-1.6-0.9-3.9-1.5-3.2-1.8C777.6,882,778.3,881.4,778.6,880.6z"/>
<path class="st10" d="M753.6,884.9l-2.6,0.2l1.6,3.4C752.8,887.3,753.1,886.1,753.6,884.9z"/>
<path class="st10" d="M780.8,853.1l2-0.5c0,0-1.8-1.5-2-1.3S780.1,851.9,780.8,853.1z"/>
<path class="st10" d="M752.5,853.9c-0.6,0.6-1.2,1.2-1.6,1.9c-0.5,1-4.2-4.8-4.2-4.8S751.4,852.7,752.5,853.9z"/>
<path class="st10" d="M839.9,874.6c0.8-0.5,5.2,2.1,6.9,3.9s2.2,1.4,3.7,3.3c1.5,1.9,3.1,3.7,4.9,5.3c1.2,1,3.3,4,4.5,3.5
	s1.7-2.2,1-2.7s-5.7-5.5-5.7-5.9s-2-2.3-2.9-2.9s-4.5-4.1-5-5.3s-2.3-3.5,0-4s6.7-0.8,7.6-1.4c1.4-0.6,2.8-1.1,4.3-1.4
	c0,0,3.2,0.1,3.8-0.7s1.3-1.4,0.7-1.7s-4.3,0.5-4.3,0.5s-4.4,0.3-5.5,0.2c-2.4,0.3-4.8,0.7-7.1,1.3c-1.7,0.3-3.4,0.2-5-0.3
	c-1.6-0.7-3.5-0.1-4.3,1.5c-1.3,2,0.1,5.5,0,6s-3,6.7-2.9,8.5s-1.6,8.1-1.7,9s1.2,1.2,1.2,1.2s2.6-4.7,2.7-5.6
	c0.3-1.9,0.7-3.7,1.2-5.5c0.5-1.5,0.7-4.2,0.9-4.5S839.1,875,839.9,874.6z"/>
<path class="st10" d="M860.7,891.7c1.2,0.4,2.3,0.9,3.4,1.5c-0.9-1.6-1.5-4-1.7-3.3C862.1,890.7,861.5,891.4,860.7,891.7z"/>
<path class="st10" d="M865,866.3l0.2-2.6l3.3,1.7C867.3,865.5,866.1,865.8,865,866.3z"/>
<path class="st10" d="M833.8,893.6l-0.5,2c-0.5-0.6-1-1.3-1.3-2.1C832,893.4,832.6,893,833.8,893.6z"/>
<path class="st10" d="M834.6,864.8c0.5-0.6,1.2-1.2,1.9-1.6c1-0.5-4.7-4.4-4.7-4.4S833.4,863.7,834.6,864.8z"/>
<path class="st10" d="M640.5,771.9c-0.4,0.9,2.4,5.2,4.2,6.8s1.5,2.1,3.5,3.5c1.9,1.4,3.8,2.9,5.5,4.6c1,1.1,4.1,3.2,3.6,4.4
	s-2,1.8-2.6,1.2s-5.7-5.4-6.1-5.4s-2.3-1.8-3-2.8s-4.3-4.3-5.5-4.7s-3.6-2.1-3.9,0.2s-0.4,6.9-0.9,7.8c-0.5,1.5-0.9,2.9-1.2,4.5
	c0,0,0.3,3.2-0.5,3.9s-1.3,1.4-1.7,0.8s0.3-4.4,0.3-4.4s0-4.5-0.1-5.6c0.2-2.5,0.5-4.9,0.9-7.3c0.2-1.7,0-3.5-0.6-5.1
	c-0.8-1.6-0.3-3.5,1.2-4.5c1.9-1.4,5.4-0.2,5.9-0.4s6.3-3.5,8.2-3.5s7.9-2.1,8.7-2.3s1.2,1.2,1.2,1.2s-4.5,2.9-5.3,3.1
	c-1.8,0.4-3.6,0.9-5.3,1.5c-1.5,0.6-4.1,1-4.4,1.2S640.9,771,640.5,771.9z"/>
<path class="st10" d="M658.5,792c0.4,1.2,1,2.3,1.7,3.3c-1.6-0.8-4-1.2-3.3-1.6C657.6,793.4,658.2,792.8,658.5,792z"/>
<path class="st10" d="M633.8,798l-2.5,0.4l1.8,3.3C633.2,800.4,633.4,799.2,633.8,798z"/>
<path class="st10" d="M658.8,764.4l2-0.7c0,0-2-1.4-2.1-1.2S658.1,763.3,658.8,764.4z"/>
<path class="st10" d="M630.7,767.1c-0.6,0.6-1.1,1.3-1.5,2c-0.4,1-4.5-4.5-4.5-4.5S629.5,766,630.7,767.1z"/>
<path class="st10" d="M729.6,791.8c0.8-0.4,5.1,2.3,6.7,4.2s2.1,1.4,3.5,3.5c1.4,2,3,3.8,4.7,5.5c1.1,1,3.2,4.2,4.4,3.6
	s1.8-2.1,1.1-2.6s-5.5-5.8-5.4-6.1s-1.9-2.4-2.8-3s-4.3-4.3-4.8-5.5s-2.1-3.6,0.1-4s6.7-0.5,7.6-1.1c1.4-0.6,2.9-1,4.3-1.3
	c0,0,3.2,0.2,3.8-0.6s1.3-1.3,0.8-1.7s-4.3,0.4-4.3,0.4s-4.4,0.1-5.5,0c-2.4,0.2-4.8,0.6-7.2,1.1c-1.7,0.2-3.4,0-5-0.5
	c-1.6-0.8-3.5-0.2-4.4,1.3c-1.3,1.9-0.1,5.5-0.2,6s-3.2,6.5-3.2,8.4s-1.9,8.1-2.1,8.9s1.2,1.2,1.2,1.2s2.8-4.6,2.9-5.5
	c0.4-1.8,0.8-3.7,1.4-5.5c0.5-1.5,0.9-4.2,1.1-4.5S728.8,792.2,729.6,791.8z"/>
<path class="st10" d="M749.8,809.8c1.2,0.4,2.3,1,3.3,1.7c-0.8-1.7-1.3-4-1.6-3.4C751.2,808.9,750.5,809.5,749.8,809.8z"/>
<path class="st10" d="M755,784.5l0.3-2.6l3.2,1.8C757.4,783.8,756.2,784.1,755,784.5z"/>
<path class="st10" d="M722.7,810.6l-0.6,2c-0.5-0.7-0.9-1.4-1.2-2.2C721,810.3,721.6,809.9,722.7,810.6z"/>
<path class="st10" d="M724.7,781.8c0.6-0.6,1.3-1.1,2-1.5c1-0.4-4.5-4.6-4.5-4.6S723.6,780.7,724.7,781.8z"/>
<path class="st6" d="M784.1,1000.9c-0.8,0.8-1.3,1.9-1.3,3v0.1c0.1,0.5,0.5,0.8,1,0.7h12c9,0.9,10.8,0.1,11.1-0.7
	c0-0.8-0.2-1.5-0.6-2.2c-0.4-0.7-0.9-1.3-1.6-1.7c1.5-2.9,5.1-6.7,13.5-9.6c0,0-10.2,0.5-16,8.3c-0.4-0.1-0.8-0.2-1.2-0.3
	c1.4-3,4.9-7,13.8-10c-4.3,0.4-8.5,1.9-12,4.4c3.9-4.6,9-7.9,14.8-9.7c0,0-8.3,0.4-19.2,11.2c-0.9-2.8-0.9-5.9,0-8.7
	c1.9-3.2,4.5-5.9,7.7-7.8c-1.9,0.9-3.6,2-5.2,3.3c-4,3.3-6.9,7.6-8.5,12.4c-3.9-1.8-6.1-5.1-5.7-8c0.2-1.1,0.7-2,1.4-2.8
	c-0.2,0.2-0.7,0.7-1.2,1.3c-1.8,2.2-2.5,3.8-3.5,3.8c-0.2,0-0.5-0.1-0.6-0.3l2.1,2c-0.4,2.6-0.3,5.3,0.2,7.9
	c-5.9-6.4-14.8-6.8-14.8-6.8C779.4,993.7,782.8,997.9,784.1,1000.9z M785.9,990.9c1.9,2.2,3,4.9,3.3,7.7c-0.3,0-0.7,0.1-1,0.2
	C786.9,996.3,786.1,993.6,785.9,990.9L785.9,990.9z M796.6,996.2c-0.6,0.7-1.2,1.4-1.9,2.1c0.2-3.1,0.8-6.1,1.9-9
	C796.2,991.6,796.2,993.9,796.6,996.2L796.6,996.2z"/>
<path class="st6" d="M977.3,1167c-1.4,0.6-2.6,1.7-3.2,3.2v0.1c-0.1,0.7,0.3,1.3,0.9,1.5l11,4.4l0.8,0.3l2.2,0.9l1.2,0.5l12.7,5.1
	c0.6,0.3,1.3,0.2,1.7-0.4v-0.1c0.7-2,0.4-4.2-0.8-5.9c3.4-3,9.9-5.9,22-5.2c0,0-13.2-4.5-24.5,2.4c-0.4-0.4-0.9-0.7-1.4-1
	c3.3-3.1,9.8-6.4,22.6-5.7c-5.7-1.7-11.7-1.9-17.5-0.6c7.3-3.8,15.5-5.4,23.7-4.8c0,0-10.7-3.7-30,4.3c0.4-4,1.9-7.9,4.5-11
	c4-3.1,8.7-5.1,13.7-6c0,0-12.8-1.3-28,15.5c0-4-1.2-7.9-3.3-11.2c1.3-3,3.4-5.5,6.1-7.4c0,0-3.6,0.8-7,6c-0.7-1-1.4-1.9-2.2-2.7
	c0.6,1.2,1.1,2.4,1.6,3.6c-1.8,3.1-3.1,6.6-3.8,10.1c-4.2-11.1-15.2-16.2-15.2-16.2C975.1,1155.4,977.3,1162.5,977.3,1167z
	 M984.8,1155.2c1.5,4.9,1.2,8.7,0.2,11.4c-0.5-0.1-0.9-0.2-1.4-0.3C983.3,1162.6,983.7,1158.8,984.8,1155.2L984.8,1155.2z
	 M995.6,1167.4c-1.1,0.5-2.3,1.1-3.5,1.7c1.8-3.8,4.1-7.3,7-10.4C997.5,1161.4,996.3,1164.3,995.6,1167.4L995.6,1167.4z"/>
<path class="st6" d="M95.6,741.9l-30.2,0.2L20,742.4V-1h74.5c-0.8,10.4-1.6,20.9-2.3,31.5l0,0c-1.1,15.3-2.1,30.8-3,46.3
	c-2.6,44-4.6,88-6,132c-0.1,3.6-0.2,7.2-0.3,10.8c-4,134.3-2.3,268.7,4.9,402.8c0.1,2.4,0.3,4.7,0.4,7.1c0.1,2.4,0.3,4.9,0.4,7.3
	C90.5,671.9,92.8,706.9,95.6,741.9z"/>
<path class="st11" d="M88.5,636.9c-0.1-2.4-0.3-4.9-0.4-7.3c-0.1-2.4-0.3-4.7-0.4-7.1c-4.7-83.9-7.5-175.1-7.1-272.7
	c0.2-44.8,1-88.2,2.3-130.1c0.1-3.6,0.2-7.2,0.3-10.8c2.2-65,5.6-126.3,9.9-183.7c0.7-8.8,1.3-17.5,2-26.1H68.6
	c-3.3,31.8-7,75.4-9,127.4c-3.2,85.5-0.5,164.6,1,164.7c0.4,0,1.2-9.4,2.8-53.6c0.1,32.3,0.2,81.1,0,140.4
	c-0.7,158.9-3.4,273.1-1.9,273.2c0.4,0,1.2-7.9,2.8-45.3l0.9,136.3v0.9l30.5-1.1C93.2,708.4,90.7,673.3,88.5,636.9z M77-2l-8.2,0.2
	v0.1L77-1.8C76.9-1.9,77-2,77-2z M94.7-2.4h0.5l0,0H94.7z"/>
<path class="st12" d="M29.2,201.7c-2.8,161.9,1.9,271.6,2.2,271.6c1.2,0,2.8-90.8,4.9-272.4l0,0c0.1,0,2.3,50.7,3,50.7
	c1.3,0-1-196.9-4.5-196.9C32.3,54.6,30,153.1,29.2,201.7z"/>
<path class="st12" d="M40.8,580.8c0.6-48.3,1.3-72.5,2-72.5s1.4,23.8,2.1,71.5c0.6,21.8,0.7,30.8,0.5,30.8s-0.6-12.1-1.4-12.1
	c-1.2,0-2.2,24.8-2.8,24.8S40.5,604.9,40.8,580.8z"/>
<line class="st13" x1="94.7" y1="-1.4" x2="76.9" y2="-1"/>
<path class="st6" d="M97.7-1c-1.4,7.6-3,16.3-4.7,26.1c-0.3,1.8-0.6,3.6-0.9,5.4l0,0c-3.1,19-6.3,41.5-9.1,67
	c-9.1,83.1-7.1,141.1-9.3,141.1c-2.4,0-6.5-63.4-4.3-135.2C70.7,59.8,74,23.8,76.8-1H97.7z"/>
<path class="st7" d="M-2.6,575.7c0.7-0.5,16.6-10.7,33.8-2.1c17.3,8.7,18.9,28,18.9,28.8c10-0.9,19.6,3.9,25,12.3
	c5.9,9.7,5.3,21.9-1.4,31c3.5-2.4,8.3-2.2,11.6,0.5c2.5,2.3,3.6,5.8,2.9,9.1c0.6-0.7,8.9-10.2,21.4-8.4c9.4,1.3,17.2,8.5,19.8,18.1
	c0.3-0.4,6.6-7.6,13-5.3s11.4,13.8,8.1,26.1c5.4-17,17.5-29,31.5-31c16.9-2.5,33.8,10.1,40.8,31c1.1-1.1,6.3-5.8,11.6-4.6
	c6.5,1.5,11.9,11.8,8.8,24.7c2.5-18.7,16-33.7,33.1-37c20.1-3.9,41.3,9,47.9,30.7c10.1-2.5,20.7-0.9,29.6,4.3
	c19.7,11.5,25.2,36.2,26,39.9H-1L-2.6,575.7z"/>
<path class="st7" d="M1070.8,1018.9c-1.5,0.6-2.6,1.8-3.2,3.2v0.1c-0.1,0.7,0.3,1.3,0.9,1.5l11.1,4.5l0.8,0.3l2.2,0.9l1.2,0.5
	l12.8,5.1c0.6,0.3,1.3,0.2,1.7-0.4v-0.1c0.7-2,0.4-4.2-0.8-6c3.4-3,9.9-5.9,22.1-5.2c0,0-13.2-4.5-24.6,2.4c-0.4-0.4-0.9-0.7-1.4-1
	c3.3-3.1,9.8-6.5,22.7-5.7c-5.7-1.7-11.7-1.9-17.5-0.6c7.3-3.8,15.6-5.5,23.8-4.8c0,0-10.7-3.7-30.1,4.3c0.4-4.1,1.9-7.9,4.5-11.1
	c4-3.1,8.8-5.2,13.8-6c0,0-12.8-1.3-28.1,15.6c0-4-1.2-7.9-3.4-11.2c1.3-3,3.4-5.6,6.1-7.4c0,0-3.7,0.8-7.1,6
	c-0.7-1-1.4-1.9-2.2-2.7c0.6,1.2,1.2,2.4,1.6,3.6c-1.8,3.2-3.1,6.6-3.8,10.2c-4.3-11.2-15.2-16.3-15.2-16.3
	C1068.5,1007.3,1070.8,1014.4,1070.8,1018.9z M1078.3,1007c1.5,4.9,1.2,8.7,0.2,11.5c-0.5-0.1-0.9-0.2-1.4-0.3
	C1076.7,1014.4,1077.2,1010.6,1078.3,1007L1078.3,1007z M1089.1,1019.3c-1.1,0.5-2.3,1.1-3.5,1.7c1.8-3.8,4.1-7.3,7-10.4
	C1091,1013.3,1089.8,1016.2,1089.1,1019.3L1089.1,1019.3z"/>
<path class="st6" d="M786.4,746.7c-0.8,0.8-1.3,1.9-1.3,3v0.1c0.1,0.5,0.5,0.8,1,0.7h8.7h3.3h10c0.5,0.1,0.9-0.3,1-0.7v-0.1
	c-0.1-1.5-0.9-2.8-2.1-3.7c1.5-2.9,5.1-6.7,13.6-9.5c0,0-10.2,0.5-16,8.3c-0.4-0.1-0.8-0.2-1.2-0.3c1.4-3,4.9-7,13.8-10
	c-4.3,0.4-8.5,1.9-12,4.4c3.9-4.6,9.1-7.9,14.8-9.7c0,0-8.3,0.4-19.2,11.1c-0.9-2.8-0.8-5.9,0-8.7c1.9-3.2,4.5-5.9,7.7-7.8
	c0,0-9,2.6-14.8,18.2c-1.1-2.7-2.9-5-5.3-6.7c0.1-2.4,0.8-4.7,2.2-6.7c0,0-2.2,1.6-3.2,6c-0.7-0.5-1.5-0.9-2.2-1.2
	c0.7,0.6,1.4,1.3,2.1,2c-0.4,2.6-0.3,5.3,0.2,7.9c-5.9-6.4-14.7-6.9-14.7-6.9C781.8,739.4,785.2,743.6,786.4,746.7z M788.3,736.6
	c1.9,2.2,3,4.9,3.2,7.7c-0.3,0-0.7,0.1-1,0.2C789.3,742,788.5,739.3,788.3,736.6z M798.9,742c-0.6,0.7-1.2,1.4-1.9,2.1
	c0.2-3.1,0.8-6.1,1.9-9C798.6,737.4,798.6,739.7,798.9,742z"/>
<path class="st6" d="M-3.5,593c8-9.5,21.4-12.6,32.8-7.6c12.1,5.5,18.8,19.3,15.3,32.8c12.2-5,26,0.1,31.7,10.9
	c5,9.5,2.8,21.7-5.5,29.5c2.6-1.6,5.9-1.9,8.8-0.8c3.3,1.5,5.4,4.8,5.4,8.4c2.9-9.6,11.4-15.9,20.2-15.8
	c10.9,0.2,20.8,10.5,20.2,23.4c0.3-0.3,6.4-6,12.8-4.2s11.2,10.9,8,20.6c5.3-13.4,17.2-22.9,30.9-24.5c16.6-2,33.2,8,40.1,24.5
	c0.6-0.7,5.2-6.2,11.8-5.7c6.9,0.5,13.2,7.4,13.3,16.6c7.1-20.5,29.4-31.4,49.9-24.3c11.4,3.9,20.4,12.9,24.3,24.3
	c9.8-2,20-0.8,29.1,3.4c23.6,11.3,26.7,39.2,26.9,40.9l-374.6,1.3L-3.5,593z"/>
<path class="st7" d="M82.7,715c0.2-0.8,6.4-19.8,25.4-24.2c14-3.3,28.9,2.8,37.2,15.2c6.1-3.6,13.2-5.1,20.2-4.2
	c17.8,2.4,25.6,20.1,26,21.1c-0.9-1.6-9.3-15.4-25.8-17.1c-7.6-0.7-15.3,1.2-21.7,5.4c-10.1-16.4-31.6-21.5-48-11.3
	C90.2,703.4,85.6,708.7,82.7,715z"/>
<path class="st14" d="M1268-3.7V729h-11.6c-3.3-30.6-6.8-70.1-8.8-116.3c-3.6-85.6-0.6-164.7,1.1-164.8c0.5,0,1.4,9.4,3.2,53.6
	c0.2-32.3,0.3-81.1,0-140.5c-0.8-159-3.8-273.2-2.1-273.3c0.4,0,1.3,7.9,3.2,45.3c0.3-44.7,0.7-89.4,1.1-134.1h11.1v-2.8L1268-3.7z"
	/>
<path class="st7" d="M261.2,708.4c5.3-7.7,14.6-11.7,23.9-10.1c10.5,2,18.6,11.2,19.2,22.5c5.8-3.8,13-4.4,18.5-1.3
	c7.6,4.2,11.1,14.8,6.8,24.5c2.6-8.5-1.4-17.4-8.9-20.7c-6.6-2.8-14.3-1.2-19.2,4.1c2.3-12.5-6.1-24.5-18.6-26.8
	C274.8,699.1,266.6,702.1,261.2,708.4z"/>
<path class="st7" d="M9.5,638.1c1.5-5.6,6.1-9.7,11.8-10.8c7-0.9,13.7,3.1,16.2,9.7c-4.4-7.6-14.1-10.1-21.7-5.7
	C13,632.9,10.9,635.2,9.5,638.1z"/>
<path class="st7" d="M1267.9,586.2c-0.6-0.6-12.9-12.8-28.8-9c-13.2,3.1-23.1,15.9-23.2,30.9c-12.3-2.7-24.5,5.1-27.2,17.4
	c-1.4,6.5,0,13.3,4,18.6c-3.5-2.4-8.3-2.2-11.6,0.5c-2.5,2.3-3.6,5.8-2.9,9.1c-0.6-0.7-8.9-10.2-21.4-8.4
	c-9.4,1.3-17.2,8.5-19.8,18.1c-0.3-0.4-6.6-7.6-13-5.3s-11.4,13.8-8.1,26.1c-5.4-17-17.5-29-31.5-31c-16.9-2.5-33.8,10.1-40.8,31
	c-3.6-5.1-10.6-6.3-15.7-2.8c-3.1,2.2-4.9,5.8-4.8,9.6c-0.9-1.7-11.3-21.2-33-23.7c-18.2-2.1-36.6,8.8-44.8,27.1
	c-7.3,0-14.7,1.1-21.6,3.4c-5.4,1.8-10.5,4.2-15.3,7.3c-16.3,11.2-20.2,32.2-21,37.8l379.8-0.8L1267.9,586.2z"/>
<path class="st6" d="M1269.9,591.5c-8-9.5-21.4-12.6-32.8-7.6c-12.1,5.5-18.8,19.3-15.3,32.8c-12.2-5-26,0.1-31.7,10.9
	c-5,9.5-2.8,21.7,5.5,29.5c-2.6-1.6-5.9-1.9-8.8-0.8c-3.3,1.5-5.4,4.8-5.4,8.4c-2.9-9.6-11.4-15.9-20.2-15.8
	c-10.9,0.2-20.8,10.5-20.2,23.4c-0.3-0.3-6.4-6-12.8-4.2s-11.2,10.9-8,20.6c-5.3-13.4-17.2-22.9-30.9-24.5c-16.6-2-33.2,8-40.1,24.5
	c-0.6-0.7-5.2-6.2-11.8-5.7c-6.9,0.5-13.2,7.4-13.3,16.6c-7.1-20.5-29.4-31.4-49.9-24.3c-11.4,3.9-20.4,12.9-24.3,24.3
	c-9.8-2-20-0.8-29.1,3.4c-23.6,11.3-26.7,39.2-26.9,40.9l374.5,1.2L1269.9,591.5z"/>
<path class="st7" d="M1028.9,732.3c-0.2-0.8-6.4-19.8-25.4-24.2c-14-3.3-28.9,2.8-37.2,15.2c-6.1-3.6-13.2-5.1-20.3-4.2
	c-17.8,2.4-25.6,20.1-26,21.1c0.9-1.6,9.3-15.4,25.8-17.1c7.6-0.7,15.3,1.2,21.7,5.4c10.1-16.4,31.6-21.5,48-11.4
	C1021.4,720.7,1026.1,726,1028.9,732.3z"/>
<path class="st7" d="M1248.7,678.7c-5.5-7.8-15.8-11.1-26.2-8.4c-12.1,3.2-22.3,13.9-24.2,26.1c-6.6-3.5-14.6-3.3-21,0.5
	c-9.1,5.3-14.1,17-10.2,26.9c-2.1-8.8,3.4-18.8,12.2-23.1c7.5-3.7,16.2-2.8,21.5,2.5c-1-11.1,6.5-22.9,17.9-28.4
	C1229.6,669.4,1241.9,671,1248.7,678.7z"/>
<path class="st7" d="M1262.5,605.3c-5.6-4-13-4.4-19-1.1c-7,4-10.3,12.8-7.8,21c-1.5-10.3,5.6-20,16-21.5
	C1255.4,603.2,1259.2,603.7,1262.5,605.3z"/>
<path class="st7" d="M1101,689.6c-1.8-5.5-7.2-9.4-13.9-9.8c-8-0.5-16.4,4-19.9,11c4.1-5.5,10.5-8.8,17.4-9.1
	C1091.7,681.5,1098,684.5,1101,689.6z"/>
<path class="st15" d="M746.7,928.3c0.1-0.7,42-0.1,67.8,0.4c66.3,1.3,105,2,106,5.1c1.4,4.5-77.7,10.3-76.2,14.1
	c1.9,5.1,138.4-4.7,151,8.2c11.2,11.5-80.5,34.9-82.2,34.2c-1.4-0.6,61.4-18.5,51-27.9c-4.1-3.7-18.1-4.6-41.8-5.7
	c-86.3-4.2-137.6-4.8-138.3-7.2c-0.5-2,33.1-6.2,67.5-10.4c10.2-1.3,18.5-2,18.4-3c-0.2-2.1-33.1-3.4-57.5-4.4
	c-7.3-0.3-26.4-1-51.9-2.5C749.6,928.8,746.6,928.5,746.7,928.3z"/>
<path class="st16" d="M1230.1,1169.5c-72.8-11.1-116.1-12.4-116.6-18.8c-0.4-5.2,27.9-16.2,57-27.3c8.7-3.3,15.6-5.2,15.5-8
	c-0.2-5.5-27.9-8.9-48.6-11.5c-6.2-0.8-22.3-2.6-43.8-6.5c-9.2-1.6-11.7-2.3-11.7-2.8c0.1-1.8,35.4-0.2,57.2,1.1
	c56,3.3,88.6,5.3,89.4,13.5c1.2,11.9-65.5,27.2-64.3,37.1c1.2,9.7,63.2-1.5,100.6,5.2c0,10.6,0,21.1,0.1,31.7
	C1260.9,1174.5,1249.3,1172.4,1230.1,1169.5z"/>
<line class="st13" x1="1088.7" y1="-3.3" x2="1056" y2="-3.3"/>
<path class="st6" d="M1123.7,157.4L1123.7,157.4c-0.1,0.1-2.8-8.6-5.9-19l0,0l0,0l0,0l0,0c-3.9-13.1-8.5-28.9-9.9-33.5
	c-4.7-15.4-13.6-34.7-31.3-58.2c-10.7-14.3-24.5-30.2-42.7-47.5h43.2c2.8,5.5,5.8,11,9,16.6c9.1,15.9,19.1,31.5,30.3,46.8l0,0
	c1.9,2.6,3.9,5.2,5.8,7.8L1123.7,157.4z"/>
<line class="st13" x1="1143.3" y1="-4.2" x2="1117.7" y2="-2.6"/>
<path class="st6" d="M1210.9,75.8c0,20.9-0.1,41.8-0.1,62.6c-0.1-0.1-0.1-0.3-0.2-0.4c-8.1-20.3-18.6-39.6-31.2-57.1
	c-8.1-11.3-13.6-16.9-22.5-27.5c-0.5-0.6-1-1.3-1.5-1.9c-1.2-1.5-2.5-3.2-4-5c-4.3-5.3-8.3-10.8-12.3-16.3
	c-7.2-10.1-13.9-20.3-20.3-31.1h26.5c2.7,5.6,5.8,11.1,9.2,16.5c0.7,1.1,1.4,2.2,2.1,3.2c2.5,3.9,5.4,7.7,8.2,11.4
	c2.9,3.7,18.1,22.7,21.6,19.9c2.1-1.7,0.5-12-16.9-51h18.3l19.1,63.2L1210.9,75.8z"/>
<path class="st12" d="M1223.4,157.8c-3.2,162.6,2.2,272.7,2.5,272.7c1.3,0,3.2-91.2,5.5-273.6l0,0c0.1,0,2.6,50.9,3.3,50.9
	c1.4,0-1.2-197.7-5-197.8C1227,10.1,1224.4,109,1223.4,157.8z"/>
<path class="st12" d="M1219.9,540.4c0.7-47.3,1.4-70.9,2.2-70.9c0.8,0,1.6,23.3,2.4,70c0.6,21.3,0.8,30.2,0.5,30.2
	s-0.7-11.8-1.6-11.8c-1.3,0-2.4,24.3-3.2,24.2S1219.6,564,1219.9,540.4z"/>
<path class="st10" d="M962.6,1046c-0.5,0.8,1.5,5.5,3.1,7.3s1.1,2.3,2.8,4s3.3,3.5,4.7,5.4c0.8,1.3,3.6,3.8,2.9,4.9
	s-2.3,1.5-2.7,0.8s-4.8-6.3-5.2-6.3s-2-2.2-2.5-3.2s-3.6-4.9-4.7-5.6s-3.2-2.6-3.9-0.4s-1.5,6.7-2.1,7.6c-0.7,1.4-1.4,2.8-1.8,4.2
	c0,0-0.3,3.2-1.1,3.8s-1.5,1.2-1.8,0.6s1-4.3,1-4.3s0.7-4.4,0.8-5.6c0.5-2.4,1.2-4.8,2.1-7.1c0.5-1.7,0.5-3.4,0.2-5.1
	c-0.5-1.7,0.3-3.5,1.9-4.3c2.1-1.1,5.4,0.7,5.8,0.5s6.8-2.4,8.6-2.2s8.1-0.9,9-0.9s1,1.4,1,1.4s-4.9,2.2-5.8,2.2
	c-1.8,0.1-3.7,0.3-5.5,0.7c-1.5,0.3-4.2,0.3-4.5,0.5S963.1,1045.2,962.6,1046z"/>
<path class="st10" d="M977.1,1068.7c0.2,1.2,0.6,2.4,1.1,3.6c-1.5-1-3.7-1.9-3-2.1C976.1,1069.9,976.7,1069.4,977.1,1068.7z"/>
<path class="st10" d="M951.8,1070.7h-2.6l1.3,3.5C950.8,1072.9,951.2,1071.8,951.8,1070.7z"/>
<path class="st10" d="M981.8,1041.4l2-0.4c0,0-1.7-1.7-1.9-1.5S981.3,1040.2,981.8,1041.4z"/>
<path class="st10" d="M953.6,1039.7c-0.7,0.5-1.3,1.1-1.8,1.8c-0.5,0.9-3.8-5.2-3.8-5.2S952.6,1038.4,953.6,1039.7z"/>
<path class="st10" d="M1038.8,1068.3c0.8-0.4,5,2.6,6.5,4.5s2,1.6,3.4,3.6c1.3,2,2.8,3.9,4.4,5.7c1.1,1.1,3,4.3,4.2,3.9
	s1.9-2,1.2-2.6s-5.1-6-5.1-6.4s-1.7-2.4-2.6-3.2s-4.1-4.5-4.5-5.7s-1.9-3.7,0.3-4s6.7-0.2,7.7-0.7c1.4-0.5,2.9-0.8,4.4-1
	c0,0,3.2,0.4,3.8-0.4s1.4-1.2,0.8-1.7s-4.3,0.1-4.3,0.1s-4.4-0.1-5.5-0.3c-2.4,0.1-4.8,0.3-7.2,0.7c-1.7,0.1-3.4-0.1-5-0.8
	c-1.5-0.9-3.5-0.4-4.5,1.1c-1.4,1.9-0.4,5.5-0.6,6s-3.6,6.4-3.7,8.2s-2.3,8-2.6,8.8s1.1,1.3,1.1,1.3s3-4.4,3.2-5.3
	c0.5-1.8,1-3.6,1.7-5.4c0.6-1.5,1.1-4.1,1.3-4.4S1037.9,1068.7,1038.8,1068.3z"/>
<path class="st10" d="M1057.9,1087.3c1.1,0.5,2.2,1.1,3.2,1.8c-0.7-1.7-1.1-4.1-1.4-3.4C1059.4,1086.5,1058.7,1087.1,1057.9,1087.3z
	"/>
<path class="st10" d="M1064.5,1062.3l0.5-2.6l3.2,2C1066.9,1061.8,1065.7,1062,1064.5,1062.3z"/>
<path class="st10" d="M1030.8,1086.7l-0.7,2c-0.5-0.7-0.9-1.4-1.1-2.2C1029.1,1086.3,1029.8,1086,1030.8,1086.7z"/>
<path class="st10" d="M1034.4,1058.1c0.6-0.6,1.3-1,2-1.4c1-0.4-4.3-4.8-4.3-4.8S1033.3,1056.9,1034.4,1058.1z"/>
<path class="st10" d="M849.7,947.7c-0.5,0.8,1.9,5.4,3.5,7.1s1.2,2.2,3.1,3.8c1.8,1.6,3.5,3.3,5,5.1c0.9,1.2,3.8,3.5,3.2,4.7
	s-2.2,1.7-2.7,1s-5.2-5.9-5.6-6s-2.2-2-2.8-3s-3.9-4.7-5-5.2s-3.4-2.4-3.9-0.2s-1,6.8-1.6,7.7c-0.6,1.4-1.2,2.9-1.6,4.3
	c0,0,0,3.2-0.9,3.8s-1.4,1.3-1.7,0.7s0.7-4.4,0.7-4.4s0.4-4.5,0.4-5.6c0.4-2.4,0.9-4.8,1.6-7.2c0.3-1.7,0.3-3.4-0.1-5.1
	c-0.6-1.7,0.1-3.5,1.6-4.4c2-1.2,5.4,0.3,5.9,0.2s6.6-2.9,8.4-2.7s8-1.4,8.9-1.5s1.1,1.3,1.1,1.3s-4.7,2.5-5.6,2.6
	c-1.8,0.2-3.6,0.6-5.4,1c-1.5,0.4-4.1,0.6-4.5,0.8S850.2,946.9,849.7,947.7z"/>
<path class="st10" d="M865.7,969.4c0.3,1.2,0.8,2.4,1.4,3.5c-1.6-1-3.8-1.6-3.2-1.9C864.7,970.7,865.4,970.1,865.7,969.4z"/>
<path class="st10" d="M840.6,973l-2.6,0.2l1.5,3.4C839.7,975.4,840.1,974.2,840.6,973z"/>
<path class="st10" d="M868.6,941.9l2-0.5c0,0-1.8-1.5-2-1.4S868,940.7,868.6,941.9z"/>
<path class="st10" d="M840.3,942c-0.6,0.5-1.2,1.2-1.6,1.9c-0.5,1-4.1-4.9-4.1-4.9S839.2,940.8,840.3,942z"/>
<path class="st10" d="M936.6,975.8c0.9-0.3,4.9,2.8,6.3,4.8s2,1.6,3.2,3.8c1.2,2.1,2.6,4.1,4.1,5.9c1,1.1,2.8,4.4,4,4s2-1.9,1.3-2.5
	s-4.9-6.2-4.8-6.6s-1.6-2.5-2.5-3.3s-3.9-4.7-4.2-5.9s-1.8-3.8,0.5-3.9s6.7,0.1,7.7-0.4c1.5-0.4,2.9-0.7,4.5-0.8
	c0,0,3.2,0.5,3.8-0.2s1.5-1.2,0.9-1.6s-4.3,0-4.3,0s-4.4-0.3-5.5-0.5c-2.4,0-4.8,0.1-7.2,0.4c-1.7,0.1-3.4-0.3-4.9-1
	c-1.5-0.9-3.5-0.5-4.5,0.9c-1.5,1.8-0.6,5.5-0.8,5.9s-3.8,6.2-4,8s-2.6,7.8-2.9,8.7s1.1,1.3,1.1,1.3s3.2-4.3,3.4-5.2
	c0.5-1.8,1.2-3.6,1.9-5.3c0.7-1.5,1.2-4.1,1.5-4.3S935.7,976.1,936.6,975.8z"/>
<path class="st10" d="M954.9,995.5c1.1,0.5,2.2,1.2,3.2,2c-0.7-1.7-0.9-4.1-1.3-3.5C956.4,994.7,955.8,995.3,954.9,995.5z"/>
<path class="st10" d="M962.5,970.8l0.6-2.6l3.1,2.1C964.9,970.3,963.7,970.5,962.5,970.8z"/>
<path class="st10" d="M927.9,993.8l-0.8,2c-0.4-0.7-0.8-1.5-1-2.2C926.2,993.4,926.9,993,927.9,993.8z"/>
<path class="st10" d="M932.6,965.3c0.6-0.5,1.3-1,2.1-1.3c1-0.3-4.1-5-4.1-5S931.5,964.1,932.6,965.3z"/>
<path class="st10" d="M1250,1195.1c-0.2,0.9,3.3,4.7,5.4,5.9s1.8,1.8,4,2.8s4.3,2.2,6.2,3.5c1.2,0.9,4.6,2.3,4.4,3.6
	s-1.6,2.2-2.3,1.7s-6.6-4.3-7-4.2s-2.6-1.4-3.5-2.2s-5-3.5-6.2-3.7s-3.9-1.4-3.8,0.9s0.9,6.8,0.6,7.9c-0.2,1.5-0.3,3.1-0.3,4.6
	c0,0,0.8,3.1,0.2,3.9s-1,1.6-1.5,1.1s-0.5-4.4-0.5-4.4s-0.8-4.4-1.1-5.5c-0.3-2.4-0.5-4.9-0.4-7.4c-0.1-1.7-0.7-3.4-1.5-4.9
	c-1.1-1.4-0.9-3.4,0.4-4.7c1.6-1.7,5.3-1.2,5.7-1.5s5.6-4.6,7.4-4.9s7.3-3.6,8.1-3.9s1.4,1,1.4,1s-3.8,3.7-4.7,4
	c-1.7,0.7-3.3,1.6-4.9,2.5c-1.3,0.8-3.8,1.7-4.1,2S1250.2,1194.2,1250,1195.1z"/>
<path class="st10" d="M1248.2,1222l-2.4,0.9l2.4,2.9C1248,1224.5,1248,1223.2,1248.2,1222z"/>
<path class="st10" d="M1239.4,1192.2c-0.4,0.7-0.8,1.5-1,2.3c-0.2,1-5.3-3.6-5.3-3.6S1238.1,1191.3,1239.4,1192.2z"/>
<path class="st10" d="M1110.6,1140.7c-0.2,0.9,3.6,4.4,5.8,5.5s1.9,1.7,4.2,2.6c2.2,0.9,4.4,1.9,6.4,3.1c1.3,0.8,4.8,2,4.6,3.3
	s-1.5,2.3-2.2,1.8s-6.9-3.8-7.3-3.7s-2.7-1.2-3.6-1.9s-5.2-3.1-6.5-3.2s-4-1.2-3.7,1.2s1.3,6.7,1.1,7.8c-0.1,1.5-0.1,3.1,0,4.6
	c0,0,1.1,3.1,0.5,3.9s-0.9,1.7-1.4,1.2s-0.8-4.3-0.8-4.3s-1.1-4.4-1.5-5.4c-0.5-2.4-0.8-4.9-0.9-7.3c-0.2-1.7-0.9-3.4-1.8-4.8
	c-1.2-1.4-1.1-3.4,0.1-4.7c1.5-1.8,5.2-1.6,5.6-1.8s5.3-4.9,7-5.4s7.1-4,7.8-4.4s1.5,0.9,1.5,0.9s-3.6,4-4.4,4.3
	c-1.6,0.8-3.2,1.8-4.8,2.8c-1.3,0.9-3.7,2-3.9,2.3S1110.7,1139.8,1110.6,1140.7z"/>
<path class="st10" d="M1133,1155.7c0.7,1,1.5,2,2.4,2.8c-1.8-0.4-4.2-0.2-3.6-0.7C1132.5,1157.3,1132.9,1156.5,1133,1155.7z"/>
<path class="st10" d="M1110.6,1167.6l-2.4,1l2.6,2.7C1110.5,1170.1,1110.5,1168.8,1110.6,1167.6z"/>
<path class="st10" d="M1126.4,1128.8l1.7-1.2c0,0-2.2-0.8-2.4-0.7S1125.4,1128,1126.4,1128.8z"/>
<path class="st10" d="M1099.8,1138.5c-0.4,0.7-0.7,1.5-0.9,2.3c-0.1,1.1-5.5-3.2-5.5-3.2S1098.4,1137.7,1099.8,1138.5z"/>
<path class="st10" d="M1201.8,1137.8c0.7-0.6,5.6,1,7.6,2.3s2.4,0.9,4.3,2.5c1.8,1.5,3.8,2.9,5.9,4.2c1.4,0.7,4.1,3.2,5.2,2.4
	s1.2-2.5,0.4-2.8s-6.7-4.2-6.8-4.6s-2.4-1.8-3.5-2.2s-5.3-3.1-6-4.1s-3-3-0.9-3.9s6.4-2.2,7.1-2.9c1.2-0.9,2.5-1.7,3.9-2.3
	c0,0,3.1-0.6,3.6-1.5s1-1.6,0.3-1.8s-4.1,1.4-4.1,1.4s-4.2,1.2-5.3,1.4c-2.3,0.8-4.5,1.7-6.7,2.8c-1.6,0.6-3.3,0.9-5,0.8
	c-1.7-0.4-3.4,0.7-3.9,2.4c-0.8,2.2,1.3,5.4,1.2,5.9s-1.5,7.1-1,8.9s0.2,8.3,0.2,9.2s1.5,0.9,1.5,0.9s1.6-5.1,1.4-6.1
	c-0.1-1.9-0.1-3.7,0-5.6c0.1-1.6-0.2-4.2,0-4.6S1201.1,1138.4,1201.8,1137.8z"/>
<path class="st10" d="M1225.8,1150.2c1.2,0.1,2.5,0.4,3.6,0.8c-1.2-1.4-2.3-3.6-2.4-2.9C1226.9,1148.9,1226.5,1149.7,1225.8,1150.2z
	"/>
<path class="st10" d="M1224.6,1124.4l-0.3-2.6l3.6,0.9C1226.7,1123.1,1225.6,1123.7,1224.6,1124.4z"/>
<path class="st10" d="M1199.8,1157.7l-0.1,2.1c-0.7-0.5-1.2-1.1-1.7-1.8C1198.1,1157.8,1198.6,1157.3,1199.8,1157.7z"/>
<path class="st10" d="M1194.6,1129.3c0.4-0.7,0.9-1.4,1.5-2c0.8-0.7-5.5-3.3-5.5-3.3S1193.2,1128.5,1194.6,1129.3z"/>
</svg>
