<svg id="Layer_1" data-name="Layer 1" xmlns="http://www.w3.org/2000/svg" xmlns:xlink="http://www.w3.org/1999/xlink" viewBox="0 0 1287.3 553.24"><defs><style>.cls-1{fill:#141320;}.cls-2{fill:url(#linear-gradient);}.cls-3{fill:url(#linear-gradient-2);}.cls-4{fill:url(#linear-gradient-3);}.cls-5{fill:url(#linear-gradient-4);}.cls-6{fill:url(#linear-gradient-5);}.cls-7{fill:url(#linear-gradient-6);}.cls-8{fill:url(#linear-gradient-7);}.cls-9{fill:url(#linear-gradient-8);}.cls-10{fill:url(#linear-gradient-9);}.cls-11{fill:url(#linear-gradient-10);}.cls-12{fill:url(#linear-gradient-11);}.cls-13{fill:url(#linear-gradient-12);}.cls-14{fill:url(#linear-gradient-13);}.cls-15{fill:url(#linear-gradient-14);}.cls-16{fill:url(#linear-gradient-15);}.cls-17{fill:url(#linear-gradient-16);}.cls-18{fill:url(#linear-gradient-17);}.cls-19{fill:url(#linear-gradient-18);}.cls-20{fill:url(#linear-gradient-19);}.cls-21{fill:url(#linear-gradient-20);}</style><linearGradient id="linear-gradient" x1="1209.27" y1="173.39" x2="1209.27" y2="235.17" gradientUnits="userSpaceOnUse"><stop offset="0.14" stop-color="#141320"/><stop offset="0.46" stop-color="#26253a"/></linearGradient><linearGradient id="linear-gradient-2" x1="1212.56" y1="153" x2="1212.56" y2="202.24" xlink:href="#linear-gradient"/><linearGradient id="linear-gradient-3" x1="1208.3" y1="101.59" x2="1208.3" y2="163.87" xlink:href="#linear-gradient"/><linearGradient id="linear-gradient-4" x1="1210.63" y1="114.96" x2="1210.63" y2="44" xlink:href="#linear-gradient"/><linearGradient id="linear-gradient-5" x1="113.42" y1="185.9" x2="113.42" y2="239.75" xlink:href="#linear-gradient"/><linearGradient id="linear-gradient-6" x1="116.29" y1="168.13" x2="116.29" y2="211.05" xlink:href="#linear-gradient"/><linearGradient id="linear-gradient-7" x1="112.58" y1="123.33" x2="112.58" y2="177.61" xlink:href="#linear-gradient"/><linearGradient id="linear-gradient-8" x1="114.6" y1="134.98" x2="114.6" y2="73.14" xlink:href="#linear-gradient"/><linearGradient id="linear-gradient-9" x1="257.6" y1="231.8" x2="257.6" y2="279.15" xlink:href="#linear-gradient"/><linearGradient id="linear-gradient-10" x1="259.79" y1="216.17" x2="259.79" y2="253.91" xlink:href="#linear-gradient"/><linearGradient id="linear-gradient-11" x1="256.96" y1="176.78" x2="256.96" y2="224.51" xlink:href="#linear-gradient"/><linearGradient id="linear-gradient-12" x1="258.5" y1="187.03" x2="258.5" y2="132.65" xlink:href="#linear-gradient"/><linearGradient id="linear-gradient-13" x1="962.94" y1="236.98" x2="962.94" y2="281.88" xlink:href="#linear-gradient"/><linearGradient id="linear-gradient-14" x1="965.34" y1="222.16" x2="965.34" y2="257.95" xlink:href="#linear-gradient"/><linearGradient id="linear-gradient-15" x1="962.24" y1="184.8" x2="962.24" y2="230.06" xlink:href="#linear-gradient"/><linearGradient id="linear-gradient-16" x1="963.93" y1="194.51" x2="963.93" y2="142.94" xlink:href="#linear-gradient"/><linearGradient id="linear-gradient-17" x1="1064.75" y1="204.85" x2="1064.75" y2="258.12" xlink:href="#linear-gradient"/><linearGradient id="linear-gradient-18" x1="1067.6" y1="187.26" x2="1067.6" y2="229.73" xlink:href="#linear-gradient"/><linearGradient id="linear-gradient-19" x1="1063.92" y1="142.94" x2="1063.92" y2="196.64" xlink:href="#linear-gradient"/><linearGradient id="linear-gradient-20" x1="1065.92" y1="154.47" x2="1065.92" y2="93.28" xlink:href="#linear-gradient"/></defs><title>trees</title><polygon class="cls-1" points="1206.36 221.21 1206.36 280.85 1221.91 280.85 1221.91 223.15 1206.36 221.21"/><path class="cls-2" d="M1233.73,174.78l41.26,50.3h-43.82l3.1,10.08-10.86-12-3.88,3.88-13.18-5.82-7,14v-9.69h-55.84l39.59-52.09Z"/><polygon class="cls-3" points="1235.44 153 1263.75 196.81 1229.24 179.75 1217.99 202.24 1199.38 177.62 1169.91 184.4 1181.93 163.83 1161.38 182.47 1183.1 153 1235.44 153"/><path class="cls-4" d="M1227.49,109.92l25.79,50-17.84-5.82-34.3,9.74-10.68-10.52-27.14-.39,29.47-43a23,23,0,0,1,17.14-8.33C1220.5,101.5,1226.74,109,1227.49,109.92Z"/><polygon class="cls-5" points="1211.4 44 1243.59 114.96 1227.49 109.92 1216.83 112.64 1211.4 107.59 1192.79 114.96 1192.79 109.92 1177.67 112.64 1211.4 44"/><path class="cls-1" d="M1287.31,273.59A225.88,225.88,0,0,1,1247.4,279c-16.32.75-20.34-.86-62.6-4.15,0,0-54.83-4.27-67.81,6.23a36,36,0,0,1-9.45,5.83c-2.46,1-5.25,1.81-6.4,2.16-1.73.53-3.89,1.08-7.18,1.74-34.1,6.83-49.1-3.4-79.5,0-13.65,1.53-19.31,4.56-41.48,12.39-52.34,18.48-60.66,15.84-102,29.43-13.17,4.33-10.67,4-112.33,48-53.23,23-66.82,28.7-89.87,29.43-36,1.13-68.07-10.68-72.59-12.39-21.06-8-19.77-12-41.48-20.13-17.63-6.6-31.84-8.94-72.59-13.94-61.46-7.54-54.78-5.38-67.4-7.74-71.27-13.33-108.69-49.41-157.27-52.66-1.38-.09-4.08-0.24-7.82-0.55-10.69-.88-18.6-2.1-21.56-2.54-27.29-4.08-30.85-2.29-43.29-5.87-14.28-4.1-13.11-7.47-27.77-13.09-17.41-6.67-36.43-6.87-73.77-7-25.42-.09-26.7,1.17-34.92-0.74C26.15,268.24,10.22,254.27,0,242.82L2.07,677.24H1287.29Z"/><path class="cls-1" d="M966.19,301a15.75,15.75,0,0,0-10.07,8.51,37,37,0,0,0-.9-8.26,25.48,25.48,0,0,1,1.29-2.29,10.58,10.58,0,0,0-1.5,1.47c-1.24-4.54-3.11-6-3.11-6a17.37,17.37,0,0,1,2.46,6.76,16.09,16.09,0,0,0-3.1,7.46c-6.31-15.74-13.37-17.61-13.37-17.61a22.72,22.72,0,0,1,6.73,7.46,21.68,21.68,0,0,1,1.16,9.08C936.26,297.44,930,297.8,930,297.8a25.27,25.27,0,0,1,12.25,8.75,15.28,15.28,0,0,0-9.51-3.47c7,2.28,10.15,6.17,11.56,9.17a4.9,4.9,0,0,0-.87.42c-5.35-7.6-13-7.21-13-7.21,6.64,2.17,9.8,5.78,11.31,8.7a5.74,5.74,0,0,0-1.12,4.18v0.06a0.77,0.77,0,0,0,.87.67l7.45-.94,0.68-.09,1.29-.16,0.46-.06,6.48-.82a0.77,0.77,0,0,0,.67-0.87V316.1a5.68,5.68,0,0,0-1.37-3.05C957.77,309.77,959.77,305.08,966.19,301Zm-12.27,10.18a6.29,6.29,0,0,0-.79-0.09,17.47,17.47,0,0,1,1.42-8.34A29.73,29.73,0,0,1,953.92,311.16Zm-7.52-9A42.64,42.64,0,0,1,949,311.3c-0.57-.69-1.13-1.36-1.67-2A33.64,33.64,0,0,0,946.4,302.13Z"/><path class="cls-1" d="M111.36,277.12a17,17,0,0,1-1.7,2.43h1a11.21,11.21,0,0,0,.86-1.12c0,0.4.07,0.77,0.09,1.12h0.61c-0.06-.54-0.15-1.17-0.27-1.84a8.44,8.44,0,0,0,.79-2c0.2,0.47.42,0.92,0.65,1.35a9.58,9.58,0,0,0,.65,2.52h0.26a8.68,8.68,0,0,1-.6-1.94c0.4,0.71.82,1.36,1.22,1.94h0.54l0,0a6.28,6.28,0,0,0,.21-0.67,7.79,7.79,0,0,0,.42.71h0.87a11.31,11.31,0,0,1-1.12-1.78c0-.1,0-0.2,0-0.3a4.53,4.53,0,0,0-.6-2.12,5.49,5.49,0,0,1,.85-2.56,4,4,0,0,0-1.1,2.11c-0.28-.47-0.55-0.88-0.69-1.16a6,6,0,0,0,.33.65c0.1,0.18.22,0.38,0.35,0.6a4.5,4.5,0,0,0,.16,2.46,6.74,6.74,0,0,0,.45,1.2,5.45,5.45,0,0,1-.22.72,21.41,21.41,0,0,1-1.77-3,6.5,6.5,0,0,1,.31-2.4,13.68,13.68,0,0,1,1.46-3,9.81,9.81,0,0,0,.53-1.07c-0.59,1.19-2.52,3.55-2.52,6-0.16-.34-0.31-0.68-0.45-1a7.56,7.56,0,0,0-1.13-5.41c0-.18,0-0.35,0-0.53,0-2.43.83-4.69,1.24-6.39a17.22,17.22,0,0,0,.47-2.27c-0.38,1.85-1.84,5.13-2.05,8.69a5.27,5.27,0,0,0-.79-0.9s0.34,0.47.77,1.23a11.72,11.72,0,0,0,.44,3.81c0.13,0.52.29,1,.47,1.51a8.6,8.6,0,0,1-.64,1.78c-0.06-.25-0.12-0.5-0.19-0.75a39.41,39.41,0,0,0-1.26-3.76C110.37,272.94,111,275.08,111.36,277.12Zm3.9-1.19a3.54,3.54,0,0,1,0-.44,4,4,0,0,1,.28.73,3.87,3.87,0,0,1,.19,1.28A4.67,4.67,0,0,1,115.25,275.93Zm-2.76-2.17a14.07,14.07,0,0,1-.7-3.73,7.17,7.17,0,0,1,.7,2.75A5.52,5.52,0,0,1,112.49,273.76ZM87.83,276.4a14.26,14.26,0,0,0-1.38-2.67,5.83,5.83,0,0,0,.33.65,8.36,8.36,0,0,1,.89,1.84,3.57,3.57,0,0,1,.16.68c0,0.24,0,.47,0,0.7a10.75,10.75,0,0,1-.19,1.5,4.66,4.66,0,0,1-.16.44h0.47a13.46,13.46,0,0,0,.19-4.16,38.42,38.42,0,0,0-.87-4.89C87.28,271.56,87.82,274,87.83,276.4Zm19-19a2.65,2.65,0,0,0-.08.41C106.81,257.62,106.83,257.48,106.85,257.35Zm-15,13.08,0,0Zm1.32-3.34,0.3,0.12A2.15,2.15,0,0,0,93.21,267.09ZM86.74,278a4.28,4.28,0,0,0,.07,1.52H87a3.53,3.53,0,0,1-.11-0.65,13,13,0,0,1,.27-2.77A12.88,12.88,0,0,0,86.74,278Zm2.52,0.6c-0.23.32-.47,0.63-0.71,0.92h0.88l0.2-.24,0.15,0.24h0.87c-0.19-.24-0.38-0.52-0.58-0.83,0.09-.14.19-0.29,0.29-0.45,0.16,0.49.33,0.92,0.48,1.28h0.48a3.6,3.6,0,0,1-.43-1.08,3.64,3.64,0,0,1-.28-0.65,7,7,0,0,0,.7-2.12,6.35,6.35,0,0,0-.86-4.57c0.5,0.34,1,.71,1.51,1.1,0.06,0.17.11,0.33,0.16,0.5a9.85,9.85,0,0,1-.46,6.62,6.59,6.59,0,0,1-.12-1,25,25,0,0,1,.36-4.45,24.15,24.15,0,0,0-.55,3.06,8.36,8.36,0,0,0,.11,2.54h0.44a10.89,10.89,0,0,0,.87-4.33,7.52,7.52,0,0,0-.53-2.77c0.36,0.29.71,0.6,1,.91A13.33,13.33,0,0,0,93,275a18.76,18.76,0,0,0,0,3.15,11.35,11.35,0,0,1-.73,1.38H95.9v0l0.13-.2-0.06.23h0.44c0-.13.08-0.28,0.12-0.45,0,0.16.07,0.31,0.1,0.45h2.45c0-.06,0-0.12,0-0.19l0.07,0.19h0.44a3.58,3.58,0,0,1-.39-1c0-.07-0.07-0.15-0.11-0.23a10.66,10.66,0,0,1,.6-3,20,20,0,0,0,.62,4.29h0.35a13,13,0,0,1-.84-4.33,26,26,0,0,1,1.89,4.33h2.69a24.75,24.75,0,0,0,.38-7.75c0-.46-0.1-0.92-0.16-1.37,0.07-.22.15-0.43,0.23-0.64a9.27,9.27,0,0,1,1.2-2.51c0.42-.34.84-0.66,1.26-1a24,24,0,0,1,1.22,2.64c-0.22.35-.45,0.74-0.69,1.14l-0.15-.25c0.16-.31.27-0.57,0.35-0.74-0.1.2-.23,0.43-0.39,0.68-0.49-.82-1-1.51-1.21-2a11.83,11.83,0,0,0,.65,1.3c0.14,0.26.31,0.55,0.48,0.85-0.87,1.42-2.31,3.58-2.27,5.83a8.08,8.08,0,0,0,.06,1.2,5.54,5.54,0,0,0-.55,2.54v0.08h1a4.92,4.92,0,0,1,0-.8c0.09,0.29.19,0.56,0.29,0.8h0.28a8.76,8.76,0,0,1-.51-1.46,4.9,4.9,0,0,1,.11-0.5,3.09,3.09,0,0,1,.36-0.86,12.19,12.19,0,0,0,.78,2.81h0.37a3.53,3.53,0,0,1-.11-0.65,13,13,0,0,1,.27-2.77,12.81,12.81,0,0,0-.41,1.9,3.84,3.84,0,0,0,0,1,11.4,11.4,0,0,1-.65-2.64c0.41-.59.94-1.2,1.42-1.83a4.27,4.27,0,0,0,.85-2c0,0.08,0,.15.07,0.23a9.72,9.72,0,0,1-.31,6.24c0-.19,0-0.38-0.06-0.58a25,25,0,0,1,.36-4.45,24.12,24.12,0,0,0-.55,3.06,8.23,8.23,0,0,0,.08,2.39l-0.07.15h0.35v0a10.87,10.87,0,0,0,.85-4.29,7.84,7.84,0,0,0-.67-3.1c0-.24,0-0.46,0-0.66a13.5,13.5,0,0,0-.14-1.37c-0.07.33-.09,0.81-0.16,1.38-0.21-.43-0.43-0.85-0.66-1.24,0.24-.41.46-0.8,0.66-1.15a16.56,16.56,0,0,1,1,3.63,15.21,15.21,0,0,1-.31,6.85h0.44a17.85,17.85,0,0,0-.92-10.66l0-.06a12.07,12.07,0,0,0,.62-1.26c-0.16.32-.39,0.7-0.67,1.14a18,18,0,0,0-1.19-2.53c1.92-1.41,3.71-2.52,4.72-3.24a52.4,52.4,0,0,0-4.7,2.55A16.24,16.24,0,0,1,112,262.3a13.9,13.9,0,0,0-5.05,2.92,25.61,25.61,0,0,0-2.1-2.84,15.29,15.29,0,0,0,1-1.67,10.58,10.58,0,0,0,1-2.94,14.69,14.69,0,0,1-2.09,4.46c-0.24-.28-0.46-0.52-0.63-0.7a22.51,22.51,0,0,0,1.84-1.85c-0.47.44-1.14,1-1.9,1.8l-0.39-.41,0.39,0.41a31.93,31.93,0,0,0-2.39,2.63A15.38,15.38,0,0,0,99,269.47a13.5,13.5,0,0,0-.1-1.91c0-.46-0.08-0.91-0.14-1.35,0.34-.21.64-0.38,0.85-0.48l0.2-.12q-0.32.1-.71,0.26l-0.37.19A24.51,24.51,0,0,0,97,260.27a6.45,6.45,0,0,0,1.18-1.11L97,260.21a14.27,14.27,0,0,0-1-2c0.18,0.56.42,1.33,0.67,2.24a35.45,35.45,0,0,0-3.19,3.23c-0.17.19-.32,0.39-0.47,0.59a24.76,24.76,0,0,0-2.68-3.23A21.71,21.71,0,0,1,93,264.42a12.8,12.8,0,0,0-.79,1.21,3.2,3.2,0,0,0-1.57-1.39,3.58,3.58,0,0,1,1.46,1.58,18.7,18.7,0,0,0-1.46,3.5c-0.38-.63-0.73-1.17-0.94-1.58a12,12,0,0,0,.65,1.3l0.24,0.43c-0.13.42-.25,0.85-0.35,1.27a4.83,4.83,0,0,0-.81-1s0.24,0.34.57,0.89a26.63,26.63,0,0,0-3.64-1.87,25.08,25.08,0,0,1,3.76,2.08L90.15,271v0a12.27,12.27,0,0,0,0,6.28c-0.13.25-.28,0.49-0.42,0.72a5.4,5.4,0,0,1-.7-2.1,5.05,5.05,0,0,1,.82-3.16,4.66,4.66,0,0,0-1,4.66A6.82,6.82,0,0,0,89.26,278.63Zm18.49-8.41a10,10,0,0,0-1.55,4.93c0,0.19,0,.38,0,0.56l-0.31.37a4.84,4.84,0,0,0-.33.48,7.28,7.28,0,0,1,.3-3,14.83,14.83,0,0,1,1.59-3.27l0.16-.28Zm0.08,0.14a13.31,13.31,0,0,1,.69,1.37,6.72,6.72,0,0,1-.23,1,7,7,0,0,1-1.83,2.65,8,8,0,0,1,.39-2.79A9.87,9.87,0,0,1,107.83,270.35Zm-9,3.16-0.32.19c0-.21,0-0.43,0-0.65Zm5.81-11.24c-0.32.48-.66,1-1.05,1.48l-0.18.24c-0.14-.6-0.24-1-0.26-1.13,0,0.35.07,0.79,0.14,1.29-1.33,1.75-2.88,3.64-4.17,5.62a15.59,15.59,0,0,1,.83-2.35,19.19,19.19,0,0,1,4.08-5.87C104.24,261.75,104.44,262,104.66,262.27Zm-0.45,5.52c-0.07-.37-0.13-0.73-0.2-1.07,0.51-.85.93-1.36,0.89-1.36a6.16,6.16,0,0,0-.95,1.07c-0.17-.84-0.33-1.57-0.46-2.15,0.47-.64.9-1.26,1.28-1.85a27.07,27.07,0,0,1,2,2.93c-0.26.24-.51,0.5-0.75,0.77s-0.44.52-.65,0.79C105,267.19,104.59,267.48,104.21,267.79Zm-0.35.28q-0.45.37-.9,0.76a14,14,0,0,1,.78-1.65Q103.8,267.61,103.86,268.07Zm0.37,3.75a29.62,29.62,0,0,1,0,4,19.16,19.16,0,0,1-.3,2.47A20.18,20.18,0,0,1,104.23,271.81Zm-2-.15a9.32,9.32,0,0,1,.14-0.95,22.66,22.66,0,0,1,1.58-1.65v0.12a16.36,16.36,0,0,0-1.42,4.63,22.72,22.72,0,0,0-.23,3.1A17,17,0,0,1,102.26,271.66Zm-2,2.35,0.11-.22a13,13,0,0,1,1.39-2.24,11.34,11.34,0,0,0-.27,3.08c0,0.42,0,.83,0,1.24C101.12,275.28,100.7,274.65,100.22,274Zm-1.5-2c0.07-.42.13-0.85,0.18-1.28a29.53,29.53,0,0,1,2-3c0.84-1.15,1.7-2.26,2.48-3.32,0.1,0.68.22,1.47,0.34,2.34a14,14,0,0,0-1.3,2.55l-0.27.25a13.42,13.42,0,0,0-2.07,2.3c0-.09,0-0.17,0-0.26a14.4,14.4,0,0,1,3-6.23l-0.1.09a13.16,13.16,0,0,0-3.16,6.75q-0.22.32-.41,0.65Zm-0.2,2.63c0-.18,0-0.37,0-0.55a5.22,5.22,0,0,1,.43-0.4Q98.71,274.21,98.52,274.68Zm-1.09,1.85c0.24-.58.47-1.22,0.68-1.9l0,0q0,0.5.06,1a14.72,14.72,0,0,0-.66,2.9A5.86,5.86,0,0,1,97.43,276.53Zm-0.5-3.1a12.15,12.15,0,0,0,.29-2.41l0.35,0.5,0,0.25a14.18,14.18,0,0,1-.4,1.72l-0.14.33C97,273.69,96.95,273.56,96.92,273.43Zm0-5.85c0.32-.28.63-0.53,0.93-0.75a19.24,19.24,0,0,1-.15,4l-0.49-.56c0-.07,0-0.13,0-0.2A15.67,15.67,0,0,0,96.9,267.58Zm-1.7-5a31,31,0,0,1,1,5.21,9.35,9.35,0,0,0-.68.73l-0.29-.24a20.3,20.3,0,0,0-2.07-3.79,25.06,25.06,0,0,1,3.54-4,32.05,32.05,0,0,1,1.07,6,11,11,0,0,0-1,.7A17.59,17.59,0,0,0,95.2,262.6Zm1.08,5.56c0,0.37.05,0.75,0.06,1.13-0.18-.2-0.38-0.39-0.57-0.57C95.94,268.53,96.11,268.34,96.28,268.17Zm0,3.08a15.64,15.64,0,0,0-.75-2.25l0,0q0.38,0.43.78,0.92C96.35,270.33,96.33,270.79,96.29,271.25Zm-1.91,6a12.42,12.42,0,0,0,.24-2.3,7.2,7.2,0,0,1,.31,1.28C94.76,276.58,94.57,276.92,94.38,277.24Zm-0.11-6a8,8,0,0,1,1.11-2c0.18,0.5.35,1,.49,1.52a3,3,0,0,0-.54-0.61,11.44,11.44,0,0,1,.77,1.55c0,0.14.06,0.28,0.08,0.42a12.35,12.35,0,0,1-.27,1.31,11.6,11.6,0,0,1-.57,1.88,9.56,9.56,0,0,0-.39-0.93,7,7,0,0,0-.37-0.78A19.42,19.42,0,0,0,94.28,271.21Zm-0.11-.52a15.92,15.92,0,0,0-1.84-4.82c0.24-.43.5-0.84,0.77-1.24A26.4,26.4,0,0,1,94.9,268a7.92,7.92,0,0,0-1.39-.81,6.14,6.14,0,0,1,1.57,1.22l0.19,0.47A9.87,9.87,0,0,0,94.17,270.7Zm-0.36,2.45,0,0.16c0,0.14,0,.28,0,0.41l-0.28-.27q0.05-.24.12-0.49Zm-0.26.48L93.88,274a9.28,9.28,0,0,1-.6,3.54A16,16,0,0,1,93.56,273.62Zm-2.77-4a15.52,15.52,0,0,1,.95-2.53c0.14-.33.31-0.66,0.48-1A22.66,22.66,0,0,1,93.64,272l0,0.14a14,14,0,0,0-1.69-1.68,16.88,16.88,0,0,1,1.56,2.1q-0.09.31-.16,0.63c-0.24-.21-0.48-0.42-0.73-0.62l-0.46-.38A18.11,18.11,0,0,0,90.79,269.62ZM90.46,271c0.08-.4.17-0.8,0.28-1.21a15.41,15.41,0,0,1,1.12,2.2C91.4,271.63,90.93,271.3,90.46,271Zm-0.08.47a6.12,6.12,0,0,1,.59,2.32,5.9,5.9,0,0,1-.61,3A16.16,16.16,0,0,1,90.38,271.47Z"/><path class="cls-1" d="M533.15,376.2a5.68,5.68,0,0,0-1,3.2v0.06a0.77,0.77,0,0,0,.78.78h16.5a0.77,0.77,0,0,0,.78-0.78V379.4a5.74,5.74,0,0,0-1.63-4c1.13-3.09,3.82-7.06,10.14-10,0,0-7.62.56-12,8.77a4.9,4.9,0,0,0-.92-0.31c1-3.15,3.65-7.4,10.32-10.54a15.28,15.28,0,0,0-9,4.63,25.27,25.27,0,0,1,11.07-10.21s-6.21.42-14.39,11.7a21.68,21.68,0,0,1,0-9.16,22.72,22.72,0,0,1,5.74-8.24s-6.77,2.73-11.07,19.14a16.09,16.09,0,0,0-4-7,17.37,17.37,0,0,1,1.6-7s-1.68,1.65-2.34,6.3a10.58,10.58,0,0,0-1.68-1.27,25.48,25.48,0,0,1,1.57,2.11,37,37,0,0,0,.14,8.3,15.75,15.75,0,0,0-11.05-7.19C529.63,368.61,532.21,373,533.15,376.2Zm1.37-10.57a17.47,17.47,0,0,1,2.45,8.1,6.29,6.29,0,0,0-.78.19A29.73,29.73,0,0,1,534.52,365.63Zm8,5.62c-0.47.7-.93,1.43-1.41,2.19a42.64,42.64,0,0,1,1.43-9.42A33.64,33.64,0,0,0,542.51,371.25Z"/><path class="cls-1" d="M266,304.59a34.21,34.21,0,0,0-1.59,3.76c-0.09.25-.17,0.5-0.25,0.75a7.53,7.53,0,0,1-.81-1.78,13.58,13.58,0,0,0,.59-1.51,9.45,9.45,0,0,0,.56-3.81c0.54-.76,1-1.23,1-1.23a5.9,5.9,0,0,0-1,.9c-0.27-3.56-2.1-6.84-2.58-8.69a14.15,14.15,0,0,0,.59,2.27c0.51,1.69,1.61,4,1.56,6.39,0,0.18,0,.35,0,0.53a6.34,6.34,0,0,0-1.42,5.41c-0.18.36-.37,0.7-0.57,1,0-2.48-2.42-4.84-3.17-6a9.17,9.17,0,0,0,.67,1.07,12.77,12.77,0,0,1,1.84,3,5.26,5.26,0,0,1,.39,2.4,21.11,21.11,0,0,1-2.23,3,4.65,4.65,0,0,1-.27-0.72,5.93,5.93,0,0,0,.56-1.2,3.62,3.62,0,0,0,.2-2.46c0.16-.22.31-0.42,0.44-0.6a5.58,5.58,0,0,0,.41-0.65c-0.18.29-.52,0.69-0.87,1.16a3.82,3.82,0,0,0-1.38-2.11,4.85,4.85,0,0,1,1.07,2.56,3.86,3.86,0,0,0-.76,2.12c0,0.1,0,.2,0,0.3a11.33,11.33,0,0,1-1.41,1.78h1.09a7.63,7.63,0,0,0,.53-0.71,5.4,5.4,0,0,0,.27.67l0,0h0.68a24.57,24.57,0,0,0,1.54-1.94,7.45,7.45,0,0,1-.75,1.94h0.33a8.06,8.06,0,0,0,.82-2.52c0.29-.43.56-0.88,0.81-1.35a7.51,7.51,0,0,0,1,2c-0.15.67-.26,1.3-0.34,1.84h0.77c0-.35.05-0.72,0.11-1.12a12,12,0,0,0,1.08,1.12h1.29a17.63,17.63,0,0,1-2.14-2.43C265,307.74,265.88,305.6,266,304.59Zm-6.85,5.58a3.15,3.15,0,0,1,.24-1.28,3.58,3.58,0,0,1,.35-0.73,2.82,2.82,0,0,1,0,.44A4,4,0,0,1,259.17,310.16Zm4-4.72a6,6,0,0,1,.88-2.75,11.53,11.53,0,0,1-.88,3.73A4.39,4.39,0,0,1,263.2,305.44ZM295,303.15a31.41,31.41,0,0,0-1.1,4.89,10.74,10.74,0,0,0,.24,4.16h0.59a4.12,4.12,0,0,1-.21-0.44,8.66,8.66,0,0,1-.24-1.5c0-.23,0-0.47,0-0.7a3,3,0,0,1,.2-0.68,7.8,7.8,0,0,1,1.13-1.84,5.45,5.45,0,0,0,.41-0.65,13.53,13.53,0,0,0-1.74,2.67A48.73,48.73,0,0,1,295,303.15Zm-24.64-12.72a2.17,2.17,0,0,0-.1-0.41A4.1,4.1,0,0,0,270.41,290.43Zm18.73,12.7,0,0Zm-2-3.25,0.38-.12A3.15,3.15,0,0,0,287.13,299.87Zm8,8.91a10.41,10.41,0,0,1,.34,2.77,2.88,2.88,0,0,1-.14.65h0.23a3.42,3.42,0,0,0,.09-1.52A10.66,10.66,0,0,0,295.14,308.78ZM293,310.1a4,4,0,0,0-1.21-4.66,4.36,4.36,0,0,1,1,3.16,4.69,4.69,0,0,1-.89,2.1c-0.19-.23-0.37-0.48-0.54-0.72a9.83,9.83,0,0,0-.06-6.28v0l0.08-.11a34.82,34.82,0,0,1,4.73-2.08,37.62,37.62,0,0,0-4.59,1.87c0.41-.56.76-0.89,0.72-0.89a5.33,5.33,0,0,0-1,1c-0.14-.42-0.28-0.84-0.44-1.27l0.3-.43a11.26,11.26,0,0,0,.82-1.3c-0.26.42-.7,1-1.18,1.58a16.83,16.83,0,0,0-1.84-3.5,4.08,4.08,0,0,1,1.84-1.58,3.92,3.92,0,0,0-2,1.39,12.93,12.93,0,0,0-1-1.21,23.26,23.26,0,0,1,3.26-3.36A27.32,27.32,0,0,0,287.7,297c-0.19-.2-0.39-0.4-0.6-0.59a41.26,41.26,0,0,0-4-3.23c0.31-.91.62-1.68,0.84-2.24a13.43,13.43,0,0,0-1.22,2l-1.52-1.05a7.56,7.56,0,0,0,1.48,1.11,20.84,20.84,0,0,0-2.09,5.79l-0.46-.19q-0.48-.16-0.89-0.26l0.26,0.12c0.27,0.11.64,0.27,1.07,0.48-0.08.44-.14,0.89-0.18,1.35a10.75,10.75,0,0,0-.13,1.91,14.39,14.39,0,0,0-3.32-5.36,36.09,36.09,0,0,0-3-2.63l0.49-.41-0.49.41c-0.95-.75-1.79-1.36-2.39-1.8a26.1,26.1,0,0,0,2.32,1.85c-0.22.18-.49,0.42-0.79,0.7a13.52,13.52,0,0,1-2.63-4.46,9.17,9.17,0,0,0,1.28,2.94,14.83,14.83,0,0,0,1.2,1.67,27,27,0,0,0-2.64,2.84,19.11,19.11,0,0,0-6.37-2.92,21.29,21.29,0,0,1,5.62,3.19c-3-1.48-5.48-2.36-5.93-2.55,1.28,0.72,3.53,1.82,6,3.24a16.64,16.64,0,0,0-1.5,2.53c-0.34-.44-0.64-0.82-0.84-1.14a11.27,11.27,0,0,0,.78,1.26l0,0.06a14.42,14.42,0,0,0-1.15,10.66h0.55a12.19,12.19,0,0,1-.39-6.85,13.92,13.92,0,0,1,1.2-3.63c0.25,0.35.54,0.73,0.83,1.15-0.28.39-.57,0.81-0.83,1.24-0.09-.57-0.1-1-0.2-1.38a10.84,10.84,0,0,0-.18,1.37,5.34,5.34,0,0,0,0,.66,6.5,6.5,0,0,0-.84,3.1,9,9,0,0,0,1.07,4.29v0h0.44l-0.09-.15a6.56,6.56,0,0,0,.1-2.39,19.72,19.72,0,0,0-.69-3.06,20,20,0,0,1,.45,4.45,5.18,5.18,0,0,1-.08.58,7.86,7.86,0,0,1-.39-6.24c0-.08.06-0.15,0.09-0.23a3.85,3.85,0,0,0,1.08,2c0.6,0.63,1.28,1.23,1.79,1.83a9.54,9.54,0,0,1-.82,2.64,3.05,3.05,0,0,0,0-1,10.6,10.6,0,0,0-.51-1.9,10.42,10.42,0,0,1,.34,2.77,2.88,2.88,0,0,1-.14.65H270a10.32,10.32,0,0,0,1-2.81,2.8,2.8,0,0,1,.46.86,4,4,0,0,1,.13.5,7.65,7.65,0,0,1-.64,1.46h0.36c0.12-.24.25-0.51,0.37-0.8a3.92,3.92,0,0,1-.05.8h1.25v-0.08a4.59,4.59,0,0,0-.69-2.54,6.43,6.43,0,0,0,.08-1.2c0.05-2.24-1.76-4.4-2.86-5.83,0.22-.3.43-0.59,0.61-0.85a11.07,11.07,0,0,0,.82-1.3c-0.32.52-.91,1.21-1.52,2-0.19-.25-0.36-0.48-0.49-0.68,0.1,0.18.24,0.43,0.44,0.74l-0.18.25c-0.29-.41-0.59-0.79-0.86-1.14a22.06,22.06,0,0,1,1.53-2.64c0.52,0.31,1.05.63,1.58,1a8.6,8.6,0,0,1,1.51,2.51c0.1,0.21.2,0.43,0.29,0.64-0.07.45-.14,0.91-0.2,1.37a19.76,19.76,0,0,0,.47,7.75h3.39a23.57,23.57,0,0,1,2.38-4.33,10.68,10.68,0,0,1-1.05,4.33h0.44a16.22,16.22,0,0,0,.78-4.29,8.76,8.76,0,0,1,.76,3,2.5,2.5,0,0,1-.14.23,3.16,3.16,0,0,1-.5,1H280l0.09-.19c0,0.06,0,.13,0,0.19h3.09c0-.14.09-0.29,0.13-0.45,0,0.17.1,0.31,0.15,0.45H284l-0.08-.23,0.17,0.2v0h4.56a10.83,10.83,0,0,1-.92-1.38,14.9,14.9,0,0,0,0-3.15,10.8,10.8,0,0,0-.33-1.66c0.42-.31.87-0.62,1.32-0.91a6.18,6.18,0,0,0-.67,2.77,9,9,0,0,0,1.1,4.33h0.55a6.67,6.67,0,0,0,.14-2.54,19.74,19.74,0,0,0-.69-3.06,20,20,0,0,1,.45,4.45,5.31,5.31,0,0,1-.16,1,8,8,0,0,1-.58-6.62,5.36,5.36,0,0,1,.2-0.5c0.63-.39,1.27-0.76,1.9-1.1a5.29,5.29,0,0,0-1.08,4.57,6,6,0,0,0,.88,2.12,3.3,3.3,0,0,1-.35.65,3.22,3.22,0,0,1-.55,1.08h0.6a12.21,12.21,0,0,0,.61-1.28c0.12,0.16.25,0.32,0.37,0.45-0.25.31-.5,0.59-0.73,0.83h1.09L292,312l0.25,0.24h1.11c-0.3-.29-0.6-0.59-0.89-0.92A6,6,0,0,0,293,310.1Zm-23.68-7.47,0.2,0.28a13.84,13.84,0,0,1,2,3.27,5.86,5.86,0,0,1,.38,3,5,5,0,0,0-.42-0.48l-0.39-.37c0-.19,0-0.37,0-0.56a8.63,8.63,0,0,0-2-4.93Zm1,2.66a6.47,6.47,0,0,1,.49,2.79c-1-.89-2-1.73-2.31-2.65a5.56,5.56,0,0,1-.29-1,12.51,12.51,0,0,1,.87-1.37A9,9,0,0,1,270.31,305.29Zm10.43,0.43c0,0.22,0,.44,0,0.65l-0.4-.19Zm-6.9-11.52a19.87,19.87,0,0,1,5.14,5.87,13.62,13.62,0,0,1,1.05,2.35c-1.63-2-3.58-3.87-5.26-5.62,0.08-.5.15-0.94,0.17-1.29,0,0.13-.15.52-0.33,1.13l-0.23-.24c-0.49-.5-0.92-1-1.32-1.48C273.35,294.66,273.61,294.42,273.85,294.2Zm-1.66,5.38c-0.26-.27-0.53-0.54-0.82-0.79s-0.62-.53-0.94-0.77a27.73,27.73,0,0,1,2.5-2.93c0.48,0.59,1,1.21,1.62,1.85-0.17.58-.37,1.31-0.58,2.15a6.93,6.93,0,0,0-1.2-1.07s0.48,0.51,1.12,1.36c-0.08.34-.17,0.7-0.25,1.07C273.16,300.14,272.67,299.85,272.19,299.58Zm2,0.27a12.93,12.93,0,0,1,1,1.65c-0.37-.26-0.75-0.52-1.13-0.76Q274.16,300.28,274.23,299.84ZM274,311a15.41,15.41,0,0,1-.38-2.47,23.52,23.52,0,0,1,0-4A16.1,16.1,0,0,1,274,311Zm2-1.43a18.13,18.13,0,0,0-.29-3.1,14,14,0,0,0-1.79-4.63l0-.12c0.7,0.53,1.38,1.08,2,1.65a7.54,7.54,0,0,1,.18.95A13.52,13.52,0,0,1,276,309.56Zm1.08-1c0-.4.05-0.82,0-1.24a9.09,9.09,0,0,0-.34-3.08,12.9,12.9,0,0,1,1.75,2.24l0.14,0.22C278.07,307.31,277.54,307.94,277.08,308.53Zm2.62-3q-0.24-.33-0.51-0.65a12.29,12.29,0,0,0-4-6.75l-0.13-.09c-0.1,0,3.1,2.74,3.74,6.23,0,0.09,0,.17.06,0.26a15.11,15.11,0,0,0-2.61-2.3l-0.33-.25a13.19,13.19,0,0,0-1.64-2.55c0.16-.86.31-1.65,0.43-2.34,1,1.06,2.06,2.18,3.13,3.32a30,30,0,0,1,2.48,3c0.05,0.43.13,0.86,0.22,1.28Zm0.57,0.83a6.28,6.28,0,0,1,.55.4c0,0.19,0,.37,0,0.55Q280.57,306.87,280.27,306.39Zm1.81,4.76a12.2,12.2,0,0,0-.83-2.9q0.06-.48.07-1l0,0a20.48,20.48,0,0,0,.85,1.9A4.68,4.68,0,0,1,282.07,311.15Zm0.68-4.67-0.18-.33a11.76,11.76,0,0,1-.5-1.72l-0.06-.25,0.44-.5a9.77,9.77,0,0,0,.36,2.41C282.8,306.22,282.78,306.35,282.76,306.48Zm-0.26-3.74c0,0.06,0,.13,0,0.2l-0.62.56a15.31,15.31,0,0,1-.19-4c0.38,0.22.77,0.47,1.17,0.75A12.58,12.58,0,0,0,282.5,302.74Zm0.42-2.79c-0.4-.26-0.81-0.5-1.22-0.7a26.18,26.18,0,0,1,1.35-6,28.23,28.23,0,0,1,4.46,4,19.51,19.51,0,0,0-2.61,3.79l-0.37.24a10.67,10.67,0,0,0-.86-0.73,25.49,25.49,0,0,1,1.32-5.21A15.51,15.51,0,0,0,282.93,299.95Zm1.35,1.44c-0.25.18-.49,0.37-0.72,0.57,0-.38,0-0.76.08-1.13C283.85,301,284.07,301.19,284.28,301.39Zm-0.73,1.15c0.33-.33.66-0.64,1-0.92l0,0a13.52,13.52,0,0,0-.94,2.25A13.1,13.1,0,0,1,283.55,302.54Zm1.79,6.34a6,6,0,0,1,.39-1.28,10,10,0,0,0,.3,2.3C285.79,309.58,285.55,309.24,285.33,308.88Zm0.43-2.64a6.46,6.46,0,0,0-.47.78,8.6,8.6,0,0,0-.49.93,9.91,9.91,0,0,1-.72-1.88,10.15,10.15,0,0,1-.34-1.31c0-.14.06-0.28,0.1-0.42a10.8,10.8,0,0,1,1-1.55,3.43,3.43,0,0,0-.68.61,16.28,16.28,0,0,1,.62-1.52,7.68,7.68,0,0,1,1.39,2A15.65,15.65,0,0,0,285.77,306.24Zm-0.86-4.68,0.24-.47a7.81,7.81,0,0,1,2-1.22,10.87,10.87,0,0,0-1.76.81,25.18,25.18,0,0,1,2.26-3.37c0.34,0.4.67,0.81,1,1.24a14.13,14.13,0,0,0-2.31,4.82A9.79,9.79,0,0,0,284.91,301.57Zm2,4.06c0.05,0.16.1,0.32,0.15,0.49l-0.35.27c0-.14,0-0.28,0-0.41l0-.16Zm0.54,4.53a7.6,7.6,0,0,1-.76-3.54l0.41-.33A12.77,12.77,0,0,1,287.41,310.15Zm1.47-5.31-0.58.38c-0.32.2-.62,0.41-0.92,0.62q-0.09-.31-0.2-0.63a17.86,17.86,0,0,1,2-2.1A16.43,16.43,0,0,0,287,304.8l-0.06-.14a18.93,18.93,0,0,1,1.8-5.89c0.22,0.32.42,0.65,0.6,1a13.68,13.68,0,0,1,1.19,2.53A17.14,17.14,0,0,0,288.89,304.85Zm0.32-.2a14.53,14.53,0,0,1,1.41-2.2q0.21,0.61.35,1.21C290.38,304,289.79,304.29,289.2,304.65Zm1.9,4.8a4.89,4.89,0,0,1-.77-3,5.14,5.14,0,0,1,.74-2.32A12.88,12.88,0,0,1,291.11,309.45Z"/><path class="cls-1" d="M1002.33,290.76a15.75,15.75,0,0,0-10.07,8.51,37,37,0,0,0-.9-8.26,25.48,25.48,0,0,1,1.29-2.29,10.58,10.58,0,0,0-1.5,1.47c-1.24-4.54-3.11-6-3.11-6a17.37,17.37,0,0,1,2.46,6.76,16.09,16.09,0,0,0-3.1,7.46C981.09,282.72,974,280.85,974,280.85a22.72,22.72,0,0,1,6.73,7.46,21.68,21.68,0,0,1,1.16,9.08c-9.52-10.18-15.74-9.82-15.74-9.82a25.27,25.27,0,0,1,12.25,8.75,15.28,15.28,0,0,0-9.51-3.47c7,2.28,10.15,6.17,11.56,9.17a4.9,4.9,0,0,0-.87.42c-5.35-7.6-13-7.21-13-7.21,6.64,2.17,9.8,5.78,11.31,8.7a5.74,5.74,0,0,0-1.12,4.18v0.06a0.77,0.77,0,0,0,.87.67l7.45-.94,0.68-.09,1.29-.16,0.46-.06,6.48-.82a0.77,0.77,0,0,0,.67-0.87v-0.06a5.68,5.68,0,0,0-1.37-3.05C993.91,299.55,995.92,294.86,1002.33,290.76Zm-12.27,10.18a6.29,6.29,0,0,0-.79-0.09,17.47,17.47,0,0,1,1.42-8.34A29.73,29.73,0,0,1,990.07,300.94Zm-7.52-9a42.64,42.64,0,0,1,2.59,9.17c-0.57-.69-1.13-1.36-1.67-2A33.64,33.64,0,0,0,982.55,291.91Z"/><polygon class="cls-1" points="110.89 227.58 110.89 279.56 124.44 279.56 124.44 229.27 110.89 227.58"/><path class="cls-6" d="M134.74,187.12l36,43.84H132.52l2.7,8.79-9.46-10.48-3.38,3.38-11.49-5.07-6.08,12.17V231.3H56.14l34.51-45.4Z"/><polygon class="cls-7" points="136.23 168.13 160.9 206.32 130.83 191.45 121.03 211.05 104.8 189.59 79.12 195.5 89.6 177.58 71.69 193.82 90.61 168.13 136.23 168.13"/><path class="cls-8" d="M129.31,130.59l22.47,43.59-15.55-5.07-29.89,8.49L97,168.44l-23.66-.34,25.68-37.51A19.38,19.38,0,0,1,129.31,130.59Z"/><polygon class="cls-9" points="115.28 73.14 143.33 134.99 129.31 130.59 120.01 132.96 115.28 128.56 99.06 134.99 99.06 130.59 85.88 132.96 115.28 73.14"/><polygon class="cls-1" points="255.67 268.45 255.67 314.15 265.99 314.15 265.99 269.93 255.67 268.45"/><path class="cls-10" d="M273.83,232.87l27.37,38.55H272.13l2.06,7.73-7.2-9.21-2.57,3-8.74-4.46L251,279.15v-7.43H214l26.26-39.92Z"/><polygon class="cls-11" points="274.96 216.17 293.74 249.75 270.85 236.68 263.39 253.91 251.04 235.04 231.5 240.24 239.47 224.48 225.84 238.76 240.24 216.17 274.96 216.17"/><path class="cls-12" d="M269.69,183.16l17.1,38.33L275,217l-22.75,7.47-7.09-8.06-18-.3,19.55-33c0.52-.75,4.53-6.31,11.37-6.38C265,176.71,269.19,182.45,269.69,183.16Z"/><polygon class="cls-13" points="259.01 132.65 280.36 187.03 269.69 183.16 262.62 185.25 259.01 181.38 246.67 187.03 246.67 183.16 236.64 185.25 259.01 132.65"/><polygon class="cls-1" points="960.83 271.73 960.83 315.08 972.13 315.08 972.13 273.14 960.83 271.73"/><path class="cls-14" d="M980.73,238l30,36.56H978.87l2.25,7.33-7.89-8.74L970.41,276l-9.58-4.23-5.07,10.15v-7H915.17L944,237Z"/><polygon class="cls-15" points="981.97 222.16 1002.54 254 977.46 241.6 969.28 257.95 955.76 240.05 934.34 244.98 943.08 230.03 928.14 243.57 943.92 222.16 981.97 222.16"/><path class="cls-16" d="M976.19,190.85l18.74,36.36L982,223,957,230.06l-7.77-7.64-19.73-.28L951,190.85A16.17,16.17,0,0,1,976.19,190.85Z"/><polygon class="cls-17" points="964.49 142.94 987.88 194.51 976.19 190.85 968.44 192.82 964.49 189.16 950.97 194.51 950.97 190.85 939.98 192.82 964.49 142.94"/><path class="cls-1" d="M172.69,299.65a1.11,1.11,0,0,0-.16-0.68,1.18,1.18,0,0,0-.58,0,1.83,1.83,0,0,1-.7,0,3.48,3.48,0,0,1-.19-0.6,0.44,0.44,0,0,0-.22-0.09,0.27,0.27,0,0,1-.12-0.22,0.51,0.51,0,0,0-.18-0.1c-0.12-.08-0.29,0-0.39-0.13s-0.06-.12-0.09-0.15a0.82,0.82,0,0,0-.56-0.1,0.57,0.57,0,0,1-.9-0.38c-0.06-.1-0.14-0.19-0.2-0.31a1.54,1.54,0,0,0-.41-0.52,1.58,1.58,0,0,0-1.12-.17,1,1,0,0,1-.6,0s-0.07-.24-0.09-0.29a1.18,1.18,0,0,0-.1-0.13,0.68,0.68,0,0,0-.74-0.38h-0.61a0.77,0.77,0,0,0-.55.28c-0.23.16-.46,0.3-0.67,0.47a0.9,0.9,0,0,1-.41.22,0.6,0.6,0,0,1-.84-0.38,1.06,1.06,0,0,0-.61-0.69,2.38,2.38,0,0,0-1.1,0c-0.34.08-.58,0.26-0.82-0.13s0.06-1.08-.3-1.26a0.85,0.85,0,0,0-.8.32,1.26,1.26,0,0,1-1,.08,1.15,1.15,0,0,1-.2-0.42,2.29,2.29,0,0,0-.29-0.52,7.17,7.17,0,0,1-.6-1c-0.24-.49-0.61-0.16-1-0.3a2.79,2.79,0,0,0,.29-0.33,4.8,4.8,0,0,1,.16-0.48,0.58,0.58,0,0,0,.06-0.73,1.16,1.16,0,0,0-.82-0.1,1.45,1.45,0,0,1-.66-0.14,1.68,1.68,0,0,1-.67-0.27c-0.22-.26,0-0.26.21-0.35a6.15,6.15,0,0,0,.61-0.48,3.45,3.45,0,0,1,.78-0.43c0.17-.06.33-0.2,0.5-0.25s0.2,0,.31,0a2.69,2.69,0,0,1,.82-0.13H158a2.84,2.84,0,0,0,.72,0,5.07,5.07,0,0,1,1.58-.42c0.47,0,.91-0.26,1.38-0.28a4,4,0,0,0,1-.17,5.16,5.16,0,0,1,1.47-.24,4.53,4.53,0,0,0,1.05,0,10.66,10.66,0,0,1,2.47-.11h1.83c0.34,0,.64-0.12,1-0.14s0.34-.1.35-0.48c0-.79-0.61-0.63-1-0.78q0-.11,0-0.23a2.29,2.29,0,0,1-.8-0.31,2.09,2.09,0,0,0-.41-0.27,0.45,0.45,0,0,1-.29-0.13,0.52,0.52,0,0,1-.14-0.29,1.38,1.38,0,0,1-.35-0.38,0.44,0.44,0,0,1,.47-0.3,3.23,3.23,0,0,1,.71-0.15c0.35,0,.6-0.14.93-0.14h0.61a1.68,1.68,0,0,0,.8,0c0.13-.17-0.09-0.62,0-0.79a0.52,0.52,0,0,1,.35,0c0.11,0,.15-0.12.25-0.15a2.18,2.18,0,0,1,.62,0,1.5,1.5,0,0,0,.72-0.12c0.24-.11.48-0.12,0.71-0.26s0.51-.18.35-0.44-0.5,0-.44-0.43,0.29-.2.5-0.27,0.15-.12.25-0.15a1.17,1.17,0,0,1,.36,0,0.43,0.43,0,0,0,.37-0.06,0.42,0.42,0,0,1,.14-0.23l0.11,0a1.52,1.52,0,0,1,.6-0.58,1.48,1.48,0,0,0,.21-0.64,1.58,1.58,0,0,0-.7,0h-1.43a1.14,1.14,0,0,0-.72.24c-0.07.06-.11,0.16-0.17,0.21a0.58,0.58,0,0,1-.23.1,2.38,2.38,0,0,0-.51.31,1.63,1.63,0,0,1-.71.5,0.77,0.77,0,0,1,.3-0.39c0.07-.09.17-0.06,0.11-0.29a0.15,0.15,0,0,0-.22-0.14,2,2,0,0,0-.33.26,2,2,0,0,1-.49.17,1.14,1.14,0,0,1-.95,0c-0.12-.09-0.22-0.28-0.34-0.37s-0.24,0-.45.06a1.53,1.53,0,0,0-.87.23,1,1,0,0,1-.76.31,2.38,2.38,0,0,0-.64.15,3.38,3.38,0,0,1-.75,0,2,2,0,0,0-1,.15,1.6,1.6,0,0,0-.36.43,1.55,1.55,0,0,1-.39.51c-0.08-.34,0-0.72,0-1.06a2.36,2.36,0,0,0-.26-0.73,1.35,1.35,0,0,0-1.31,0,7.8,7.8,0,0,0-1.17.52,6.3,6.3,0,0,1-.53.42,1.36,1.36,0,0,1-.78,0,0.44,0.44,0,0,0-.11-0.4,0.93,0.93,0,0,0-.4,0,2.43,2.43,0,0,1-.69.15,4.62,4.62,0,0,1-1.37,0,0.77,0.77,0,0,1,.61-0.67c0.18-.11.35-0.26,0.53-0.38a3.89,3.89,0,0,0,1.41-.72c0.12-.16.11-0.41,0.22-0.57a0.46,0.46,0,0,1,.25-0.16,0.25,0.25,0,0,0,0-.25,3.23,3.23,0,0,1,.51-1.08c0.12-.11.28-0.1,0.39-0.2a0.89,0.89,0,0,1,.22-0.25,2.57,2.57,0,0,1,.77,0,0.79,0.79,0,0,0,.58-0.38c0.1-.11.77-0.52,0.4-0.73-0.19-.11-0.71.17-0.63-0.41a0.32,0.32,0,0,1,.23-0.27c0.12-.07.2-0.17,0.3-0.25a4,4,0,0,1,.39-0.13,1.76,1.76,0,0,0,.27-0.21,1.43,1.43,0,0,0,.35-0.23s0.13-.27.17-0.34a0.69,0.69,0,0,1,.53-0.49,2.12,2.12,0,0,1,.82-0.23,0.42,0.42,0,0,0,.25-0.09,1.17,1.17,0,0,0,.37-0.23,2.26,2.26,0,0,1,.2-0.23,1.45,1.45,0,0,0,.21-0.19,6.1,6.1,0,0,0,.41-0.6,0.82,0.82,0,0,1,.47-0.29c0.12,0,.23-0.15.34-0.19s0.24,0,.35-0.08a6.84,6.84,0,0,0,.86-0.28,1.68,1.68,0,0,0,.31-0.2,2.56,2.56,0,0,1,.53-0.27l0.53-.26a2.46,2.46,0,0,0,.28-0.23,2.27,2.27,0,0,0,.58-0.43,1.37,1.37,0,0,1,.47-0.37l0.24-.11a0.34,0.34,0,0,1,.07-0.14,4.07,4.07,0,0,0,.55-0.32,2.11,2.11,0,0,1,.63-0.41,5.64,5.64,0,0,1,.82-0.28,3.31,3.31,0,0,0,.4,0,0.86,0.86,0,0,0,.2-0.19c0.16-.15.33-0.27,0.49-0.41a1.06,1.06,0,0,0,.31-0.32c0-.07.05-0.2,0.08-0.28H174c-0.37,0-.67-0.19-1-0.18a0.73,0.73,0,0,1-.46-0.07,1,1,0,0,1-.28-0.25,1.6,1.6,0,0,0-.35-0.42,0.81,0.81,0,0,0-.52-0.09,1.21,1.21,0,0,0-.41,0c-0.1,0-.16.16-0.26,0.21s-0.49.15-.71,0.28-0.25.25-.38,0.33a0.81,0.81,0,0,0-.41.24c-0.08.11-.13,0.24-0.2,0.35a1,1,0,0,0-.12.16,1,1,0,0,1-.15.3,1,1,0,0,1-.14.08,1.62,1.62,0,0,1-.5.35,1.06,1.06,0,0,1-.45,0,0.63,0.63,0,0,1-.2-0.21c-0.28-.3-0.65-0.34-0.95-0.61-0.06-.05-0.06,0-0.1-0.1a1.82,1.82,0,0,1,0-.29,0.24,0.24,0,0,0-.21-0.28c-0.13,0-.28,0-0.41,0a1.31,1.31,0,0,1-.36-0.33,1.36,1.36,0,0,1-.41-0.29c-0.05-.09-0.07-0.19-0.13-0.28s-0.21-.38-0.34-0.57-0.15-.34-0.24-0.47a0.32,0.32,0,0,0-.4-0.07,2.2,2.2,0,0,0-.36.26,0.35,0.35,0,0,1-.08.1,0.67,0.67,0,0,1-.21,0,0.46,0.46,0,0,1-.54-0.24,2.24,2.24,0,0,1-.27-0.77c0-.08,0-0.15,0-0.22s-0.05-.07-0.07-0.14a0.69,0.69,0,0,0-.06-0.37l-0.14-.18a0.19,0.19,0,0,0-.06-0.09c-0.1-.07-0.3,0-0.4-0.11s-0.1-.19-0.16-0.24a0.64,0.64,0,0,0-.33,0,3.28,3.28,0,0,1-.78,0s-0.05-.07-0.1-0.09a0.71,0.71,0,0,0-.21,0c-0.1,0-.26,0-0.19-0.17a1.38,1.38,0,0,0,.17-0.14l0.11-.13a0.71,0.71,0,0,1,.25-0.21,1.58,1.58,0,0,1,.75-0.09,0.8,0.8,0,0,1,.21,0c0.06,0,.07.08,0.13,0.1a1.59,1.59,0,0,1,.42.09,1.21,1.21,0,0,0,.68.09,0.63,0.63,0,0,0,.36-0.07,2.16,2.16,0,0,0,.2-0.19,0.45,0.45,0,0,1,.19,0,0.54,0.54,0,0,0,.08-0.07,0.66,0.66,0,0,0,.32-0.17,0.94,0.94,0,0,0-.36-0.59c-0.12-.34.25-0.32,0.41-0.26a2,2,0,0,1,.36.23,2.19,2.19,0,0,0,.48.23,1.11,1.11,0,0,1,.34.18c0.07,0.06.11,0.15,0.17,0.2a1.31,1.31,0,0,0,.32.14,1.84,1.84,0,0,1,.6.42,0.28,0.28,0,0,0,.3.14H167a1.59,1.59,0,0,0,.74,0,2.22,2.22,0,0,0,.19-0.28,1.37,1.37,0,0,1,.28-0.18c0.05,0,.08-0.14.15-0.19a0.4,0.4,0,0,1,.17-0.07c0.11,0,.19-0.07.3-0.09a1,1,0,0,0,.21,0,0.44,0.44,0,0,0,.11-0.12l0.22-.16a1.41,1.41,0,0,1,.82-0.18,2,2,0,0,1-.41-0.38c-0.13-.12-0.18-0.3-0.3-0.42a1.35,1.35,0,0,0-1.13-.31,1,1,0,0,1-.92-0.3c-0.14-.2,0-0.52-0.16-0.66a1.41,1.41,0,0,0-.58,0,2.43,2.43,0,0,1-1.26-.12,1.18,1.18,0,0,1-.38-1c0-.06-0.06-0.23-0.08-0.31a0.6,0.6,0,0,0,0-.26,2.13,2.13,0,0,0-.44-0.14,1.38,1.38,0,0,1-.66-0.5c-0.19-.25-0.4-0.42-0.59-0.66a7.09,7.09,0,0,0-.49-0.66,1.67,1.67,0,0,0-.53-0.31,0.47,0.47,0,0,0-.12-0.11c-0.07,0-.14,0-0.21,0a4.52,4.52,0,0,1-.49-0.17,1.33,1.33,0,0,1,0-.53c0-.68.34-0.48,0.72-0.55,0.18,0,.25,0,0.19-0.33a1.94,1.94,0,0,0-.17-0.4,0.71,0.71,0,0,1-.13-0.59c0-.19.13-0.29,0.32-0.21a6.12,6.12,0,0,1,.53.52,1.59,1.59,0,0,1,.36.2,3.08,3.08,0,0,0,.19.31,1.87,1.87,0,0,0,.28.19,1.21,1.21,0,0,0,.79.17H165a1.77,1.77,0,0,0,.51-0.14,4.09,4.09,0,0,0,.91,0,1.34,1.34,0,0,0-.22-0.38A4.89,4.89,0,0,1,166,252a3.8,3.8,0,0,1-.16-0.48c-0.06-.32,0-0.38.2-0.42a0.65,0.65,0,0,1,.44.11,0.53,0.53,0,0,1,.26.09,1.68,1.68,0,0,0,.12.23c0.08,0.07.26,0.05,0.36,0.14a3,3,0,0,0,.46.37c0.15,0.09.31,0.14,0.46,0.23s0.24,0.41.41,0.49a0.86,0.86,0,0,0,.36,0,0.73,0.73,0,0,0,.33-0.11,2.76,2.76,0,0,1,.95-0.17,2,2,0,0,0,.51,0c0.12,0,.19-0.11.31-0.15a1.65,1.65,0,0,0,.74-0.3,5.55,5.55,0,0,1,.47-0.54,1.26,1.26,0,0,1,.78-0.12,1.38,1.38,0,0,0,.82-0.24c0.2-.13.38-0.21,0.58-0.35a2.39,2.39,0,0,0,.43-0.52,0.71,0.71,0,0,1,.35-0.15c0.08,0,.18-0.15.26-0.2a3.63,3.63,0,0,1,.47-0.13c0.13,0,.27-0.16.4-0.2a3.19,3.19,0,0,1,.87,0h0.41a0.43,0.43,0,0,0,.36-0.14,0.56,0.56,0,0,1,.46-0.14h2a9.85,9.85,0,0,1-2.53-.07,3.81,3.81,0,0,0-1.08-.07,4.21,4.21,0,0,1-.94-0.15,8,8,0,0,1-1-.34,6,6,0,0,1-1-.22c-0.3-.16-0.59-0.52-0.9-0.65a1.51,1.51,0,0,1-.32,0,1.53,1.53,0,0,1-.12-0.16,1.38,1.38,0,0,0-.31-0.22,2,2,0,0,1-.45-0.43,0.6,0.6,0,0,1-.25-0.33,2.28,2.28,0,0,0-.05-0.35,0.94,0.94,0,0,0-.21-0.23,1.55,1.55,0,0,1-.18-0.32,0.51,0.51,0,0,0-.49-0.27,1.77,1.77,0,0,1-.92-1.32c0-.19.06-0.26-0.09-0.35a0.76,0.76,0,0,0-.32,0,1.56,1.56,0,0,1-.4.29,0.78,0.78,0,0,1-.62-0.2c-0.16-.18,0-0.48-0.15-0.62a1.41,1.41,0,0,0-.66,0,3.55,3.55,0,0,1-.77,0,1.12,1.12,0,0,1-.63-0.87C166,242,166,242,165.69,242s-0.44,0-.66,0a1.54,1.54,0,0,1-.85-0.1c-0.1-.06-0.14,0-0.19-0.16a2,2,0,0,1,0-.42,0.81,0.81,0,0,0-.16-0.69,5.77,5.77,0,0,0-.7-0.56c-0.2-.14-0.37-0.21-0.57-0.37a3.32,3.32,0,0,0-.51-0.46,0.94,0.94,0,0,1-.52-0.34,1.72,1.72,0,0,1-.3-0.42c-0.13-.41.07-0.47,0.3-0.47s0.29,0.12.51,0.35a1.4,1.4,0,0,0,.49.34,0.56,0.56,0,0,1,.31.13,1.39,1.39,0,0,0,.08.13,0.49,0.49,0,0,0,.14,0,5,5,0,0,1,.76.26,3,3,0,0,1,.22.27,0.45,0.45,0,0,0,.3,0,8.63,8.63,0,0,1,1.34,0c-0.12-.15-0.14-0.45-0.27-0.63s-0.22-.26-0.31-0.41a1.71,1.71,0,0,1-.21-0.48,3,3,0,0,1,0-.81,1.27,1.27,0,0,1,.6,0,1.46,1.46,0,0,1,.2.3,1,1,0,0,0,.2.13c0.14,0.09.25,0.21,0.38,0.31a3.79,3.79,0,0,1,.46.34,8.13,8.13,0,0,1,.71.83,0.54,0.54,0,0,0,.38.31,1.83,1.83,0,0,0,.62,0,0.92,0.92,0,0,0,.72-1c0-.15-0.09-0.26-0.11-0.41s0-.28,0-0.42-0.08-.42-0.12-0.66l-0.17,0a5.84,5.84,0,0,1,0-1.08,0.58,0.58,0,0,1,.33-0.66,0.76,0.76,0,0,1,.39,0,0.41,0.41,0,0,1,.28.18,1.87,1.87,0,0,0,.56.35,1.09,1.09,0,0,1,.42.13l0.25,0.21a3.73,3.73,0,0,0,.56.49,2.3,2.3,0,0,1,.59.34,1,1,0,0,1,.29.27c0.09,0.14,0,.31.21,0.33a1.86,1.86,0,0,0-.37-0.94,2.34,2.34,0,0,1,0-.73c0-.26.11-0.36,0.13-0.6a1.55,1.55,0,0,1,.56.43,5.87,5.87,0,0,0,.56.62,2.45,2.45,0,0,0,.63.6,1.93,1.93,0,0,1,.29.22s0.05,0.12.09,0.15a0.61,0.61,0,0,0,.19,0c0.21,0.1.44,0.27,0.63,0.38a10.11,10.11,0,0,0,1.16.45,1.85,1.85,0,0,0,.81.14,1.94,1.94,0,0,0,.41,0,2.27,2.27,0,0,1,.34-0.17c0.06-.55.19-0.53,0.58-0.53h1.94c0.15,0,.31,0,0.46,0a2.18,2.18,0,0,0,.41-0.15c0.14,0,.3,0,0.45,0a2.16,2.16,0,0,1,.26-0.13c0.1,0,.22,0,0.32,0,0.31-.08.61-0.29,0.91-0.39a3.78,3.78,0,0,0,1.33-.83,2,2,0,0,0,.56-0.44,2.76,2.76,0,0,0,0-.83c0-.74,0-1.47,0-2.21a3.63,3.63,0,0,1,0-.56,0.73,0.73,0,0,0,.12-0.41c-0.09-.37-0.33.15-0.5,0.17,0,0.28-.18.19-0.31,0.31s-0.17.25-.25,0.34a0.86,0.86,0,0,1-.39.36,1,1,0,0,0-.41.24,4.55,4.55,0,0,1-.61.63,2.44,2.44,0,0,0-.5.24,0.41,0.41,0,0,1-.37.19h-0.36a0.68,0.68,0,0,1-.39,0c-0.08-.05-0.1-0.19-0.18-0.24a0.8,0.8,0,0,0-.66.12,1.58,1.58,0,0,0-.25.15,4.75,4.75,0,0,0-.42.61,0.6,0.6,0,0,1-.61.21H177.9a1.13,1.13,0,0,0-.61.17,1.84,1.84,0,0,1-.51.24,2.63,2.63,0,0,1-1.5-.21c-0.37-.17-0.66-0.62-1-0.75a6.38,6.38,0,0,1-1.33-.13,0.72,0.72,0,0,1-.3-0.43,1.24,1.24,0,0,0-.2-0.23,2.61,2.61,0,0,0-.31-0.34,1,1,0,0,0-.36-0.13c-0.09,0-.16-0.1-0.25-0.14a2.54,2.54,0,0,1-.37-0.14,0.86,0.86,0,0,0-.51-0.13,3,3,0,0,1-.64-0.25,5.43,5.43,0,0,1-.63,0,1.58,1.58,0,0,1-.44-0.44l-0.19-.23a1.21,1.21,0,0,1-.12,0,1.29,1.29,0,0,1,0-.18,1.68,1.68,0,0,0-.65-1,1,1,0,0,1-.66-0.07,5.22,5.22,0,0,1,0-.86,1.18,1.18,0,0,0-.39-0.58,4.43,4.43,0,0,1-.38-0.59,0.74,0.74,0,0,1-.23-0.66,2.44,2.44,0,0,1,.26-0.54,1.39,1.39,0,0,1,.66,0,1.66,1.66,0,0,1,.77.06,1.33,1.33,0,0,0,.71.21h0.66a4.24,4.24,0,0,0,1.53,0c0-.14-0.09,0-0.14-0.12l-0.14-.27c-0.06-.12-0.14-0.19-0.21-0.3a1.8,1.8,0,0,1-.11-1.06,2.59,2.59,0,0,1,.29.13c0.1,0,.21,0,0.31,0a1.7,1.7,0,0,1,.41.29c0.15,0.09.34,0.13,0.51,0.23a2.08,2.08,0,0,0,.51.32,0.86,0.86,0,0,1,.55.16,1.26,1.26,0,0,0,.16.26,1.13,1.13,0,0,0,.31,0,4.19,4.19,0,0,0,1.11,0,0.78,0.78,0,0,0-.29-0.67,0.65,0.65,0,0,1,0-.71,0.79,0.79,0,0,1,.52.15,1.77,1.77,0,0,1,.44.24c0.27,0.22.56,0.42,0.84,0.66a3,3,0,0,0,.62.35,1.2,1.2,0,0,1,.33.2c0.08,0.09.05,0.23,0.21,0.24,0,0.36.2,0.26,0.35,0.15a3.65,3.65,0,0,0,.36-0.49,2.39,2.39,0,0,0,.31-0.27c0.1-.14,0-0.17.12-0.26a1.14,1.14,0,0,1,.31,0c0.39,0,.73-0.15,1.12-0.14a1.55,1.55,0,0,0,.67-0.15l0.36-.13a2.55,2.55,0,0,0,.31-0.24,8,8,0,0,0,.84-0.54,5.49,5.49,0,0,1,.95-0.52,2.59,2.59,0,0,0,1.07-1,1.31,1.31,0,0,1,.27-0.41c0.09-.07.18-0.09,0.27-0.17s0.25-.39.39-0.54a0.84,0.84,0,0,0,.41-0.33,5.59,5.59,0,0,0-.08-1.84,1,1,0,0,0-.46.28,4.19,4.19,0,0,0-.49.25c-0.66.43-1.14,1.29-1.89,1.48a3.46,3.46,0,0,1-.75,0,7.43,7.43,0,0,0-.85.19,13,13,0,0,1-1.73,0c-0.43,0-1,.17-1.09-0.55,0-.45.09-0.51-0.27-0.56a3,3,0,0,0-.64,0c0.23-.26,1.11-1,0.44-1.31a2.67,2.67,0,0,0-1.64.21c-0.17.06-.31,0.12-0.48,0.17s-0.22.12-.3,0.14a3.22,3.22,0,0,1-.92,0,5,5,0,0,1-1.76,0,3.59,3.59,0,0,1,.5-0.92c0.08-.15.1-0.31,0.2-0.46a3.51,3.51,0,0,1,.25-0.34c-0.16.18-.42,0.25-0.6,0.43a1.43,1.43,0,0,1-.54.37,1.71,1.71,0,0,0-.65.36,3.75,3.75,0,0,0-.58.35,1.35,1.35,0,0,1-.23.45,1,1,0,0,1-.42,0c-0.25,0-.5,0-0.75,0s-0.39-.07-0.34-0.56a0.52,0.52,0,0,1,.13-0.41,0.38,0.38,0,0,0,.25-0.23l0.06-.2c0.17-.21.59-0.27,0.28-0.69-0.14-.19-0.15,0-0.32-0.12a1.61,1.61,0,0,0-.26-0.2c-0.49-.16-1.07.16-1.56,0-0.9-.31-1.46-1.44-2.37-1.67-0.1-.52,0-0.84.39-0.9a1.6,1.6,0,0,0,.42,0,1.2,1.2,0,0,1,.4-0.4c0.66-.16,1.38.12,2,0,0.39-.06.4-0.35,0.47-0.83s0.17-.79.21-1.19a1.42,1.42,0,0,1,0-.53,0.83,0.83,0,0,1,.53,0,2.59,2.59,0,0,1,.7.52,6.5,6.5,0,0,0,.75.46,3.55,3.55,0,0,1,.76.79,10.09,10.09,0,0,0,1.46,1.47,5.8,5.8,0,0,1,.57.59,2.87,2.87,0,0,0,.79.42c0.12,0.07.28,0.12,0.41,0.18l0.31,0.14c0.44,0.12.62,0,.49-0.66l-0.22-.07c0-.3-0.77-1.08-0.23-1.08a1.88,1.88,0,0,1,.53.22,3.2,3.2,0,0,1,.41.37,2.65,2.65,0,0,0,.35.35c0.09,0.07.21,0,.31,0.13a1.26,1.26,0,0,1,.13.18,1.27,1.27,0,0,0,1.06.6c0.91,0,1.82,0,2.72,0a7.8,7.8,0,0,0,1.67,0,7.43,7.43,0,0,1,1.09-.34,4,4,0,0,0,1,0,10.46,10.46,0,0,0,0-1.63,12,12,0,0,0,0-1.57c-0.05-.38-0.36-0.6-0.42-1a1.77,1.77,0,0,0-.09-0.61,0.85,0.85,0,0,0-.36-0.34c-0.28-.21-0.56-0.38-0.83-0.6a3.11,3.11,0,0,0-1-.65,4.33,4.33,0,0,1-.65-0.06c-0.09,0-.21-0.19-0.3-0.24a0.7,0.7,0,0,0-.41-0.09,0.83,0.83,0,0,1-.44-0.14c-0.16-.06-0.32,0-0.48-0.08a1.24,1.24,0,0,0-.16-0.15,1.61,1.61,0,0,1-.29,0c-0.29-.17.1-0.56,0-0.94a0.49,0.49,0,0,0-.28-0.36,3.69,3.69,0,0,0-.4-0.19c-0.14,0-.29,0-0.42-0.08a1.8,1.8,0,0,0-.41-0.09,0.63,0.63,0,0,1-.4-0.29,1.48,1.48,0,0,0-.38-0.13A0.75,0.75,0,0,0,177,208c-0.09,0-.2.06-0.29,0a1.22,1.22,0,0,1-.26-0.29c-0.15-.12-0.34-0.14-0.51-0.25a3.4,3.4,0,0,1-.28-0.26c-0.21-.17-0.44-0.33-0.65-0.5a3.32,3.32,0,0,1-.69-0.64,2.47,2.47,0,0,1-.75-1.21c0.12-.48,1.55-0.05,1.91-0.21a4.14,4.14,0,0,1-.51-0.74,2,2,0,0,0-.3-0.6,4.2,4.2,0,0,1-.89-1.2c0-.12-0.08-0.26-0.13-0.37a1.73,1.73,0,0,1-.18-0.22c-0.13-.46.31-0.36,0.52-0.29a2.89,2.89,0,0,1,.69.33,1.31,1.31,0,0,0,.51.4l0.05,0.3a1.55,1.55,0,0,1,.52.36c0.22,0.12.46,0.17,0.68,0.27,0.54,0.25.89,0.79,1.4,1a1,1,0,0,1,.44.23,2.41,2.41,0,0,1,.09.26,1,1,0,0,0,.46.46,2.85,2.85,0,0,0,.47.21,0.49,0.49,0,0,1,.3.18l0.24,0.23a15.32,15.32,0,0,0,2.42,1.47c0.33,0.23.69,0.41,1,.69,0.15,0.13.5,0.57,0.71,0.37a1,1,0,0,0,.07-0.64,2.76,2.76,0,0,0-.2-1.38,3.4,3.4,0,0,0-.65-0.69c-0.12-.12-0.31-0.18-0.45-0.32s-0.24-.28-0.37-0.41a2.4,2.4,0,0,1-.42-0.36,1.91,1.91,0,0,0-.38-0.57,6.85,6.85,0,0,1-.78-0.83,6.5,6.5,0,0,1-.72-0.72,3.13,3.13,0,0,1-.41-1.25c0-.64.39-0.25,0.62,0a9.7,9.7,0,0,0,.71.79c0.23,0.2.53,0.31,0.79,0.5a6.79,6.79,0,0,0,1.1.65,3.12,3.12,0,0,0,1.37.09s0.08-.18,0-0.18a16.86,16.86,0,0,0,0-2.41,2.63,2.63,0,0,0-.69-1.28,7.43,7.43,0,0,1-.82-1.09c-0.32-.67-0.31-1-1.09-0.76-0.61.18-2.07,1.68-2.32,0.21s1.43-1.15,1.11-3a3.83,3.83,0,0,0-.77-1.36,4.72,4.72,0,0,0-.24-0.76c-0.22-.31-0.61-0.08-0.8-0.32-0.66-.86.22-1.12,0.72-0.77s0.66,0.69,1,.94,0.56,0.18.78,0.35a2.58,2.58,0,0,1,.39.66,13.09,13.09,0,0,0,.89,1c0.31,0.32.78,0.4,1.1,0.72a6.38,6.38,0,0,1,.76,1.08c-0.06-1.42,0-2.86,0-4.29-0.74-.21-0.8-1.37-1.06-2.07a5,5,0,0,0-.51-0.95,6.42,6.42,0,0,0-.33-0.83,3.62,3.62,0,0,0-.49-0.29c-0.48-.45-1.1-1.93-0.05-1.79a4.34,4.34,0,0,1,1.71,1.4,4.07,4.07,0,0,0,.52,1.13c0.44,0.36.68,0,.78-0.46a21.47,21.47,0,0,0,0-3.33,16.12,16.12,0,0,1,0-3.52c0.38-1.16.94,0.68,1.11,1.13,0.25,0.67-.11,1.67,0,2.39a22.4,22.4,0,0,1,.1,2.4,0.78,0.78,0,0,0,.34.74,0.81,0.81,0,0,0,.79-0.52,3.67,3.67,0,0,1,.46-0.57,7.07,7.07,0,0,0,.71-0.43,0.81,0.81,0,0,1,.35-0.43,0.67,0.67,0,0,1,.43-0.09c0.3,0.09.25,0.49,0.1,0.8a8.07,8.07,0,0,1-1.09,1.28,16.52,16.52,0,0,0-1.93,2.83,4.91,4.91,0,0,0-.29,2.28c0,0.89,0,1.82,0,2.7a1.64,1.64,0,0,1,.43-0.64,3.3,3.3,0,0,0,.35-0.64,1.5,1.5,0,0,1,.71-0.71,3,3,0,0,1,.33-1c0.06-.15.09-0.26,0.13-0.41a0.31,0.31,0,0,0,.11-0.22l0-.29c0.08-.28.3-0.5,0.42-0.82a1.12,1.12,0,0,1,.38-0.72,1.76,1.76,0,0,1-.11.9,2.38,2.38,0,0,0,0,.57c0.08,0.24.11,0.14,0.28,0.17a2.48,2.48,0,0,0,1.5-.28c0.39-.2.78-0.42,1.16-0.65a3.26,3.26,0,0,1,.61-0.28,1.47,1.47,0,0,0,.7-0.2,1.49,1.49,0,0,0-.25.52,2.35,2.35,0,0,1-.39.48,3.32,3.32,0,0,0-.89.94,2.08,2.08,0,0,0,.83,1,3.65,3.65,0,0,1,1.08,1,5.08,5.08,0,0,1-2,0c-0.59,0-1.49-.23-2,0.41,0,0-.15.46-0.15,0.44,0,0.31.06,0.2,0.26,0.25a1,1,0,0,1,.48.16c0.16,0.13.23,0.29,0.39,0.43a0.72,0.72,0,0,0,.36.16,0.3,0.3,0,0,1,.28.18,2,2,0,0,1,.41,1.11c0,0.94-1,.22-1.34.77a0.78,0.78,0,0,1-.22.35,0.56,0.56,0,0,1-.36.16,1.33,1.33,0,0,1-1-.19c-0.42-.26-1.36-0.75-1.73-0.14a4.2,4.2,0,0,0-.17.42,1.06,1.06,0,0,0-.14.46c0,0.45,0,.93,0,1.38v2.67c0,0.43,0,.86,0,1.29s0.14,0.88.14,1.38a5.37,5.37,0,0,0,0,1.21c0.11,0.33.7,0.17,1,.17a1.39,1.39,0,0,0,.82-0.09,3.73,3.73,0,0,0,.27-0.28,2.59,2.59,0,0,0,.23-0.42,4.21,4.21,0,0,1,1-1.26c0.13-.09.27-0.11,0.39-0.19a1.05,1.05,0,0,0,.32-0.69,6.14,6.14,0,0,1,.64-1.07,13.18,13.18,0,0,0,.92-1.79c0.15-.35.25-0.76,0.41-1.09a3.69,3.69,0,0,1,.24-0.34,3.84,3.84,0,0,1,.22-0.47,0.71,0.71,0,0,1,.61,0,2.71,2.71,0,0,1,0,.72c0.12,0.37.65,0.15,0.86,0a1.49,1.49,0,0,0,.64-0.6,2.76,2.76,0,0,1,.72-0.69,2.84,2.84,0,0,1,.78-0.56c0.26-.09.35-0.12,0.41,0.23a1.34,1.34,0,0,1-.07.66,1.44,1.44,0,0,1-.4.36,1.56,1.56,0,0,0-.23.44,1.48,1.48,0,0,0-.24,1.19c0.21,0.05.33,0.16,0.52,0.22s0.38-.08.56,0,0.12,0.15.21,0.18,0.23,0,.34,0a1.16,1.16,0,0,1,.44.32c0.4,0.57-.22.65-0.45,0.79s-0.33.12-.46,0.21a2.23,2.23,0,0,0-.46.78,6.21,6.21,0,0,0-.44,1.22c-0.16.86,0.52,0.48,0.89,0.58a5.51,5.51,0,0,0,.62.16,1.23,1.23,0,0,1,.47.19,1.56,1.56,0,0,1,.45.22,1.8,1.8,0,0,1,0,.86c-0.24.29-.89-0.14-1.18,0.06a4.37,4.37,0,0,0-.33.47c-0.2.2-.45,0.27-0.66,0.45-0.43.39-.05,1.1-0.43,1.4a2.17,2.17,0,0,1-1.44,0c-0.33-.13-0.57-0.68-0.88-0.84a2.93,2.93,0,0,0-.59,0,1.46,1.46,0,0,0-.61-0.19h-1.23a1.59,1.59,0,0,0-1.09.64,7.46,7.46,0,0,0-.44.6,2.74,2.74,0,0,1-.41.36,1.26,1.26,0,0,1-.51.43,3.42,3.42,0,0,1-.75,0,1.4,1.4,0,0,0-.73,0,2.64,2.64,0,0,0,0,.89c0,0.67,0,1.35,0,2s0,1.29,0,2a0.93,0.93,0,0,0,.12.74,7.55,7.55,0,0,0,1,.37c0.15,0.13.28,0.41,0.44,0.51a1.43,1.43,0,0,0,.76,0,2.29,2.29,0,0,1,.86,0c0.3,0.18,0,.72.2,1s1.22,0.1,1.56.1a0.91,0.91,0,0,0,.61-0.18,7.31,7.31,0,0,0,.65-0.51c0.09-.07.19-0.1,0.27-0.17s0.18-.26.27-0.34a1.51,1.51,0,0,1,.62-0.12c0.44-.18.84-0.71,1.29-0.84s1,0,1.47-.18a1.11,1.11,0,0,1,.8,0,0.9,0.9,0,0,1,0,.34c0,0.45,0,.24-0.28.37a10.53,10.53,0,0,0-1.37.32c-0.17.12-1.17,1-.93,1.31a1.28,1.28,0,0,0,.66,0h0.82a11.12,11.12,0,0,1,1.64,0,2.56,2.56,0,0,1,1.29.65,5.06,5.06,0,0,0,.51.41,1.37,1.37,0,0,1,.47.64c0.18,0.44.3,0.63-.1,0.7a1.45,1.45,0,0,1-1-.14,1.4,1.4,0,0,0-.81-0.23h-0.27a1.17,1.17,0,0,1-.44-0.14,3.34,3.34,0,0,0-.92,0,1.57,1.57,0,0,0-.8,0c-0.35.46,0.75,1,.78,1.41a2.39,2.39,0,0,1-.87,0,3.25,3.25,0,0,1-.48,0,1.9,1.9,0,0,1-.35-0.17c-0.15,0-.29,0-0.43-0.06a1.14,1.14,0,0,0-.3-0.15,4.32,4.32,0,0,1-.47,0,1.49,1.49,0,0,0-.42-0.17,3,3,0,0,0-.89,0,1,1,0,0,0-.28,1.13,1,1,0,0,1,.07.9,1.8,1.8,0,0,1-.94,0,2,2,0,0,1-.17-0.41,1.89,1.89,0,0,0-.21-0.27,5.68,5.68,0,0,0-.61-0.65,4.14,4.14,0,0,0-1.16-1c-0.4-.09-0.16.3-0.1,0.6a5.43,5.43,0,0,1,.13,1.11c0,0.5,0,.72-0.41.65a0.83,0.83,0,0,1-.58-0.51,6.28,6.28,0,0,1-.64-1.89,2.43,2.43,0,0,0-.3-1.06,1.36,1.36,0,0,0-.79-0.41v7.73a20.41,20.41,0,0,0,0,2.92,2.23,2.23,0,0,0,1.45-.2,2.11,2.11,0,0,0,.85-0.88c0.25-.27.61-0.39,0.88-0.66s0.86-.13,1.27-0.42a2.65,2.65,0,0,1-.13,1.05l-0.11,0a5.22,5.22,0,0,0,1.35.28,3,3,0,0,0,1-.37,6.78,6.78,0,0,0,.71-0.79c0.29-.29.73-0.36,1-0.63s0.51-.73.77-0.51a1.93,1.93,0,0,1,.1.69,0.37,0.37,0,0,0,.38.23,18.34,18.34,0,0,0,2.45,0,3.51,3.51,0,0,1,0,.7l-0.11,0c0.78,0,1.57.17,2.35,0.18a1,1,0,0,0,.4-0.15c0.1,0,.19,0,0.29,0l0.22-.14a2.41,2.41,0,0,0,.41-0.24c0.12-.1.21-0.3,0.33-0.39a0.81,0.81,0,0,1,.26-0.06,0.79,0.79,0,0,1,.12-0.11,1.3,1.3,0,0,1,.52,0c0.25,0,.24.21,0.2,0.56a1,1,0,0,1-.2.55,2.07,2.07,0,0,0-.6.82c-0.06.34,0.08,0.24,0.27,0.31a1.12,1.12,0,0,0,.22.11,2.07,2.07,0,0,0,.36,0,1.5,1.5,0,0,1,.26,0,1.37,1.37,0,0,1,.22.11c0.16,0,.34,0,0.49,0s0.24,0.13.38,0.18a0.93,0.93,0,0,1,.41.28,8.39,8.39,0,0,0,.67.62,2,2,0,0,1,.46.9c0,0.28-.09.29-0.29,0.24a2.28,2.28,0,0,1-.51-0.16c-0.15-.07-0.28-0.3-0.43-0.36a4.19,4.19,0,0,0-.49-0.17,8.49,8.49,0,0,0-2.25-.14,2.3,2.3,0,0,0-.59,0,3.08,3.08,0,0,0-.43.25,1.31,1.31,0,0,0-.8.58,1.74,1.74,0,0,0,.26,1.39,3.17,3.17,0,0,1,.63.9,3,3,0,0,1-1,0,1.77,1.77,0,0,1-.88-0.53,2.13,2.13,0,0,0-.86-0.43,1.65,1.65,0,0,0-1,.08,5.59,5.59,0,0,0,0,1.31c0,0.74-.58.34-0.82,0a1.81,1.81,0,0,0-.32-0.41,1.41,1.41,0,0,1-.32-0.38,1.78,1.78,0,0,0-.39-0.41c-0.15-.15-0.28-0.39-0.43-0.56a2.26,2.26,0,0,0-1.61-.86h-1a1.31,1.31,0,0,0-.95.1,1,1,0,0,0-.07.59c0,0.31,0,.37-0.2.42a2,2,0,0,1-.51,0c-0.18,0-.33-0.13-0.51-0.14a8.29,8.29,0,0,1-1.84-.85,3.45,3.45,0,0,0-.61-0.1,2.83,2.83,0,0,1-.49-0.17,0.76,0.76,0,0,0-.12-0.11,1.1,1.1,0,0,0-.31,0,1.17,1.17,0,0,0-.6,0,0.86,0.86,0,0,0,.08.61,5.65,5.65,0,0,1,0,.75q0,0.83,0,1.66a10,10,0,0,0,.1,1c0,0.21.09,0.37,0.12,0.59a2.57,2.57,0,0,1,.63.32c0.35,0.16.68,0.42,1,.61a3,3,0,0,1,.55.27,1.36,1.36,0,0,0,.38.22,3.13,3.13,0,0,0,.71.25c0.21,0,.42,0,0.63,0a4,4,0,0,1,.63.24c0.19,0.06.33,0.22,0.51,0.28a3.47,3.47,0,0,1,.38.09,3.29,3.29,0,0,0,.46.21c0.27,0.09.53,0.22,0.81,0.29a4.36,4.36,0,0,1,.63,0,1,1,0,0,0,.4.11,4.37,4.37,0,0,1,1.63.07c0.22,0.09.42,0.38,0.64,0.45a2.32,2.32,0,0,0,.74,0,6,6,0,0,0,1.87,0,2.2,2.2,0,0,0,.56-0.49c0.23-.21.47-0.38,0.69-0.61a3.36,3.36,0,0,0,.4-0.42,2.18,2.18,0,0,1,.12-0.32,2.54,2.54,0,0,0,.5-0.42,1.44,1.44,0,0,1,.22-0.44,1.29,1.29,0,0,1,.28-0.2c0.24-.15.46-0.38,0.69-0.53a4.13,4.13,0,0,1,.67-0.4,0.52,0.52,0,0,1,.36-0.14,1,1,0,0,1,.06.55,1.07,1.07,0,0,1-.34.65,1.6,1.6,0,0,0-.18.87,1,1,0,0,0,1.07,1.1,0.76,0.76,0,0,0,.66-0.31,7.21,7.21,0,0,1,.51-0.6,3.09,3.09,0,0,0,.54-0.3,1.55,1.55,0,0,1,.48-0.6,0.57,0.57,0,0,1,.63.14c0.08,0.35-.28.41-0.4,0.59a2.19,2.19,0,0,0-.23,1.08c0.07,0.21.16,0.09,0.31,0.12a2.71,2.71,0,0,0,.41.15c0.3,0,.51.14,0.82,0.13h0.87c0.21,0,.61-0.12.67,0.27s-0.46.28-.67,0.28a4,4,0,0,0-.87,0c-0.28.07-.53,0.22-0.8,0.31a0.89,0.89,0,0,1-.12.32,1.23,1.23,0,0,0-.1.49,2.36,2.36,0,0,1-.15.9,0.42,0.42,0,0,1-.51.34,2,2,0,0,1-.77,0c-0.1,0-.17-0.2-0.26-0.24s-0.23,0-.35,0-0.21-.18-0.33-0.22-0.31,0-.46-0.06-0.15-.24-0.24,0a1.92,1.92,0,0,0,0,.43,3.11,3.11,0,0,0,.26.69,1.31,1.31,0,0,1,0,.84,1,1,0,0,1-.66.27,1.53,1.53,0,0,0-.31.13c-0.13,0-.25,0-0.38,0a1.53,1.53,0,0,0-.23.17,0.73,0.73,0,0,0-.21.43,11,11,0,0,0-.45,1.22c-0.07.34-.08,0.72-0.17,1-0.2.77-.89,0.26-1.32,0.41-0.28.1-.32,0.7-0.56,0.22a2.3,2.3,0,0,0-.21-0.49,3,3,0,0,0-.31-0.27c-0.25-.21-0.58-0.14-0.81-0.35a2.88,2.88,0,0,0-.53-0.6,4.64,4.64,0,0,1-.36.94,0.52,0.52,0,0,1-.41-0.22c-0.16-.15-0.31-0.28-0.49-0.42a1.18,1.18,0,0,0-.51-0.2,2,2,0,0,0-1.13-.39c-0.3.09-.18,0.39-0.2,0.7s-0.19.27-.46,0.27a4.53,4.53,0,0,1-1.44-.13,4.48,4.48,0,0,0-1.42-.56h-1.72a0.85,0.85,0,0,0-1.08.81,0.92,0.92,0,0,1,.3,0,2.1,2.1,0,0,1,.3.36,6.92,6.92,0,0,1,1.35,1.71,1.32,1.32,0,0,0,.43.53c0.17,0.12.36,0.15,0.53,0.27a2,2,0,0,0,.5.41,2.17,2.17,0,0,1,.75.22,1.49,1.49,0,0,0,.72.21,5.86,5.86,0,0,1,1.39.34,10.43,10.43,0,0,0,1.41.36,5.9,5.9,0,0,0,1.09.26h2a1.8,1.8,0,0,0,1.11-.45,5.14,5.14,0,0,1,.59-0.27,4.1,4.1,0,0,1,.75-0.1c0.32-.1.63-0.47,1-0.56s0.46,0.15.37,0.56a0.72,0.72,0,0,1-.41.41c-0.08.07-.16,0.15-0.25,0.21s-0.12,0-.16.06-0.09.14-.16,0.2a0.76,0.76,0,0,0-.44.47,1.75,1.75,0,0,1,.45.31,1.3,1.3,0,0,0,.61.28,2,2,0,0,1,.61.12,3.05,3.05,0,0,0,.84,0,3,3,0,0,0,1.32-.35,4.16,4.16,0,0,0,.63-0.34c0.19-.13.38-0.44,0.56-0.53a1.07,1.07,0,0,1,.28,0c0.1,0,.18-0.12.28-0.15a1,1,0,0,1,.65-0.14,1.44,1.44,0,0,1,.14.72,0.7,0.7,0,0,0,.52.4,1.63,1.63,0,0,0,.63.13,1.58,1.58,0,0,1,.6.28,5.11,5.11,0,0,0,1.1.66c0.19,0.07.4,0,.59,0.06a2,2,0,0,1,.69.52,0.75,0.75,0,0,1,.28.76,1,1,0,0,1-.71.08,2,2,0,0,0-1.43.28,1.47,1.47,0,0,0-.49.52,0.92,0.92,0,0,0,.14.72c0.05,0.39-.21.24-0.39,0.31a0.72,0.72,0,0,1-.12.11c-0.05,0-.11,0-0.16,0a0.41,0.41,0,0,0-.23.18,1.38,1.38,0,0,0-.25.74,4.94,4.94,0,0,1-.34.94,1.66,1.66,0,0,1-.66.42,1.39,1.39,0,0,0-.77.7,7.85,7.85,0,0,0-.44.76c-0.12.35-.12,0.42-0.45,0.41h-0.88a1.06,1.06,0,0,0-.94.17,3,3,0,0,0-.23.53c-0.09.18-.23,0.26-0.32,0.42a0.54,0.54,0,0,1-.37.41,1.3,1.3,0,0,1-.65,0c-0.33-.14-0.6-0.54-0.94-0.66a2.28,2.28,0,0,0-.76-0.15,7.32,7.32,0,0,0-1,0,3,3,0,0,0-.37.15,2.33,2.33,0,0,1-.59,0h-1.67c-0.46,0-.9-0.14-1.36-0.15-0.14,0-.38.11-0.42-0.16a4.08,4.08,0,0,0,.78,2,2.43,2.43,0,0,0,.41.6,1.88,1.88,0,0,1,.45.39,1.2,1.2,0,0,0,.51.42,5.92,5.92,0,0,1,.72.69,0.93,0.93,0,0,0,.7.21c0.24,0,.47.09,0.7,0.11a3,3,0,0,1,.89.08,2.82,2.82,0,0,0,1.17.21h1a0.9,0.9,0,0,0,.52-0.06c0.13-.08.22-0.28,0.35-0.38s0.56-.08.83-0.25a1.66,1.66,0,0,0,.5-0.59,4,4,0,0,1,.65-0.73c0.15-.16.28-0.34,0.43-0.48a0.68,0.68,0,0,0,.38-0.53c0.63-.36,0,1.62.28,1.78a1.17,1.17,0,0,0,.43,0h0.6a2.51,2.51,0,0,1,.91-0.12c0.13,0.45-.13.34-0.3,0.47a1.21,1.21,0,0,1-.1.21,1,1,0,0,1-.19.16,3.06,3.06,0,0,0-.15.51,3.83,3.83,0,0,1-.36.64,2.32,2.32,0,0,0-.54.9c0.42,0,.85,0,1.27,0a1.12,1.12,0,0,0,.72-0.42,2.16,2.16,0,0,1,1.38-.69,2.4,2.4,0,0,1,1.36.24c0.2,0.12.33,0.34,0.53,0.47l0.26,0.2a1.14,1.14,0,0,1,.25.27s0,0.14.07,0.18a1.18,1.18,0,0,1,.12.05,1.81,1.81,0,0,0,.27.43,1,1,0,0,0,.72.24h0.66a1.71,1.71,0,0,1,.61.15c0.15,0.05.56,0.08,0.47,0.41s-0.44.11-.62,0.13a2.81,2.81,0,0,0-.64.25,0.61,0.61,0,0,0-.48.47,1.85,1.85,0,0,1-.42.54,1.19,1.19,0,0,1-.36.13,4.34,4.34,0,0,0-.4.62,2.32,2.32,0,0,1-.75.31c-0.26.07-.51-0.08-0.67,0.27a4,4,0,0,0-.17.79,1.09,1.09,0,0,1-.17.76,1.16,1.16,0,0,1-.74.28c-0.27,0-.47.14-0.74,0.13a5.73,5.73,0,0,1-1.61,0c-0.23-.08-0.48-0.18-0.7-0.23s-0.3.27-.25,0.62a0.75,0.75,0,0,0,.31.48c0.13,0.13.24,0.32,0.38,0.45a2.24,2.24,0,0,1,.21.13s0.1,0.27.12,0.33a0.57,0.57,0,0,1,.09.45,1.41,1.41,0,0,1-.29.09c-0.09,0-.22.11-0.31,0.14s-0.22,0-.33.06a3.79,3.79,0,0,0-.38.15,0.41,0.41,0,0,0-.28.17,1.55,1.55,0,0,1-1.15.66h-1.08c-0.38,0-.72-0.14-1.1-0.14h-0.88a2.28,2.28,0,0,0-.8,0,1,1,0,0,1-.22.53,0.4,0.4,0,0,1-.37.27,1.86,1.86,0,0,0,.58.42,2.71,2.71,0,0,1,.43.38,2.12,2.12,0,0,0,.59.34,6.11,6.11,0,0,0,.57.37,5.68,5.68,0,0,0,1.6,0h2.23c0.82,0,1.74.15,2.55,0.14,0.35,0,.62.16,1,0.19s0.64,0,1,0h1.09a3.39,3.39,0,0,0,1,0c0.2-.07.56-0.47,0.69,0a1,1,0,0,1-.49.74,2.63,2.63,0,0,0-.17.41,3.42,3.42,0,0,1-.06.66,0.68,0.68,0,0,1-.79.22,1,1,0,0,0-.79.41,2.29,2.29,0,0,0-.15.51c0.08,0.32.32,0.09,0.47,0.19a1.67,1.67,0,0,1,.2,1.28c0,0.53-.1.7-0.55,0.57a7.27,7.27,0,0,0-1.08-.57,3.22,3.22,0,0,0-1.07.22,7.28,7.28,0,0,0-.16,1.63c0.05,0.68.56,0.7,1,1a1.91,1.91,0,0,0,1.25.32,5.84,5.84,0,0,0,1.73,0,1.31,1.31,0,0,1,.56-0.17,2,2,0,0,0,.7-0.09,4.2,4.2,0,0,0,.93-0.42c0.28-.16.46-0.42,0.74-0.61a2.33,2.33,0,0,1,1.29-.73,5.28,5.28,0,0,1,1.5,0,2.08,2.08,0,0,1-.53,1,1.36,1.36,0,0,0-.27,1.14c0,0.43,0,.86,0,1.29a7.72,7.72,0,0,1-.16,1.26c-0.66,0-.91,1.16-0.95,1.84a0.77,0.77,0,0,1-.39,0c-0.06,0-.28-0.15-0.3-0.15-0.35,0-.29.11-0.41,0.47a1,1,0,0,1-.37.6,1,1,0,0,1-.36,0,1.69,1.69,0,0,0-.6.15,6.28,6.28,0,0,1-.68.23,4,4,0,0,1-.68,0,5.21,5.21,0,0,1-1.16,0,3.72,3.72,0,0,0-1.16-.15,1,1,0,0,0-.65.38,2.4,2.4,0,0,1-.71.41,3.06,3.06,0,0,1-.41.14c-0.08,0-.18-0.07-0.25,0-0.31.45,0.61,1.09,0.77,1.18a2.63,2.63,0,0,1,.46.27,3.52,3.52,0,0,0,.28.33,2.45,2.45,0,0,0,1.08,0,17,17,0,0,1,2.63,0c0.31,0,.58.3,0.89,0.38a1.69,1.69,0,0,1,.36,0c0.13,0.06.24,0.25,0.39,0.31a2.44,2.44,0,0,0,1.84-.15,1.65,1.65,0,0,1,1.36-.15,3,3,0,0,1,.54.51,0.85,0.85,0,0,0,.68.18,4.13,4.13,0,0,0,1.74-.22c0.14-.06.29-0.25,0.44-0.33a1.57,1.57,0,0,1,.82-0.18c0.28,0,1.4-.23,1.06.52a1,1,0,0,1-.41.36c-0.13,0-.27,0-0.38,0a1.09,1.09,0,0,0-.26.29,0.73,0.73,0,0,0-.25.16q0,0.25,0,.5a0.23,0.23,0,0,1-.25.17,2.58,2.58,0,0,0-.53.5c-0.26.28-.55,0.51-0.79,0.83a0.67,0.67,0,0,1-.62.31c-0.15,0-.23.18-0.37,0.2a0.74,0.74,0,0,0-.42.07,1,1,0,0,0-.29.48c0.07,0.33.26,0.1,0.43,0.17a2.34,2.34,0,0,1,.5.61,3.73,3.73,0,0,1,.67.51c-0.62,0-1.24,0-1.86,0a1.3,1.3,0,0,0-1.16.18,0.88,0.88,0,0,0,.35,1.11,2.72,2.72,0,0,1,.67,1.07,1.4,1.4,0,0,1-1.35-.19,2.61,2.61,0,0,0-.81-0.51,4.28,4.28,0,0,0-.77,0,4.43,4.43,0,0,0-1.4,0,3.83,3.83,0,0,0-1,.27,7,7,0,0,1-.55.43,0.53,0.53,0,0,0-.38.22c-0.13.19,0,.22-0.16,0.34a1.5,1.5,0,0,1-.55,0c-2,0-4-.1-5.95-0.17-5.42-.18-10.87-0.07-16.29.13a17.43,17.43,0,0,0-4.25.19,3.74,3.74,0,0,1-1.76-.19,17.42,17.42,0,0,0-6.36-.09,13.78,13.78,0,0,1-2.27.13c-0.44,0-.9,0-1.35,0s-1-.2-1.51-0.2c-1,0-2.57.45-2.48-1.43a2.18,2.18,0,0,1,.22-0.81,9.37,9.37,0,0,0,.17-1.12C172.52,301,172.68,300.08,172.69,299.65Z"/><path class="cls-1" d="M796.12,377.08a0.8,0.8,0,0,1,.11-0.49,0.85,0.85,0,0,1,.42,0,1.32,1.32,0,0,0,.5,0,2.51,2.51,0,0,0,.14-0.44,0.32,0.32,0,0,1,.16-0.06,0.19,0.19,0,0,0,.09-0.16,0.37,0.37,0,0,1,.13-0.07c0.09-.06.21,0,0.28-0.09s0-.09.07-0.11a0.59,0.59,0,0,1,.41-0.07,0.41,0.41,0,0,0,.65-0.28c0-.07.1-0.13,0.15-0.22a1.11,1.11,0,0,1,.3-0.38,1.14,1.14,0,0,1,.81-0.12,0.73,0.73,0,0,0,.43,0s0-.17.07-0.21a0.85,0.85,0,0,1,.08-0.1,0.49,0.49,0,0,1,.53-0.27h0.44a0.56,0.56,0,0,1,.39.2c0.16,0.12.33,0.22,0.49,0.34a0.65,0.65,0,0,0,.3.16,0.44,0.44,0,0,0,.61-0.28,0.76,0.76,0,0,1,.44-0.5,1.72,1.72,0,0,1,.79,0c0.24,0.06.42,0.19,0.59-.09s0-.78.22-0.91a0.61,0.61,0,0,1,.58.23,0.91,0.91,0,0,0,.74.05,0.83,0.83,0,0,0,.14-0.3,1.65,1.65,0,0,1,.21-0.37,5.17,5.17,0,0,0,.43-0.7c0.17-.35.44-0.12,0.7-0.22a2,2,0,0,1-.21-0.24,3.47,3.47,0,0,0-.12-0.34,0.42,0.42,0,0,1,0-.52,0.84,0.84,0,0,1,.59-0.07,1,1,0,0,0,.48-0.1,1.21,1.21,0,0,0,.48-0.2c0.16-.18,0-0.18-0.15-0.25a4.44,4.44,0,0,1-.44-0.35,2.49,2.49,0,0,0-.56-0.31c-0.12,0-.24-0.15-0.36-0.18s-0.15,0-.22,0a1.94,1.94,0,0,0-.59-0.09H806.7a2.05,2.05,0,0,1-.52,0,3.66,3.66,0,0,0-1.14-.3c-0.34,0-.66-0.19-1-0.2a2.91,2.91,0,0,1-.71-0.12,3.73,3.73,0,0,0-1.06-.17,3.27,3.27,0,0,1-.76,0,7.69,7.69,0,0,0-1.79-.08H798.4c-0.25,0-.46-0.09-0.71-0.1s-0.25-.07-0.25-0.35c0-.57.44-0.45,0.73-0.57q0-.08,0-0.16a1.65,1.65,0,0,0,.58-0.22,1.51,1.51,0,0,1,.3-0.19,0.33,0.33,0,0,0,.21-0.09,0.38,0.38,0,0,0,.1-0.21,1,1,0,0,0,.25-0.27,0.32,0.32,0,0,0-.34-0.22,2.33,2.33,0,0,0-.51-0.11c-0.25,0-.43-0.1-0.67-0.1h-0.44a1.21,1.21,0,0,1-.58,0c-0.09-.12.07-0.45,0-0.57a0.38,0.38,0,0,0-.25,0c-0.08,0-.1-0.08-0.18-0.11a1.58,1.58,0,0,0-.45,0,1.09,1.09,0,0,1-.52-0.09c-0.17-.08-0.35-0.09-0.51-0.18s-0.37-.13-0.25-0.32,0.36,0,.31-0.31-0.21-.15-0.36-0.19-0.11-.08-0.18-0.11a0.85,0.85,0,0,0-.26,0,0.31,0.31,0,0,1-.26,0,0.31,0.31,0,0,0-.1-0.16H794a1.1,1.1,0,0,0-.43-0.42,1.07,1.07,0,0,1-.15-0.46,1.14,1.14,0,0,1,.51,0h1a0.82,0.82,0,0,1,.52.17s0.08,0.11.12,0.15a0.42,0.42,0,0,0,.17.07,1.72,1.72,0,0,1,.36.22,1.18,1.18,0,0,0,.51.36,0.56,0.56,0,0,0-.22-0.28c0-.07-0.12,0-0.08-0.21a0.11,0.11,0,0,1,.16-0.1,1.45,1.45,0,0,1,.24.18,1.42,1.42,0,0,0,.35.12,0.83,0.83,0,0,0,.69,0c0.09-.06.16-0.2,0.24-0.27s0.18,0,.32,0a1.1,1.1,0,0,1,.63.17,0.76,0.76,0,0,0,.55.23,1.72,1.72,0,0,1,.46.11,2.44,2.44,0,0,0,.54,0,1.44,1.44,0,0,1,.73.11,1.15,1.15,0,0,1,.26.31,1.12,1.12,0,0,0,.28.37c0.05-.24,0-0.52,0-0.76a1.71,1.71,0,0,1,.18-0.52,1,1,0,0,1,.94,0,5.63,5.63,0,0,1,.85.37,4.55,4.55,0,0,0,.39.3,1,1,0,0,0,.56,0,0.32,0.32,0,0,1,.08-0.29,0.67,0.67,0,0,1,.29,0,1.75,1.75,0,0,0,.5.1,3.33,3.33,0,0,0,1,0,0.55,0.55,0,0,0-.44-0.48c-0.13-.08-0.26-0.19-0.38-0.27a2.81,2.81,0,0,1-1-.52c-0.08-.11-0.08-0.3-0.16-0.41a0.33,0.33,0,0,0-.18-0.12,0.18,0.18,0,0,1,0-.18,2.33,2.33,0,0,0-.37-0.78c-0.08-.08-0.2-0.07-0.28-0.14a0.64,0.64,0,0,0-.16-0.18,1.85,1.85,0,0,0-.56,0,0.57,0.57,0,0,1-.42-0.28c-0.08-.08-0.56-0.37-0.29-0.53s0.52,0.13.45-.29a0.23,0.23,0,0,0-.17-0.2c-0.09-.05-0.14-0.13-0.22-0.18a2.91,2.91,0,0,0-.28-0.09,1.27,1.27,0,0,1-.2-0.15,1,1,0,0,1-.25-0.17s-0.1-.19-0.12-0.25a0.5,0.5,0,0,0-.39-0.35,1.53,1.53,0,0,0-.59-0.16,0.31,0.31,0,0,1-.18-0.06,0.85,0.85,0,0,1-.26-0.17,1.63,1.63,0,0,0-.14-0.16,1,1,0,0,1-.15-0.14,4.4,4.4,0,0,1-.3-0.43,0.59,0.59,0,0,0-.34-0.21c-0.09,0-.16-0.11-0.25-0.14s-0.17,0-.25-0.06a4.93,4.93,0,0,1-.62-0.2,1.21,1.21,0,0,1-.23-0.15,1.85,1.85,0,0,0-.38-0.2l-0.38-.19a1.78,1.78,0,0,1-.2-0.17,1.64,1.64,0,0,1-.42-0.31,1,1,0,0,0-.34-0.27l-0.18-.08a0.24,0.24,0,0,0-.05-0.1,2.94,2.94,0,0,1-.4-0.23,1.52,1.52,0,0,0-.45-0.3,4.07,4.07,0,0,0-.59-0.2,2.39,2.39,0,0,1-.29,0,0.62,0.62,0,0,1-.14-0.14c-0.11-.11-0.24-0.2-0.36-0.3a0.76,0.76,0,0,1-.23-0.23s0-.14-0.06-0.2h1.82c0.27,0,.49-0.13.75-0.13a0.52,0.52,0,0,0,.33,0,0.69,0.69,0,0,0,.2-0.18,1.16,1.16,0,0,1,.25-0.3,0.58,0.58,0,0,1,.38-0.07,0.88,0.88,0,0,1,.3,0c0.07,0,.11.11,0.19,0.15s0.35,0.11.51,0.2,0.18,0.18.27,0.24a0.58,0.58,0,0,1,.3.17c0.05,0.08.09,0.18,0.15,0.25a0.71,0.71,0,0,1,.09.12,0.72,0.72,0,0,0,.11.22l0.1,0.06a1.17,1.17,0,0,0,.36.26,0.77,0.77,0,0,0,.32,0,0.45,0.45,0,0,0,.14-0.15c0.2-.22.47-0.24,0.68-0.44,0,0,0,0,.07-0.07a1.31,1.31,0,0,0,0-.21,0.17,0.17,0,0,1,.15-0.2c0.09,0,.2,0,0.29,0a0.94,0.94,0,0,0,.26-0.24,1,1,0,0,0,.3-0.21c0-.07.05-0.13,0.1-0.2s0.15-.28.24-0.41,0.11-.24.17-0.34a0.23,0.23,0,0,1,.29,0,1.59,1.59,0,0,1,.26.19,0.26,0.26,0,0,0,.06.07,0.48,0.48,0,0,0,.15,0,0.33,0.33,0,0,0,.39-0.17,1.61,1.61,0,0,0,.2-0.56c0-.05,0-0.11,0-0.16s0-.05,0-0.1a0.49,0.49,0,0,1,0-.27l0.1-.13a0.13,0.13,0,0,1,0-.07c0.07-.05.21,0,0.29-0.08s0.07-.14.12-0.17a0.46,0.46,0,0,1,.24,0,2.37,2.37,0,0,0,.56,0s0-.05.08-0.06a0.51,0.51,0,0,1,.15,0c0.07,0,.19,0,0.14-0.12l-0.12-.1-0.08-.09a0.51,0.51,0,0,0-.18-0.15,1.14,1.14,0,0,0-.54-0.07,0.58,0.58,0,0,0-.15,0s0,0.06-.09.07a1.14,1.14,0,0,0-.3.06,0.87,0.87,0,0,1-.49.07,0.45,0.45,0,0,1-.26-0.05,1.56,1.56,0,0,1-.15-0.14,0.33,0.33,0,0,0-.14,0,0.39,0.39,0,0,1-.06-0.05,0.48,0.48,0,0,1-.23-0.12,0.68,0.68,0,0,1,.26-0.43c0.09-.25-0.18-0.23-0.3-0.19a1.44,1.44,0,0,0-.26.17,1.58,1.58,0,0,1-.34.17,0.8,0.8,0,0,0-.24.13s-0.08.11-.12,0.15a1,1,0,0,1-.23.1,1.32,1.32,0,0,0-.43.3,0.2,0.2,0,0,1-.22.1H800.2a1.15,1.15,0,0,1-.54,0,1.6,1.6,0,0,1-.14-0.2,1,1,0,0,0-.2-0.13s-0.06-.1-0.11-0.14a0.29,0.29,0,0,0-.12,0c-0.08,0-.14-0.05-0.22-0.07a0.75,0.75,0,0,1-.15,0,0.31,0.31,0,0,1-.08-0.09l-0.16-.11a1,1,0,0,0-.59-0.13,1.46,1.46,0,0,0,.3-0.27c0.09-.08.13-0.21,0.22-0.3a1,1,0,0,1,.81-0.22,0.7,0.7,0,0,0,.66-0.22c0.1-.14,0-0.38.11-0.47a1,1,0,0,1,.42,0,1.75,1.75,0,0,0,.91-0.09,0.85,0.85,0,0,0,.27-0.69s0-.17.06-0.22a0.43,0.43,0,0,1,0-.18A1.54,1.54,0,0,1,802,346a1,1,0,0,0,.48-0.36c0.13-.18.29-0.3,0.42-0.47a5.12,5.12,0,0,1,.36-0.47,1.2,1.2,0,0,1,.38-0.22,0.34,0.34,0,0,1,.09-0.08s0.1,0,.15,0a3.26,3.26,0,0,0,.36-0.12,1,1,0,0,0,0-.38c0-.49-0.24-0.35-0.52-0.4s-0.18,0-.14-0.24a1.4,1.4,0,0,1,.12-0.29,0.51,0.51,0,0,0,.1-0.43c0-.14-0.1-0.21-0.23-0.15a4.41,4.41,0,0,0-.38.38,1.14,1.14,0,0,0-.26.14,2.22,2.22,0,0,1-.13.22,1.35,1.35,0,0,1-.2.14,0.87,0.87,0,0,1-.57.12h-0.37a1.27,1.27,0,0,1-.37-0.1,3,3,0,0,1-.66,0,1,1,0,0,1,.16-0.28,3.53,3.53,0,0,0,.17-0.35,2.75,2.75,0,0,0,.11-0.35c0-.23,0-0.27-0.15-0.31a0.47,0.47,0,0,0-.32.08,0.38,0.38,0,0,0-.19.07,1.21,1.21,0,0,1-.09.16c-0.06,0-.19,0-0.26.1a2.18,2.18,0,0,1-.33.26c-0.11.06-.23,0.1-0.33,0.17s-0.17.29-.29,0.35a0.62,0.62,0,0,1-.26,0,0.53,0.53,0,0,1-.24-0.08,2,2,0,0,0-.68-0.12,1.43,1.43,0,0,1-.37,0c-0.09,0-.14-0.08-0.22-0.11a1.19,1.19,0,0,1-.54-0.22,4,4,0,0,0-.34-0.39,0.91,0.91,0,0,0-.56-0.09,1,1,0,0,1-.59-0.17c-0.14-.1-0.27-0.15-0.42-0.25a1.73,1.73,0,0,1-.31-0.38,0.52,0.52,0,0,0-.25-0.11c-0.06,0-.13-0.11-0.19-0.14a2.62,2.62,0,0,0-.34-0.1c-0.1,0-.19-0.11-0.29-0.14a2.3,2.3,0,0,0-.63,0h-0.29a0.31,0.31,0,0,1-.26-0.1,0.41,0.41,0,0,0-.33-0.1h-1.47a7.11,7.11,0,0,0,1.82,0,2.75,2.75,0,0,1,.78,0,3,3,0,0,0,.68-0.11,5.77,5.77,0,0,0,.73-0.24,4.29,4.29,0,0,0,.69-0.16c0.22-.12.43-0.37,0.65-0.47a1.09,1.09,0,0,0,.23,0,1.11,1.11,0,0,0,.09-0.12,1,1,0,0,1,.22-0.16,1.43,1.43,0,0,0,.33-0.31,0.44,0.44,0,0,0,.18-0.24,1.65,1.65,0,0,1,0-.25,0.68,0.68,0,0,1,.15-0.17,1.12,1.12,0,0,0,.13-0.23,0.36,0.36,0,0,1,.35-0.19,1.28,1.28,0,0,0,.67-1c0-.14,0-0.19.07-0.26a0.55,0.55,0,0,1,.23,0,1.12,1.12,0,0,0,.29.21,0.57,0.57,0,0,0,.45-0.15c0.12-.13,0-0.35.11-0.45a1,1,0,0,1,.47,0,2.56,2.56,0,0,0,.56,0,0.81,0.81,0,0,0,.46-0.63c0.08-.22.08-0.27,0.28-0.27h0.48a1.11,1.11,0,0,0,.61-0.08c0.07,0,.1,0,0.14-0.12a1.46,1.46,0,0,0,0-.31,0.59,0.59,0,0,1,.12-0.5,4.16,4.16,0,0,1,.5-0.4c0.14-.1.26-0.15,0.41-0.27a2.4,2.4,0,0,1,.37-0.33,0.68,0.68,0,0,0,.37-0.25,1.24,1.24,0,0,0,.22-0.31c0.1-.29,0-0.34-0.22-0.34s-0.21.08-.37,0.25a1,1,0,0,1-.35.25,0.4,0.4,0,0,0-.22.1,1,1,0,0,1-.06.09,0.35,0.35,0,0,1-.1,0,3.62,3.62,0,0,0-.55.19,2.16,2.16,0,0,0-.16.2,0.32,0.32,0,0,1-.22,0,6.23,6.23,0,0,0-1,0c0.08-.11.1-0.32,0.19-0.46s0.16-.19.22-0.3a1.24,1.24,0,0,0,.15-0.34,2.18,2.18,0,0,0,0-.59,0.91,0.91,0,0,0-.43,0,1.05,1.05,0,0,0-.14.21,0.75,0.75,0,0,1-.15.09c-0.1.07-.18,0.15-0.27,0.23a2.74,2.74,0,0,0-.34.25,5.86,5.86,0,0,0-.51.6,0.39,0.39,0,0,1-.27.23,1.32,1.32,0,0,1-.44,0,0.67,0.67,0,0,1-.52-0.7c0-.11.06-0.19,0.08-0.3s0-.2,0-0.3,0.06-.31.09-0.48l0.12,0a4.21,4.21,0,0,0,0-.78,0.42,0.42,0,0,0-.24-0.48,0.55,0.55,0,0,0-.28,0,0.3,0.3,0,0,0-.2.13,1.35,1.35,0,0,1-.4.25,0.79,0.79,0,0,0-.3.09l-0.18.15a2.69,2.69,0,0,1-.4.35,1.66,1.66,0,0,0-.42.25,0.74,0.74,0,0,0-.21.2c-0.06.1,0,.22-0.15,0.24a1.34,1.34,0,0,1,.27-0.68,1.69,1.69,0,0,0,0-.53c0-.18-0.08-0.26-0.09-0.44a1.12,1.12,0,0,0-.41.31,4.24,4.24,0,0,1-.41.45,1.77,1.77,0,0,1-.45.44,1.4,1.4,0,0,0-.21.16s0,0.09-.07.11a0.44,0.44,0,0,1-.14,0c-0.15.07-.31,0.19-0.45,0.27a7.29,7.29,0,0,1-.84.33,1.34,1.34,0,0,1-.58.1,1.4,1.4,0,0,1-.3,0,1.64,1.64,0,0,0-.24-0.12c0-.4-0.14-0.38-0.42-0.38h-1.73a1.57,1.57,0,0,1-.29-0.11c-0.1,0-.22,0-0.32,0a1.56,1.56,0,0,0-.19-0.1c-0.07,0-.16,0-0.23,0s-0.44-.21-0.66-0.28a2.73,2.73,0,0,1-1-.6,1.44,1.44,0,0,1-.4-0.31,2,2,0,0,1,0-.6c0-.53,0-1.06,0-1.59a2.62,2.62,0,0,0,0-.4,0.53,0.53,0,0,1-.08-0.3c0.07-.26.24,0.11,0.36,0.12,0,0.21.13,0.14,0.22,0.23s0.12,0.18.18,0.25a0.62,0.62,0,0,0,.28.26,0.68,0.68,0,0,1,.3.17,3.29,3.29,0,0,0,.44.46,1.76,1.76,0,0,1,.36.17,0.29,0.29,0,0,0,.26.14h0.26a0.49,0.49,0,0,0,.28,0c0.05,0,.07-0.14.13-0.17a0.57,0.57,0,0,1,.48.09,1.14,1.14,0,0,1,.18.11,3.43,3.43,0,0,1,.3.44,0.44,0.44,0,0,0,.44.15h1a0.82,0.82,0,0,1,.44.12,1.33,1.33,0,0,0,.37.18,1.9,1.9,0,0,0,1.08-.15c0.26-.12.48-0.45,0.73-0.54a4.6,4.6,0,0,0,1-.09,0.52,0.52,0,0,0,.21-0.31,0.89,0.89,0,0,1,.14-0.16,1.89,1.89,0,0,1,.22-0.25,0.74,0.74,0,0,1,.26-0.09c0.06,0,.11-0.07.18-0.1a1.83,1.83,0,0,0,.26-0.1,0.62,0.62,0,0,1,.36-0.1,2.19,2.19,0,0,0,.46-0.18,3.92,3.92,0,0,0,.46,0,1.14,1.14,0,0,0,.32-0.32L799,328a0.88,0.88,0,0,0,.09,0,0.93,0.93,0,0,0,0-.13,1.21,1.21,0,0,1,.47-0.75A0.69,0.69,0,0,0,800,327a3.77,3.77,0,0,0,0-.62,0.85,0.85,0,0,1,.28-0.42,3.2,3.2,0,0,0,.28-0.43,0.53,0.53,0,0,0,.17-0.48,1.76,1.76,0,0,0-.19-0.39,1,1,0,0,0-.48,0,1.2,1.2,0,0,0-.56,0,1,1,0,0,1-.51.15h-0.48a3.06,3.06,0,0,1-1.1,0c0-.1.06,0,0.1-0.08l0.1-.19c0-.09.1-0.14,0.15-0.22a1.3,1.3,0,0,0,.08-0.76,1.87,1.87,0,0,0-.21.1c-0.07,0-.15,0-0.22,0a1.23,1.23,0,0,0-.29.21c-0.11.06-.25,0.1-0.37,0.17a1.5,1.5,0,0,1-.37.23,0.62,0.62,0,0,0-.4.12,0.91,0.91,0,0,1-.11.19,0.82,0.82,0,0,1-.22,0,3,3,0,0,1-.8,0,0.56,0.56,0,0,1,.21-0.48,0.47,0.47,0,0,0,0-.51,0.57,0.57,0,0,0-.37.11,1.27,1.27,0,0,0-.32.17c-0.2.16-.41,0.31-0.6,0.48a2.18,2.18,0,0,1-.44.25,0.86,0.86,0,0,0-.24.15c-0.06.06,0,.17-0.15,0.17,0,0.26-.14.19-0.25,0.1a2.63,2.63,0,0,1-.26-0.35,1.72,1.72,0,0,1-.22-0.19c-0.07-.1,0-0.12-0.08-0.18a0.82,0.82,0,0,0-.23,0c-0.28,0-.52-0.11-0.81-0.1a1.12,1.12,0,0,1-.48-0.11l-0.26-.1a1.84,1.84,0,0,1-.22-0.17,5.8,5.8,0,0,1-.6-0.39,4,4,0,0,0-.68-0.37,1.87,1.87,0,0,1-.77-0.7,0.94,0.94,0,0,0-.19-0.29c-0.06-.05-0.13-0.07-0.19-0.12s-0.18-.28-0.28-0.39a0.61,0.61,0,0,1-.29-0.24,4,4,0,0,1,.06-1.33,0.75,0.75,0,0,1,.34.2,3,3,0,0,1,.36.18,5.56,5.56,0,0,0,1.36,1.07,2.5,2.5,0,0,0,.54,0,5.37,5.37,0,0,1,.62.14,9.42,9.42,0,0,0,1.25,0c0.31,0,.74.12,0.79-0.39,0-.32-0.06-0.37.19-0.4a2.14,2.14,0,0,1,.46,0c-0.16-.19-0.8-0.75-0.31-0.94A1.92,1.92,0,0,1,794,320l0.35,0.12c0.08,0,.16.08,0.22,0.1a2.32,2.32,0,0,0,.67,0,3.58,3.58,0,0,0,1.27,0,2.59,2.59,0,0,0-.36-0.67c-0.06-.11-0.07-0.22-0.14-0.34a2.53,2.53,0,0,0-.18-0.24c0.11,0.13.3,0.18,0.43,0.31a1,1,0,0,0,.39.27,1.23,1.23,0,0,1,.47.26,2.7,2.7,0,0,1,.42.26,1,1,0,0,0,.16.32,0.75,0.75,0,0,0,.3,0h0.54c0.24,0,.28-0.05.25-0.4a0.38,0.38,0,0,0-.1-0.29,0.28,0.28,0,0,1-.18-0.17l0-.14c-0.12-.15-0.43-0.19-0.2-0.5,0.1-.13.11,0,0.23-0.09a1.16,1.16,0,0,1,.19-0.14c0.35-.11.77,0.12,1.13,0,0.65-.22,1.05-1,1.71-1.2,0.07-.37,0-0.61-0.28-0.65a1.16,1.16,0,0,1-.3,0,0.87,0.87,0,0,0-.29-0.29c-0.48-.11-1,0.09-1.48,0-0.28,0-.29-0.25-0.34-0.6s-0.12-.57-0.15-0.86a1,1,0,0,0,0-.38,0.6,0.6,0,0,0-.38,0,1.87,1.87,0,0,0-.51.37,4.69,4.69,0,0,1-.54.33,2.57,2.57,0,0,0-.55.57,7.28,7.28,0,0,1-1.05,1.06,4.18,4.18,0,0,0-.41.43,2.07,2.07,0,0,1-.57.3c-0.08,0-.2.09-0.29,0.13l-0.22.1c-0.32.09-.45,0-0.35-0.48l0.16,0c0-.22.55-0.78,0.17-0.78a1.35,1.35,0,0,0-.39.16,2.31,2.31,0,0,0-.29.27,1.91,1.91,0,0,1-.25.25c-0.07,0-.15,0-0.23.09a0.91,0.91,0,0,0-.09.13,0.91,0.91,0,0,1-.76.43c-0.65,0-1.31,0-2,0a5.63,5.63,0,0,1-1.2,0,5.36,5.36,0,0,0-.78-0.24,2.91,2.91,0,0,1-.76,0,7.55,7.55,0,0,1,0-1.18,8.66,8.66,0,0,1,0-1.13c0-.27.26-0.44,0.3-0.72a1.28,1.28,0,0,1,.07-0.44,0.62,0.62,0,0,1,.26-0.25c0.2-.15.4-0.27,0.6-0.43a2.25,2.25,0,0,1,.74-0.47,3.12,3.12,0,0,0,.47,0c0.06,0,.15-0.14.22-0.17a0.51,0.51,0,0,1,.3-0.07,0.6,0.6,0,0,0,.32-0.1c0.12,0,.23,0,0.35-0.06a0.9,0.9,0,0,1,.11-0.11,1.16,1.16,0,0,0,.21,0,1.07,1.07,0,0,0,0-.68,0.35,0.35,0,0,1,.2-0.26l0.29-.14c0.1,0,.21,0,0.3-0.06a1.3,1.3,0,0,1,.3-0.06,0.45,0.45,0,0,0,.29-0.21,1.07,1.07,0,0,1,.28-0.09,0.54,0.54,0,0,1,.11-0.11c0.06,0,.14,0,0.21,0a0.88,0.88,0,0,0,.19-0.21c0.11-.09.25-0.1,0.37-0.18a2.46,2.46,0,0,0,.2-0.19l0.47-.36a2.39,2.39,0,0,0,.5-0.46,1.79,1.79,0,0,0,.54-0.88c-0.09-.35-1.12,0-1.38-0.15a3,3,0,0,0,.37-0.54,1.47,1.47,0,0,1,.22-0.43,3,3,0,0,0,.64-0.87c0-.08.05-0.19,0.09-0.27a1.25,1.25,0,0,0,.13-0.16c0.09-.33-0.22-0.26-0.38-0.21a2.09,2.09,0,0,0-.5.24,0.94,0.94,0,0,1-.37.29l0,0.21a1.12,1.12,0,0,0-.37.26c-0.16.09-.33,0.12-0.49,0.19-0.39.18-.64,0.57-1,0.73a0.72,0.72,0,0,0-.32.17,1.74,1.74,0,0,0-.06.19,0.74,0.74,0,0,1-.33.33,2.06,2.06,0,0,1-.34.15,0.35,0.35,0,0,0-.22.13l-0.17.17a11.06,11.06,0,0,1-1.75,1.06c-0.24.16-.5,0.3-0.73,0.49s-0.36.41-.51,0.27a0.72,0.72,0,0,1-.05-0.46,2,2,0,0,1,.14-1,2.45,2.45,0,0,1,.47-0.5c0.09-.09.22-0.13,0.32-0.23s0.17-.2.27-0.3a1.73,1.73,0,0,0,.3-0.26,1.38,1.38,0,0,1,.27-0.41,5,5,0,0,0,.56-0.6,4.69,4.69,0,0,0,.52-0.52,2.26,2.26,0,0,0,.3-0.9c0-.46-0.28-0.18-0.45,0a7,7,0,0,1-.51.57c-0.17.14-.38,0.22-0.57,0.36a4.9,4.9,0,0,1-.79.47,2.25,2.25,0,0,1-1,.06s-0.06-.13,0-0.13a12.17,12.17,0,0,1,0-1.74,1.9,1.9,0,0,1,.5-0.92,5.37,5.37,0,0,0,.6-0.79c0.23-.48.22-0.72,0.79-0.55s1.5,1.21,1.67.15-1-.83-0.8-2.14a2.76,2.76,0,0,1,.55-1,3.41,3.41,0,0,1,.18-0.55,3.75,3.75,0,0,1,.57-0.23c0.48-.62-0.16-0.81-0.52-0.56s-0.47.5-.72,0.68-0.4.13-.56,0.25a1.86,1.86,0,0,0-.28.48,9.45,9.45,0,0,1-.64.73c-0.23.23-.56,0.29-0.8,0.52a4.61,4.61,0,0,0-.55.78c0-1,0-2.07,0-3.09,0.54-.15.58-1,0.76-1.49a3.57,3.57,0,0,1,.37-0.68,4.63,4.63,0,0,1,.24-0.6,2.61,2.61,0,0,1,.35-0.21c0.35-.32.79-1.39,0-1.29a3.13,3.13,0,0,0-1.23,1,2.94,2.94,0,0,1-.37.81c-0.32.26-.49,0-0.56-0.33a15.49,15.49,0,0,1,0-2.4,11.64,11.64,0,0,0,0-2.54c-0.28-.83-0.68.49-0.8,0.81a12.77,12.77,0,0,0,0,1.73,16.17,16.17,0,0,0-.07,1.73,0.56,0.56,0,0,1-.24.54,0.59,0.59,0,0,1-.57-0.38,2.65,2.65,0,0,0-.33-0.41,5.11,5.11,0,0,1-.51-0.31,0.58,0.58,0,0,0-.25-0.31,0.49,0.49,0,0,0-.31-0.07c-0.21.06-.18,0.36-0.07,0.57a5.82,5.82,0,0,0,.79.93,11.92,11.92,0,0,1,1.39,2,3.55,3.55,0,0,1,.21,1.65c0,0.64,0,1.31,0,2a1.19,1.19,0,0,0-.31-0.47,2.39,2.39,0,0,1-.25-0.46,1.08,1.08,0,0,0-.51-0.51,2.17,2.17,0,0,0-.24-0.71c0-.11-0.06-0.19-0.1-0.3a0.23,0.23,0,0,1-.08-0.16V299c-0.06-.21-0.22-0.36-0.3-0.59a0.81,0.81,0,0,0-.27-0.52,1.27,1.27,0,0,0,.08.65,1.72,1.72,0,0,1,0,.41c-0.06.17-.08,0.1-0.2,0.13a1.79,1.79,0,0,1-1.08-.2c-0.28-.14-0.56-0.3-0.83-0.47a2.35,2.35,0,0,0-.44-0.2,1.06,1.06,0,0,1-.5-0.14,1.08,1.08,0,0,1,.18.38,1.69,1.69,0,0,0,.28.35,2.4,2.4,0,0,1,.64.68,1.5,1.5,0,0,1-.6.7,2.64,2.64,0,0,0-.78.74,3.67,3.67,0,0,0,1.42,0,1.56,1.56,0,0,1,1.41.3s0.11,0.33.11,0.32c0,0.22,0,.14-0.19.18a0.73,0.73,0,0,0-.35.11c-0.11.09-.17,0.21-0.28,0.31a0.52,0.52,0,0,1-.26.11,0.22,0.22,0,0,0-.2.13,1.42,1.42,0,0,0-.3.8c0,0.68.72,0.16,1,.56a0.56,0.56,0,0,0,.16.25,0.4,0.4,0,0,0,.26.12,1,1,0,0,0,.7-0.14c0.31-.19,1-0.54,1.25-0.1a3,3,0,0,1,.12.3,0.77,0.77,0,0,1,.1.33c0,0.32,0,.67,0,1v1.93c0,0.31,0,.62,0,0.93s-0.1.63-.1,1a3.87,3.87,0,0,1,0,.87c-0.08.24-.5,0.12-0.69,0.12a1,1,0,0,1-.59-0.06l-0.2-.2a1.87,1.87,0,0,1-.17-0.31,3,3,0,0,0-.75-0.91c-0.09-.07-0.19-0.08-0.28-0.14a0.76,0.76,0,0,1-.23-0.5,4.43,4.43,0,0,0-.46-0.78,9.51,9.51,0,0,1-.66-1.29c-0.11-.25-0.18-0.55-0.29-0.79a2.66,2.66,0,0,0-.17-0.24,2.77,2.77,0,0,0-.16-0.34,0.51,0.51,0,0,0-.44,0,2,2,0,0,0,0,.52c-0.09.27-.47,0.11-0.62,0a1.07,1.07,0,0,1-.46-0.43,2,2,0,0,0-.52-0.49,2,2,0,0,0-.56-0.4c-0.19-.07-0.25-0.08-0.3.16a1,1,0,0,0,0,.48,1,1,0,0,0,.29.26,1.12,1.12,0,0,1,.17.32,1.07,1.07,0,0,1,.17.86c-0.15,0-.24.12-0.37,0.16s-0.28-.06-0.4,0-0.08.11-.15,0.13-0.16,0-.24,0a0.84,0.84,0,0,0-.32.23c-0.29.41,0.16,0.47,0.33,0.57s0.24,0.09.33,0.15a1.61,1.61,0,0,1,.33.56,4.48,4.48,0,0,1,.32.88c0.12,0.62-.38.35-0.64,0.42a4,4,0,0,1-.44.12,0.89,0.89,0,0,0-.34.14,1.12,1.12,0,0,0-.33.16,1.3,1.3,0,0,0,0,.62c0.17,0.21.64-.1,0.85,0a3.15,3.15,0,0,1,.24.34c0.14,0.15.33,0.19,0.47,0.32,0.31,0.28,0,.79.31,1a1.57,1.57,0,0,0,1,0c0.23-.09.41-0.49,0.63-0.61a2.12,2.12,0,0,1,.42,0,1.05,1.05,0,0,1,.44-0.14h0.88a1.15,1.15,0,0,1,.79.46,5.38,5.38,0,0,1,.32.43,2,2,0,0,0,.29.26,0.91,0.91,0,0,0,.37.31,2.47,2.47,0,0,0,.54,0,1,1,0,0,1,.53,0,1.91,1.91,0,0,1,0,.64c0,0.49,0,1,0,1.46s0,0.93,0,1.46a0.67,0.67,0,0,1-.09.53,5.45,5.45,0,0,1-.7.26c-0.11.09-.2,0.29-0.31,0.37a1,1,0,0,1-.55,0,1.65,1.65,0,0,0-.62,0,2.48,2.48,0,0,0-.14.73,1.85,1.85,0,0,1-1.13.07,0.66,0.66,0,0,1-.44-0.13,5.28,5.28,0,0,1-.47-0.37c-0.06-.05-0.13-0.07-0.2-0.13s-0.13-.18-0.19-0.24a1.09,1.09,0,0,0-.45-0.09c-0.32-.13-0.6-0.51-0.93-0.6s-0.71,0-1.06-.13a0.8,0.8,0,0,0-.57,0,0.65,0.65,0,0,0,0,.25c0,0.33,0,.18.2,0.27a7.6,7.6,0,0,1,1,.23c0.13,0.09.84,0.71,0.67,0.95a0.92,0.92,0,0,1-.48,0h-0.59a8,8,0,0,0-1.18,0,1.85,1.85,0,0,0-.93.47,3.66,3.66,0,0,1-.37.3,1,1,0,0,0-.34.47c-0.13.32-.22,0.45,0.07,0.5a1,1,0,0,0,.69-0.1,1,1,0,0,1,.59-0.17H777a0.84,0.84,0,0,0,.32-0.1,2.41,2.41,0,0,1,.67,0,1.13,1.13,0,0,1,.57,0c0.26,0.33-.54.73-0.56,1a1.73,1.73,0,0,0,.63,0,2.35,2.35,0,0,0,.35,0,1.37,1.37,0,0,0,.25-0.12c0.11,0,.21,0,0.31,0a0.82,0.82,0,0,1,.22-0.11,3.12,3.12,0,0,0,.34,0,1.07,1.07,0,0,1,.3-0.12,2.17,2.17,0,0,1,.64,0,0.76,0.76,0,0,1,.2.81,0.69,0.69,0,0,0-.05.65,1.3,1.3,0,0,0,.68,0,1.41,1.41,0,0,0,.13-0.3,1.37,1.37,0,0,1,.15-0.2,4.1,4.1,0,0,1,.44-0.47,3,3,0,0,1,.84-0.73c0.29-.06.12,0.21,0.07,0.43a3.92,3.92,0,0,0-.1.8c0,0.36,0,.52.3,0.47a0.6,0.6,0,0,0,.42-0.36,4.53,4.53,0,0,0,.46-1.36,1.76,1.76,0,0,1,.22-0.77,1,1,0,0,1,.57-0.3v5.58a14.73,14.73,0,0,1,0,2.1,1.61,1.61,0,0,1-1-.14,1.52,1.52,0,0,1-.61-0.64c-0.18-.2-0.44-0.28-0.64-0.48a3.9,3.9,0,0,0-.92-0.3,1.91,1.91,0,0,0,.1.76l0.08,0a3.77,3.77,0,0,1-1,.2,2.18,2.18,0,0,1-.7-0.27,4.89,4.89,0,0,1-.51-0.57c-0.21-.21-0.53-0.26-0.74-0.46s-0.37-.53-0.56-0.37a1.39,1.39,0,0,0-.07.5,0.26,0.26,0,0,1-.27.16,13.24,13.24,0,0,1-1.77,0,2.54,2.54,0,0,0,0,.51l0.08,0c-0.56,0-1.13.12-1.69,0.13a0.71,0.71,0,0,1-.29-0.1c-0.07,0-.14,0-0.21,0l-0.16-.1a1.74,1.74,0,0,1-.3-0.17c-0.08-.07-0.15-0.21-0.24-0.28a0.58,0.58,0,0,0-.19,0,0.57,0.57,0,0,0-.09-0.08,0.94,0.94,0,0,0-.37,0c-0.18,0-.17.15-0.15,0.4a0.72,0.72,0,0,0,.15.4,1.5,1.5,0,0,1,.43.59c0,0.25-.06.18-0.19,0.22a0.81,0.81,0,0,1-.16.08,1.49,1.49,0,0,1-.26,0,1.08,1.08,0,0,0-.19,0,1,1,0,0,0-.16.08c-0.12,0-.24,0-0.36,0s-0.17.09-.27,0.13a0.67,0.67,0,0,0-.29.2,6.05,6.05,0,0,1-.48.45,1.42,1.42,0,0,0-.33.65c0,0.2.06,0.21,0.21,0.18a1.64,1.64,0,0,0,.37-0.12c0.11-.05.2-0.22,0.31-0.26l0.35-.12a6.13,6.13,0,0,1,1.62-.1,1.66,1.66,0,0,1,.43,0,2.23,2.23,0,0,1,.31.18,0.94,0.94,0,0,1,.58.42,1.25,1.25,0,0,1-.19,1,2.29,2.29,0,0,0-.45.65,2.17,2.17,0,0,0,.73,0,1.27,1.27,0,0,0,.64-0.39,1.54,1.54,0,0,1,.62-0.31,1.19,1.19,0,0,1,.73.06,4,4,0,0,1,0,.94c0,0.53.42,0.24,0.59,0a1.31,1.31,0,0,1,.23-0.3,1,1,0,0,0,.23-0.27,1.29,1.29,0,0,1,.28-0.3c0.11-.11.2-0.28,0.31-0.4a1.63,1.63,0,0,1,1.16-.62h0.74a0.94,0.94,0,0,1,.69.07,0.72,0.72,0,0,1,.05.43c0,0.23,0,.27.15,0.3a1.47,1.47,0,0,0,.37,0c0.13,0,.24-0.1.37-0.1a6,6,0,0,0,1.33-.62,2.49,2.49,0,0,1,.44-0.08,2,2,0,0,0,.35-0.12,0.55,0.55,0,0,1,.09-0.08,0.79,0.79,0,0,1,.22,0,0.84,0.84,0,0,1,.43,0,0.62,0.62,0,0,1-.06.44,4.08,4.08,0,0,0,0,.54q0,0.6,0,1.2a7.21,7.21,0,0,1-.07.75c0,0.15-.06.27-0.09,0.43a1.86,1.86,0,0,0-.46.23c-0.25.12-.49,0.3-0.74,0.44a2.19,2.19,0,0,0-.4.2,1,1,0,0,1-.28.16,2.26,2.26,0,0,1-.51.18c-0.15,0-.3,0-0.45,0a2.86,2.86,0,0,0-.45.17c-0.13,0-.24.16-0.36,0.2a2.5,2.5,0,0,0-.27.06,2.38,2.38,0,0,1-.33.15c-0.2.06-.39,0.16-0.59,0.21a3.15,3.15,0,0,0-.45,0,0.69,0.69,0,0,1-.29.08,3.15,3.15,0,0,0-1.18,0c-0.16.07-.31,0.27-0.46,0.33a1.67,1.67,0,0,1-.53,0,4.31,4.31,0,0,1-1.35,0,1.59,1.59,0,0,1-.4-0.35c-0.17-.15-0.34-0.27-0.5-0.44a2.42,2.42,0,0,1-.29-0.3,1.57,1.57,0,0,0-.08-0.23,1.83,1.83,0,0,1-.36-0.3,1,1,0,0,0-.16-0.32,0.93,0.93,0,0,0-.2-0.14c-0.17-.11-0.33-0.27-0.5-0.38a3,3,0,0,0-.48-0.29,0.37,0.37,0,0,0-.26-0.1,0.69,0.69,0,0,0,0,.4,0.77,0.77,0,0,0,.24.47,1.15,1.15,0,0,1,.13.62,0.72,0.72,0,0,1-.77.8,0.55,0.55,0,0,1-.48-0.22,5.21,5.21,0,0,0-.37-0.43,2.23,2.23,0,0,1-.39-0.22,1.12,1.12,0,0,0-.34-0.43,0.41,0.41,0,0,0-.45.1c-0.06.26,0.2,0.29,0.29,0.43a1.58,1.58,0,0,1,.17.78c-0.05.15-.11,0.06-0.23,0.09a2,2,0,0,1-.29.11c-0.22,0-.37.1-0.59,0.1H769c-0.15,0-.44-0.09-0.48.2s0.33,0.2.48,0.2a2.86,2.86,0,0,1,.63,0c0.2,0,.38.16,0.58,0.22a0.64,0.64,0,0,0,.09.23,0.89,0.89,0,0,1,.08.36,1.71,1.71,0,0,0,.11.65,0.3,0.3,0,0,0,.37.25,1.43,1.43,0,0,0,.55,0c0.07,0,.12-0.14.19-0.17s0.17,0,.25,0,0.15-.13.24-0.16,0.22,0,.34,0,0.11-.18.17,0a1.38,1.38,0,0,1,0,.31,2.25,2.25,0,0,1-.19.49,1,1,0,0,0,0,.6,0.71,0.71,0,0,0,.48.19,1.11,1.11,0,0,1,.23.09c0.09,0,.18,0,0.27,0a1.1,1.1,0,0,1,.16.12,0.53,0.53,0,0,1,.15.31,8,8,0,0,1,.33.88c0.05,0.24.06,0.52,0.12,0.75,0.14,0.55.64,0.18,0.95,0.29s0.23,0.5.4,0.16a1.66,1.66,0,0,1,.15-0.36,2.19,2.19,0,0,1,.22-0.2c0.18-.15.42-0.1,0.59-0.25a2.08,2.08,0,0,1,.38-0.43,3.35,3.35,0,0,0,.26.68,0.37,0.37,0,0,0,.3-0.16l0.35-.3a0.85,0.85,0,0,1,.36-0.15,1.45,1.45,0,0,1,.81-0.28c0.21,0.06.13,0.29,0.14,0.51s0.13,0.2.33,0.2a3.27,3.27,0,0,0,1-.1,3.23,3.23,0,0,1,1-.4h1.24a0.61,0.61,0,0,1,.78.59,0.66,0.66,0,0,0-.22,0,1.51,1.51,0,0,0-.22.26,5,5,0,0,0-1,1.24,1,1,0,0,1-.31.38c-0.12.09-.26,0.11-0.38,0.2a1.41,1.41,0,0,1-.36.3,1.57,1.57,0,0,0-.54.16,1.07,1.07,0,0,1-.52.15,4.23,4.23,0,0,0-1,.25,7.53,7.53,0,0,1-1,.26,4.26,4.26,0,0,1-.79.19H775.7a1.3,1.3,0,0,1-.8-0.33,3.71,3.71,0,0,0-.43-0.2,3,3,0,0,0-.54-0.07c-0.23-.07-0.46-0.34-0.69-0.41s-0.33.1-.26,0.41a0.52,0.52,0,0,0,.3.29l0.18,0.15s0.08,0,.12,0,0.06,0.1.11,0.14a0.55,0.55,0,0,1,.32.34,1.26,1.26,0,0,0-.32.22,0.94,0.94,0,0,1-.44.2,1.45,1.45,0,0,0-.44.09,2.2,2.2,0,0,1-.61,0,2.17,2.17,0,0,1-.95-0.25,3,3,0,0,1-.45-0.24c-0.14-.09-0.28-0.32-0.41-0.39a0.78,0.78,0,0,0-.21,0c-0.07,0-.13-0.08-0.2-0.11a0.7,0.7,0,0,0-.47-0.1,1,1,0,0,0-.1.52,0.5,0.5,0,0,1-.37.29,1.18,1.18,0,0,1-.45.1,1.14,1.14,0,0,0-.43.2,3.69,3.69,0,0,1-.79.48c-0.14,0-.29,0-0.42,0a1.45,1.45,0,0,0-.5.37,0.54,0.54,0,0,0-.2.55,0.7,0.7,0,0,0,.51.05,1.44,1.44,0,0,1,1,.2,1.06,1.06,0,0,1,.35.37,0.67,0.67,0,0,1-.1.52c0,0.28.15,0.18,0.28,0.22a0.52,0.52,0,0,0,.09.08s0.08,0,.12,0a0.3,0.3,0,0,1,.16.13,1,1,0,0,1,.18.53,3.56,3.56,0,0,0,.25.68,1.2,1.2,0,0,0,.47.31,1,1,0,0,1,.55.5,5.67,5.67,0,0,1,.32.55c0.09,0.25.09,0.3,0.32,0.3h0.63a0.76,0.76,0,0,1,.68.12,2.14,2.14,0,0,1,.16.38c0.07,0.13.17,0.19,0.23,0.31a0.39,0.39,0,0,0,.27.3,0.94,0.94,0,0,0,.47,0c0.23-.1.43-0.39,0.68-0.47a1.64,1.64,0,0,1,.55-0.11,5.29,5.29,0,0,1,.75,0,2.16,2.16,0,0,1,.26.11,1.68,1.68,0,0,0,.42,0h1.2c0.33,0,.65-0.1,1-0.11,0.1,0,.27.08,0.3-0.12a2.94,2.94,0,0,1-.56,1.45,1.75,1.75,0,0,1-.29.43,1.36,1.36,0,0,0-.33.28,0.87,0.87,0,0,1-.37.31,4.27,4.27,0,0,0-.52.5,0.67,0.67,0,0,1-.51.15c-0.17,0-.34.07-0.51,0.08a2.15,2.15,0,0,0-.64.05,2,2,0,0,1-.85.15h-0.7a0.65,0.65,0,0,1-.38,0c-0.09-.06-0.16-0.2-0.25-0.27s-0.41-.06-0.6-0.18a1.2,1.2,0,0,1-.36-0.43,2.89,2.89,0,0,0-.47-0.53c-0.11-.11-0.2-0.25-0.31-0.35a0.49,0.49,0,0,1-.28-0.38c-0.45-.26,0,1.17-0.2,1.29a0.84,0.84,0,0,1-.31,0h-0.43a1.81,1.81,0,0,0-.65-0.08c-0.09.32,0.09,0.25,0.21,0.34a0.87,0.87,0,0,0,.07.15l0.14,0.11a2.21,2.21,0,0,1,.11.37,2.77,2.77,0,0,0,.26.46,1.67,1.67,0,0,1,.39.65c-0.31,0-.61,0-0.92,0a0.81,0.81,0,0,1-.52-0.3,1.56,1.56,0,0,0-1-.5,1.73,1.73,0,0,0-1,.17c-0.14.09-.24,0.25-0.38,0.34l-0.19.14a0.82,0.82,0,0,0-.18.2s0,0.1-.05.13a0.85,0.85,0,0,0-.09,0,1.31,1.31,0,0,1-.19.31,0.69,0.69,0,0,1-.52.17h-0.48a1.24,1.24,0,0,0-.44.11c-0.11,0-.4.06-0.34,0.29s0.32,0.08.45,0.09a2,2,0,0,1,.46.18,0.44,0.44,0,0,1,.35.34,1.34,1.34,0,0,0,.31.39,0.86,0.86,0,0,0,.26.1,3.13,3.13,0,0,1,.29.45,1.67,1.67,0,0,0,.54.22c0.19,0.05.37-.06,0.48,0.2a2.89,2.89,0,0,1,.12.57,0.79,0.79,0,0,0,.12.55,0.84,0.84,0,0,0,.53.2c0.19,0,.34.1,0.53,0.1a4.14,4.14,0,0,0,1.16,0c0.17-.05.34-0.13,0.5-0.17s0.22,0.2.18,0.44a0.54,0.54,0,0,1-.22.35c-0.09.09-.18,0.23-0.27,0.33a1.62,1.62,0,0,0-.15.09s-0.07.2-.09,0.24a0.41,0.41,0,0,0-.06.33,1,1,0,0,0,.21.06l0.22,0.1c0.08,0,.16,0,0.24,0a2.74,2.74,0,0,1,.27.11,0.29,0.29,0,0,1,.2.12,1.12,1.12,0,0,0,.83.47H772c0.27,0,.52-0.1.8-0.1h0.63a1.64,1.64,0,0,1,.58,0,0.7,0.7,0,0,0,.16.38,0.29,0.29,0,0,0,.27.2,1.35,1.35,0,0,1-.42.3,2,2,0,0,0-.31.27,1.53,1.53,0,0,1-.43.24,4.41,4.41,0,0,1-.41.27,4.1,4.1,0,0,1-1.15,0H770.1c-0.59,0-1.25.11-1.84,0.1-0.25,0-.45.12-0.69,0.14s-0.46,0-.69,0H766.1a2.45,2.45,0,0,1-.69,0c-0.15,0-.4-0.34-0.5,0a0.74,0.74,0,0,0,.36.53,1.9,1.9,0,0,1,.12.3,2.47,2.47,0,0,0,0,.47,0.49,0.49,0,0,0,.57.16,0.72,0.72,0,0,1,.57.29,1.65,1.65,0,0,1,.11.37c-0.06.23-.23,0.06-0.34,0.14a1.2,1.2,0,0,0-.14.92c0,0.38.07,0.51,0.39,0.41a5.25,5.25,0,0,1,.78-0.41,2.33,2.33,0,0,1,.77.16,5.25,5.25,0,0,1,.12,1.18,0.89,0.89,0,0,1-.69.69,1.38,1.38,0,0,1-.9.23,4.21,4.21,0,0,1-1.25,0,1,1,0,0,0-.4-0.12,1.47,1.47,0,0,1-.51-0.06,3,3,0,0,1-.67-0.3c-0.2-.12-0.33-0.3-0.53-0.44a1.68,1.68,0,0,0-.93-0.52,3.81,3.81,0,0,0-1.08,0,1.5,1.5,0,0,0,.38.75,1,1,0,0,1,.2.83c0,0.31,0,.62,0,0.93a5.57,5.57,0,0,0,.12.91c0.47,0,.65.84,0.69,1.33a0.56,0.56,0,0,0,.28,0s0.2-.11.22-0.11c0.25,0,.21.08,0.3,0.34a0.7,0.7,0,0,0,.27.43,0.71,0.71,0,0,0,.26,0,1.22,1.22,0,0,1,.44.11,4.53,4.53,0,0,0,.49.16,2.85,2.85,0,0,0,.49,0,3.76,3.76,0,0,0,.84,0,2.69,2.69,0,0,1,.84-0.11,0.75,0.75,0,0,1,.47.27,1.73,1.73,0,0,0,.51.29,2.21,2.21,0,0,0,.3.1c0.05,0,.13-0.05.18,0,0.23,0.33-.44.78-0.55,0.85a1.9,1.9,0,0,0-.33.19,2.54,2.54,0,0,1-.2.24,1.77,1.77,0,0,1-.78,0,12.27,12.27,0,0,0-1.9,0c-0.23,0-.42.22-0.64,0.28a1.22,1.22,0,0,0-.26,0c-0.09,0-.17.18-0.28,0.22a1.76,1.76,0,0,1-1.33-.11,1.19,1.19,0,0,0-1-.11,2.17,2.17,0,0,0-.39.37,0.62,0.62,0,0,1-.49.13,3,3,0,0,1-1.26-.16c-0.1,0-.21-0.18-0.31-0.24a1.13,1.13,0,0,0-.59-0.13c-0.2,0-1-.17-0.77.37a0.7,0.7,0,0,0,.3.26c0.09,0,.19,0,0.28,0a0.79,0.79,0,0,1,.19.21,0.53,0.53,0,0,1,.18.12q0,0.18,0,.36a0.17,0.17,0,0,0,.18.12,1.86,1.86,0,0,1,.38.36c0.19,0.2.39,0.37,0.57,0.6a0.49,0.49,0,0,0,.45.23c0.11,0,.17.13,0.26,0.15a0.54,0.54,0,0,1,.3,0,0.69,0.69,0,0,1,.21.35c0,0.24-.19.07-0.31,0.12a1.69,1.69,0,0,0-.36.44,2.69,2.69,0,0,0-.48.37c0.45,0,.9,0,1.35,0a0.94,0.94,0,0,1,.84.13,0.64,0.64,0,0,1-.25.8,2,2,0,0,0-.48.77,1,1,0,0,0,1-.14,1.88,1.88,0,0,1,.59-0.37,3.09,3.09,0,0,1,.55,0,3.19,3.19,0,0,1,1,0,2.76,2.76,0,0,1,.7.2,5,5,0,0,0,.4.31,0.38,0.38,0,0,1,.27.16c0.09,0.14,0,.16.11,0.25a1.08,1.08,0,0,0,.4,0c1.43,0,2.86-.07,4.29-0.12,3.91-.13,7.85-0.05,11.76.09a12.58,12.58,0,0,1,3.07.13,2.7,2.7,0,0,0,1.27-.14,12.57,12.57,0,0,1,4.59-.07,9.94,9.94,0,0,0,1.64.1c0.32,0,.65,0,1,0s0.71-.15,1.09-0.14c0.69,0,1.85.33,1.79-1a1.58,1.58,0,0,0-.16-0.59,6.76,6.76,0,0,1-.12-0.81C796.24,378.07,796.12,377.39,796.12,377.08Z"/><path class="cls-1" d="M122.74,279.85a5.68,5.68,0,0,0-1,3.2v0.06a0.77,0.77,0,0,0,.78.78H139a0.77,0.77,0,0,0,.78-0.78v-0.06a5.74,5.74,0,0,0-1.63-4c1.13-3.09,3.82-7.06,10.14-10,0,0-7.62.56-12,8.77a4.9,4.9,0,0,0-.92-0.31c1-3.15,3.65-7.4,10.32-10.54a15.28,15.28,0,0,0-9,4.63,25.27,25.27,0,0,1,11.07-10.21s-6.21.42-14.39,11.7a21.68,21.68,0,0,1,0-9.16,22.72,22.72,0,0,1,5.74-8.24s-6.77,2.73-11.07,19.14a16.09,16.09,0,0,0-4-7,17.37,17.37,0,0,1,1.6-7s-1.68,1.65-2.34,6.3a10.58,10.58,0,0,0-1.68-1.27,25.48,25.48,0,0,1,1.57,2.11,37,37,0,0,0,.14,8.3A15.75,15.75,0,0,0,112.34,269C119.22,272.27,121.79,276.67,122.74,279.85Zm1.37-10.57a17.47,17.47,0,0,1,2.45,8.1,6.29,6.29,0,0,0-.78.19A29.73,29.73,0,0,1,124.1,269.29Zm8,5.62c-0.47.7-.93,1.43-1.41,2.19a42.64,42.64,0,0,1,1.43-9.42A33.64,33.64,0,0,0,132.1,274.9Z"/><polygon class="cls-1" points="1062.25 246.08 1062.25 297.52 1075.66 297.52 1075.66 247.76 1062.25 246.08"/><path class="cls-18" d="M1085.85,206.05l35.58,43.38h-37.78l2.67,8.69L1077,247.76l-3.34,3.34-11.37-5-6,12v-8.36h-48.15l34.14-44.92Z"/><polygon class="cls-19" points="1087.32 187.26 1111.73 225.05 1081.97 210.34 1072.28 229.73 1056.23 208.5 1030.82 214.35 1041.18 196.61 1023.46 212.68 1042.18 187.26 1087.32 187.26"/><path class="cls-20" d="M1080.47,150.12l22.24,43.13-15.38-5-29.57,8.4-9.21-9.07-23.41-.33,25.41-37.12A19.18,19.18,0,0,1,1080.47,150.12Z"/><polygon class="cls-21" points="1066.59 93.28 1094.35 154.47 1080.47 150.12 1071.27 152.46 1066.59 148.11 1050.54 154.47 1050.54 150.12 1037.5 152.46 1066.59 93.28"/><path class="cls-1" d="M1223.53,283.49a5.68,5.68,0,0,0-1.37,3.05v0.06a0.77,0.77,0,0,0,.67.87l6.48,0.82,0.46,0.06,1.29,0.16,0.68,0.09,7.45,0.94a0.77,0.77,0,0,0,.87-0.67v-0.06a5.74,5.74,0,0,0-1.12-4.18c1.51-2.92,4.67-6.53,11.31-8.7,0,0-7.63-.4-13,7.21a4.9,4.9,0,0,0-.87-0.42c1.41-3,4.54-6.89,11.56-9.17a15.28,15.28,0,0,0-9.51,3.47,25.27,25.27,0,0,1,12.25-8.75s-6.21-.36-15.74,9.82a21.68,21.68,0,0,1,1.16-9.08,22.72,22.72,0,0,1,6.73-7.46s-7.06,1.87-13.37,17.61a16.09,16.09,0,0,0-3.1-7.46,17.37,17.37,0,0,1,2.46-6.76s-1.87,1.42-3.11,6a10.58,10.58,0,0,0-1.5-1.47,25.48,25.48,0,0,1,1.29,2.29,37,37,0,0,0-.9,8.26,15.75,15.75,0,0,0-10.07-8.51C1221,275.52,1223,280.22,1223.53,283.49Zm2.67-10.32a17.47,17.47,0,0,1,1.42,8.34,6.29,6.29,0,0,0-.79.09A29.73,29.73,0,0,1,1226.2,273.17Zm7.23,6.57c-0.55.63-1.1,1.3-1.67,2a42.64,42.64,0,0,1,2.59-9.17A33.64,33.64,0,0,0,1233.43,279.75Z"/><path class="cls-1" d="M1187.38,273.27a5.68,5.68,0,0,0-1.37,3.05v0.06a0.77,0.77,0,0,0,.67.87l6.48,0.82,0.46,0.06,1.29,0.16,0.68,0.09,7.45,0.94a0.77,0.77,0,0,0,.87-0.67v-0.06a5.74,5.74,0,0,0-1.12-4.18c1.51-2.92,4.67-6.53,11.31-8.7,0,0-7.63-.4-13,7.21a4.9,4.9,0,0,0-.87-0.42c1.41-3,4.54-6.89,11.56-9.17a15.28,15.28,0,0,0-9.51,3.47,25.27,25.27,0,0,1,12.25-8.75s-6.21-.36-15.74,9.82a21.68,21.68,0,0,1,1.16-9.08,22.72,22.72,0,0,1,6.73-7.46s-7.06,1.87-13.37,17.61a16.09,16.09,0,0,0-3.1-7.46,17.37,17.37,0,0,1,2.46-6.76s-1.87,1.42-3.11,6a10.58,10.58,0,0,0-1.5-1.47,25.48,25.48,0,0,1,1.29,2.29,37,37,0,0,0-.9,8.26,15.75,15.75,0,0,0-10.07-8.51C1184.83,265.3,1186.84,270,1187.38,273.27Zm2.67-10.32a17.47,17.47,0,0,1,1.42,8.34,6.29,6.29,0,0,0-.79.09A29.73,29.73,0,0,1,1190.06,263Zm7.23,6.57c-0.55.63-1.1,1.3-1.67,2a42.64,42.64,0,0,1,2.59-9.17A33.64,33.64,0,0,0,1197.29,269.52Z"/></svg>